<?xml version="1.0" encoding="UTF-8"?>
<svg id="uuid-e472b9fc-7999-425f-bf60-f555aef4f0c7" data-name="圖層 2" xmlns="http://www.w3.org/2000/svg" viewBox="0 0 51.66 20">
  <defs>
    <style>
      .uuid-68103a6a-506e-4d54-885f-a4bdd85fe771 {
        fill-rule: evenodd;
      }
    </style>
  </defs>
  <g id="uuid-17f56554-89f0-44d7-bdd4-265c33f791d7" data-name="介面">
    <g>
      <g>
        <g>
          <path class="uuid-68103a6a-506e-4d54-885f-a4bdd85fe771" d="m27.05,2.89c.79-.1,1.6-.13,2.13-.4.48-.24.69-.74,1.03-.92l1.1.64c-.3.97-2.12.78-3.31.92-.42.05-.89.11-1.32.16,0,0-6.13.79-6.58.88-.95.18-1.7.37-2.39.72-.25-.18-.32-.56-.44-.88,1.48-.12,3.06-.35,4.6-.52.51-.06,4.59-.52,5.19-.6Z"/>
          <path class="uuid-68103a6a-506e-4d54-885f-a4bdd85fe771" d="m28.53,13.06c.79-.1,1.6-.13,2.13-.4.48-.24.69-.74,1.03-.92l1.1.64c-.3.97-2.12.78-3.31.92-.42.05-.89.11-1.32.16,0,0-6.93.79-7.38.88-.95.18-1.7.37-2.39.72-.25-.18-.32-.56-.44-.88,1.48-.12,3.06-.35,4.6-.52.51-.06,5.39-.52,5.98-.6Z"/>
          <path class="uuid-68103a6a-506e-4d54-885f-a4bdd85fe771" d="m26.59,7.87c.54-.07,1.1-.1,1.46-.3.33-.18.47-.56.71-.69l.76.48c-.2.73-1.45.59-2.27.69-.29.04-.61.08-.91.12,0,0-4.2.59-4.51.66-.65.14-1.17.28-1.64.54-.17-.14-.22-.42-.3-.66,1.01-.09,2.09-.26,3.15-.39.35-.04,3.15-.39,3.55-.45Z"/>
          <path d="m25.11,4.88c.02-.42.31-.55.48-.82-.35-.16-.71-.32-1.09-.46-.23.08-.47.51-.51.87v9.04c.22-.05.51-.17.77-.29.22-.1.52-.24.58-.39.05-.14-.03-.42-.04-.56-.1-1.77-.2-7.09-.19-7.39Z"/>
          <path class="uuid-68103a6a-506e-4d54-885f-a4bdd85fe771" d="m22.39.05s.03-.01.05-.02c1.22-.14,2.6.22,2.73,1.68-.18.17-.26.25-.71.21-.45-.04-1.22-1.48-2.07-1.87Z"/>
        </g>
        <g>
          <path class="uuid-68103a6a-506e-4d54-885f-a4bdd85fe771" d="m38.63,5.97s-.04,0-.07,0c-1.21.48-2.09,1.25-3.05,2.06-.31.26-.73.56-.87.98.33.13.67.27.73.61.36-.21.56-.59.83-.9.78-.92,1.5-1.88,2.4-2.69.03,0,.02-.04.03-.06Z"/>
          <path class="uuid-68103a6a-506e-4d54-885f-a4bdd85fe771" d="m47.03,1.29c.41-.25.59-.78.88-.96l.94.67c-.26,1.02-1.81.82-2.83.96-.36.05-.76.12-1.13.17,0,0-3.08.69-3.47.78-.81.19-1.46.39-2.04.75-.21-.19-.27-.59-.38-.92,1.68.04,7.57-1.17,8.02-1.45Z"/>
          <path class="uuid-68103a6a-506e-4d54-885f-a4bdd85fe771" d="m46.82,5.63c.32-.22.46-.69.69-.84l.74.59c-.2.89-1.41.86-2.21.98-.28.04-.59.1-.88.15,0,0-2.53.58-2.84.66-.63.17-1,.2-1.46.52-.17-.17-.35-.52-.43-.81,1.06.06,6.04-1,6.39-1.25Z"/>
          <path class="uuid-68103a6a-506e-4d54-885f-a4bdd85fe771" d="m47.31,13.21c.8-.1,1.64-.14,2.18-.42.49-.25.71-.78,1.05-.96l1.12.67c-.3,1.02-2.16.82-3.38.96-.43.05-.91.12-1.35.17"/>
          <path class="uuid-68103a6a-506e-4d54-885f-a4bdd85fe771" d="m39.29,14.48s.03,0,.08-.02c.05-.03,1.88-2.29,2.57-3.75.22-.46.65-1.19.61-1.76-.44.02-.85-.02-1.09-.39-.3.43-.47,1.37-.62,1.87-.44,1.48-1.53,3.94-1.55,3.96-.02.03-.01.08,0,.09Z"/>
          <path d="m47.67,9.16c.02-.5.29-.65.45-.97-.33-.19-.67-.37-1.03-.54-.21.1-.44.6-.48,1.03v5.07c.21-.05.48-.2.73-.34.21-.12.49-.28.54-.46.05-.17-.02-.4-.03-.57-.1-2.09-.2-2.87-.18-3.22Z"/>
          <path class="uuid-68103a6a-506e-4d54-885f-a4bdd85fe771" d="m33.85,3.01c1.47-.42,3.13-.75,4.36,1.17-.07.3-.38.28-.77.18-.36-.09-2.35-1.15-3.59-1.34Z"/>
          <path class="uuid-68103a6a-506e-4d54-885f-a4bdd85fe771" d="m38.77,9.08s-.02,0-.08.02c-.21.08-2.11,2.2-2.9,3.5-.1.17-.22.33-.33.51-.4-.22-.61-.26-.79-.25-.18.01-.31.14-.3.17,0,.03,1.33,1.43,1.45,1.48.12.05.26,0,.29-.02.27-.23.57-.91.74-1.32.55-1.35,1.87-3.96,1.89-4,.02-.04.03-.07.01-.08Z"/>
          <path class="uuid-68103a6a-506e-4d54-885f-a4bdd85fe771" d="m42.69,2.63c.4.26.83.48,1.36.6-.44,1.75-1.43,2.93-2.72,3.8.76-1.15,1.42-2.41,1.36-4.41Z"/>
          <path d="m43.97,1.6c.02-.5.31-.65.49-.97-.36-.19-.73-.37-1.11-.54-.23.1-.48.6-.52,1.03v1.3l1.15-.28c0-.29,0-.49,0-.54Z"/>
          <path d="m43.69,14.43c.21-.05.48-.2.73-.34.21-.12.49-.28.54-.46.05-.17-.02-.4-.03-.57-.06-1.19-.11-4.32-.15-4.82-.39-.1-.81-.3-1.09-.46v6.65Z"/>
        </g>
        <path class="uuid-68103a6a-506e-4d54-885f-a4bdd85fe771" d="m14.38,1.42c-.06.26-.31.3-.42.5.02.98.02,2.44.06,3.42,0,.17.05.32,0,.47-.04.13-.58.78-.73.82-.18.04-.37.03-.53,0-.67-.15-1.43.02-2.18-.1-.71-.11-1.42-.03-1.96-.32,1.08,0,2.04-.1,3.02-.05.63.03,1.27-.17,1.4-.86.09-.5.21-3.45-.39-3.67-.36-.13-1.46.12-1.93.19-.72.1-2.07.51-2.58.66-.09-.11-.13-.27-.17-.44,1-.09,2.9-.5,3.89-.66.35-.06.71-.04.98-.13.33-.11.5-.49.78-.6.31.19.53.49.75.78Z"/>
        <path class="uuid-68103a6a-506e-4d54-885f-a4bdd85fe771" d="m12.53,3.21c.01.25-.05.53-.11.7-.68.05-1.35.11-2.01.19-.66.08-1.55.15-1.66.17-.35.05-.43.24-.46.48v9.37c-.1.33-.82.43-1.12.6V1.36c0-.05.02-.08.06-.09.31.1.7.54.92.78.09.6-.16,1.81.25,1.82,1.27.04,2.92-.28,4.14-.66Z"/>
        <path class="uuid-68103a6a-506e-4d54-885f-a4bdd85fe771" d="m11.46,11.34s.03.02.05.02c1.15-.29,4.2-2.14,4.41-2.56-.26-.19-.45-.67-.42-1.03-.36.16-.74.63-1.04.9-.88.82-2.01,1.93-2.96,2.61-.03.02-.04.03-.04.06Z"/>
        <path class="uuid-68103a6a-506e-4d54-885f-a4bdd85fe771" d="m11.51,12.47s-.03-.03-.05-.03c-1.19.05-4.54,1.26-4.84,1.62.21.24.3.74.21,1.1.38-.08.86-.47,1.2-.68,1.03-.62,2.36-1.49,3.43-1.96.03-.02.04-.02.05-.05Z"/>
        <path class="uuid-68103a6a-506e-4d54-885f-a4bdd85fe771" d="m8.74,6.67s-.06-.02,0,.12c.42,1.04,5.02,7.45,6.58,8.65.43-.18.67-.39.84-1-2.56-2.54-7.32-7.7-7.42-7.77Z"/>
        <path class="uuid-68103a6a-506e-4d54-885f-a4bdd85fe771" d="m0,6.99s2.8-.99,5.62-3.31c.11-.09.34-.31.38-.61-.24-.32-.33-.81-.79-.85-.27.14-.17.26-.6.89-.43.62-1.65,1.58-4.62,3.89Z"/>
        <path class="uuid-68103a6a-506e-4d54-885f-a4bdd85fe771" d="m.87,10.97s.04.02.06.02c1.24-.26,2.23-.94,3.3-1.66.34-.23.8-.47,1.02-.93-.29-.23-.58-.47-.57-.88-.38.16-.65.55-.96.84-.93.88-1.8,1.83-2.81,2.54-.03,0-.03.04-.04.07Z"/>
        <path class="uuid-68103a6a-506e-4d54-885f-a4bdd85fe771" d="m.54,2.62s.55-.67.74-.95c.18-.07.97.71,1.27,1.07.3.36,1.09,1.75,1.09,1.75l-.74.4s-.25-.69-.52-1.11c-.17-.27-.48-.61-.72-.78-.49-.34-1.12-.38-1.12-.38Z"/>
        <path class="uuid-68103a6a-506e-4d54-885f-a4bdd85fe771" d="m3.04,5.02l.6-.53s2.12,3.78,1.98,5.7c-.17,2.51-1.65,4.97-2.26,4.98-.23.11-2.16-.95-2.84-.9,0,0,1.11-.85,1.23-.81.12.03,1.44.64,1.86.55,0,0,1.37-2.06,1.29-4.35-.07-2-1.87-4.64-1.87-4.64Z"/>
      </g>
      <g>
        <path d="m.68,19.97l-.04-.12c-.11-.39-.29-.99-.46-1.36l-.04-.08h.22s.06.06.07.09c.13.38.27.75.37,1.14.01.05.02.07.04.07s.03-.04.04-.08c.07-.21.37-.91.37-1.14,0-.03,0-.06-.01-.09h.3l-.04.08c-.23.41-.42.91-.59,1.36l-.05.13h-.19Z"/>
        <path d="m3,19.86h.28c.15,0,.31-.04.42-.14l-.04.22c-.07,0-.15.01-.23.01h-.7c.05-.08.06-.21.06-.32v-.92c0-.11,0-.24-.05-.32h.85v.19c-.08-.07-.21-.09-.35-.09h-.23v.58c.19,0,.39,0,.57-.02-.09.14-.36.14-.51.14h-.06v.66Z"/>
        <path d="m6,19.73c.07.1.1.13.2.23h-.2c-.1,0-.15-.06-.2-.13l-.3-.42c-.1-.15-.12-.19-.26-.2v.44c0,.11,0,.24.05.32h-.34c.07-.11.07-.23.07-.33v-.9c0-.11,0-.24-.05-.32.2,0,.4-.02.59-.02.25,0,.38.14.38.33,0,.22-.19.37-.36.44l.42.59Zm-.76-.63s.07,0,.11,0c.24,0,.37-.13.37-.36,0-.24-.14-.27-.36-.28h-.11s0,.08,0,.12v.51Z"/>
        <path d="m7.62,19.96c.05-.08.05-.21.05-.32v-.22c0-.17-.07-.33-.17-.53-.1-.2-.22-.39-.32-.48h.21c.09,0,.1.02.15.09.1.15.21.43.25.6,0,.04.02.07.04.07.01,0,.03-.04.06-.09l.17-.29c.06-.1.11-.22.11-.29,0-.04,0-.07-.04-.1h.31l-.28.43c-.17.26-.26.38-.26.7v.1c0,.11,0,.24.05.32h-.33Z"/>
        <path d="m12.91,18.41c-.06.09-.05.22-.05.35,0,.29-.01.6.02.89.01.11.02.22.08.32h-.36c.04-.12.04-.3.04-.44v-.81s0-.05-.02-.05-.02.02-.03.04l-.55,1.29-.46-1.2c-.03-.07-.04-.13-.07-.13s-.02.04-.02.08v.79c0,.19,0,.35.05.43h-.29l.02-.03c.09-.13.1-.51.1-.78v-.61c0-.07,0-.1-.06-.14h.3s.07,0,.08.04l.36,1.06s.02.08.04.08c.02,0,.03-.02.04-.06l.42-1.02c.02-.05.04-.1.1-.1h.25Z"/>
        <path d="m15.34,19.96l-.27-.68h-.55c-.1.21-.21.45-.21.59,0,.03,0,.06,0,.09h-.3l.05-.07c.14-.18.64-1.22.64-1.42v-.07h.29c.16.49.31,1.01.56,1.46l.05.09h-.26Zm-.48-1.3s-.02-.06-.04-.06-.04.05-.04.06l-.21.52h.47l-.17-.52Z"/>
        <path d="m16.87,18.73c0-.11,0-.24-.05-.32h.33c-.05.08-.05.21-.05.32v.92c0,.11,0,.24.05.32h-.33c.05-.08.05-.21.05-.32v-.92Z"/>
        <path d="m18.46,19.96c.09-.2.09-.5.09-.71v-.52c0-.12,0-.25-.08-.32h.25s.07,0,.1.04c.05.07.21.33.28.44l.48.68s.04.06.05.06c.02,0,.02-.02.02-.05v-.86c0-.17-.02-.25-.06-.31h.25c-.06.11-.07.24-.07.36v.98c0,.08,0,.15,0,.23h-.17l-.89-1.27s-.02-.03-.03-.03-.01.01-.01.04v.63c0,.2,0,.44.07.62h-.28Z"/>
        <path d="m21.08,19.66c.07.1.18.25.43.25.19,0,.32-.11.32-.3,0-.41-.7-.36-.7-.81,0-.28.23-.42.49-.42.13,0,.25.01.38.01v.23c-.11-.11-.18-.14-.34-.14s-.3.09-.3.27c0,.38.7.33.7.79,0,.3-.29.47-.57.47-.12,0-.31-.04-.42-.09v-.26Z"/>
        <path d="m23.72,19.96c.05-.08.05-.21.05-.32v-1.11h-.32c-.06,0-.11,0-.17.05l.05-.18h1.23c-.04.1-.19.12-.29.12h-.27v1.11c0,.11,0,.24.05.32h-.33Z"/>
        <path d="m26.8,19.73c.07.1.1.13.2.23h-.2c-.1,0-.15-.06-.2-.13l-.3-.42c-.1-.15-.12-.19-.26-.2v.44c0,.11,0,.24.05.32h-.34c.07-.11.07-.23.07-.33v-.9c0-.11,0-.24-.05-.32.2,0,.4-.02.59-.02.25,0,.38.14.38.33,0,.22-.19.37-.36.44l.42.59Zm-.76-.63s.07,0,.11,0c.24,0,.37-.13.37-.36,0-.24-.14-.27-.36-.28h-.11s0,.08,0,.12v.51Z"/>
        <path d="m28.43,19.86h.28c.15,0,.31-.04.42-.14l-.04.22c-.07,0-.15.01-.23.01h-.7c.05-.08.06-.21.06-.32v-.92c0-.11,0-.24-.05-.32h.85v.19c-.08-.07-.21-.09-.35-.09h-.23v.58c.19,0,.39,0,.57-.02-.09.14-.36.14-.51.14h-.06v.66Z"/>
        <path d="m31.51,19.96l-.27-.68h-.55c-.1.21-.21.45-.21.59,0,.03,0,.06,0,.09h-.3l.05-.07c.14-.18.64-1.22.64-1.42v-.07h.29c.16.49.31,1.01.56,1.46l.05.09h-.26Zm-.48-1.3s-.02-.06-.04-.06-.04.05-.04.06l-.21.52h.47l-.17-.52Z"/>
        <path d="m34.57,18.41c-.06.09-.05.22-.05.35,0,.29-.01.6.02.89.01.11.02.22.08.32h-.36c.04-.12.04-.3.04-.44v-.81s0-.05-.02-.05-.02.02-.03.04l-.55,1.29-.46-1.2c-.03-.07-.04-.13-.07-.13s-.02.04-.02.08v.79c0,.19,0,.35.05.43h-.29l.02-.03c.09-.13.1-.51.1-.78v-.61c0-.07,0-.1-.06-.14h.3s.07,0,.08.04l.36,1.06s.02.08.04.08c.02,0,.03-.02.04-.06l.42-1.02c.02-.05.04-.1.1-.1h.25Z"/>
        <path d="m37.53,19.66c.07.1.18.25.43.25.19,0,.32-.11.32-.3,0-.41-.7-.36-.7-.81,0-.28.23-.42.49-.42.13,0,.25.01.38.01v.23c-.11-.11-.18-.14-.34-.14s-.3.09-.3.27c0,.38.7.33.7.79,0,.3-.3.47-.57.47-.12,0-.31-.04-.42-.09v-.26Z"/>
        <path d="m40.17,19.96c.05-.08.05-.21.05-.32v-1.11h-.32c-.06,0-.11,0-.17.05l.05-.18h1.23c-.04.1-.19.12-.29.12h-.27v1.11c0,.11,0,.24.05.32h-.33Z"/>
        <path d="m43.54,18.41c-.05.09-.05.21-.05.32v.92c0,.11,0,.24.05.32h-.29s0-.15,0-.15c0,0,0,0-.01,0,0,0-.01.01-.03.03-.1.08-.24.17-.47.17-.28,0-.47-.11-.48-.41v-.86c0-.11,0-.24-.05-.32h.33c-.05.09-.05.21-.05.32v.71c0,.26.11.42.39.42s.37-.18.38-.47c0-.09,0-.19,0-.28v-.38c0-.11,0-.24-.05-.32h.33Z"/>
        <path d="m44.88,18.73c0-.11,0-.24-.05-.32.25,0,.49-.02.74-.02.41,0,.68.31.68.74,0,.54-.38.85-.84.85-.25,0-.42,0-.59,0,.05-.08.05-.21.05-.32v-.92Zm.22.96c0,.18.05.19.31.19.43,0,.59-.31.59-.71,0-.42-.23-.69-.67-.69-.09,0-.18,0-.23.02,0,.04,0,.08,0,.11v1.07Z"/>
        <path d="m47.69,18.73c0-.11,0-.24-.05-.32h.33c-.05.08-.05.21-.05.32v.92c0,.11,0,.24.05.32h-.33c.05-.08.05-.21.05-.32v-.92Z"/>
        <path d="m50.01,20c-.51,0-.74-.35-.74-.78,0-.46.27-.85.78-.85s.74.35.74.78c0,.46-.27.85-.78.85Zm.02-1.53c-.35,0-.5.32-.5.67,0,.32.11.75.5.75.35,0,.5-.32.5-.67,0-.32-.11-.75-.5-.75Z"/>
      </g>
    </g>
  </g>
</svg>