<?xml version="1.0" encoding="UTF-8"?>
<svg id="uuid-4697ff4e-74d0-456e-8fe1-38239273ec82" data-name="圖層 2" xmlns="http://www.w3.org/2000/svg" viewBox="0 0 72.86 20">
  <g id="uuid-8b2be75e-f185-49eb-9078-a9786c4570dc" data-name="介面">
    <g>
      <g>
        <rect x="9.28" y="17.04" width=".5" height=".5"/>
        <rect x="8.77" y="17.04" width=".5" height=".5"/>
        <path d="m5.89,0v2.45h-2.94v2.45H0v15.09h10.94v-2.45h-1.01v1.44H1.01V5.92h1.94v11.63h10.94v-2.45h2.95V0H5.89Zm9.93,14.08H6.9V1.01h8.92v13.08Zm-5.39,2.45H3.95V3.46h1.94v11.63h6.98v1.44h-2.44Z"/>
      </g>
      <g>
        <path d="m26.71,10.46l-2.01,3.72v2.36h-1.26v-2.36l-2.01-3.72h1.39l.92,1.89.33.85.35-.85.94-1.89h1.36Z"/>
        <path d="m32.35,15.47v1.07h-4.51v-6.08h4.42v1.07h-3.16v1.31h2.84v1.08h-2.84v1.55h3.24Z"/>
        <path d="m38.57,10.46v6.08h-1.24l-2.41-3.9v3.9h-1.26v-6.08h1.24l2.41,3.9v-3.9h1.26Z"/>
        <path d="m45.23,13.5c0,1.86-.86,3.04-2.71,3.04h-2.41v-6.08h2.24c2.02,0,2.88,1.14,2.88,3.04Zm-1.26,0c0-1.4-.4-2.01-1.78-2.01h-.81v3.99h.98c1.21,0,1.61-.61,1.61-1.97Z"/>
        <path d="m50.99,15.47v1.07h-4.51v-6.08h4.42v1.07h-3.16v1.31h2.84v1.08h-2.84v1.55h3.24Z"/>
        <path d="m52.09,14.65h1.24c.03.67.53,1.05,1.33,1.05.69,0,1.12-.28,1.12-.76,0-.44-.35-.6-.93-.74l-1.12-.28c-.95-.24-1.49-.84-1.49-1.69,0-.97.71-1.9,2.27-1.9,1.47,0,2.4.8,2.48,2h-1.23c-.08-.61-.57-.96-1.24-.96s-1.01.32-1.01.73c0,.33.24.56.71.68l1.21.3c.95.23,1.66.73,1.66,1.75,0,1.18-.91,1.91-2.42,1.91s-2.54-.77-2.58-2.08Z"/>
        <path d="m58.39,10.46h1.26v6.08h-1.26v-6.08Z"/>
        <path d="m66.42,16.54h-.82l-.2-.66c-.31.46-.89.79-1.7.79-1.54,0-2.77-1.2-2.77-3.17s1.21-3.17,2.83-3.17c1.5,0,2.4.78,2.6,2.05l-1.24.08c-.12-.63-.56-1.04-1.3-1.04-1.06,0-1.64.85-1.64,2.08s.59,2.14,1.64,2.14c.75,0,1.36-.44,1.49-1.33h-1.44v-1.06h2.53v3.29Z"/>
        <path d="m72.86,10.46v6.08h-1.24l-2.41-3.9v3.9h-1.26v-6.08h1.24l2.41,3.9v-3.9h1.26Z"/>
      </g>
    </g>
  </g>
</svg>