<?xml version="1.0" encoding="UTF-8"?>
<svg id="uuid-6ea9be6d-d4a8-49f6-96a0-5b7fa4ac3d25" data-name="圖層 2" xmlns="http://www.w3.org/2000/svg" viewBox="0 0 202.74 20">
  <defs>
    <style>
      .uuid-e1fa019c-04f7-4a5b-bc15-dd4d251a4c8b {
        fill: #040000;
      }
    </style>
  </defs>
  <g id="uuid-3b0023d3-c3e9-4dd1-95a2-81ccefe9f37b" data-name="介面">
    <g>
      <g>
        <g>
          <polygon points="4 0 0 0 0 4 0 8 0 12 0 16 0 20 4 20 4 16 4 12 4 8 4 4 8 4 8 8 8 12 8 16 8 20 12 20 12 16 12 12 12 8 12 4 12 0 8 0 4 0"/>
          <polygon points="21.68 0 17.68 0 17.68 4 21.68 4 21.68 8 21.68 12 21.68 16 25.68 16 25.68 12 25.68 8 25.68 4 29.68 4 29.68 0 25.68 0 21.68 0"/>
          <polygon points="63.08 2.83 60.25 0 57.42 2.83 54.59 5.66 51.76 8.49 54.59 11.31 57.42 8.49 60.25 5.66 63.08 8.49 65.91 11.31 68.73 8.49 65.91 5.66 63.08 2.83"/>
          <polygon points="39.35 0 35.35 0 35.35 4 35.35 8 35.35 12 39.35 12 43.35 12 47.35 12 47.35 8 43.35 8 39.35 8 39.35 4 43.35 4 47.35 4 47.35 0 43.35 0 39.35 0"/>
          <polygon points="85.18 2.83 82.35 0 79.52 2.83 76.69 0 73.86 2.83 71.03 5.66 73.86 8.49 76.69 5.66 79.52 8.49 82.35 5.66 85.18 8.49 88 5.66 85.18 2.83"/>
        </g>
        <g>
          <polygon points="190.69 1.23 190.69 2.87 193.42 1.64 195.83 2.54 195.83 .9 193.42 0 190.69 1.23"/>
          <path d="m194.27,3.11v-.55h-1.7v.55h-1.44v9.17h4.57l-.26-3.03h-1.64l.15,1.8h-.97v-2.21h2.72V3.11h-1.44Zm-.32,1.23v1.02h-.97v-1.02h.97Zm-.97,3.27v-1.02h.97v1.02h-.97Z"/>
          <path d="m200.57,7.69h-1.63v-.82h3.52v-3.76h-5.7v9.17h5.87v-4.58h-2.06Zm-.17-3.36v1.31h-1.46v-1.31h1.46Zm-1.46,6.71v-2.13h1.63v2.13h-1.63Z"/>
          <polygon points="200.64 .57 200.64 0 198.58 0 198.58 .57 196.47 .57 196.47 1.73 196.47 1.8 196.47 2.54 198.48 2.54 198.48 1.8 200.73 1.8 200.73 2.54 202.74 2.54 202.74 1.8 202.74 1.73 202.74 .57 200.64 .57"/>
        </g>
        <polygon points="165.7 8.59 165.7 7.36 160.98 7.36 160.98 6.14 165.48 6.14 165.48 4.91 160.98 4.91 160.98 4.09 165.1 4.09 165.1 2.86 160.98 2.86 160.98 2.05 165.53 2.05 165.53 .82 163.72 .82 163.87 0 161.26 0 161.1 .82 158.14 .82 157.98 0 155.37 0 155.52 .82 153.71 .82 153.71 2.05 158.26 2.05 158.26 2.86 154.14 2.86 154.14 4.09 158.26 4.09 158.26 4.91 153.76 4.91 153.76 6.14 158.26 6.14 158.26 7.36 153.54 7.36 153.54 8.59 157.24 8.59 153.52 12.28 156.57 12.28 159.62 9.26 162.67 12.28 165.72 12.28 162 8.59 165.7 8.59"/>
        <polygon points="142.46 0 139.66 0 139.66 .82 134.96 .82 134.96 2.05 139.66 2.05 139.66 3.27 135.41 3.27 135.41 4.24 135.41 4.5 135.41 11.31 137.99 11.31 137.99 4.5 139.66 4.5 139.66 12.28 142.46 12.28 142.46 4.5 144.12 4.5 144.12 11.31 146.71 11.31 146.71 4.5 146.71 4.24 146.71 3.27 142.46 3.27 142.46 2.05 147.16 2.05 147.16 .82 142.46 .82 142.46 0"/>
        <g>
          <polygon points="119.09 2.62 116.34 2.62 116.34 3.85 119.09 3.85 119.09 10.09 116.34 10.88 116.34 12.28 119.09 11.49 119.09 12.28 121.6 12.28 121.6 0 119.09 0 119.09 2.62"/>
          <polygon points="125.85 4.26 128.53 3.77 128.53 2.38 125.85 2.87 125.85 0 123.34 0 123.34 12.28 125.02 12.28 125.85 12.28 128.6 12.28 128.6 11.05 125.85 11.05 125.85 4.26"/>
        </g>
        <g>
          <path d="m103.48,1.72h.51V.49h-1.91v-.49h-2.4v.49h-1.91v1.23h.51v1.55h-.55v1.23h2.18v1.22h-2.18v1.23h1.75l-1.76,4.16h1.74l.46-1.08v2.24h2.4v-2.89l1.55.93v-1.55l-1.55-.93v-.88h1.74v-1.23h-1.74v-1.22h1.74v-1.23h-.58v-1.55Zm-3.23,0h1.27v1.55h-1.27v-1.55Z"/>
          <polygon points="104.13 11.78 106.27 11.78 106.59 4.5 107.17 4.5 107.17 12.28 109.46 12.28 109.46 4.5 109.98 4.5 109.98 3.27 106.64 3.27 106.71 1.73 109.98 1.23 109.98 0 104.61 .82 104.13 11.78"/>
        </g>
        <g>
          <rect x="181.2" y=".34" width="3.14" height="1.23"/>
          <polygon points="175.28 0 172.89 0 172.08 3.07 174.48 3.07 175.28 0"/>
          <polygon points="181.2 4.34 181.88 4.34 181.88 12.28 183.82 12.28 183.82 4.34 184.34 4.34 184.34 3.11 181.2 3.11 181.2 4.34"/>
          <polygon points="173.13 3.66 172.08 8.27 172.84 8.27 172.84 12.28 174.78 12.28 174.78 5.98 175.31 3.66 173.13 3.66"/>
          <polygon points="179.13 0 177.29 0 177.29 2.05 175.48 2.05 175.48 3.27 177.29 3.27 177.29 12.28 179.13 12.28 179.13 3.27 180.94 3.27 180.94 2.05 179.13 2.05 179.13 0"/>
          <rect x="175.57" y="4.9" width="1.2" height="6.4"/>
          <rect x="179.65" y="4.9" width="1.2" height="6.4"/>
          <rect x="179.69" width="1.02" height="1.57"/>
        </g>
        <g>
          <g>
            <polygon points="147.53 16.42 146.48 16.42 146.48 17.09 147.53 17.09 147.53 20 148.19 20 148.19 17.09 149.24 17.09 149.24 16.42 148.19 16.42 147.53 16.42"/>
            <polygon points="139.73 16.42 139.73 17.09 139.73 19.33 139.73 20 140.4 20 142.2 20 142.2 19.33 140.4 19.33 140.4 17.09 142.2 17.09 142.2 16.42 140.4 16.42 139.73 16.42"/>
            <rect x="144.01" y="16.42" width=".67" height="3.58"/>
            <polygon points="151.85 17.76 151.14 16.42 150.41 16.42 151.53 18.37 151.53 20 152.18 20 152.18 18.37 153.31 16.42 152.58 16.42 151.85 17.76"/>
          </g>
          <g>
            <polygon points="182.52 19.33 181.42 19.33 181.42 16.42 180.75 16.42 180.75 19.33 180.75 20 181.42 20 182.52 20 183.18 20 183.18 19.33 183.18 16.42 182.52 16.42 182.52 19.33"/>
            <polygon points="196.51 19.33 195.41 19.33 195.41 16.42 194.74 16.42 194.74 19.33 194.74 20 195.41 20 196.51 20 197.17 20 197.17 19.33 197.17 16.42 196.51 16.42 196.51 19.33"/>
            <polygon points="185.41 16.42 185.41 17.09 185.41 17.88 185.41 18.43 185.41 18.54 187.18 18.54 187.18 19.33 185.41 19.33 185.41 20 187.85 20 187.85 19.89 187.85 19.33 187.85 18.54 187.85 17.88 187.18 17.88 186.08 17.88 186.08 17.09 187.85 17.09 187.85 16.42 186.08 16.42 185.41 16.42"/>
            <polygon points="176.86 18.51 175.85 16.42 175.19 16.42 175.19 20 175.84 20 175.84 17.83 176.61 19.39 177.11 19.39 177.86 17.79 177.86 20 178.52 20 178.52 16.42 177.86 16.42 176.86 18.51"/>
            <polygon points="202.08 16.42 201.08 18.51 200.07 16.42 199.41 16.42 199.41 20 200.06 20 200.06 17.83 200.83 19.39 201.33 19.39 202.08 17.79 202.08 20 202.74 20 202.74 16.42 202.08 16.42"/>
            <polygon points="190.08 16.42 190.08 17.09 190.08 17.88 190.08 18.54 190.08 19.33 190.08 20 190.74 20 192.51 20 192.51 19.33 190.74 19.33 190.74 18.54 192.51 18.54 192.51 17.88 190.74 17.88 190.74 17.09 192.51 17.09 192.51 16.42 190.74 16.42 190.08 16.42"/>
          </g>
          <g>
            <polygon points="129.91 16.42 129.91 17.09 129.91 17.88 129.91 18.54 129.91 19.33 129.91 20 130.57 20 132.34 20 132.34 19.33 130.57 19.33 130.57 18.54 132.34 18.54 132.34 17.88 130.57 17.88 130.57 17.09 132.34 17.09 132.34 16.42 130.57 16.42 129.91 16.42"/>
            <rect x="123.11" y="16.42" width=".67" height="3.58"/>
            <polygon points="115.98 16.42 114.94 16.42 114.94 17.09 115.98 17.09 115.98 20 116.65 20 116.65 17.09 117.69 17.09 117.69 16.42 116.65 16.42 115.98 16.42"/>
            <rect x="134.22" y="16.42" width=".67" height="3.58"/>
            <path d="m126.21,16.42h-.67v3.58h.67v-1.23h2.01v-2.35h-2.01Zm1.34,1.68h-1.34v-1.02h1.34v1.02Z"/>
            <path d="m119.71,16.42l-1.29,3.58h.68l.22-.65h1.44l.23.65h.69l-1.33-3.58h-.64Zm-.18,2.32l.49-1.46.52,1.46h-1.01Z"/>
          </g>
          <g>
            <polygon points="108.83 18.95 108.23 16.68 107.6 16.68 106.98 18.94 106.38 16.42 105.69 16.42 106.63 20 107.26 20 107.91 17.75 108.53 20 109.17 20 110.09 16.42 109.41 16.42 108.83 18.95"/>
            <polygon points="99.74 16.42 98.4 16.42 97.73 16.42 97.73 17.09 97.73 20 98.4 20 98.4 17.09 99.74 17.09 99.74 20 100.4 20 100.4 16.42 100.4 16.42 99.74 16.42"/>
            <polygon points="102.11 16.42 102.11 17.09 102.11 17.88 102.11 18.54 102.11 19.33 102.11 20 102.78 20 104.54 20 104.54 19.33 102.78 19.33 102.78 18.54 104.54 18.54 104.54 17.88 102.78 17.88 102.78 17.09 104.54 17.09 104.54 16.42 102.78 16.42 102.11 16.42"/>
          </g>
          <g>
            <path d="m159.45,16.42l-1.29,3.58h.68l.22-.65h1.44l.23.65h.69l-1.33-3.58h-.64Zm-.18,2.32l.49-1.46.52,1.46h-1.01Z"/>
            <polygon points="167.58 17.04 168.63 17.04 168.63 20 169.29 20 169.29 17.04 170.34 17.04 170.34 16.42 167.58 16.42 167.58 17.04"/>
            <path d="m165.17,16.42h-2.01v3.58h.67v-1.48h.53l.81,1.48h.67l-.81-1.48h.81v-2.1h-.67Zm-1.34,1.43v-.77h1.34v.77h-1.34Z"/>
          </g>
        </g>
      </g>
      <g>
        <g>
          <polygon class="uuid-e1fa019c-04f7-4a5b-bc15-dd4d251a4c8b" points="4 0 0 0 0 4 0 8 0 12 0 16 0 20 4 20 4 16 4 12 4 8 4 4 8 4 8 8 8 12 8 16 8 20 12 20 12 16 12 12 12 8 12 4 12 0 8 0 4 0"/>
          <polygon class="uuid-e1fa019c-04f7-4a5b-bc15-dd4d251a4c8b" points="21.68 0 17.68 0 17.68 4 21.68 4 21.68 8 21.68 12 21.68 16 25.68 16 25.68 12 25.68 8 25.68 4 29.68 4 29.68 0 25.68 0 21.68 0"/>
          <polygon class="uuid-e1fa019c-04f7-4a5b-bc15-dd4d251a4c8b" points="63.08 2.83 60.25 0 57.42 2.83 54.59 5.66 51.76 8.49 54.59 11.31 57.42 8.49 60.25 5.66 63.08 8.49 65.91 11.31 68.73 8.49 65.91 5.66 63.08 2.83"/>
          <polygon class="uuid-e1fa019c-04f7-4a5b-bc15-dd4d251a4c8b" points="39.35 0 35.35 0 35.35 4 35.35 8 35.35 12 39.35 12 43.35 12 47.35 12 47.35 8 43.35 8 39.35 8 39.35 4 43.35 4 47.35 4 47.35 0 43.35 0 39.35 0"/>
          <polygon class="uuid-e1fa019c-04f7-4a5b-bc15-dd4d251a4c8b" points="85.18 2.83 82.35 0 79.52 2.83 76.69 0 73.86 2.83 71.03 5.66 73.86 8.49 76.69 5.66 79.52 8.49 82.35 5.66 85.18 8.49 88 5.66 85.18 2.83"/>
        </g>
        <g>
          <polygon class="uuid-e1fa019c-04f7-4a5b-bc15-dd4d251a4c8b" points="190.69 1.23 190.69 2.87 193.42 1.64 195.83 2.54 195.83 .9 193.42 0 190.69 1.23"/>
          <path class="uuid-e1fa019c-04f7-4a5b-bc15-dd4d251a4c8b" d="m194.27,3.11v-.55h-1.7v.55h-1.44v9.17h4.57l-.26-3.03h-1.64l.15,1.8h-.97v-2.21h2.72V3.11h-1.44Zm-.32,1.23v1.02h-.97v-1.02h.97Zm-.97,3.27v-1.02h.97v1.02h-.97Z"/>
          <path class="uuid-e1fa019c-04f7-4a5b-bc15-dd4d251a4c8b" d="m200.57,7.69h-1.63v-.82h3.52v-3.76h-5.7v9.17h5.87v-4.58h-2.06Zm-.17-3.36v1.31h-1.46v-1.31h1.46Zm-1.46,6.71v-2.13h1.63v2.13h-1.63Z"/>
          <polygon class="uuid-e1fa019c-04f7-4a5b-bc15-dd4d251a4c8b" points="200.64 .57 200.64 0 198.58 0 198.58 .57 196.47 .57 196.47 1.73 196.47 1.8 196.47 2.54 198.48 2.54 198.48 1.8 200.73 1.8 200.73 2.54 202.74 2.54 202.74 1.8 202.74 1.73 202.74 .57 200.64 .57"/>
        </g>
        <polygon class="uuid-e1fa019c-04f7-4a5b-bc15-dd4d251a4c8b" points="165.7 8.59 165.7 7.36 160.98 7.36 160.98 6.14 165.48 6.14 165.48 4.91 160.98 4.91 160.98 4.09 165.1 4.09 165.1 2.86 160.98 2.86 160.98 2.05 165.53 2.05 165.53 .82 163.72 .82 163.87 0 161.26 0 161.1 .82 158.14 .82 157.98 0 155.37 0 155.52 .82 153.71 .82 153.71 2.05 158.26 2.05 158.26 2.86 154.14 2.86 154.14 4.09 158.26 4.09 158.26 4.91 153.76 4.91 153.76 6.14 158.26 6.14 158.26 7.36 153.54 7.36 153.54 8.59 157.24 8.59 153.52 12.28 156.57 12.28 159.62 9.26 162.67 12.28 165.72 12.28 162 8.59 165.7 8.59"/>
        <polygon class="uuid-e1fa019c-04f7-4a5b-bc15-dd4d251a4c8b" points="142.46 0 139.66 0 139.66 .82 134.96 .82 134.96 2.05 139.66 2.05 139.66 3.27 135.41 3.27 135.41 4.24 135.41 4.5 135.41 11.31 137.99 11.31 137.99 4.5 139.66 4.5 139.66 12.28 142.46 12.28 142.46 4.5 144.12 4.5 144.12 11.31 146.71 11.31 146.71 4.5 146.71 4.24 146.71 3.27 142.46 3.27 142.46 2.05 147.16 2.05 147.16 .82 142.46 .82 142.46 0"/>
        <g>
          <polygon class="uuid-e1fa019c-04f7-4a5b-bc15-dd4d251a4c8b" points="119.09 2.62 116.34 2.62 116.34 3.85 119.09 3.85 119.09 10.09 116.34 10.88 116.34 12.28 119.09 11.49 119.09 12.28 121.6 12.28 121.6 0 119.09 0 119.09 2.62"/>
          <polygon class="uuid-e1fa019c-04f7-4a5b-bc15-dd4d251a4c8b" points="125.85 4.26 128.53 3.77 128.53 2.38 125.85 2.87 125.85 0 123.34 0 123.34 12.28 125.02 12.28 125.85 12.28 128.6 12.28 128.6 11.05 125.85 11.05 125.85 4.26"/>
        </g>
        <g>
          <path class="uuid-e1fa019c-04f7-4a5b-bc15-dd4d251a4c8b" d="m103.48,1.72h.51V.49h-1.91v-.49h-2.4v.49h-1.91v1.23h.51v1.55h-.55v1.23h2.18v1.22h-2.18v1.23h1.75l-1.76,4.16h1.74l.46-1.08v2.24h2.4v-2.89l1.55.93v-1.55l-1.55-.93v-.88h1.74v-1.23h-1.74v-1.22h1.74v-1.23h-.58v-1.55Zm-3.23,0h1.27v1.55h-1.27v-1.55Z"/>
          <polygon class="uuid-e1fa019c-04f7-4a5b-bc15-dd4d251a4c8b" points="104.13 11.78 106.27 11.78 106.59 4.5 107.17 4.5 107.17 12.28 109.46 12.28 109.46 4.5 109.98 4.5 109.98 3.27 106.64 3.27 106.71 1.73 109.98 1.23 109.98 0 104.61 .82 104.13 11.78"/>
        </g>
        <g>
          <rect class="uuid-e1fa019c-04f7-4a5b-bc15-dd4d251a4c8b" x="181.2" y=".34" width="3.14" height="1.23"/>
          <polygon class="uuid-e1fa019c-04f7-4a5b-bc15-dd4d251a4c8b" points="175.28 0 172.89 0 172.08 3.07 174.48 3.07 175.28 0"/>
          <polygon class="uuid-e1fa019c-04f7-4a5b-bc15-dd4d251a4c8b" points="181.2 4.34 181.88 4.34 181.88 12.28 183.82 12.28 183.82 4.34 184.34 4.34 184.34 3.11 181.2 3.11 181.2 4.34"/>
          <polygon class="uuid-e1fa019c-04f7-4a5b-bc15-dd4d251a4c8b" points="173.13 3.66 172.08 8.27 172.84 8.27 172.84 12.28 174.78 12.28 174.78 5.98 175.31 3.66 173.13 3.66"/>
          <polygon class="uuid-e1fa019c-04f7-4a5b-bc15-dd4d251a4c8b" points="179.13 0 177.29 0 177.29 2.05 175.48 2.05 175.48 3.27 177.29 3.27 177.29 12.28 179.13 12.28 179.13 3.27 180.94 3.27 180.94 2.05 179.13 2.05 179.13 0"/>
          <rect class="uuid-e1fa019c-04f7-4a5b-bc15-dd4d251a4c8b" x="175.57" y="4.9" width="1.2" height="6.4"/>
          <rect class="uuid-e1fa019c-04f7-4a5b-bc15-dd4d251a4c8b" x="179.65" y="4.9" width="1.2" height="6.4"/>
          <rect class="uuid-e1fa019c-04f7-4a5b-bc15-dd4d251a4c8b" x="179.69" width="1.02" height="1.57"/>
        </g>
        <g>
          <g>
            <polygon class="uuid-e1fa019c-04f7-4a5b-bc15-dd4d251a4c8b" points="147.53 16.42 146.48 16.42 146.48 17.09 147.53 17.09 147.53 20 148.19 20 148.19 17.09 149.24 17.09 149.24 16.42 148.19 16.42 147.53 16.42"/>
            <polygon class="uuid-e1fa019c-04f7-4a5b-bc15-dd4d251a4c8b" points="139.73 16.42 139.73 17.09 139.73 19.33 139.73 20 140.4 20 142.2 20 142.2 19.33 140.4 19.33 140.4 17.09 142.2 17.09 142.2 16.42 140.4 16.42 139.73 16.42"/>
            <rect class="uuid-e1fa019c-04f7-4a5b-bc15-dd4d251a4c8b" x="144.01" y="16.42" width=".67" height="3.58"/>
            <polygon class="uuid-e1fa019c-04f7-4a5b-bc15-dd4d251a4c8b" points="151.85 17.76 151.14 16.42 150.41 16.42 151.53 18.37 151.53 20 152.18 20 152.18 18.37 153.31 16.42 152.58 16.42 151.85 17.76"/>
          </g>
          <g>
            <polygon class="uuid-e1fa019c-04f7-4a5b-bc15-dd4d251a4c8b" points="182.52 19.33 181.42 19.33 181.42 16.42 180.75 16.42 180.75 19.33 180.75 20 181.42 20 182.52 20 183.18 20 183.18 19.33 183.18 16.42 182.52 16.42 182.52 19.33"/>
            <polygon class="uuid-e1fa019c-04f7-4a5b-bc15-dd4d251a4c8b" points="196.51 19.33 195.41 19.33 195.41 16.42 194.74 16.42 194.74 19.33 194.74 20 195.41 20 196.51 20 197.17 20 197.17 19.33 197.17 16.42 196.51 16.42 196.51 19.33"/>
            <polygon class="uuid-e1fa019c-04f7-4a5b-bc15-dd4d251a4c8b" points="185.41 16.42 185.41 17.09 185.41 17.88 185.41 18.43 185.41 18.54 187.18 18.54 187.18 19.33 185.41 19.33 185.41 20 187.85 20 187.85 19.89 187.85 19.33 187.85 18.54 187.85 17.88 187.18 17.88 186.08 17.88 186.08 17.09 187.85 17.09 187.85 16.42 186.08 16.42 185.41 16.42"/>
            <polygon class="uuid-e1fa019c-04f7-4a5b-bc15-dd4d251a4c8b" points="176.86 18.51 175.85 16.42 175.19 16.42 175.19 20 175.84 20 175.84 17.83 176.61 19.39 177.11 19.39 177.86 17.79 177.86 20 178.52 20 178.52 16.42 177.86 16.42 176.86 18.51"/>
            <polygon class="uuid-e1fa019c-04f7-4a5b-bc15-dd4d251a4c8b" points="202.08 16.42 201.08 18.51 200.07 16.42 199.41 16.42 199.41 20 200.06 20 200.06 17.83 200.83 19.39 201.33 19.39 202.08 17.79 202.08 20 202.74 20 202.74 16.42 202.08 16.42"/>
            <polygon class="uuid-e1fa019c-04f7-4a5b-bc15-dd4d251a4c8b" points="190.08 16.42 190.08 17.09 190.08 17.88 190.08 18.54 190.08 19.33 190.08 20 190.74 20 192.51 20 192.51 19.33 190.74 19.33 190.74 18.54 192.51 18.54 192.51 17.88 190.74 17.88 190.74 17.09 192.51 17.09 192.51 16.42 190.74 16.42 190.08 16.42"/>
          </g>
          <g>
            <polygon class="uuid-e1fa019c-04f7-4a5b-bc15-dd4d251a4c8b" points="129.91 16.42 129.91 17.09 129.91 17.88 129.91 18.54 129.91 19.33 129.91 20 130.57 20 132.34 20 132.34 19.33 130.57 19.33 130.57 18.54 132.34 18.54 132.34 17.88 130.57 17.88 130.57 17.09 132.34 17.09 132.34 16.42 130.57 16.42 129.91 16.42"/>
            <rect class="uuid-e1fa019c-04f7-4a5b-bc15-dd4d251a4c8b" x="123.11" y="16.42" width=".67" height="3.58"/>
            <polygon class="uuid-e1fa019c-04f7-4a5b-bc15-dd4d251a4c8b" points="115.98 16.42 114.94 16.42 114.94 17.09 115.98 17.09 115.98 20 116.65 20 116.65 17.09 117.69 17.09 117.69 16.42 116.65 16.42 115.98 16.42"/>
            <rect class="uuid-e1fa019c-04f7-4a5b-bc15-dd4d251a4c8b" x="134.22" y="16.42" width=".67" height="3.58"/>
            <path class="uuid-e1fa019c-04f7-4a5b-bc15-dd4d251a4c8b" d="m126.21,16.42h-.67v3.58h.67v-1.23h2.01v-2.35h-2.01Zm1.34,1.68h-1.34v-1.02h1.34v1.02Z"/>
            <path class="uuid-e1fa019c-04f7-4a5b-bc15-dd4d251a4c8b" d="m119.71,16.42l-1.29,3.58h.68l.22-.65h1.44l.23.65h.69l-1.33-3.58h-.64Zm-.18,2.32l.49-1.46.52,1.46h-1.01Z"/>
          </g>
          <g>
            <polygon class="uuid-e1fa019c-04f7-4a5b-bc15-dd4d251a4c8b" points="108.83 18.95 108.23 16.68 107.6 16.68 106.98 18.94 106.38 16.42 105.69 16.42 106.63 20 107.26 20 107.91 17.75 108.53 20 109.17 20 110.09 16.42 109.41 16.42 108.83 18.95"/>
            <polygon class="uuid-e1fa019c-04f7-4a5b-bc15-dd4d251a4c8b" points="99.74 16.42 98.4 16.42 97.73 16.42 97.73 17.09 97.73 20 98.4 20 98.4 17.09 99.74 17.09 99.74 20 100.4 20 100.4 16.42 100.4 16.42 99.74 16.42"/>
            <polygon class="uuid-e1fa019c-04f7-4a5b-bc15-dd4d251a4c8b" points="102.11 16.42 102.11 17.09 102.11 17.88 102.11 18.54 102.11 19.33 102.11 20 102.78 20 104.54 20 104.54 19.33 102.78 19.33 102.78 18.54 104.54 18.54 104.54 17.88 102.78 17.88 102.78 17.09 104.54 17.09 104.54 16.42 102.78 16.42 102.11 16.42"/>
          </g>
          <g>
            <path class="uuid-e1fa019c-04f7-4a5b-bc15-dd4d251a4c8b" d="m159.45,16.42l-1.29,3.58h.68l.22-.65h1.44l.23.65h.69l-1.33-3.58h-.64Zm-.18,2.32l.49-1.46.52,1.46h-1.01Z"/>
            <polygon class="uuid-e1fa019c-04f7-4a5b-bc15-dd4d251a4c8b" points="167.58 17.04 168.63 17.04 168.63 20 169.29 20 169.29 17.04 170.34 17.04 170.34 16.42 167.58 16.42 167.58 17.04"/>
            <path class="uuid-e1fa019c-04f7-4a5b-bc15-dd4d251a4c8b" d="m165.17,16.42h-2.01v3.58h.67v-1.48h.53l.81,1.48h.67l-.81-1.48h.81v-2.1h-.67Zm-1.34,1.43v-.77h1.34v.77h-1.34Z"/>
          </g>
        </g>
      </g>
    </g>
  </g>
</svg>