<?xml version="1.0" encoding="UTF-8"?>
<svg id="uuid-5dd80465-e878-4f29-9685-c771f331064d" data-name="圖層 2" xmlns="http://www.w3.org/2000/svg" viewBox="0 0 64.18 20">
  <defs>
    <style>
      .uuid-07061001-376c-49e7-a538-82f8f9c799bd {
        fill-rule: evenodd;
      }
    </style>
  </defs>
  <g id="uuid-af7cacbe-cfe8-4697-9676-e805701a9603" data-name="介面">
    <g>
      <g>
        <path class="uuid-07061001-376c-49e7-a538-82f8f9c799bd" d="m7.63,1.73h-1.8v.63h-1.22v-.63h-1.64v.61h-1.23v-.61H0v-.75h1.75V.19h1.23v.79h1.64V.08h1.22v.9h1.8v.75Zm-1.22,2.76h1.18v.76h-1.18v1.2h.5v.75h-2.45v.82h3.02v.75h-3.02v2.12h-1.29v-2.12H.26v-.75h2.91v-.82H.71v-.75h.49v-1.2H.1v-.76h1.1v-.95h1.23v.95h.75v-1.12H.71v-.76h6.18v.76h-2.43v1.12h.74v-.95h1.22v.95Zm-4,1.97h.75v-1.2h-.75v1.2Zm2.04,0h.74v-1.2h-.74v1.2Z"/>
        <path class="uuid-07061001-376c-49e7-a538-82f8f9c799bd" d="m23.78,2.2v1.75h-.88v-1.49h-.94l.34.17c.12.06.23.14.32.25.1.13.15.27.16.4.02.15-.02.3-.12.42-.09.11-.2.16-.32.15-.11-.02-.2-.08-.26-.19-.03-.07-.04-.17-.04-.31,0-.2-.01-.34-.03-.42-.02-.11-.07-.25-.15-.4l.05-.07h-.25v1.44h-.62c.08.06.12.12.14.16.03.04.05.11.06.21.01.11.01.19-.01.22l-.05.11h2.91v.66h-2.12v.63h.67l.31-.48,1.14.37-.33.41v1.8h-1.09v-.21h-4.41l-.11.53c-.03.17-.16.53-.39,1.07-.23.51-.66,1.01-1.27,1.48l-.07-.07c.16-.37.27-.71.35-1.04.08-.3.13-.62.17-.97l.1-4.64h1.23v.47h2.01l-.03-.08s-.02-.12-.02-.22l-.02-.2-.08-.19h-.73v-1.46h-1.11l.36.17c.13.07.26.17.37.31.13.15.19.3.19.46s-.04.29-.12.37c-.06.08-.16.13-.3.13-.13,0-.21-.04-.26-.11-.06-.1-.09-.19-.09-.29l-.07-.48c-.04-.18-.07-.3-.1-.34l-.12-.17.05-.06h-.25v1.5h-.83V1.52h.83v.26h1.41l.29-.38.93.33-.33.39v1.51c.29.06.49.12.61.16V1.63h.84v.19h1.19l.32-.39,1.01.36-.4.41Zm.17-1.09h-3.28V.47h3.28v.64Zm-3.65-.02h-3.44V.44h3.44v.64Zm.51,4.8v-.63h-.74v.63h.74Zm-.74,1.25h.74v-.59h-.74v.59Zm-1.83-1.25h.71v-.63h-.71v.63Zm0,1.25h.71v-.59h-.71v.59Zm.07,2.45s.04-.09.04-.19v-1.51h1.08v.45h.98v.67h-.98v.49c.36-.06.72-.14,1.08-.24l.08.11c-.16.18-.31.33-.43.43-.23.19-.45.36-.67.52-.32.26-.51.4-.57.42l-.32.17-.5-1.24c.11-.02.17-.05.2-.07Zm2.34.29v-1.94h1.08v.68c.36-.17.56-.27.59-.3l.35-.25.69.64-.39.15c-.13.05-.55.1-1.24.16v.55c0,.11.02.18.05.23.05.05.23.07.54.05h.55c.08-.01.14-.03.19-.07.06-.03.12-.13.18-.3.06-.15.15-.58.3-1.29l.15.02-.02.85c0,.16.01.26.03.33.04.08.07.13.12.17l.23.12s.08.09.08.13c.02.04,0,.12-.05.24-.13.26-.25.42-.34.49-.1.09-.21.14-.33.15-.21.02-.6.04-1.15.04-.67.01-1.07-.02-1.22-.11-.16-.08-.26-.18-.32-.29-.05-.1-.07-.25-.07-.44Zm1.3-2.74h.7v-.59h-.7v.59Z"/>
        <path class="uuid-07061001-376c-49e7-a538-82f8f9c799bd" d="m33.02,4.62c0,.24-.09.45-.28.62-.18.18-.38.28-.62.28s-.46-.08-.63-.25c-.18-.18-.28-.39-.28-.64s.09-.48.26-.64c.17-.18.38-.26.64-.26s.47.1.64.29c.17.18.25.38.25.62Z"/>
        <path class="uuid-07061001-376c-49e7-a538-82f8f9c799bd" d="m47.2,2.95h-.97v-.24h-3.14v.29h-.09l.7.14c-.2.27-.38.52-.54.77-.13.2-.3.42-.5.68.23-.02.44-.06.61-.11.11-.24.17-.41.2-.51l.08-.32.8.05-.21.57c-.08.2-.28.57-.6,1.11l.13.07c.18.13.3.22.36.29.1.09.18.2.24.32.06.13.1.25.1.38-.01.13-.05.22-.11.27-.05.06-.12.1-.22.1-.16,0-.25-.04-.27-.13l-.07-.19c-.34.26-.79.55-1.34.87l-.31-.83.21-.1c.06-.03.15-.13.29-.31.11-.13.3-.49.56-1.08l-.22.16s-.29.15-.73.37l-.28-.91.22-.12c.09-.06.19-.23.31-.51.13-.34.25-.69.34-1.05h-.66V.23h1v.24h3.12l.26-.48,1.07.33-.34.53v2.09Zm0,1.59h-.73v.73h.66v.7h-.66v.7h.63v.7h-.63v.92h.82v.69h-2.04v.41h-.81v-1.14c-.11.15-.21.21-.31.19-.09,0-.17-.05-.22-.12-.06-.08-.09-.23-.1-.46-.02-.25-.06-.44-.13-.58l-.12-.25.07-.09c.16.13.32.28.48.44.13.14.23.29.32.44v-2.63c-.07.11-.19.26-.36.48l-.12-.11c.3-.68.48-1.17.55-1.45.06-.25.15-.68.25-1.29l.9.1-.39.94h.61s-.02-.13-.02-.13v-.27c-.02-.16-.04-.27-.06-.32l-.06-.13.06-.07c.55.11.83.26.86.46.02.19.02.31.01.35l-.05.12h.58v.69Zm-1.53-2.52h.56v-.86h-.56v.86Zm-1.28-.86v.86h.52v-.86h-.52Zm-1.3,0v.86h.54v-.86h-.54Zm2.17,3.37v.73h.47v-.73h-.47Zm0,2.12h.47v-.7h-.47v.7Zm0,.7v.92h.47v-.92h-.47Zm-2.39-1.04c.29-.09.54-.18.74-.26l-.07-.25-.11-.23-.56.75Zm.2.8c.21.25.37.46.47.66.08.17.13.33.13.5,0,.14-.03.25-.1.32-.07.07-.18.11-.34.12-.16,0-.24-.14-.23-.43l.04-.59c0-.13-.01-.23-.03-.3l-.04-.21.11-.05Zm.85,2.55c.38.03,1.04.04,1.97.02.91-.04,1.55-.07,1.92-.11l.02.11c-.23.18-.36.3-.39.34-.03.03-.07.11-.12.22-.03.11-.03.18,0,.23l.06.14-.05.1-2.39-.03c-.87-.02-1.43-.05-1.68-.09-.24-.04-.47-.13-.69-.25-.23-.13-.45-.34-.66-.62l-.36-.53c-.13-.16-.22-.24-.29-.24-.08,0-.17.11-.27.34-.09.2-.24.62-.45,1.27l-.7-1.07.79-.85v-4.47h-.71v-.68h.67l.32-.51,1.11.37-.34.5v4.53c.05.16.11.31.18.43.08.13.23.26.46.41.24.15.44.25.61.32.18.06.51.1.97.13Zm-3.16-8.55c-.04-.15-.17-.44-.39-.87l.07-.08c.3.15.48.26.56.31.2.11.36.22.48.34.14.13.25.27.34.43.09.17.14.34.15.51,0,.18-.06.32-.17.43-.11.11-.27.16-.47.16s-.33-.16-.41-.47l-.16-.76Zm1.8,6.21c.09.24.15.43.18.57.04.14.06.31.07.52,0,.17-.06.32-.18.45-.11.13-.24.18-.39.16-.15-.02-.23-.1-.25-.24-.01-.15.04-.31.15-.5.06-.1.11-.22.16-.36.06-.14.09-.26.11-.36l.03-.22.13-.02Z"/>
        <path class="uuid-07061001-376c-49e7-a538-82f8f9c799bd" d="m63.51.89v2.36h-1.12v-.32h-.79v.32h-1.14V.22h1.13v.36h.77l.31-.53,1.17.43-.33.4Zm-1.13.41h-.79v.94h.79v-.94Zm-2.24.59h-1.3v.95h.33l.24-.41.97.31-.33.45v4.28s-.83,0-.83,0v-.45h-.38v1.06h1.06v.7h-1.06v2.06h-.9v-2.06h-1.47v-.7h1.47v-1.07h-.37v.42h-.9V2.61h.9v.23h.37v-.95h-1.38v-.72h1.38V.08h.9v1.09h1.3v.72Zm.01,1.78h3.89v.71h-.52v3.59s.6,0,.6,0v.69h-.6v2.26h-1.24v-2.26h-2.33v-.69h.5v-3.59h-.31v-.71Zm1.53,1.49h.6v-.78h-.6v.78Zm.6.72h-.6v.68h.6v-.68Zm0,1.38h-.6v.71h.6v-.71Zm-4.71-2.78h.37v-.92h-.37v.92Zm1.27,0h.38v-.92h-.38v.92Zm0,.71v1.11h.38v-1.11h-.38Zm-1.27-.02v1.11h.37v-1.11h-.37Z"/>
      </g>
      <g>
        <path class="uuid-07061001-376c-49e7-a538-82f8f9c799bd" d="m2.16,12.91v.18l-.02.02c-.13,0-.26,0-.39.02-.1.02-.16.04-.19.06-.04.02-.07.08-.08.18v4.26h.73c.53,0,.89,0,1.08-.02.14,0,.28-.04.42-.11l.19-.78.04-.04h.18l.02.04c-.03.12-.05.3-.06.55l-.03.66-.02.04c-.31-.02-.9-.02-1.79-.02h-1.05c-.24-.01-.48,0-.73.02l-.02-.04v-.12l.02-.04c.13-.06.22-.11.25-.14l.05-.46v-3.28c.01-.24,0-.42-.01-.53-.02-.09-.03-.14-.05-.15-.02-.02-.07-.05-.13-.07l-.47-.04-.04-.02v-.18l.04-.02h2.05l.02.02Z"/>
        <path class="uuid-07061001-376c-49e7-a538-82f8f9c799bd" d="m7.62,14.8c.42-.04.8-.13,1.15-.26l.07.04c-.03.42-.05.82-.05,1.2l.02,1.51c0,.2.01.32.04.37.02.04.05.07.08.09l.42.02.04.04v.14l-.04.04h-1.18s-.04-.04-.04-.04l.04-.62c-.13.1-.31.26-.52.47-.08.09-.18.15-.32.19-.14.05-.3.07-.47.07-.28,0-.49-.04-.62-.13-.15-.08-.25-.19-.32-.34-.06-.16-.09-.42-.09-.78l-.03-1.67s-.02-.07-.06-.08c-.02-.02-.08-.02-.18-.02h-.31s-.04-.04-.04-.04v-.15l.04-.04c.42-.05.81-.13,1.15-.26l.06.04c-.02.32-.04.72-.04,1.2v.84c0,.31.02.52.07.64.05.11.13.2.25.27.11.06.24.09.4.09.17,0,.33-.04.48-.11.13-.05.24-.15.35-.28.09-.11.15-.19.16-.25,0-.02.02-.15.03-.36v-1.18c-.01-.16-.02-.26-.03-.31,0-.04-.02-.07-.05-.08-.02-.02-.09-.02-.19-.02h-.31s-.02-.04-.02-.04v-.15l.02-.04Z"/>
        <path class="uuid-07061001-376c-49e7-a538-82f8f9c799bd" d="m11.32,15.07c-.09-.09-.16-.15-.21-.18-.05-.02-.09-.04-.14-.04h-.09l-.04-.02-.02-.14.02-.04.81-.14c.15.13.39.44.73.95l.26.42.97-1.31.26.02.26-.02.02.02v.14l-.02.04c-.08,0-.14.01-.18.04-.04.02-.1.07-.19.16-.1.09-.23.24-.39.42l-.57.71,1.05,1.44.19.19c.06.02.13.02.2.02l.04.02v.15l-.04.02h-.86c-.18-.21-.38-.49-.6-.82l-.37-.55c-.26.3-.58.76-.98,1.38l-.29-.02-.31.02-.04-.02v-.15l.04-.02c.09,0,.16-.01.21-.04.08-.05.15-.1.21-.16l1-1.2-.59-.85c-.12-.16-.24-.31-.35-.45Z"/>
        <path class="uuid-07061001-376c-49e7-a538-82f8f9c799bd" d="m16.01,15.02h-.29s-.04-.04-.04-.04v-.15l.04-.04c.42-.05.81-.13,1.15-.26l.06.04c-.02.32-.04.72-.04,1.2v.84c0,.31.02.52.07.64.04.1.12.19.24.27.13.06.26.09.41.09.17,0,.33-.04.47-.11.13-.05.25-.15.36-.28l.17-.25s.02-.15.04-.36v-1.18c-.01-.16-.02-.26-.04-.31,0-.04-.02-.07-.05-.08-.02-.02-.09-.02-.19-.02h-.31s-.02-.04-.02-.04v-.15l.02-.04c.42-.04.8-.13,1.15-.26l.07.04c-.03.28-.05.68-.05,1.2l.02,1.51c0,.2.01.32.04.37.02.04.05.07.08.09l.42.02.04.04v.14l-.04.04h-1.18s-.04-.04-.04-.04l.04-.62c-.18.14-.35.3-.52.47-.08.09-.18.15-.32.19-.14.05-.3.07-.47.07-.28,0-.49-.04-.62-.13-.15-.08-.26-.19-.32-.34-.06-.13-.09-.39-.09-.78l-.04-1.67s-.02-.07-.06-.08c-.02-.02-.08-.02-.19-.02Z"/>
        <path class="uuid-07061001-376c-49e7-a538-82f8f9c799bd" d="m21.71,14.98v-.15l.02-.04c.42-.04.8-.13,1.15-.26l.07.04-.04.74.27-.34c.09-.12.17-.2.24-.26.08-.06.16-.11.24-.14.09-.03.18-.05.28-.05.09,0,.19.02.29.06l.02.06c-.04.35-.06.63-.06.84h-.17c-.09-.22-.25-.33-.46-.33-.15,0-.28.05-.39.14-.11.09-.18.21-.22.35-.04.16-.06.34-.06.54l.02.92c0,.26,0,.42.02.48l.05.09.09.05.51.04.04.02v.15l-.04.04c-.31-.02-.64-.04-.99-.04-.28,0-.56.01-.86.04l-.04-.04v-.15l.04-.02.39-.04.08-.05s.03-.05.05-.11v-2.45s-.02-.07-.05-.08c-.02-.02-.09-.02-.19-.02h-.31s-.02-.04-.02-.04Z"/>
        <path class="uuid-07061001-376c-49e7-a538-82f8f9c799bd" d="m26.26,14.77v-.14l.04-.02h1.62l.04.02v.14l-.02.04h-.22c-.13.03-.2.05-.22.07-.03.03-.05.07-.05.11,0,.05.04.18.12.39l.78,1.97.91-2.24v-.11s0-.08-.05-.11c-.07-.02-.15-.04-.25-.05l-.15-.02-.02-.02v-.16l.02-.02.72.02c.2,0,.4,0,.6-.02l.02.02v.16l-.02.02c-.09,0-.16.01-.21.04-.05.02-.11.06-.15.12-.04.05-.13.2-.26.46l-1.54,3.5c-.06.13-.15.31-.27.53-.09.18-.22.32-.39.42-.15.08-.31.12-.49.12-.16,0-.3-.04-.42-.12.08-.19.14-.37.19-.55h.08c.12.13.24.2.38.2.16,0,.31-.09.45-.26.12-.16.29-.53.53-1.12l-1.32-3.2-.09-.07s-.13-.05-.28-.07l-.04-.04Z"/>
        <path class="uuid-07061001-376c-49e7-a538-82f8f9c799bd" d="m35.34,17.97c-.3-.02-.89-.02-1.78-.02h-1.05c-.24-.01-.48,0-.73.02l-.02-.04v-.12l.02-.04c.16-.07.24-.12.25-.14l.05-.46v-3.28c.01-.24,0-.42-.01-.53-.02-.09-.03-.14-.05-.15l-.13-.07-.48-.04-.02-.02v-.18l.02-.02h2.06l.02.02v.18l-.02.02c-.13,0-.26,0-.39.02-.1.02-.16.04-.19.06-.04.02-.07.08-.08.18v4.26h.73c.53,0,.89,0,1.08-.02.14,0,.28-.04.42-.11l.19-.78.04-.04h.16l.04.04c-.03.12-.05.3-.06.55l-.04.66-.04.04Z"/>
        <path class="uuid-07061001-376c-49e7-a538-82f8f9c799bd" d="m37.67,14.8c.3-.19.64-.28,1.04-.28.5,0,.91.16,1.22.47.31.33.47.73.47,1.21,0,.56-.18,1.01-.54,1.35-.36.35-.8.53-1.31.53-.33,0-.63-.09-.89-.27-.26-.18-.46-.4-.59-.66-.12-.26-.18-.54-.18-.85s.05-.57.16-.82c.12-.26.32-.49.61-.68Zm.15.29c-.17.22-.26.54-.26.97,0,.32.04.62.13.89.07.24.2.46.4.64.19.16.4.25.65.25.27,0,.51-.11.69-.34.18-.23.27-.57.27-1.01,0-.51-.1-.93-.29-1.25-.2-.32-.49-.48-.86-.48-.31,0-.55.11-.73.34Z"/>
        <path class="uuid-07061001-376c-49e7-a538-82f8f9c799bd" d="m44.99,15.55c0,.15-.04.31-.12.49-.09.17-.2.31-.33.4-.13.12-.29.21-.47.27-.17.07-.37.11-.59.11h-.18c-.14.12-.23.2-.27.25-.04.06-.06.12-.06.17,0,.12.05.19.15.22.09.05.29.07.59.07h.81c.25-.01.44.02.58.07.14.06.25.17.33.32.08.16.12.32.12.49,0,.27-.08.53-.25.79-.18.27-.43.46-.74.59-.31.14-.66.21-1.04.21-.2,0-.4-.02-.58-.07-.2-.05-.36-.12-.48-.21-.13-.07-.24-.19-.33-.35-.09-.16-.13-.31-.13-.46,0-.09.01-.19.04-.28.05-.12.1-.22.15-.31l.65-.37c-.22-.08-.35-.14-.39-.19-.06-.06-.08-.14-.08-.24,0-.09.03-.19.09-.32l.58-.41c-.35-.09-.58-.23-.68-.4-.13-.17-.19-.36-.19-.58,0-.18.04-.37.13-.55.08-.17.2-.31.38-.42.17-.1.35-.18.57-.25.23-.06.42-.09.58-.09.3,0,.58.1.85.29l1.04-.02.02.07-.18.29h-.67c.07.13.11.27.11.41Zm-.13,2.71c-.08-.12-.19-.19-.33-.21-.13-.02-.35-.04-.68-.04h-.67c-.07.03-.15.07-.25.14-.1.06-.19.16-.26.28-.07.13-.11.27-.11.41,0,.27.1.49.31.66.2.17.46.26.8.26.26,0,.49-.05.69-.15.2-.1.36-.24.47-.42.1-.19.15-.36.15-.52s-.04-.29-.13-.41Zm-2.06-2.65c0,.16.03.31.08.47.06.17.16.3.28.38.13.09.27.13.42.13.22,0,.4-.07.55-.21.16-.13.24-.35.24-.65,0-.24-.07-.46-.21-.66-.14-.2-.34-.31-.6-.31-.21,0-.4.07-.55.21-.14.14-.21.35-.21.64Z"/>
        <path class="uuid-07061001-376c-49e7-a538-82f8f9c799bd" d="m48.79,13.62c-.08-.08-.12-.17-.12-.28,0-.12.04-.21.12-.28.07-.08.16-.12.28-.12.11,0,.2.04.28.12.08.07.12.16.12.28,0,.11-.04.2-.12.28-.08.08-.17.12-.28.12-.12,0-.21-.04-.28-.12Zm-.6,1.21l.04-.04c.42-.05.81-.13,1.15-.26l.06.04c-.02.32-.04.72-.04,1.2l.05,1.81c.02.06.03.09.05.11.05.02.07.04.08.04l.39.04.02.02v.15l-.02.04c-.31-.02-.6-.04-.87-.04s-.55.01-.85.04l-.04-.04v-.15l.04-.02.39-.04.08-.05.05-.11v-2.45s-.02-.07-.06-.08c-.02-.02-.07-.02-.18-.02h-.31s-.04-.04-.04-.04v-.15Z"/>
        <path class="uuid-07061001-376c-49e7-a538-82f8f9c799bd" d="m52.66,17.15c.1,0,.2.04.29.12.09.09.13.19.13.32,0,.11-.04.21-.13.29-.09.09-.18.13-.29.13-.12,0-.22-.04-.31-.13-.09-.09-.13-.18-.13-.29,0-.12.04-.22.13-.31.09-.09.19-.13.31-.13Z"/>
        <path class="uuid-07061001-376c-49e7-a538-82f8f9c799bd" d="m56.2,15.07l.95-.52c.09-.03.24-.05.45-.05.38,0,.68.07.92.21-.05.28-.08.57-.11.9l-.04.04h-.14l-.04-.04-.04-.4c-.02-.08-.12-.15-.29-.22-.16-.08-.34-.12-.54-.12s-.38.04-.53.12c-.16.09-.27.22-.34.41-.08.16-.12.39-.12.67,0,.2.03.41.09.64.06.22.15.39.25.52.09.13.22.24.4.33.17.09.36.13.55.13.15,0,.27-.02.38-.05.11-.03.25-.09.42-.16l.08.09-.15.24c-.3.17-.64.26-1.02.26-.52,0-.92-.16-1.21-.47-.29-.31-.44-.72-.44-1.21,0-.22.02-.42.07-.6.06-.18.13-.33.19-.44.09-.12.18-.21.25-.27Z"/>
        <path class="uuid-07061001-376c-49e7-a538-82f8f9c799bd" d="m64.18,16.2c0,.56-.18,1.01-.54,1.35-.36.35-.8.53-1.31.53-.33,0-.63-.09-.89-.27-.27-.18-.46-.4-.58-.66-.13-.27-.2-.55-.2-.85,0-.25.06-.53.18-.82.12-.26.32-.49.61-.68.3-.19.64-.28,1.04-.28.5,0,.91.16,1.23.47.31.31.47.72.47,1.21Zm-2.58-1.11c-.17.22-.26.54-.26.97,0,.32.04.62.13.89.08.25.22.46.41.64.18.16.39.25.64.25.27,0,.51-.11.7-.34.18-.21.27-.55.27-1.01,0-.51-.1-.93-.29-1.25-.2-.32-.49-.48-.86-.48-.31,0-.55.11-.73.34Z"/>
      </g>
    </g>
  </g>
</svg>