<?xml version="1.0" encoding="UTF-8"?>
<svg id="uuid-b7854296-69df-4149-9515-92121d4cff0f" data-name="圖層 2" xmlns="http://www.w3.org/2000/svg" viewBox="0 0 25.5 20">
  <g id="uuid-35aca56c-aefc-42c4-9c46-5fac29cb183b" data-name="介面">
    <g>
      <g>
        <g>
          <path d="m1.09,11.27h.72l1.08,3.12h-.69l-.2-.64H.87l-.21.64h-.67l1.09-3.12Zm-.04,1.94h.78l-.39-1.23-.4,1.23Z"/>
          <path d="m4.49,12.03s.02,0,.05,0v.62s-.07,0-.1,0c-.03,0-.05,0-.07,0-.24,0-.4.08-.48.24-.05.09-.07.23-.07.41v1.1h-.59v-2.3h.56v.4c.09-.15.17-.26.24-.31.11-.1.25-.14.43-.14.01,0,.02,0,.03,0Z"/>
          <path d="m4.9,12.53v-.43h.31v-.64h.59v.64h.37v.43h-.37v1.22c0,.09.01.15.04.18.02.02.1.04.22.04.02,0,.04,0,.06,0,.02,0,.04,0,.06,0v.45h-.28c-.28.02-.47-.03-.57-.14-.07-.07-.1-.17-.1-.32v-1.42h-.31Z"/>
          <path d="m8.19,12.13c.16.07.29.19.39.34.09.14.15.3.18.48.02.11.02.26.02.46h-1.65c0,.23.09.39.24.49.09.06.2.09.33.09.13,0,.24-.03.33-.1.05-.04.09-.09.12-.16h.6c-.02.14-.09.28-.22.42-.2.23-.49.34-.85.34-.3,0-.57-.09-.8-.28-.23-.19-.35-.5-.35-.92,0-.4.1-.7.31-.92.21-.21.48-.32.81-.32.2,0,.37.04.53.11Zm-.88.52c-.08.09-.14.21-.16.36h1.02c-.01-.16-.06-.28-.16-.36-.09-.08-.21-.12-.35-.12-.15,0-.27.04-.35.13Z"/>
          <path d="m8.92,14.39l.77-1.17-.74-1.13h.72l.38.67.37-.67h.7l-.74,1.12.77,1.18h-.74l-.39-.69-.39.69h-.72Z"/>
          <path d="m13.41,12.33c.18.2.28.49.28.87,0,.41-.09.72-.27.93-.18.21-.41.32-.7.32-.18,0-.33-.05-.45-.14-.07-.05-.13-.12-.19-.22v1.2h-.58v-3.21h.57v.34c.06-.1.13-.18.2-.24.13-.1.29-.16.47-.16.27,0,.49.1.67.3Zm-.45.43c-.08-.14-.21-.21-.39-.21-.22,0-.36.1-.45.31-.04.11-.06.25-.06.42,0,.27.07.46.21.57.08.06.18.1.3.1.17,0,.29-.07.38-.2.09-.13.13-.3.13-.52,0-.18-.04-.34-.12-.47Z"/>
          <path d="m15.69,12.13c.16.07.29.19.39.34.09.14.15.3.18.48.02.11.02.26.02.46h-1.65c0,.23.09.39.24.49.09.06.2.09.33.09.14,0,.24-.03.33-.1.05-.04.09-.09.12-.16h.6c-.02.14-.09.28-.22.42-.2.23-.49.34-.85.34-.3,0-.57-.09-.8-.28-.23-.19-.34-.5-.34-.92,0-.4.1-.7.31-.92.21-.21.48-.32.81-.32.2,0,.37.04.53.11Zm-.88.52c-.08.09-.14.21-.16.36h1.02c-.01-.16-.06-.28-.16-.36-.09-.08-.21-.12-.35-.12-.15,0-.27.04-.35.13Z"/>
          <path d="m18.18,12.91c-.01-.09-.04-.16-.09-.23-.07-.09-.17-.14-.31-.14-.2,0-.34.1-.41.3-.04.11-.06.25-.06.43s.02.3.06.41c.07.19.2.29.4.29.14,0,.24-.04.3-.11.06-.08.09-.18.11-.3h.6c-.01.18-.08.36-.2.52-.19.26-.46.39-.82.39s-.63-.11-.8-.33c-.17-.22-.26-.5-.26-.86,0-.39.1-.7.28-.92.19-.22.45-.33.78-.33.28,0,.52.07.7.19.18.13.29.36.32.69h-.61Z"/>
          <path d="m19.07,12.53v-.43h.32v-.64h.58v.64h.37v.43h-.37v1.22c0,.09.01.15.04.18.02.02.1.04.22.04.02,0,.04,0,.06,0,.02,0,.04,0,.06,0v.45h-.28c-.28.02-.47-.03-.57-.14-.07-.07-.1-.17-.1-.32v-1.42h-.32Z"/>
          <path d="m22.32,12.13c.16.07.29.19.39.34.09.14.15.3.18.48.02.11.02.26.02.46h-1.65c0,.23.09.39.24.49.09.06.2.09.33.09.13,0,.24-.03.33-.1.05-.04.09-.09.12-.16h.6c-.01.14-.09.28-.22.42-.2.23-.49.34-.85.34-.3,0-.57-.09-.8-.28-.23-.19-.34-.5-.34-.92,0-.4.1-.7.31-.92.21-.21.48-.32.81-.32.2,0,.37.04.53.11Zm-.88.52c-.08.09-.14.21-.16.36h1.02c-.01-.16-.06-.28-.16-.36-.09-.08-.21-.12-.35-.12-.15,0-.27.04-.35.13Z"/>
          <path d="m24.64,12.12c.11.06.19.15.26.25v-1.1h.6v3.11h-.57v-.32c-.08.14-.18.24-.29.3-.11.06-.24.09-.4.09-.26,0-.49-.11-.67-.33-.18-.22-.27-.5-.27-.84,0-.39.09-.7.27-.93.18-.22.42-.34.71-.34.14,0,.26.03.36.09Zm.15,1.64c.09-.13.13-.29.13-.49,0-.28-.07-.48-.21-.61-.09-.07-.18-.11-.3-.11-.17,0-.3.07-.38.2-.08.13-.12.3-.12.5,0,.21.04.38.12.51.08.13.21.19.37.19s.3-.06.38-.19Z"/>
        </g>
        <path d="m22.64,6.71c-.23-.11-1.07-.65-2.41-1.61-.72-.52-1.47-1.01-2.18-1.55-1.36-1.02-4.03-3.69-7.23-3.01-1.48.31-2.53,1.05-3.57,1.88-.73.59-1.41,1.14-2.19,1.44-.87.34-1.94.25-2.58-.21-.6-.43-.58-1.03-.4-1.43.18-.4.89-.76,1.22-.14.25.47.84.62,1.3.36.46-.26.62-.84.36-1.3C4.64.58,3.74.07,2.92,0,1.74-.08.75.61.33,1.57c-.59,1.36-.08,2.84,1.04,3.63,1.18.84,2.9,1.02,4.39.45,1.05-.41,1.89-1.08,2.7-1.74.07-.05.13-.11.2-.16-.13.36-.2.74-.2,1.15,0,.82.29,1.57.77,2.16h-4.76c-.53,0-1.07.43-1.07.97s.54.97,1.07.97h17.72c.67,0,1.21-.54,1.21-1.21,0-.58-.34-.87-.75-1.08Zm-11.88-1.37c-.77,0-1.4-.63-1.4-1.4s.63-1.4,1.4-1.4,1.4.63,1.4,1.4-.63,1.4-1.4,1.4Zm3.78,1.73c.48-.59.77-1.34.77-2.16,0-.42-.08-.83-.22-1.21.06.05.12.09.17.14.82.67,1.65,1.32,2.5,1.95.64.47,1.29.93,2,1.28h-5.22Z"/>
      </g>
      <g>
        <path d="m1.36,16.61v.17s-.23,0-.23,0v-.17s-1.1,0-1.1,0v-.23s1.1,0,1.1,0v-.16s.23,0,.23,0v.16s1.17,0,1.17,0v-.16s.23,0,.23,0v.16s1.09,0,1.09,0v.24s-1.09,0-1.09,0v.17h-.23v-.17s-1.17,0-1.17,0Zm-.49.99c-.05.2-.4.39-.69.41l-.07-.23s.07,0,.09,0c.19-.01.33-.07.42-.18H.07s0-.17,0-.17h.86s0-.23,0-.23H.26s0-.17,0-.17h.67s0-.16,0-.16h.23v.16s.61,0,.61,0v.17s-.61,0-.61,0v.23s.72,0,.72,0v.17s-.44,0-.44,0v.11q0,.07.02.09s.27.05.33,0c.06-.05.09-.14.09-.14l.17.11s-.09.19-.21.22c-.11.03-.29.02-.41,0-.06-.02-.1-.03-.14-.07-.04-.04-.06-.09-.06-.13v-.19s-.37,0-.37,0Zm-.57,2.37l-.05-.23.66-.02c.11-.11.22-.22.32-.34H.11s0-.17,0-.17h3.61s0,.16,0,.16h-.7c.22.15.42.3.59.46l-.16.17c-.05-.05-.11-.1-.17-.14l-2.99.11Zm.62-1.7H.23s0-.17,0-.17h.68s0-.32,0-.32h.23v.32s.58,0,.58,0v.17s-.58,0-.58,0v.23s.68-.06.68-.06l.02.24-1.69.14-.04-.23.8-.07v-.25Zm2.07.56v.17s-2.1,0-2.1,0v-.17s2.1,0,2.1,0Zm-.08.55h-1.38c-.08.1-.17.21-.29.33l1.77-.06c-.1-.08-.17-.12-.2-.14l.1-.13Zm-.73-.69l-.19-.15c.16-.12.29-.3.39-.51-.14-.1-.23-.17-.27-.2l.15-.18s.11.08.2.15c.03-.13.05-.27.06-.42h-.4s0-.23,0-.23h.41s0-.26,0-.26h.24v.25s.51,0,.51,0c.06,0,.08.03.08.08v1.14s.01.06.03.08c.03.02.05.03.07.04h.1s.05-.01.06-.02c.01-.02.02-.04.02-.07v-.3s.23.04.23.04c0,.1,0,.2,0,.31,0,.1-.04.16-.1.21-.06.05-.13.07-.19.07h-.2c-.1-.02-.17-.06-.21-.12-.03-.04-.04-.09-.04-.15v-1.02s-.02-.04-.03-.04h-.33c-.01.19-.04.38-.09.57.14.1.26.2.36.3l-.16.17c-.08-.08-.18-.16-.28-.25-.1.21-.23.38-.38.52Z"/>
        <path d="m15.02,17.48h1.68c.06,0,.09.03.09.08v1.01c0,.06-.03.1-.09.1h-1.53c0,.27-.04.53-.12.79-.05.2-.12.36-.21.47l-.22-.12c.22-.35.32-.76.32-1.24v-1c0-.06.03-.09.08-.09Zm-.28-.33l-.12-.21c.65-.23,1.07-.48,1.27-.76l.17.1s-.03.04-.04.06c.31.21.65.37,1.04.46l-.11.21c-.37-.12-.72-.29-1.05-.52-.24.22-.62.44-1.15.65Zm1.82.83v-.24s-.01-.04-.04-.04h-1.31s-.04.02-.04.04v.24s1.39,0,1.39,0Zm-1.39.17v.27h1.35s.04-.02.04-.04v-.24h-1.39Zm1.37-1.16v.23h-1.29s0-.23,0-.23h1.29Zm.23,2.92h-1.47s-.03,0-.03-.03v-.9s.01-.03.03-.03h1.47s.04.01.04.03v.9s0,.03-.03.03Zm-1.23-.73s0,0,0,0v.48s0,.01,0,.01h1.02s.01,0,.01-.01v-.48s0,0-.01,0h-1.02Zm1.94-2.57v2.45s-.23,0-.23,0v-2.45s.23,0,.23,0Zm.72-.29v3.36c0,.1-.04.18-.12.24-.14.09-.41.07-.79-.04v-.24c.2.07.37.1.52.11.06,0,.11-.03.14-.07,0-.02.01-.03.01-.05v-3.3s.23,0,.23,0Z"/>
        <path d="m22.77,16.71h-.75s0-.23,0-.23h1.48v-.26h.23s0,.25,0,.25h1.57s0,.23,0,.23h-.74c-.03.12-.08.25-.13.39h1.07s0,.23,0,.23h-3.69s0-.22,0-.22h1.1c-.05-.15-.09-.28-.13-.39Zm-.3,2.37c-.13.32-.3.59-.51.81l-.15-.16c.2-.21.35-.46.44-.74l.22.1Zm2.52-.36h-2.66s-.03,0-.03-.03v-1.14s.01-.03.03-.03h2.66s.04,0,.04.03v1.14s0,.03-.03.03Zm-.2-.73v-.24s0,0-.01,0h-2.24s0,0,0,.01v.24s2.26,0,2.26,0Zm-2.26.24v.25s0,.01,0,.01h2.24s.01,0,.01-.02v-.25h-2.26Zm.51.64v.72c0,.06,0,.09.02.11.02.03.07.04.13.04h1.07s.08,0,.1-.02c.02,0,.04-.02.05-.05.02-.04.04-.16.05-.35l.24.05c-.02.27-.04.43-.09.5-.06.07-.15.1-.28.1h-1.25c-.07,0-.12-.01-.16-.04-.08-.06-.12-.16-.12-.31v-.76s.23,0,.23,0Zm1.13-1.77c.06-.14.11-.27.15-.39h-1.29c.05.12.09.25.13.39h1.01Zm-.51,1.8c.14.15.28.34.42.58l-.2.13c-.15-.25-.28-.44-.41-.57l.19-.14Zm1.28.09c.18.19.37.44.56.76l-.19.14c-.21-.33-.39-.58-.56-.74l.19-.15Z"/>
        <g>
          <path d="m9.31,16.57h-1.17s0-.1.02-.15h-.22c-.05.43-.12.74-.2.93-.1.23-.25.45-.46.67l.2.13c.12-.13.22-.26.31-.39.37.26.67.5.92.72-.24.45-.56.79-.97,1.03-.09.05-.18.1-.28.14l.21.17c.64-.32,1.1-.83,1.37-1.52.11-.31.22-.85.26-1.08.04-.23.07-.59.07-.59,0-.04-.02-.06-.07-.06Zm-.5,1.68c-.15-.13-.31-.26-.49-.39-.18-.14-.32-.24-.43-.31.09-.24.16-.48.2-.74h1.02c-.07.59-.17,1.07-.32,1.44Z"/>
          <path d="m10.22,17.57v-1.37s-.24,0-.24,0v3.79h.24v-2.1s.31.24.66.66l.17-.19c-.42-.52-.84-.79-.84-.79Z"/>
        </g>
      </g>
    </g>
  </g>
</svg>