<?xml version="1.0" encoding="UTF-8"?>
<svg id="uuid-6e0586ab-9757-4b5a-a698-136deb87e3de" data-name="圖層 2" xmlns="http://www.w3.org/2000/svg" viewBox="0 0 45.82 20">
  <g id="uuid-6fa47737-9465-41c9-a46d-adb510d0b2cc" data-name="介面">
    <g>
      <g>
        <g>
          <path d="m4.35,14.21H.31v-4.04h1.53v-.71H0v-.99h1.83v-.37h.99v.37h1.93v.99h-1.93v.71h1.53v4.04Zm-.99-3.06h-.53v.46h.32v.99h-.32v.61h.53v-2.07Zm-1.53,1.45h-.32v-.99h.32v-.45h-.53v2.06h.53v-.61Z"/>
          <path d="m38.6,8.32h1.96v.45h-1.99c-.03.23-.1.47-.21.47s-.57,0-.45,0c.2,0,.25-.92.25-.92h.45Z"/>
          <polygon points="33.96 11.4 35.95 13.11 35.35 13.11 33.96 11.91 33.96 13.55 33.51 13.55 33.51 12.2 33.21 12.7 32.74 12.7 33.51 11.4 33.96 11.4"/>
          <path d="m33.26,8.33h1.39v.45h-.7v.33s.3,0,.3,0v.45h-.3v.33s.7,0,.7,0v1.06s-.45,0-.45,0v-.61h-.25v.61h-.45v-.61h-.24v.61h-.45v-1.06h.7v-.33h-.3v-.45h.3v-.33h-.28c-.03.23-.1.47-.21.47s-.57,0-.45,0c.2,0,.25-.92.25-.92h.45Z"/>
          <polygon points="19.64 14.21 18.11 14.21 18.11 13.22 19.4 13.22 18.53 10.15 19.53 10.15 20.14 12.32 20.74 10.15 21.73 10.15 20.87 13.22 22.16 13.22 22.16 14.21 19.64 14.21"/>
          <polygon points="22.7 9.46 17.48 9.46 17.48 8.46 19.19 8.46 19.64 8.46 19.64 8.09 20.63 8.09 20.63 8.46 22.7 8.46 22.7 9.46"/>
          <polygon points="10.71 19.99 12.31 14.98 13.3 14.98 14.9 19.99 13.91 19.99 12.81 16.53 11.7 19.99 10.71 19.99"/>
          <path d="m15.63,9.46h-2.32v.71h1.53v4.04h-4.04v-.99h1.53v-.54h-1.53v-.99h1.53v-.52h-1.53v-.99h1.53v-.71h-2.09v-.99h5.39v.99Zm-1.78,1.7h-.53v.52h.53v-.52Zm0,1.52h-.53v.54h.53v-.54Z"/>
          <polygon points="10.47 10.17 10.47 15.96 9.48 15.96 7.82 15.96 7.82 14.96 7.82 11.57 8.81 11.57 8.81 14.96 9.48 14.96 9.48 10.17 10.47 10.17"/>
          <path d="m9.03,8.46h.88v.99h-.96c-.07.51-.21,1.03-.47,1.03s-1.25,0-.99,0c.44,0,.55-2.02.55-2.02h.99Z"/>
          <polygon points="3.87 19.98 5.47 14.96 6.46 14.96 8.06 19.98 7.07 19.98 5.97 16.52 4.86 19.98 3.87 19.98"/>
          <path d="m7.51,8.46s-.04,2.02-.55,2.02c-.25,0-1.25,0-.99,0,.22,0,.36-.52.44-1.03h-1.33v-.99h2.43Z"/>
          <path d="m1.83,18.04s.03,1.95.54,1.95c.25,0,1.25,0,.99,0-.44,0-.54-1.95-.54-1.95v-2.08h1.93v-.99H0v.99h1.83v2.08Z"/>
          <rect x="12.54" y="15.35" width="8.32" height=".99" transform="translate(.86 32.54) rotate(-90)"/>
          <path d="m17.16,8.46s-.04,2.02-.55,2.02c-.25,0-1.25,0-.99,0,.44,0,.55-2.02.55-2.02h.99Z"/>
          <rect x="4.67" y="12.41" width="2.6" height=".99" transform="translate(-6.94 18.88) rotate(-90)"/>
          <rect x="34.33" y="9.75" width="3.3" height=".45" transform="translate(26.01 45.96) rotate(-90)"/>
          <rect x="34.2" y="9.11" width="2.02" height=".45" transform="translate(25.87 44.54) rotate(-90)"/>
          <path d="m37.61,8.32s-.02.92-.25.92c-.11,0-.57,0-.45,0,.2,0,.25-.92.25-.92h.45Z"/>
          <rect x="35.47" y="11.32" width="3.83" height=".45" transform="translate(25.84 48.93) rotate(-90)"/>
          <polygon points="38.81 9.52 40.56 9.52 40.56 9.97 38.81 9.97 38.81 10.5 40.56 10.5 40.56 10.95 38.81 10.95 38.81 13.46 38.36 13.46 38.36 9.52 38.81 9.52"/>
          <rect x="31.04" y="12.93" width=".98" height=".25" transform="translate(18.47 44.59) rotate(-90)"/>
          <path d="m22.15,19.94h-4.04v-4.98h4.04v4.98Zm-.99-3.99h-2.06v3h2.06v-3Z"/>
          <path d="m27.13,17.95v.03s2.24,0,2.24,0v.99h-2.32s-.21,1-.47,1-1.25,0-.99,0c.22,0,.36-.5.44-1h-2.15v-.99h2.26s0-.03,0-.03v-.49h-2.26v-.99h2.26v-.52h-2.26s0-.99,0-.99h2.26v-.77h-2.18v-4.04h2.18v-.7h-2.86v-.99h2.86v-.37h.99v.36h2.83v1h-2.83s0,.7,0,.7h2.18v4.04h-2.18v.77h2.24v.99h-2.24v.52h2.24v.99h-2.24v.49Zm1.18-6.81h-3.36v2.06h1.18v-1.73h.99v1.73h1.18v-2.06Z"/>
        </g>
        <g>
          <path d="m33.36,15.76v.42h.49v.23h-.49v.73h-.27v-1.6h.8v.23h-.53Z"/>
          <path d="m34.58,15.65s-.01.08-.04.11c-.03.03-.07.04-.11.04s-.08-.01-.11-.04c-.03-.03-.04-.07-.04-.11s.01-.08.04-.11c.03-.03.07-.04.11-.04s.08.01.11.04c.03.03.04.07.04.11Zm-.02,1.48h-.26v-1.04h.26v1.04Z"/>
          <path d="m35.56,16.3c-.06-.05-.12-.08-.18-.08-.09,0-.14.04-.14.13,0,.05.04.09.13.12.15.06.25.11.29.15.04.05.06.1.06.17,0,.11-.04.2-.12.27-.08.07-.17.1-.29.1-.15,0-.27-.06-.37-.17l.11-.15c.09.09.17.13.24.13.11,0,.16-.05.16-.16,0-.05-.03-.09-.08-.12-.06-.03-.1-.04-.13-.06-.16-.07-.24-.16-.24-.26s.03-.18.09-.24c.06-.06.14-.09.24-.09.14,0,.25.04.34.11l-.11.14Z"/>
          <path d="m36.39,17.13h-.26v-.81h-.12v-.21h.12v-.38h.26v.38h.2v.21h-.2v.81Z"/>
          <path d="m38.83,16.94c-.16.14-.32.21-.46.21-.13,0-.24-.04-.32-.13-.08-.09-.12-.19-.12-.32,0-.18.07-.31.21-.4l.13-.08c-.1-.14-.15-.26-.15-.34,0-.11.04-.2.11-.27.07-.07.17-.11.28-.11s.21.04.28.11c.07.07.11.16.11.28,0,.13-.09.26-.27.38l.24.31.18-.21.17.17-.2.23.29.37h-.34l-.15-.19Zm-.43-.55c-.14.1-.2.2-.2.28,0,.16.07.24.21.24.07,0,.16-.05.26-.16l-.27-.36Zm.1-.29l.06-.04c.08-.05.12-.12.12-.2,0-.12-.05-.18-.15-.18s-.15.06-.15.17c0,.04.01.08.04.12l.09.13Z"/>
          <path d="m41.79,15.91c-.09-.11-.21-.17-.35-.17s-.27.06-.37.18c-.1.12-.15.26-.15.41s.05.28.15.4c.1.12.22.18.37.18s.26-.06.35-.17v.33c-.13.06-.25.1-.36.1-.22,0-.41-.08-.56-.25-.15-.16-.23-.36-.23-.59s.08-.44.23-.6c.15-.17.34-.25.57-.25.12,0,.24.03.36.09v.33Z"/>
          <path d="m43.17,17.13h-.25v-.1c-.07.09-.18.13-.33.13s-.26-.06-.35-.17c-.09-.11-.13-.24-.13-.4s.04-.28.13-.39c.09-.11.2-.16.34-.16.15,0,.26.04.34.13v-.1h.25v1.04Zm-.22-.52c0-.1-.03-.18-.08-.24-.05-.06-.12-.09-.21-.09s-.15.03-.21.09c-.05.06-.08.14-.08.24s.03.18.08.24c.05.06.13.09.21.09s.16-.03.21-.09c.05-.06.08-.14.08-.25Z"/>
          <path d="m43.85,16.53l.36-.44h.34l-.44.46.47.58h-.35l-.39-.51v.51h-.26v-1.8h.26v1.2Z"/>
          <path d="m45.1,16.63c0,.1.02.18.07.25.04.07.1.1.18.1.12,0,.2-.06.23-.18l.24.04c-.08.22-.24.32-.48.32-.16,0-.28-.05-.38-.15-.09-.1-.14-.23-.14-.39,0-.17.05-.31.14-.41.09-.1.21-.15.37-.15s.28.05.36.15c.09.1.13.23.13.4v.03h-.73Zm.49-.14c0-.07-.02-.14-.07-.19-.04-.05-.1-.08-.17-.08s-.13.03-.17.09c-.04.06-.07.12-.07.19h.48Z"/>
          <path d="m33.36,19.62h-.27v-1.6h.43c.37,0,.56.17.56.5s-.17.51-.51.51h-.2v.6Zm0-.82h.13c.2,0,.3-.1.3-.29s-.1-.28-.31-.28h-.13v.57Z"/>
          <path d="m34.66,18.68c.07-.1.17-.14.31-.14.04,0,.08,0,.12.03l-.03.23s-.08-.04-.13-.04c-.18,0-.27.13-.27.39v.47h-.26v-1.04h.26v.11Z"/>
          <path d="m36.41,19.09c0,.16-.05.3-.15.4-.1.1-.23.16-.39.16s-.3-.05-.4-.16c-.1-.1-.15-.24-.15-.4s.05-.3.15-.4c.1-.1.23-.16.4-.16s.3.05.4.15c.1.1.15.24.15.4Zm-.84,0c0,.1.03.18.08.24.05.06.12.09.21.09s.16-.03.21-.1.08-.14.08-.24-.03-.17-.08-.24c-.05-.07-.12-.1-.21-.1s-.16.03-.21.1c-.05.06-.08.14-.08.24Z"/>
          <path d="m37.48,19.52c-.07.09-.18.13-.32.13s-.27-.06-.35-.17c-.09-.11-.13-.24-.13-.4s.04-.28.13-.39c.09-.11.2-.16.34-.16.15,0,.26.04.33.13v-.86h.26v1.8h-.26v-.1Zm.03-.43c0-.09-.03-.17-.08-.24-.06-.07-.12-.1-.2-.1s-.15.03-.2.1c-.06.06-.09.14-.09.24s.03.17.08.24c.06.06.13.1.21.1s.15-.03.21-.09c.05-.06.08-.14.08-.24Z"/>
          <path d="m38.39,18.57v.57c0,.2.07.3.21.3s.21-.1.21-.3v-.57h.26v.61c0,.31-.16.46-.47.46s-.47-.15-.47-.46v-.61h.26Z"/>
          <path d="m40.19,18.85c-.07-.07-.14-.1-.22-.1-.1,0-.17.03-.22.1-.05.07-.08.15-.08.25s.03.18.09.24c.06.06.14.1.22.1.08,0,.15-.03.21-.1v.25c-.07.04-.16.06-.26.06-.15,0-.28-.05-.38-.16-.1-.11-.15-.24-.15-.39s.05-.29.15-.39c.1-.11.23-.16.39-.16.09,0,.17.02.24.07v.24Z"/>
          <path d="m40.89,19.62h-.26v-.81h-.12v-.21h.12v-.38h.26v.38h.2v.21h-.2v.81Z"/>
          <path d="m41.67,18.13s-.01.08-.04.11c-.03.03-.07.04-.11.04s-.08-.01-.11-.04c-.03-.03-.04-.07-.04-.11s.01-.08.04-.11c.03-.03.07-.04.11-.04s.08.01.11.04c.03.03.04.07.04.11Zm-.02,1.48h-.26v-1.04h.26v1.04Z"/>
          <path d="m43.12,19.09c0,.16-.05.3-.15.4-.1.1-.23.16-.39.16s-.3-.05-.4-.16c-.1-.1-.15-.24-.15-.4s.05-.3.15-.4c.1-.1.23-.16.4-.16s.3.05.4.15c.1.1.15.24.15.4Zm-.84,0c0,.1.03.18.08.24.05.06.12.09.21.09s.16-.03.21-.1c.05-.07.08-.14.08-.24s-.03-.17-.08-.24c-.05-.07-.12-.1-.21-.1s-.16.03-.21.1c-.05.06-.08.14-.08.24Z"/>
          <path d="m43.71,18.67c.07-.09.18-.13.32-.13.24,0,.36.15.36.44v.64h-.25v-.55c0-.22-.07-.33-.2-.33-.15,0-.22.12-.22.35v.53h-.26v-1.04h.26v.1Z"/>
        </g>
      </g>
      <g>
        <polygon points="30.56 6.8 33.09 6.77 33.54 5.05 32.79 4.64 32.69 6.23 30.86 6.23 30.56 6.8"/>
        <polygon points="25.77 3.14 25.94 5.88 27.17 5.88 27.17 3 25.77 3.14"/>
        <polygon points="27.55 2.47 27.55 5.88 28.96 5.88 28.96 2.38 27.55 2.47"/>
        <polygon points="29.33 1.97 29.33 5.88 30.74 5.88 30.74 2.07 29.33 1.97"/>
        <polygon points="31.11 2.33 31.11 5.88 32.34 5.88 32.52 2.44 31.11 2.33"/>
        <path d="m30.46.97c-.17-.32-.37-.38-.56-.4-.21-.02-.63-.58-.63-.58,0,0,.51.9.43,1.07-.11.2-.26.37-.26.37l1.2.11s0-.25-.18-.57Z"/>
      </g>
    </g>
  </g>
</svg>