<?xml version="1.0" encoding="UTF-8"?>
<svg id="uuid-708fd8d7-4b37-4d20-9359-7ef017629d04" data-name="圖層 2" xmlns="http://www.w3.org/2000/svg" viewBox="0 0 61.47 20">
  <g id="uuid-161c5e9b-3964-4f48-9499-f6d67e92b8f7" data-name="介面">
    <g>
      <g>
        <path d="m22.44,16.07c-.08,1.95-1.67,3.48-3.62,3.48-1.43,0-2.73-.85-3.31-2.15l-.02-.04h-.43s.03.08.03.08c.62,1.52,2.08,2.5,3.72,2.5,2.17,0,3.94-1.7,4.01-3.87v-.06s-.39,0-.39,0v.06Z"/>
        <path d="m18.82,19.99c-1.65,0-3.13-.99-3.76-2.52l-.06-.14h.51s.03.06.03.06c.58,1.29,1.86,2.13,3.27,2.13,1.93,0,3.51-1.51,3.58-3.44v-.1s.48,0,.48,0v.1c-.08,2.19-1.87,3.91-4.06,3.91Zm-3.69-2.58v.03c.63,1.5,2.07,2.47,3.69,2.47,2.15,0,3.9-1.68,3.97-3.83v-.02s-.31,0-.31,0v.02c-.08,1.98-1.69,3.52-3.66,3.52-1.44,0-2.76-.86-3.35-2.18h0s-.34-.01-.34-.01Z"/>
      </g>
      <g>
        <polygon points="54.6 11.91 54.6 12.63 57.67 12.63 57.67 20 58.39 20 58.4 12.63 61.47 12.63 61.47 11.91 54.6 11.91"/>
        <path d="m50.41,13.81v-1.91s-.72,0-.72,0v8.09s.72,0,.72,0v-3.84c.01-1.94,1.6-3.52,3.55-3.52h.09s0-.72,0-.72h-.09c-1.41,0-2.76.73-3.55,1.91Z"/>
        <path d="m27.56,11.87c-2.24,0-4.06,1.82-4.06,4.06,0,2.24,1.82,4.06,4.06,4.06s4.06-1.82,4.06-4.06c0-2.24-1.82-4.06-4.06-4.06Zm0,7.65c-1.98,0-3.59-1.61-3.58-3.59s1.61-3.59,3.59-3.58c1.98,0,3.59,1.61,3.58,3.59s-1.61,3.59-3.59,3.58Z"/>
        <path d="m18.82,11.87c-2.16,0-3.93,1.68-4.05,3.83h-.62s0-3.83,0-3.83h-.47s0,3.83,0,3.83h-.62c-.05-1.02-.48-1.98-1.21-2.69-.76-.74-1.76-1.15-2.82-1.15H.21s0,8.13,0,8.13h.47s0-3.82,0-3.82h4.3c.12,2.15,1.89,3.82,4.04,3.82,2.15,0,3.92-1.67,4.04-3.81h.62s0,3.82,0,3.82h.47s0-3.82,0-3.82h6.46s0-.47,0-.47h-5.36c.12-1.89,1.68-3.36,3.58-3.36,1.42,0,2.7.84,3.28,2.14l.03.06h.51s-.06-.14-.06-.14c-.62-1.54-2.1-2.53-3.76-2.54Zm-13.85,3.82H.68s0-3.37,0-3.37h6.44c-1.26.67-2.08,1.94-2.15,3.37Zm4.04,3.82c-1.88,0-3.44-1.47-3.56-3.34h7.13c-.12,1.88-1.68,3.35-3.57,3.34Zm-3.56-3.82c.1-1.75,1.49-3.19,3.24-3.35.08,0,.3-.02.33-.02.94,0,1.82.36,2.49,1.02.64.63,1.02,1.46,1.07,2.35h-7.13Z"/>
        <path d="m40.42,15.98c-.02-2.26-1.87-4.1-4.13-4.1-2.24,0-4.09,1.82-4.14,4.06v4.05s.47,0,.47,0v-3.98c0-2.02,1.65-3.66,3.67-3.66,2.02,0,3.66,1.65,3.66,3.67v3.98s.47,0,.47,0v-3.99s0-.03,0-.03Z"/>
        <path d="m45.09,11.9c-2.23,0-4.05,1.81-4.05,4.04s1.69,3.93,3.85,4.04h.39c1.26-.06,2.42-.71,3.13-1.74v1.74s.72,0,.72,0v-.09s0-3.91,0-3.95c0-2.23-1.81-4.05-4.04-4.05Zm3.33,4.05c0,.11,0,.23-.02.34-.18,1.7-1.6,2.98-3.31,2.98-1.83,0-3.33-1.49-3.33-3.33s1.49-3.33,3.33-3.33,3.31,1.49,3.32,3.31v.02Z"/>
      </g>
      <rect x="20.53" y="15.7" width="2.44" height=".47"/>
      <g>
        <g>
          <rect x="10.51" y="4.74" width="8.51" height=".46"/>
          <g>
            <path d="m25.07.57h-3.93s0,9.53,0,9.53h.46s0-5.72,0-5.72h3.46s0-3.81,0-3.81Zm-.46,2.07v1.29s-3,0-3,0v-1.29s3,0,3,0Zm0-1.61v1.14s-3,0-3,0v-1.14s3,0,3,0Z"/>
            <path d="m26.09.57v3.82s3.46,0,3.46,0v5.72s.46,0,.46,0V.58s-3.92,0-3.92,0Zm.46,1.61v-1.14s3,0,3,0v1.14s-3,0-3,0Zm0,1.75v-1.29s3,0,3,0v1.29s-3,0-3,0Z"/>
            <path d="m23.53,9.28h4.13s0-4.22,0-4.22h-4.13s0,4.22,0,4.22Zm3.67-1.88v1.42s-3.21,0-3.21,0v-1.42s3.21,0,3.21,0Zm0-1.88v1.42s-3.21,0-3.21,0v-1.42s3.21,0,3.21,0Z"/>
          </g>
          <g>
            <path d="m1.43,5.33l.46.02v-.08c.07-1.37-.28-2.08-.29-2.11l-.04-.07-.41.2.03.07s.31.66.25,1.89v.08Z"/>
            <path d="m2.72,0L.91,1.12v-.12s-.46,0-.46,0v5.98s-.45.12-.45.12l.12.45,1.84-.49c-.22.89-.69,1.96-1.7,2.76l-.06.05.29.36.06-.05c2.27-1.8,2.07-4.72,2.06-4.84V1.91s-.46,0-.46,0v3.45s.03.51-.08,1.2l-1.16.31V1.67S2.96.39,2.96.39l-.24-.39Z"/>
            <polygon points="7.96 5.72 9.68 3.9 5.9 3.9 5.9 4.36 8.61 4.36 7.49 5.53 7.49 6.61 5.46 6.61 5.46 7.07 7.49 7.07 7.49 9.5 6.87 9.5 6.87 9.96 7.95 9.97 7.96 7.07 10.01 7.07 10.01 6.61 7.96 6.61 7.96 5.72"/>
            <path d="m5.59,3.97l.05-.06s.55-.71.85-2.54c1.84-.34,2.69-.91,2.72-.94l.07-.05L9.02,0l-.07.05s-.86.57-2.68.89l-.18-.03v.08c-.28,1.9-.81,2.62-.82,2.63l-.03.03V1.02s-2.18,0-2.18,0v9.06s.46,0,.46,0V1.48s1.26,0,1.26,0v5.85s-.84,0-.84,0v.46s1.3,0,1.3,0V3.71s.34.27.34.27Z"/>
            <path d="m7.51,1.44l-.38.26.04.07s.27.43.37,1.65v.08s.47-.04.47-.04v-.08c-.12-1.38-.44-1.86-.46-1.88l-.05-.07Z"/>
            <path d="m8.75,1.03l-.33.32.06.06s.84.88,1.09,2.05l.02.08.45-.1-.02-.08c-.28-1.3-1.17-2.23-1.21-2.27l-.06-.06Z"/>
            <path d="m4.21,5.43l.46-.05v-.08c-.15-1.39-.51-2.08-.55-2.15l-.04-.07-.4.23.04.07s.36.66.49,1.97v.08Z"/>
          </g>
        </g>
        <rect x="18.1" y="4.74" width="2.44" height=".46"/>
      </g>
    </g>
  </g>
</svg>