<?xml version="1.0" encoding="UTF-8"?>
<svg id="uuid-194d7a52-b98a-43b9-b983-a1e3e075fdec" data-name="圖層 2" xmlns="http://www.w3.org/2000/svg" viewBox="0 0 45.7 20">
  <g id="uuid-fe9557ca-ee52-4db1-9bab-68e8e8e95f39" data-name="介面">
    <g>
      <g>
        <g>
          <path d="m36.3,7.81v-2.55h-.75v3.42c.42,0,.75-.39.75-.87Z"/>
          <path d="m31.43,5.96l.07-.19h1.06v.93h-1.43v.43h1.43v.86h-1.05v-.32h-.75v2.29h.75v-1.53h1.05v1.9h.75v-1.9h1.02v1.62c.42,0,.75-.39.75-.87v-1.51h-.75v.32h-1.02v-.86h1.51v-.43h-1.51v-.93h1.51v-.43h-1.51v-1.15h-.75v1.15h-.9l.37-1.01-.69-.34-.9,2.42c.38.19.83-.02.99-.46Z"/>
          <path d="m37.93,13.85h-1.61l-.29-.54.93-.72c.31-.24.39-.73.18-1.08l-1.47,1.14-.79-1.44h2.93v-.43h-3.16l-.19-.35c-.22-.41-.69-.53-1.04-.27l.34.62h-3.17v.43h2.01v.05l-2.02,1.59c.23.4.57.39.92.12l.82-.63v2.04h.75v-2.61l.73-.56h.18l1.54,2.81c.22.41.69.53,1.04.27v-.02s1.36,0,1.36,0v-.43Z"/>
          <path d="m35.93,9.67v.43h.85v.38c.42,0,.75-.39.75-.87v-5.42h-.75v5.48h-.85Z"/>
        </g>
        <g>
          <path d="m39.88,5.1c0-.48-.33-.87-.75-.87v2.01h.75v-1.14Z"/>
          <path d="m45.09,12.44v-3.48h-.77v.35h-2.05v-.35h-.77v4.36h.77v-.42h2.05v.42c.43,0,.77-.39.77-.87Zm-2.83.01v-2.71h2.05v2.71h-2.05Z"/>
          <path d="m45.68,8.04h-1.99v-2h1.66v-.44h-1.66v-1.48h-.75v1.48h-1.04l.41-1.12-.62-.31-.86,2.36c.34.17.74-.02.88-.42l.03-.08h1.2v2h-2.26v.44h5v-.44Z"/>
          <path d="m39.69,13.84l1.24-4.27c-.27-.1-.54-.02-.74.18h-.64l.94-2.93-.7-.3-.14.44h-1.2v.44h1.06l-1.05,3.28c.38.16.79-.06.95-.49h.56l-1.04,3.66h-.47v.44h7.26v-.44h-6.01Z"/>
        </g>
      </g>
      <g>
        <g>
          <path d="m1.82,8.16l1.07-3.5-.73-.29-.2.67H.77v-.53h-.77v9.92h.77V5.48h1.06l-.99,3.22c.4.16.84-.08.98-.54Z"/>
          <path d="m2.79,8.66l-.72-.3-1.21,3.69h0c.4.16.84-.08.98-.54l.95-2.86Z"/>
          <path d="m5.49,9.97h.84v.49c.42,0,.77-.4.77-.88v-3.76h-.77v.36h-1.02v-1.22h1.53v-.44h-1.53v-.49h-.77v.49h-1.41v.44h1.41v1.22h-.98v-.36h-.77v4.65h.77v-.49h.85l-2.74,4.08c.27.24.66.18.87-.13l2-2.98v3.48h.77v-3.57l2.06,3.07c.21.31.59.37.87.13l-2.74-4.08Zm-.19-.44v-1.3h1.02v1.3h-1.02Zm1.02-2.92v1.18h-1.02v-1.18h1.02Zm-1.79,0v1.18h-.98v-1.18h.98Zm-.98,1.63h.98v1.3h-.98v-1.3Z"/>
        </g>
        <path d="m13.3,8.27h1.15v-.53h-1.29l-.8-2.94,1.68-.24c.24-.03.42-.28.39-.54l-4.97.69v-.38h-.91v10.09c.47,0,.67-.07,1.03-.4l.7-.67c.08-.08.15-.16.21-.25.17-.31.12-.58-.17-.84l-.87.79v-4.78h2.86l1.48,5.41c.17.56.71.74,1.14.6l-1.63-6.01Zm-3.86-.53v-2.52l1.97-.29.75,2.81h-2.72Z"/>
      </g>
      <g>
        <g>
          <path d="m25.93,7.22l-.4.4c-.12.12-.12.32,0,.44l-.4.4.42.42.02-.02c.11-.11.11-.29,0-.4l.1-.1c.12-.12.12-.32,0-.44l.7-.7-.84-.84c-.12.12-.12.32,0,.44l.4.4Z"/>
          <path d="m24.2,6.46c.55.36.67.05.79-.11.11-.14.16-.23.16-.23h-1.45s.24.15.5.34Z"/>
          <path d="m25.21,1.81c-.11-.07-.23-.13-.35-.18-.27-.13-.55-.23-.85-.3h-.04c-.38-.1-.78-.15-1.19-.14-.01,0-.03,0-.04,0-.14,0-.28.01-.41.03-2.25.26-4,2.15-4.14,4.43,0,.1-.01.21-.01.31v8.35h0s0,.01,0,.01c0,2.59,2.11,4.69,4.7,4.69s4.68-2.1,4.69-4.68h0V5.88c0-1.74-.95-3.26-2.35-4.07Zm-.84.95l2.87,2.87c0,.08,0,.16,0,.24v.71l-3.01-3.01-5.76,5.76v-.96c.1-.08.19-.11.28-.15.15-.06.32-.13.54-.35.22-.22.29-.39.35-.54.06-.14.1-.26.28-.44.18-.18.3-.23.44-.28.15-.06.32-.13.54-.35.22-.22.29-.39.35-.54.05-.14.1-.26.28-.44.18-.18.3-.23.44-.28.15-.06.32-.13.54-.35.22-.22.29-.39.35-.54.05-.14.1-.26.28-.44.18-.18.3-.23.44-.28.15-.06.32-.13.54-.35.12-.12.19-.22.25-.31Zm-5.89,7.02l.55-.55v3.87l-.55.69v-4.02Zm4.68-4.68l1.09-1.09,2.26,2.26h0v6.57l-1.3-1.65s-.07-.06-.12-.06h-.78v-.87h.23c.65,0,.84-.32.87-.81.1,0,.19-.08.19-.19v-.12h-.49v.15c0,.52-.11.65-.56.65h-.95c0,.17.14.31.31.31h.1v.87h-1.21l-.98-4.68,1.19-1.19v1.01c.17,0,.31-.14.31-.31v-.56h.56c.17,0,.31-.14.31-.31h-1.01Zm-4.51,8.99l1.78-2.25-.14.72s0,0,0,.01c0,.04-.01.07-.01.11,0,.48.62.86,1.41.86s1.41-.38,1.41-.86c0-.03,0-.06,0-.1,0,0,0,0,0,0l-.23-1.13h2.16l2.08,2.64h-8.44Zm4.13-1.41c0,.26-.45.55-1.1.55s-1.1-.29-1.1-.55.45-.55,1.1-.55,1.1.29,1.1.55Zm-1.1-.86c-.39,0-.73.09-.98.24l.12-.61h1.71l.13.6c-.25-.15-.59-.24-.98-.24Zm-.8-.68l.77-3.92.82,3.92h-1.59Zm-.32.04s-.01.01-.02.02l-.43.55v-3.58l1.29-1.29-.84,4.31Zm-.76.96l-.45.57v-3.79l.45-.45v3.67Zm7.02,1.1v-6.66l.44.44v6.78l-.44-.56Zm-.05,1.16l-3.85,1.81-4.07-1.81h7.92Zm.43-9.26l-2.68-2.68c.05-.11.1-.21.25-.36.05-.05.09-.08.13-.11,1.2.62,2.07,1.78,2.31,3.16Zm-2.65-3.26c-.22.22-.29.39-.35.54-.05.14-.1.26-.28.44-.18.18-.3.23-.44.28-.15.06-.32.13-.54.35-.22.22-.29.39-.35.54-.06.14-.1.26-.28.44-.18.18-.3.23-.44.28-.15.06-.32.13-.54.35-.22.22-.29.39-.35.54-.05.14-.1.26-.28.44-.18.18-.3.23-.44.28-.15.06-.32.13-.54.35-.22.22-.29.39-.35.54-.06.14-.1.26-.28.44-.18.18-.3.23-.44.28-.05.02-.11.04-.17.07v-1.05s.06-.02.09-.03c.13-.04.29-.09.47-.28.19-.19.23-.34.28-.47.04-.12.06-.21.2-.34.13-.13.23-.16.34-.2.13-.04.28-.09.47-.28.19-.19.23-.34.27-.47.04-.12.06-.21.2-.34.13-.13.23-.16.34-.2.13-.04.28-.09.47-.27.19-.19.23-.34.27-.47.04-.12.06-.21.2-.34.13-.13.23-.16.34-.2.13-.04.28-.09.47-.27.19-.19.23-.34.28-.47.04-.12.06-.21.2-.34.13-.13.23-.16.34-.2.09-.03.2-.06.31-.14.18.05.36.11.54.19-.01.01-.03.03-.04.04Zm-1.67-.38c.22,0,.43.02.64.05-.1.04-.21.1-.34.23-.19.19-.23.34-.27.47-.04.12-.06.21-.2.34-.13.13-.23.16-.34.2-.13.04-.28.09-.47.28-.19.19-.23.34-.28.47-.04.12-.06.21-.2.34s-.23.16-.34.2c-.13.04-.28.09-.47.28-.19.19-.23.34-.28.47-.04.12-.06.21-.2.34-.13.13-.23.16-.34.2-.13.04-.28.09-.47.27-.19.19-.23.34-.28.47-.04.12-.06.21-.2.34-.13.13-.23.16-.34.2v-.77s0-.07,0-.11c.11-.14.15-.26.18-.37.04-.12.06-.21.2-.34.13-.13.23-.16.34-.2.13-.04.28-.09.47-.28.19-.19.23-.34.28-.47.04-.12.06-.21.2-.34.13-.13.23-.16.34-.2.13-.04.29-.09.47-.27.19-.19.23-.34.27-.47.04-.12.06-.21.2-.34.13-.13.23-.16.34-.2.13-.04.28-.09.47-.27.19-.19.23-.34.27-.47,0-.01,0-.02,0-.03.11,0,.22-.01.32-.01Zm-.66.05c-.03.08-.07.15-.16.25-.13.13-.23.16-.34.2-.13.04-.28.09-.47.28s-.23.34-.28.47c-.04.12-.06.21-.2.34-.13.13-.23.16-.34.2-.13.04-.28.09-.47.28-.19.19-.23.34-.27.47-.04.12-.06.21-.2.34s-.23.16-.34.2c-.13.04-.29.09-.47.28-.02.02-.04.04-.05.05.4-1.73,1.83-3.08,3.61-3.35Zm-3.71,13.04l4.06,1.81-2.58,1.22c-.85-.75-1.41-1.82-1.48-3.02Zm1.75,3.24l2.68-1.27,2.67,1.19c-.75.6-1.7.96-2.73.96s-1.9-.33-2.63-.88Zm5.62-.3l-2.56-1.14,3.96-1.87c-.06,1.19-.58,2.25-1.4,3.01Z"/>
        </g>
        <g>
          <path d="m18.71,2.13h0c-.14-.15-.13-.36.01-.5.08-.08.15-.1.24-.11v.12c-.05,0-.11.02-.16.07-.09.09-.09.22.01.32h0c.1.11.24.11.32.03.05-.05.07-.11.08-.17h.11c0,.1-.04.18-.12.25-.14.14-.34.14-.49-.01Z"/>
          <path d="m19.05,1.35l.1-.08.17.23.25-.18-.17-.23.1-.08.4.54-.1.08-.17-.23-.25.18.17.23-.1.08-.4-.54Z"/>
          <path d="m19.7.89l.43-.24.05.09-.32.18.09.16.28-.16.05.09-.28.16.09.16.32-.18.05.09-.43.24-.33-.59Z"/>
          <path d="m20.31.56l.11-.05.49.29-.17-.42.12-.05.26.63-.1.04-.5-.3.18.43-.12.05-.26-.63Z"/>
          <path d="m21.09.5c.06-.03.08-.07.06-.12l-.05.02-.04-.12.14-.04.03.1c.03.1-.01.16-.11.2l-.03-.04Z"/>
          <path d="m21.44.77l.06-.1c.07.03.14.05.22.04.07-.02.11-.06.1-.11h0s-.04-.06-.17-.08c-.16-.02-.24-.05-.26-.15h0c-.02-.11.06-.21.2-.24.09-.02.18-.01.26.03l-.05.1c-.06-.03-.12-.04-.18-.03-.07.01-.1.06-.1.1h0s.04.07.18.08c.15.02.23.05.25.15h0c.02.12-.06.22-.21.25-.1.02-.2.01-.3-.04Z"/>
          <path d="m22.33.37h0c0-.21.13-.36.34-.37.11,0,.18.03.25.08l-.07.09s-.1-.06-.17-.06c-.12,0-.21.11-.21.25h0c0,.15.1.24.22.24.07,0,.12-.03.17-.08l.08.08c-.07.06-.14.1-.25.11-.2,0-.35-.12-.36-.33Z"/>
          <path d="m23.1,0l.28.02c.09,0,.16.04.2.08.04.04.06.09.05.15h0c0,.11-.08.17-.18.19l.16.28h-.15s-.14-.27-.14-.27c0,0,0,0,0,0h-.12s-.02.23-.02.23h-.13s.06-.69.06-.69Zm.24.36c.1,0,.16-.03.17-.1h0c0-.08-.05-.12-.14-.13h-.14s-.02.22-.02.22h.14Z"/>
          <path d="m23.86.09l.48.1-.02.1-.36-.08-.04.18.32.07-.02.1-.32-.07-.04.18.36.08-.02.1-.49-.1.14-.66Z"/>
          <path d="m24.76.32l.12.04.04.74-.13-.04v-.17s-.29-.1-.29-.1l-.11.13-.12-.04.5-.55Zm.02.46l-.02-.29-.2.22.21.07Z"/>
          <path d="m25.31.66l-.19-.09.05-.09.49.23-.05.09-.19-.09-.25.52-.12-.06.25-.52Z"/>
          <path d="m25.81.8l.11.07-.34.58-.11-.07.34-.58Z"/>
          <path d="m25.89,1.24h0c.12-.17.32-.2.48-.08.16.12.19.32.07.48h0c-.12.17-.32.2-.48.08-.16-.12-.19-.32-.07-.48Zm.45.33h0c.09-.12.07-.25-.03-.33-.1-.07-.23-.05-.31.07h0c-.09.12-.07.25.03.33.1.07.23.05.31-.07Z"/>
          <path d="m26.81,1.52l.09.08-.07.56.32-.32.09.09-.48.48-.08-.08.07-.58-.33.33-.09-.09.48-.48Z"/>
        </g>
        <g>
          <path d="m21.58,19.75l.28-.17c.1-.06.14-.1.15-.15.01-.06-.03-.1-.09-.12-.06-.01-.11,0-.17.06l-.07-.08c.08-.06.16-.09.27-.07.13.03.22.12.19.23h0c-.02.09-.08.14-.21.21l-.18.11.32.06-.02.1-.48-.1.02-.09Z"/>
          <path d="m22.23,19.63h0c.01-.22.14-.35.32-.34.18.01.28.16.27.36h0c-.01.22-.14.35-.32.34-.18-.01-.28-.16-.27-.36Zm.46.03h0c0-.16-.05-.26-.15-.26-.1,0-.17.08-.18.23h0c-.01.16.05.26.15.26.1,0,.17-.08.18-.23Z"/>
          <path d="m22.94,19.91l.23-.24c.08-.08.11-.13.11-.18,0-.06-.06-.09-.12-.09-.06,0-.1.04-.15.1l-.09-.06c.06-.08.13-.13.25-.14.14,0,.24.06.25.18h0c0,.09-.04.15-.15.26l-.15.16.32-.02v.1s-.49.03-.49.03v-.09Z"/>
          <path d="m23.58,19.87l.2-.26c.07-.09.1-.14.09-.19-.01-.06-.07-.09-.13-.08-.06.01-.1.05-.14.11l-.1-.05c.05-.09.12-.15.23-.17.13-.02.24.03.26.15h0c.02.09-.02.16-.12.27l-.13.17.32-.06.02.1-.49.09-.02-.09Z"/>
        </g>
        <g>
          <path d="m21.33,19.44c-2.22-.67-3.77-2.75-3.77-5.07V5.6c0-1.23.43-2.42,1.21-3.37l.06.05c-.77.93-1.19,2.11-1.19,3.32v8.77c0,2.29,1.53,4.34,3.72,5l-.02.07Z"/>
          <path d="m24.2,19.49l-.02-.07c2.29-.6,3.89-2.68,3.89-5.05V5.6c0-1.2-.4-2.33-1.14-3.26l.06-.05c.76.95,1.16,2.09,1.16,3.31v8.77c0,2.4-1.62,4.51-3.94,5.12Z"/>
        </g>
      </g>
    </g>
  </g>
</svg>