<?xml version="1.0" encoding="UTF-8"?>
<svg id="uuid-84a127c5-c703-4e59-940e-332c36171562" data-name="圖層 2" xmlns="http://www.w3.org/2000/svg" viewBox="0 0 98.86 20.24">
  <defs>
    <style>
      .uuid-ac330f96-5c08-4c93-a076-74024327886c {
        fill: #009be4;
      }

      .uuid-42be22af-e4a4-41af-bd99-649bfc9a9880 {
        fill: #e50012;
      }

      .uuid-80a97fd1-bda9-4d12-b01a-47a4ba41e5a2, .uuid-ea26d33f-bce1-40cd-9fed-4b5598a54541 {
        fill: #231815;
      }

      .uuid-e349000e-2c2c-48a4-a249-39c0d386fd95 {
        stroke: #fff;
        stroke-width: .24px;
      }

      .uuid-e349000e-2c2c-48a4-a249-39c0d386fd95, .uuid-bd5903fe-f96d-42f1-b68e-24778bef938f {
        fill: #fff;
      }

      .uuid-ea26d33f-bce1-40cd-9fed-4b5598a54541, .uuid-4d048713-b295-41ff-9fcf-ad46a639439b, .uuid-2194a952-06e5-4ed0-9c35-a8b305f91c2f, .uuid-bd5903fe-f96d-42f1-b68e-24778bef938f, .uuid-40a288c9-f6e9-4267-acda-b1de461b1b68 {
        fill-rule: evenodd;
      }

      .uuid-4d048713-b295-41ff-9fcf-ad46a639439b {
        fill: #d4d4d5;
      }

      .uuid-2194a952-06e5-4ed0-9c35-a8b305f91c2f {
        fill: #f0f6fa;
      }

      .uuid-40a288c9-f6e9-4267-acda-b1de461b1b68 {
        fill: #010102;
      }
    </style>
  </defs>
  <g id="uuid-f47fe7bf-5d2d-47eb-94f6-3c2c436e5899" data-name="介面">
    <g>
      <g>
        <path class="uuid-e349000e-2c2c-48a4-a249-39c0d386fd95" d="m19.05,15.69h4.37s.78-.39.25-1.48l2.75-.94s.41-.6,0-1.46c-.25-.53-1.05-1.1-1.21-1.63-.15-.51.15-.64.65-.92,0,0,.93-.69,1.39-2.03.46-1.35.52-2.11.41-2.92-.11-.8-.46-.96-1.07-1.05-.45-.07-.79.08-1.18.36-.39.28-1.07,1.06-1.07,1.06h-1.15s-.09-1.39-.52-1.74c-.51-.41-1-.21-1.29.09-.28.29-.67.75-1.13,1.38-.42.58-1.18,1.72-1.18,1.72l-2.19-.94s.47-1.24.36-2.23c-.11-.99-.18-4.15-4.15-2.23,0,0-.91.54-1.27,1.01-.35.45-1.39,1.25-.86,4.48l.05.6s-2.76.6-4.72,1.81c-1.09.68-1.86,1.06-3.08,2.18-1.22,1.11-1.73,2.05-2.41,3.34-.53,1.01-.96,3.34-.49,4.38.25.55.97.86,1.69,1.12,1.16.43,2.72.7,4.61.17,1.81-.5,3.18-1.94,3.18-1.94,0,0,.96,1,2.02,1.12.77.08,1.94-.36,2.38-1.27l4.87-2.04Z"/>
        <path class="uuid-ea26d33f-bce1-40cd-9fed-4b5598a54541" d="m27.1,4.39c-.05-.12-.01-.28-.04-.41-.04-.04-.05-.09-.1-.13-.02-.02-.06,0-.07-.02-.08,0-.19-.08-.25,0-.14-.05-.04.12-.15.14-.06-.03-.06.05-.11.05-.07.02-.13,0-.19-.05,0-.03,0-.07-.03-.08.02-.07-.06-.02-.07-.07l-.04-.04c-.11-.02-.13.1-.21.14-.02.15,0,.29-.09.4-.04.05-.15.04-.15.12-.04.04-.04.08-.09.11,0,.06-.11.06-.09.13-.09.03-.16-.01-.26.01-.04.02-.07.06-.07.12-.07.06-.02.18-.03.26-.08.02-.12.11-.22.07-.03.01-.03.05-.03.08-.04.04-.03.12-.11.14-.02.03.02.12-.05.11-.09.02-.06.19-.19.12.01.07-.07.05-.08.11-.07.02-.03.13-.11.17.01.1-.08.13-.07.23-.04.04-.04.11-.1.12.02.1-.09.1-.09.18-.06.05,0,.15-.07.2.01.09-.11.08-.09.17-.02.07-.13.04-.12.12-.03.04-.08.07-.13.08.03.11-.16.08-.12.19-.04.04-.08.05-.14.04-.01.02-.03.02-.03.04-.1,0-.07.14-.19.09-.03.06-.11.07-.15.12-.11-.02-.13.08-.2.12-.14.01-.24.14-.38.13,0,0-.02-.02-.02-.03.02-.07.12-.06.15-.1.03-.02.04-.08.09-.05.04-.08.18-.09.15-.21-.1-.02-.19.02-.27.06.02.08-.08.03-.09.09-.08-.04-.06.1-.14.05-.02.01-.02.03-.02.05-.02.05-.07.02-.12.03-.04,0-.04.06-.09.05-.06.08-.14.08-.23.09-.1.06-.22.13-.35.13-.01.02-.03.04-.05.03-.03.07-.13.02-.17.07h-.04c-.05.02-.12.02-.15-.02,0-.02,0-.04,0-.05.1,0,.07-.1.12-.14.14-.02.12-.17.23-.23-.01-.09.07-.11.12-.16-.03-.1.09-.11.13-.17-.03-.09.08-.05.08-.1.03-.09.13-.14.19-.22.05.03.05-.05.09-.06-.02-.13.16,0,.15-.11.09.06.11-.09.21-.04.04-.07.15,0,.18-.1,0-.04.06-.05.05-.11.01,0,.01-.02.02-.02v-.09c.04-.09.01-.21.02-.31.03-.03.03-.09.02-.14.08-.06.03-.2.04-.29.05,0,.02-.06.05-.07,0-.05,0-.12-.02-.15,0-.02-.01-.05.02-.04v-.07c-.08-.05-.04-.18-.07-.27-.06-.05,0-.16-.06-.21l-.02-.42s.03-.1-.04-.12v-.23s0-.09-.05-.1c-.01-.08.02-.18-.03-.25.02-.06-.06-.07-.07-.11-.03-.06-.16-.06-.16-.15-.09-.04-.01-.17-.07-.22-.06,0-.12-.03-.18.01-.08.04-.08.16-.14.22-.06.01-.02.14-.12.11,0,.04-.05.04-.05.08-.07.02-.07.11-.11.16.02.11-.05.17-.12.21-.02.04,0,.1-.04.11,0,.06-.06.04-.08.1.03.1-.08.05-.09.14-.06.03-.07.1-.1.15-.02.04-.08.04-.07.1-.03.05-.13.04-.1.13-.05.05-.13.03-.12.12-.06,0-.04.1-.11.06-.03.01,0,.05-.03.07-.05,0-.03.09-.09.05,0,0-.02.01-.02.02.02.08-.06.09-.11.12-.03.02-.01.05-.02.07-.06.02-.14.05-.16.11-.09,0-.06.1-.11.14.01.07-.08.02-.08.08-.02.04-.02.1-.08.1.02.05-.05.05-.04.09-.11.06-.12.19-.22.27h-.03c.04.12-.11.13-.08.25-.08.01,0,.11-.06.14,0,.06-.05.1-.09.14-.03.03.02.1-.04.11.01.08-.08.08-.09.14.02.06-.01.11-.07.12-.01.06-.08.09-.05.18-.01.03-.05.03-.04.07-.07.02-.01.11-.08.12v.07s-.02.05-.05.04c-.05.12-.15.16-.24.25h-.54s-.02-.06-.01-.08c.04-.02.08,0,.12-.02v-.15s.09-.02.12-.06c.04-.1-.07-.08-.08-.14.04-.12.18-.14.3-.14.06-.05.17-.06.17-.17h-.04c-.08.03-.18.03-.25.09h-.05c-.11.08-.27.01-.4.04-.02.03-.04.02-.07.02-.03,0-.07.01-.09-.02-.01-.02-.05,0-.05-.02-.08,0-.06-.08-.07-.15.09-.07-.03-.14-.02-.23-.05-.09-.18-.06-.27-.06-.05-.05-.14-.03-.2-.05-.04-.09-.14-.12-.14-.25,0-.06.05-.05.09-.05.05-.12.19-.04.26-.12.06-.02.06-.08.05-.14-.12.04-.17-.07-.29-.03-.02.04-.07.03-.11.03-.15.1-.32,0-.5.04-.03-.04-.11-.01-.15-.02h0s-.19,0-.19,0c-.05.07-.15.02-.2.08-.04,0-.1.02-.12-.02-.05,0-.07-.04-.1-.07.01-.05-.02-.12.04-.15-.04-.07.08-.09.03-.16.12-.05,0-.24.1-.3.01-.05.04-.1.05-.14.05-.05.04-.14.04-.21.07,0,.02-.09.05-.12.08,0,0-.12.07-.15-.01-.07.01-.14,0-.21.04-.03.04-.08.04-.12.1-.02,0-.15.08-.19-.02-.2.06-.35.03-.56.08-.02.02-.11.06-.15.05-.09.01-.22.02-.32l.03-.02v-.38l-.03-.03c0-.12-.01-.24-.01-.36-.05-.03-.03-.09-.03-.13-.09-.01-.03-.13-.05-.2-.06-.05,0-.14-.05-.19-.07-.02,0-.13-.07-.13.01-.06-.09-.04-.05-.11-.04-.03-.04-.07-.09-.1-.05.01-.03-.05-.05-.07-.03-.03-.04-.07-.1-.07-.03-.02-.02-.06-.03-.09,0-.06-.08,0-.11-.05,0-.06-.05-.07-.07-.1-.06.01-.05-.07-.12-.05-.02-.03-.09-.03-.09-.07-.12.04-.1-.1-.2-.09-.03-.09-.13,0-.17-.07-.06,0-.08-.04-.13-.05-.11.02-.25-.06-.34.04-.04.1-.16,0-.22.06-.04.05-.13.03-.17.08-.09.04-.2.04-.31.05-.04,0-.05.04-.09.04-.1-.03-.12.07-.21.03-.03.09-.13.03-.2.05-.03-.01-.02.05-.06.03-.06.04-.1.05-.15.09-.09,0-.16.04-.23.09-.06-.02-.09.07-.15.04-.08.02-.07.15-.18.12,0,.04-.05.03-.05.06-.03.03-.05.06-.11.06,0,.06-.05.08-.06.13-.07-.02-.07.03-.09.08-.04,0-.05.05-.1.05.03.05-.04.04-.05.08.01.06-.1.02-.07.1-.02.05-.07.08-.12.09.02.13-.12.16-.13.27-.04.03-.05.09-.1.1,0,.09-.05.19-.12.25.01.08-.06.11-.1.14-.04.08-.08.13-.08.22.02.03,0,.07-.01.1-.01.05,0,.13-.05.16.02.12-.05.19-.09.28.03.06-.05.08-.04.13.01.05,0,.13,0,.19-.04,0,0,.06-.04.06l-.02.3c.02.32.02.61-.04.9h0s-.01.04.01.05c-.03.03,0,.07,0,.1-.04.11.02.22,0,.33l.02.02c0,.11.07.19.06.28.09.07,0,.24.09.31,0,.04.07.05.05.11.09.04,0,.17.09.18-.02.07.03.12.07.15l.02.12s.03.09.09.07c.04.03,0,.1.03.14.04.02.04.07.04.12-.04.09-.17.02-.24.06-.12-.02-.24,0-.33.05.01.07-.07.08-.1.11h-.35c-.06.05-.09-.02-.15.02-.05.06-.15.03-.23.04-.09.05-.21.04-.31.05l-.02.02h-.27c-.07.07-.16.07-.23.12-.12-.04-.15.09-.22.13-.12.01-.24-.01-.34.03-.02.02-.04.02-.06,0-.06-.01-.1.03-.15.02,0,.08-.1.02-.12.08-.12-.02-.15.1-.25.1-.04.07-.17.01-.18.11-.1-.03-.08.11-.19.06-.01.02-.03.03-.04.05-.07-.01-.08.04-.12.08-.07-.03-.12.05-.17.05-.02,0,0,.05-.05.04v.03s-.07.01-.11.01c0,.04-.05.05-.07.07-.09-.02-.07.1-.16.06-.02.07-.11.07-.15.12-.09-.01-.13.05-.18.09-.03.02-.07,0-.07.05-.04,0-.07,0-.1,0-.02.01-.03.04-.02.06-.03.04-.06.07-.12.08,0,.04,0,.08-.05.1-.15.02-.22.16-.33.26-.11-.03-.12.1-.22.09-.02.06-.1.03-.14.05v.02s-.03.06-.07.05c0,.06-.07.04-.11.05-.05.04-.11.09-.17.12-.11-.05-.13.08-.18.11-.06.01-.12.02-.16.06-.02.02,0,.05-.04.04,0,.06-.08.03-.12.04-.02.03-.02.05-.05.07-.06,0-.07.08-.14.05-.05.02-.07.08-.12.09-.05.05-.12.06-.17.11-.02.08-.11.07-.15.12.01.07-.08.06-.11.1,0,.08-.09.07-.13.1-.01.05-.06.1-.12.11-.02.09-.14.08-.16.19-.11-.02-.1.1-.17.13-.05-.02-.02.04-.05.05-.05,0-.06.04-.1.05v.02s-.05.07-.1.07c-.03,0-.02.03-.02.05-.03.07-.13.03-.13.11-.02.04-.04.1-.11.08,0,.07-.09.1-.14.14.02.1-.13.08-.12.17,0,.09-.13.04-.12.13-.02.03-.05.08-.1.06-.03.02-.02.04-.02.07-.03.01-.03.07-.08.05-.02.04-.06.05-.04.11-.02.03-.06.01-.08.02.01.06-.05.06-.04.12-.06.03-.02.1-.07.13-.04.04-.05.12-.12.11-.08.06-.04.18-.07.26-.06,0-.09.04-.11.07,0,.08-.11.1-.09.18.12.11.07-.1.19-.08.04-.04.1-.02.14-.03v.09c-.09.05-.12.17-.19.25-.06,0-.04.07-.05.11l-.09.04s-.07,0-.1-.03c0-.03-.06-.06-.03-.09.04-.01.09-.04.07-.09h-.04s-.06.03-.05.06c-.06.01-.07.03-.11.07-.04.07-.04.17-.12.2.04.12-.1.11-.08.22-.1.02,0,.13-.07.16-.03.09-.13.15-.09.27-.06.03-.02.09-.07.11.02.07-.08.07-.05.15,0,.02,0,.05-.04.05.02.06-.04.06-.05.11-.02.05-.03.11-.04.17-.06.03-.06.1-.11.14.03.1-.07.12-.06.21-.02,0-.04.02-.03.05-.07.03-.02.13-.04.19-.04.02-.06.07-.07.11-.07.06-.04.16-.05.25-.04,0-.01.06-.04.07v.03s-.03.09-.07.12v.45c.01.1.12.13.12.23,0,.02.03.02.04.03.02.06,0,.11-.03.17-.07.08-.14-.01-.22-.02-.01-.07-.1-.02-.14-.04v.12s.07.08.08.12c.06.01.02.09.07.1.01.05.06.08.09.12.02.15-.03.33.05.44.01.07.02.17-.03.22v.24s.1.01.15,0c.02.03.06.04.09.05.03.14.2.05.29.09.02.04.07,0,.09.03.06-.02.06.05.11.03.02.07.1.04.15.04.06.03.15.05.11.15.03,0,.06.04.05.08.07.05.17.01.22.09.05,0,.09.05.12.08.06-.02.1.05.13.08.09-.02.14.06.22.07,0,.04.05.02.07.02.05.08.22-.02.23.12.04,0,.11-.02.13.02.02-.01.05-.02.09-.02.14-.01.3,0,.42-.01.02.06.11.03.17.04.02.06.08,0,.12.04.01.07.1.02.15.04-.02-.03.02-.02.03-.05h.34s.06-.06.08-.02h.1s.04,0,.07.01c.05-.01.12.02.15-.03.11,0,.23,0,.33-.02.05-.06.13-.02.2-.03.01-.02.02-.05.04-.05,0-.02,0-.04,0-.04-.05-.02,0-.08-.01-.12.14,0,.28-.01.38.07,0,.04.03.06.08.05.03.04.09.06.07.12.03.02.07,0,.09.02h.07s0,.02,0,.02h.05c.06-.06.17,0,.24-.05.06.02.07-.05.13-.05.04.01.03-.05.07-.03.04-.08.15,0,.19-.08.05,0,.05-.07.11-.05.05-.08.18,0,.23-.11.06-.01.1-.09.19-.07.01-.05.07-.08.12-.11.03,0,.06,0,.07-.03.07,0,.07-.07.12-.09.08.04.06-.08.14-.05v-.02s.08-.08.16-.07c.04-.08.13-.11.21-.13,0-.05.07-.02.06-.07.08.03.07-.09.14-.06.11,0,.06-.16.18-.12.03,0,.04-.03.04-.05.04-.02.04-.09.09-.07.02-.03.06-.04.06-.07.09-.03.12-.16.2-.19,0-.03.03-.03.04-.05.04-.05.07-.08.12-.12.02-.06.11-.04.09-.12.1-.05.14-.13.23-.2.06-.04.03-.12.12-.12.01-.02.03-.04,0-.07.03-.02.04-.06.08-.05,0-.04.04-.04.04-.08-.02-.05.04-.05.07-.05.03,0,.01-.04.01-.05.07-.12.17-.17.24-.27,0-.05.09-.05.09-.1.03-.12.22-.12.19-.27.03-.04.06-.07.12-.06.03-.05.06-.09.12-.13.03-.02-.02-.11.05-.09,0-.07.12-.05.07-.16.01-.02.04-.01.05-.02,0-.02.04-.03.03-.05.07-.02.03-.11.08-.13,0-.09.13-.1.09-.21h-.09s0-.01,0-.01h-.38s-1.43,0-1.43,0c-.04,0-.02.07-.01.09.01.03,0,.08.03.11.05.11.05.25.1.37,0,.11-.07-.02-.14,0,0-.07-.12,0-.12-.08-.1,0-.12-.08-.21-.08-.06-.04-.14-.08-.21-.11-.09.06-.15.17-.26.19-.02.02-.03.06-.08.05-.02.05-.08.03-.11.07-.18.06-.4.13-.61.07h0c-.09,0-.16-.01-.22-.05-.08.04-.06-.06-.14-.02-.03-.05-.1-.03-.13-.08-.08,0-.11-.09-.2-.1-.05.02-.1.03-.14.07.02.06-.05.07-.04.13-.05.01-.03.09-.09.07-.03.04-.11.02-.13.08h-.3s-.06,0-.06.04c-.1,0-.15.01-.23.06-.11.1-.26,0-.39,0,0-.05-.06-.03-.1-.04-.02-.01-.06,0-.04-.05-.05-.04-.04-.12-.03-.18.06-.02,0-.12.06-.14-.01-.08.02-.2-.03-.25.05-.05-.02-.08,0-.14.1-.04,0-.2.09-.24,0-.02,0-.05-.01-.06-.07-.04-.09.05-.13.08-.11-.03,0,.1-.09.11-.03.02-.06.02-.1,0-.07-.09.09-.1.03-.2,0-.02,0-.05.04-.04v-.02s.02,0,.03,0c0-.06.07-.03.05-.1.04-.05.07-.09.12-.12v-.09c.03-.09.06-.15.12-.22,0-.07.08-.09.12-.16.04-.08.08-.14.08-.23.07,0,0-.09.07-.08-.02-.07.06-.06.08-.09-.07-.15.13-.07.12-.18.02-.06.07-.1.12-.14,0-.08.12-.06.1-.16.01-.02.05,0,.04-.03.04-.03.05-.12.12-.12-.05-.11.09-.08.09-.15.06,0,.01-.06.05-.08.07.04.05-.06.1-.06-.02-.08.07-.06.09-.12.04-.08.14-.13.17-.21.07-.05.13-.11.2-.17.02-.05.08-.07.11-.12.04-.02.05-.09.12-.07.09-.03,0-.16.14-.12,0-.05.06-.08.09-.12.05,0,.06-.01.08-.05.06-.01.06-.08.11-.09.01-.05.09-.03.08-.08.02-.05.07-.06.12-.08.02-.02-.01-.06.02-.07.09-.04.12-.13.22-.14.07-.02.02-.14.12-.12.05-.05.08-.14.18-.14.01-.05.08-.06.1-.12.06,0,.1-.07.15-.09.03-.04.08-.04.12-.09-.05-.12.11-.02.1-.12h.02s0-.07,0-.07c.13.04.13-.09.22-.13.1.01.14-.07.19-.12.08,0,.11-.06.17-.08l.02-.02c.13.02.17-.11.23-.16.06,0,.08-.06.14-.04l.02-.04c.09,0,.14-.07.24-.06.02-.05.04-.07.09-.08.03-.03.08-.04.12-.06.05-.01.06-.1.14-.07.03-.07.1-.02.15-.04.02-.05.09-.03.12-.06.03-.13.17-.05.28-.07,0-.08.09,0,.1-.07.1.01.11-.1.23-.06v-.02c.03-.06.11-.02.16-.04,0-.06.08,0,.1-.05.06.02.08.11.06.16h0c0,.08-.12.04-.07.14,0,.02-.02.04-.04.05-.03.03-.03.09-.08.11h0s0,.09,0,.09c-.03.04-.08.04-.12.09.02.1-.08.11-.12.18,0,.04-.04.07-.04.11-.14,0-.04.17-.17.19,0,.04-.07.03-.05.09-.04.04-.06.11-.12.14-.03.03-.03.1-.13.12v.02s0,.06,0,.06c-.03.01-.04.06-.08.05-.05.01-.03.08-.05.12-.05.02-.06.08-.11.1.04.12-.1.13-.12.22.01.04-.02.05-.04.07,0,.06-.04.09-.08.11,0,.1-.12.12-.12.21-.06.05-.06.13-.12.17.03.06-.04.07-.05.11-.14-.04,0,.16-.14.13-.07.02-.02.14-.11.12-.03.02-.08.05-.07.1-.01.02-.04.04-.07.03-.06.06-.09.16-.17.21-.04.06-.1.1-.14.18-.06.07-.14.13-.18.21-.1.01-.07.15-.18.16.02.12-.15.07-.13.18,0,.09-.15,0-.13.12,0,.09-.13.02-.14.11l-.02.05c.06.05.12.05.17.1.02.06.11.05.17.04.07-.06.2-.06.27-.13,0,.05-.03.1-.03.16h-.02c0,.06-.03.09-.03.15v.06s.02.05.02.05c.1,0,.12-.09.21-.1.02-.03.05-.05.08-.05.05-.01.06-.07.12-.07.05-.06.12-.07.18-.13v-.03s-.05-.02-.08-.03c-.02-.06.03-.11.07-.14,0-.07.08-.11.05-.19,0-.02.06-.02.05-.06.02-.03.03-.08.06-.08-.04-.11.07-.14.08-.22.08-.03,0-.15.09-.16-.03-.07.05-.09.07-.12-.04-.13.07-.16.11-.25.02-.04-.02-.12.05-.12.03-.05.06-.1.09-.16h.12c.07.02.18-.03.24.04.12,0,.28-.03.36.08.06.04.14.05.22.04.02.06.09.05.14.05.07-.04.05-.11.09-.16.08,0,.04-.08.06-.12.09-.02.11-.14.15-.19.01-.07.11-.07.17-.07.02,0,.01.04.02.05.05.01.04.1.12.07.04,0,.06.04.11.04.02.08.14,0,.15.08h.1s.1.02.12.08c.05.04.1.05.17.04.03,0,.03.06.07.04.03.08.13.02.17.08.06.02.08-.03.12-.04v-.03s0-.02.02-.02v-.03c.04-.05.07-.08.12-.11,0-.11.12-.15.17-.25.02-.02,0-.06-.03-.07-.03-.1.11,0,.09-.08,0-.07.1-.01.12-.07-.03-.06.04-.07.07-.12-.02-.08.08-.06.06-.15.06-.02.06-.08.12-.1-.04-.07.06-.07.07-.12-.02-.08.08-.05.06-.14.03-.07.14-.09.11-.18,0-.02,0-.05.04-.05.02-.03.05-.06.08-.09v-.1c.06,0,.02-.07.07-.07.04-.04.04-.09.08-.12.03-.07.12-.1.1-.2.03-.03.08-.05.09-.11.06-.03,0-.15.1-.17,0-.04,0-.08.05-.08,0-.07.05-.11.1-.14,0-.09.13-.06.16-.13.07.04.04-.07.11-.05-.06-.16.13-.01.14-.12.08.04.05-.09.13-.04.04-.07.13-.03.19-.04.01.05.07.01.08.06.07-.02.05.1.14.06.03.02.08.05.06.1.05.03.12,0,.19.01.01-.06.1-.05.09-.12.06.02.07-.04.1-.07-.02-.06.04-.07.03-.12.02-.03.01-.09.07-.06.03,0,.04,0,.06-.04.05,0,.04-.05.07-.07,0-.02,0-.04-.02-.05,0-.03,0-.07.04-.09.1.05.14-.1.24-.05.02-.02.05-.06.1-.05.02,0,.02-.03.03-.04.13,0,.24-.01.34-.05.04-.07.15-.02.22-.04.02-.06.11-.02.16-.03.04-.07.15,0,.16-.09.09.01.12-.07.21-.06-.02-.07.06-.09.12-.07.02-.1.14,0,.15-.09.05,0,.06-.04.11-.04.02-.07.1-.03.15-.04.01-.02.05-.05.08-.04l.06-.08c.06-.01.14-.02.19,0,.01.06-.06.06-.09.09-.05,0-.1,0-.14.02-.01.06-.11.04-.08.12.13.02.19-.07.32-.05.01-.05.07-.04.11-.03v.3s-.03.05-.04.07c.02.07-.05.07-.04.14-.07.03-.02.12-.04.19-.05.04-.02.12-.07.16.03.15-.09.29-.01.42-.02.13.05.27,0,.4-.01,0-.01.02-.03.02v.12c.03.09,0,.24.12.29-.05.1.09.07.05.16.06.05.01.16.09.19.07.01,0,.12.07.12,0,.09.08.14.14.17.03.06.13.04.17.08h.21c.02.05.07.04.12.05.05.08.14.02.23.03.04.08.16-.01.21.08h.71c0-.07.07-.05.12-.05.03-.06.12-.03.17-.04,0-.03.04-.06.07-.04.01-.01.03-.02.03-.04.1,0,.12-.08.23-.05.01-.04.04-.05.07-.05.04-.05.1-.08.16-.11.14.05.1-.16.26-.09.02-.01,0-.05.03-.04.03-.15.21-.04.25-.17.03,0,.05,0,.06-.03.04,0,.06-.02.1-.02.02-.04.08-.04.07-.1.07,0,.12-.03.16-.07.03-.09.15-.04.21-.11,0-.06.07-.01.08-.07.08.02.09-.08.17-.06v-.02s.02-.09.09-.06c.07,0,.12-.07.16-.11.02-.04.05.01.08,0,0,.1.08.15.11.22.07.02,0,.13.07.15,0,.07.08.12.04.2.07.04.04.14.05.21.04.06.04.15.07.23v.05s.01.06.01.06h.09c-.03-.1,0-.21-.03-.31,0-.03.02-.05.05-.05.03.02.05.05.06.08.1.06.13-.12.19,0,.07,0,.03.11.1.12.08,0,.08.06.1.12.03.02.1-.01.1.05.03.09.15.05.14.14.05.03.09.07.15.08.04-.05-.01-.11-.04-.15-.11,0-.11-.13-.22-.14.03-.1-.08-.1-.05-.19-.03.01-.03-.03-.05-.05-.03-.03.02-.04.04-.04.04,0,.02.05.04.07l.05.05c.07.04.11.15.2.12-.03.1.06.11.09.17.02,0,.05,0,.07,0-.03-.03,0-.1-.03-.12-.05,0-.06-.05-.11-.04v-.08c-.07-.03-.13-.06-.14-.14-.06,0,0-.07-.06-.06-.01-.06-.07-.09-.05-.16-.08-.03-.04-.13-.04-.2.01.01.03.01.04.03.03.06.13.09.12.17.04.03.07.11.11.14,0,.08.09.09.11.14,0,.11.13.12.15.21.02.02.05,0,.06.03.06-.02.05.05.07.08.11-.01.18.07.29.04,0-.03,0-.06,0-.08-.03-.02-.04-.06-.06-.09-.03-.01-.05.02-.09.01.02-.1-.1-.11-.14-.15-.02-.07-.12-.11-.13-.21-.09-.02-.02-.15-.11-.15-.01-.07-.03-.17,0-.22.04,0,.07.02.08.05.02.09.12.12.13.22.05.03.07.11.12.12,0,.08.12.08.13.17.07.02.15.1.23.12,0,.07.09.04.12.08.01.05.07.05.1.08.15-.04.16.16.3.12.01-.01,0-.05.03-.05v-.05s-.03-.03-.05-.02c-.1,0-.09-.16-.2-.12-.01-.06-.06-.07-.1-.12-.07,0-.09-.08-.16-.07-.02-.03-.02-.09-.07-.06-.06-.01-.06-.08-.08-.12h-.04c-.05-.02-.07-.08-.1-.12-.05-.02-.05-.09-.09-.12.03-.07-.08-.09-.05-.16-.03-.04-.03-.11-.09-.12v-.55c.09-.03,0-.14.07-.19-.03-.1.07-.12.06-.21.1-.03.11-.13.17-.21.05-.03.1-.08.15-.12.04,0,.04-.07.1-.04.02-.04.1-.03.07-.1.08-.01.09-.08.14-.12.12,0,.13-.12.22-.16h.04c.1,0,.06-.13.15-.12.03-.02.07-.04.06-.09.03-.02.06-.04.11-.03.01,0,.02-.02.02-.04-.03-.07.06-.07.11-.1.05-.03-.01-.14.09-.11,0-.05.03-.05.05-.09.01-.04.05-.07.06-.12.08,0,.06-.09.08-.13.02-.03.03-.04.06-.04.06-.04.03-.14.08-.18,0-.05.04-.06.05-.09,0-.04,0-.09.05-.09,0-.09.11-.13.16-.19.01-.03,0-.07.04-.07v-.16s.01-.08-.02-.1c.03-.02.08-.03.06-.09.02-.02.04-.03.07-.02v-.06c.08-.06.04-.17.05-.26.04-.06.09-.1.07-.18-.03,0-.04-.07-.09-.04-.01-.02-.04-.03-.03-.05-.07-.05.02-.2-.08-.25-.01-.07,0-.14.07-.16,0-.02.02-.06.05-.05-.02-.07.06-.12,0-.19-.14-.09.06-.17,0-.3.06-.06.05-.13.1-.18l.02-.44s0-.11.01-.16ZM3.34,12.33c-.07,0-.07.06-.1.1-.02.04-.06.09-.1.12h-.06s.01-.08.02-.12c.05,0,.02-.05.04-.07.08-.05.11-.18.23-.16-.02.04.01.1-.02.13Zm1.54,3.27c0,.09.02.18-.06.22.02.08-.06.09-.06.15-.02.02-.05,0-.07,0-.03-.05.02-.09.01-.14.07,0,.02-.1.08-.12-.02-.05-.02-.11.05-.13.02,0,.03,0,.04,0Zm2.17-5.71s-.07.02-.1.01c-.04-.04-.09-.12-.06-.19.07,0,.19-.04.23.04.04.08-.06.08-.08.14Zm3.2-1.85h-.1s0-.05.03-.07c.03,0,.09-.01.07.05v.02Zm3.53-4.11v.22c-.07.03.01.12-.06.13-.01.04,0,.09-.05.1.06.13-.11.17-.12.26-.1.08-.15.18-.17.3,0,.03.02.05.02.09h0c0,.06,0,.14-.03.19-.04.08.02.18-.05.23,0,.1.03.22-.03.3-.04.12-.1.23-.09.38-.04.04-.09.05-.11.13-.03.04.01.11-.05.12h-.3c-.02-.05-.03-.12-.1-.13v-.37c.05-.05,0-.18.07-.24.03-.1-.03-.25.04-.33-.03-.07.06-.07.03-.13.04-.09.07-.16.06-.26.07-.02-.02-.14.07-.14.03-.05.06-.12.04-.19.02-.04.1-.05.08-.11.07-.02,0-.12.08-.13-.03-.07.05-.04.05-.1.02-.02.05-.05.04-.09.06-.04.06-.11.12-.13v-.1c.06.01.06-.05.12-.07,0-.04,0-.07.07-.09v-.02c.04-.08.13-.13.18-.21.04,0,.07,0,.1.02,0,.08,0,.18.02.24-.03.03.03.08-.01.12Zm2.97,4.79s-.06.04-.07.01v-.03h.07c-.01-.05.06-.04.07-.02l-.07.04Zm.33-.07c-.02.06-.11.03-.18.02,0-.04.04-.03.06-.05h.07c.02-.05.09-.02.14-.04.02.05-.02.09-.09.07Z"/>
        <path class="uuid-bd5903fe-f96d-42f1-b68e-24778bef938f" d="m13.85.17v.02s.02,0,0-.02Z"/>
        <path class="uuid-40a288c9-f6e9-4267-acda-b1de461b1b68" d="m23.01,7.28c.05-.03.08-.07.14-.08,0-.02,0-.05,0-.06h.07s0-.09,0-.09c-.04,0-.12,0-.09.06h-.07c-.07.01-.04.1-.08.12l-.05.02s-.02.05-.02.08c.05,0,.09,0,.11-.05Z"/>
        <path class="uuid-40a288c9-f6e9-4267-acda-b1de461b1b68" d="m17.81,8.67h-.11s0,.07,0,.07c.04-.02.14.03.12-.05.07.03.09-.03.08-.08-.04,0-.1,0-.1.06Z"/>
        <path class="uuid-ea26d33f-bce1-40cd-9fed-4b5598a54541" d="m17.63,9.25s-.03-.08-.08-.07c-.07.03-.08-.05-.13-.05-.03,0-.05,0-.05-.03-.03,0-.08.02-.1-.01h-.04c-.06,0-.11.04-.14.08-.02.09,0,.17,0,.27.02.04.05,0,.08.03.04.05.07.08.13.13-.02.05.04.07.04.11.05.01.06.11.14.07.02-.07,0-.14,0-.21.02-.03.06-.06.05-.1.05,0,.02-.06.07-.06-.03-.06.05-.09.04-.14Z"/>
        <path class="uuid-4d048713-b295-41ff-9fcf-ad46a639439b" d="m3.22,19.25s-.06,0-.09.02c0,.04.05.04.09-.02Z"/>
        <path class="uuid-2194a952-06e5-4ed0-9c35-a8b305f91c2f" d="m5.92,13.65s0-.02-.03-.03l.03.03Z"/>
        <path class="uuid-42be22af-e4a4-41af-bd99-649bfc9a9880" d="m23.03,14.32h-13.7l.19-.44-.69.38.08-.41-.37.13-.25-.13h0c-.21-.17-.49-.28-.78-.28-.68,0-1.23.55-1.23,1.23s.55,1.23,1.23,1.23c.36,0,.68-.16.91-.4l.65.3-.13-.61h14.1c.17-.04.36-.12.38-.48.02-.38-.38-.52-.38-.52Z"/>
        <path class="uuid-ac330f96-5c08-4c93-a076-74024327886c" d="m25.67,12l-12.2,4.09.04-.48-.53.58-.05-.42-.31.24-.28-.05h0c-.26-.1-.55-.11-.83-.02-.64.21-.99.91-.78,1.56.21.64.91.99,1.56.78.34-.11.6-.36.74-.67l.71.08-.32-.54,12.58-4.22c.15-.09.3-.22.21-.57-.1-.36-.52-.37-.52-.37Z"/>
        <path class="uuid-80a97fd1-bda9-4d12-b01a-47a4ba41e5a2" d="m10.45,12.92l.35.19c.14.08.23.19.14.35-.09.17-.23.17-.38.09l-.34-.18.24-.44Zm-.31.59l.4.21c.28.15.49,0,.58-.18.11-.21.05-.43-.19-.56l-.58-.31-.68,1.28.17.09.29-.54Z"/>
        <path class="uuid-80a97fd1-bda9-4d12-b01a-47a4ba41e5a2" d="m10.42,12.91l-.24.44.36.23c.19.1.33.07.42-.1.06-.11.08-.27-.15-.39l-.38-.2-.02.03Zm.15.61l-.34-.18s.2-.33.23-.37c.04.02.32.17.32.17.11.06.16.12.16.2,0,.03-.01.07-.03.11-.07.14-.18.16-.34.08Z"/>
        <path class="uuid-80a97fd1-bda9-4d12-b01a-47a4ba41e5a2" d="m9.65,13.95l.19.13s.28-.48.31-.53c.05.03.38.2.38.2.3.16.52,0,.62-.19.06-.11.07-.23.04-.33-.03-.11-.12-.21-.24-.27l-.58-.3-.72,1.29Zm.04-.01l.69-1.24.53.32c.11.06.18.14.21.24.03.09.02.19-.03.28-.09.16-.28.3-.54.16l-.43-.23-.3.57-.13-.1Z"/>
        <path class="uuid-80a97fd1-bda9-4d12-b01a-47a4ba41e5a2" d="m12.15,14.17l-.94-.5.68-1.28.93.5-.08.15-.76-.4-.21.39.7.37-.08.15-.7-.37-.23.43.77.41-.08.15Z"/>
        <path class="uuid-80a97fd1-bda9-4d12-b01a-47a4ba41e5a2" d="m11.18,13.65l.96.54.03.02.1-.18-.78-.45.24-.39.66.39.12-.17-.71-.41.22-.35.72.42.12-.17-.95-.54-.72,1.29Zm.04-.01l.69-1.24.89.51-.1.11-.72-.42-.25.41.71.41-.09.11-.66-.38-.27.44.78.45s-.05.06-.07.09c-.04-.02-.92-.49-.92-.49Z"/>
        <path class="uuid-80a97fd1-bda9-4d12-b01a-47a4ba41e5a2" d="m13.32,12.63l.43.23c.09.05.22.14.12.34-.1.19-.25.15-.38.08l-.4-.21.23-.43Zm-.31.58l.42.22c.21.11.16.24.11.35-.03.05-.12.24-.14.34l.21.11.02-.03c-.04-.06-.03-.09,0-.16l.11-.24c.09-.18.03-.25-.03-.32.11,0,.24-.02.34-.21.14-.27-.03-.45-.24-.57l-.59-.31-.68,1.28.17.09.29-.55Z"/>
        <path class="uuid-80a97fd1-bda9-4d12-b01a-47a4ba41e5a2" d="m13.29,12.61l-.23.43.41.26.26.05.16-.15.03-.21-.16-.17-.46-.24-.02.03Zm.21.64l-.4-.21s.2-.32.23-.37c.05.02.4.22.4.22l.13.13-.03.16-.12.12-.21-.04Z"/>
        <path class="uuid-80a97fd1-bda9-4d12-b01a-47a4ba41e5a2" d="m12.52,13.65l.19.13s.29-.48.32-.53c.05.03.39.21.39.21.1.05.14.11.14.17,0,.05-.02.09-.04.13l-.14.35.23.15.1.06-.05-.13s-.03-.06,0-.13l.11-.24c.1-.2.03-.29-.03-.36.11.05.24.02.34-.18l.04-.31c-.04-.12-.13-.22-.29-.3l-.59-.32-.72,1.29Zm.04-.01l.69-1.24.55.33c.1.05.22.14.26.26l-.04.26c-.09.17-.21.19-.31.19.03.12.08.17,0,.34l-.11.24c-.04.08-.05.12,0,.19,0,0-.18-.12-.18-.13.03,0,.15-.3.15-.3.02-.03.05-.09.05-.16,0-.07-.04-.16-.17-.23l-.45-.24-.31.58-.13-.11Z"/>
        <path class="uuid-80a97fd1-bda9-4d12-b01a-47a4ba41e5a2" d="m15.47,13.27c.07-.25-.09-.39-.22-.45-.23-.12-.51-.05-.69.29-.16.3-.18.59.14.76.11.06.33.11.55-.16l.17.09c-.33.45-.73.26-.83.21-.29-.15-.47-.49-.21-.99.21-.39.58-.55.95-.35.33.18.39.47.3.7l-.17-.09Z"/>
        <path class="uuid-80a97fd1-bda9-4d12-b01a-47a4ba41e5a2" d="m14.35,12.99c-.28.52-.06.88.23,1.03.12.06.54.23.87-.22l-.18-.13c-.26.27-.47.2-.55.16-.12-.06-.19-.14-.22-.24-.04-.13,0-.29.09-.47.16-.3.4-.4.65-.27.13.07.26.19.2.42v.02s.18.1.18.1c.14-.25.07-.57-.27-.75-.38-.2-.77-.06-.99.36Zm.26.97c-.13-.07-.52-.34-.2-.94.21-.39.56-.52.91-.34.33.18.36.47.29.66,0,0-.08-.07-.1-.09,0-.04.02-.07.02-.11,0-.2-.15-.31-.25-.37-.27-.14-.56-.03-.73.3-.11.2-.14.38-.1.52.04.12.12.21.25.28.07.04.34.15.59-.16l.13.1c-.3.35-.66.23-.8.15Z"/>
        <path class="uuid-80a97fd1-bda9-4d12-b01a-47a4ba41e5a2" d="m17.25,13l-.44.83c-.14.26-.42.4-.77.21-.34-.18-.37-.48-.25-.72l.45-.85.17.09-.43.8c-.15.28-.02.44.14.53.16.08.38.11.52-.17l.43-.81.17.09Z"/>
        <path class="uuid-80a97fd1-bda9-4d12-b01a-47a4ba41e5a2" d="m15.77,13.3c-.12.22-.12.56.26.76.17.09.33.11.48.07.14-.04.25-.14.33-.29l.46-.86-.2-.11-.47.82c-.15.28-.36.22-.48.16-.11-.06-.27-.2-.12-.48l.43-.8-.19-.13-.5.87Zm.29.71c-.34-.18-.35-.47-.23-.68l.45-.85.13.11-.44.76c-.18.34.04.51.15.57.11.06.38.16.57-.18l.43-.81s.07.06.1.09c-.02.04-.43.81-.43.81-.07.13-.17.22-.3.26-.13.04-.28.02-.43-.06Z"/>
        <path class="uuid-80a97fd1-bda9-4d12-b01a-47a4ba41e5a2" d="m18.31,13.27c.1-.2-.03-.35-.18-.43-.11-.06-.31-.13-.41.07-.06.11,0,.19.07.24l.32.28c.14.13.22.29.11.5-.16.3-.49.24-.71.12-.24-.13-.29-.25-.32-.33-.06-.16-.02-.28.04-.39l.16.09c-.12.23.03.4.19.49.13.07.35.15.45-.04.07-.13.03-.21-.15-.37l-.23-.2c-.07-.06-.23-.22-.11-.44.11-.2.34-.33.65-.16.45.24.35.53.28.67l-.16-.09Z"/>
        <path class="uuid-80a97fd1-bda9-4d12-b01a-47a4ba41e5a2" d="m17.78,12.59c-.12.04-.21.12-.27.24-.06.12-.09.3.12.48l.23.2c.19.17.2.22.14.33-.09.16-.29.08-.41.02-.1-.05-.31-.2-.18-.44l-.17-.13c-.1.13-.15.26-.09.43.04.11.11.22.34.35.26.14.59.17.75-.13.1-.19.06-.38-.11-.54l-.32-.28c-.08-.07-.1-.13-.06-.2l.12-.1.25.05c.07.03.27.16.17.39v.03s.18.1.18.1c.18-.31.08-.55-.25-.73-.15-.08-.29-.1-.42-.06Zm.28,1.28c.08-.16.02-.25-.16-.41l-.23-.2c-.15-.13-.18-.26-.1-.41.05-.1.14-.17.24-.2.11-.03.24-.01.37.05.4.22.35.46.27.63,0,0-.07-.06-.1-.08.02-.04.03-.09.03-.12,0-.15-.11-.26-.23-.32,0,0-.3-.05-.3-.05l-.16.13c-.08.15.03.25.07.28l.32.28c.16.14.19.29.1.46-.18.33-.55.17-.66.11-.24-.13-.28-.25-.31-.31-.05-.14-.02-.25.04-.37l.12.1c-.12.16-.04.36.19.49.23.12.41.1.49-.05Z"/>
        <path class="uuid-80a97fd1-bda9-4d12-b01a-47a4ba41e5a2" d="m19.72,13.24c.1-.2-.03-.35-.18-.43-.11-.06-.31-.13-.41.07-.06.11,0,.19.06.24l.32.28c.15.13.22.29.11.5-.16.3-.49.24-.71.12-.24-.13-.29-.25-.32-.33-.06-.16-.02-.27.04-.39l.16.09c-.12.23.03.4.19.49.13.07.35.15.45-.04.07-.13.03-.21-.15-.37l-.23-.2c-.07-.06-.23-.22-.11-.45.11-.2.34-.33.65-.16.45.24.35.53.28.67l-.16-.09Z"/>
        <path class="uuid-80a97fd1-bda9-4d12-b01a-47a4ba41e5a2" d="m19.19,12.57c-.11.03-.21.12-.27.23-.06.12-.09.3.12.48l.23.2c.19.17.2.23.15.33-.09.16-.29.09-.41.02-.1-.05-.31-.2-.18-.44l-.18-.13c-.1.13-.15.26-.09.43.04.1.1.22.34.34.11.06.31.14.5.08l.25-.22c.1-.19.06-.38-.12-.53l-.32-.28c-.08-.07-.1-.13-.06-.2.09-.16.25-.12.37-.06.07.03.27.16.17.39v.03s.17.1.17.1c.18-.31.08-.55-.25-.73-.15-.08-.29-.1-.42-.06Zm.28,1.28c.08-.16.02-.25-.16-.41l-.23-.2c-.15-.13-.18-.26-.11-.41.05-.1.14-.17.24-.2.11-.03.24-.01.37.06.45.24.31.54.27.63,0,0-.07-.06-.1-.08.02-.04.03-.09.03-.12,0-.14-.11-.26-.23-.32-.2-.11-.37-.08-.45.08-.08.15.04.25.07.28l.32.28c.16.14.19.29.1.46l-.21.19c-.18.05-.37-.04-.45-.08-.21-.11-.27-.22-.31-.31-.05-.14-.02-.25.04-.37l.12.1c-.12.16-.05.36.19.49.23.12.41.1.49-.05Z"/>
        <path class="uuid-80a97fd1-bda9-4d12-b01a-47a4ba41e5a2" d="m19.92,14.11l-.17-.09.68-1.28.17.09-.68,1.28Z"/>
        <path class="uuid-80a97fd1-bda9-4d12-b01a-47a4ba41e5a2" d="m19.72,14l.19.13.03.02.7-1.31-.19-.14-.72,1.29Zm.04-.01l.69-1.23.13.1s-.65,1.16-.68,1.21c-.04-.02-.15-.08-.15-.08Z"/>
        <path class="uuid-80a97fd1-bda9-4d12-b01a-47a4ba41e5a2" d="m21.76,13.55c-.16.3-.44.43-.72.28-.28-.15-.33-.46-.17-.76.16-.3.44-.43.72-.28.28.15.33.46.17.76Zm.18.1c.15-.28.21-.75-.27-1.01-.48-.25-.83.07-.98.34-.15.28-.21.75.27,1,.48.25.83-.07.98-.34Z"/>
        <path class="uuid-80a97fd1-bda9-4d12-b01a-47a4ba41e5a2" d="m20.84,13.06c-.09.17-.12.35-.07.5.04.13.13.23.25.3.28.15.59.03.76-.3h0c.09-.17.12-.35.07-.5-.04-.13-.13-.23-.25-.3-.28-.15-.59-.03-.76.3Zm.21.74c-.11-.06-.19-.15-.22-.26-.04-.14-.02-.3.07-.45.16-.3.42-.41.68-.27.11.06.19.15.22.26.04.13.02.29-.07.45h0c-.16.3-.43.41-.68.27Z"/>
        <path class="uuid-80a97fd1-bda9-4d12-b01a-47a4ba41e5a2" d="m21.15,12.54c-.19.06-.37.22-.48.42-.11.21-.14.44-.08.64.05.17.17.31.36.41.51.27.89-.1,1.02-.35h0c.14-.26.23-.78-.28-1.05-.19-.1-.37-.12-.54-.07Zm-.17,1.42c-.17-.09-.28-.22-.33-.37-.05-.18-.02-.4.08-.59.1-.19.27-.34.45-.39.16-.05.32-.03.49.06.26.14.36.35.36.56,0,.14-.04.28-.11.4-.16.3-.5.56-.94.33Z"/>
        <path class="uuid-80a97fd1-bda9-4d12-b01a-47a4ba41e5a2" d="m23.6,12.83l.17.09-.68,1.28-.19-.1-.1-1.38h0s-.55,1.03-.55,1.03l-.17-.09.68-1.28.21.11.09,1.37h0s.55-1.03.55-1.03Z"/>
        <path class="uuid-80a97fd1-bda9-4d12-b01a-47a4ba41e5a2" d="m22.05,13.64l.18.13.59-1.05.04,1.37.21.13.72-1.29-.18-.13-.03-.02-.56,1.06-.03-1.36-.22-.13-.72,1.29Zm.04-.01l.69-1.24.16.12.07,1.35v.11s.06-.1.06-.1c0,0,.51-.95.53-1.01.04.02.14.07.14.07l-.69,1.24-.15-.12-.08-1.35v-.11s-.06.09-.06.09l-.55,1.03-.13-.1Z"/>
      </g>
      <g>
        <path class="uuid-80a97fd1-bda9-4d12-b01a-47a4ba41e5a2" d="m32.2,14.72c0-.19-.01-.33-.03-.4-.02-.08-.06-.14-.12-.2-.04-.03-.08-.06-.12-.08s-.11-.03-.2-.05h0c-.12-.02-.18-.06-.18-.13,0-.04.01-.07.04-.09.03-.02.06-.03.11-.03,0,0,.1,0,.26.03s.33.03.49.03c.22,0,.45-.02.67-.05.05,0,.07,0,.08,0,.03,0,.06,0,.07.03.02.02.02.05.02.09,0,.03,0,.05-.02.07-.01.02-.04.04-.09.06,0,0,0,0-.02,0-.06.03-.1.06-.14.09-.05.05-.08.11-.1.18-.02.07-.03.2-.03.4v2.71c0,.18-.03.34-.08.5s-.14.31-.26.47c-.14.19-.27.33-.41.42-.14.09-.27.14-.4.14-.14,0-.24-.03-.32-.08-.08-.06-.12-.13-.12-.23,0-.16.02-.29.05-.39.03-.1.07-.15.12-.15.05,0,.13.07.25.21.11.14.2.21.25.21.08,0,.14-.05.17-.15.03-.1.05-.26.05-.49v-3.11Z"/>
        <path class="uuid-80a97fd1-bda9-4d12-b01a-47a4ba41e5a2" d="m34.08,14.55c0-.17-.02-.29-.05-.36-.03-.07-.1-.12-.2-.16-.05-.02-.11-.04-.18-.05,0,0-.01,0-.01,0-.07-.01-.11-.03-.13-.04-.02-.02-.03-.04-.03-.08s.01-.06.03-.08c.02-.02.06-.02.12-.02.02,0,.11,0,.26.02.15.01.29.02.41.02.16,0,.33,0,.51-.03.18-.02.27-.03.29-.03.05,0,.09,0,.12.03.03.02.04.04.04.08,0,.05-.05.1-.14.12h0s-.06.02-.08.03c-.02.01-.05.02-.07.03-.07.04-.12.11-.15.22-.03.11-.04.35-.04.72v1.01c0,.31.01.53.04.67.02.14.07.26.13.36.1.17.23.3.39.4.16.09.35.14.55.14.19,0,.37-.03.53-.1.16-.07.29-.17.4-.29.11-.13.19-.3.24-.5.05-.2.07-.49.07-.87v-1c0-.25-.02-.43-.06-.53-.04-.1-.11-.17-.2-.21-.06-.02-.14-.04-.24-.06-.14-.02-.21-.07-.21-.13,0-.03.01-.06.03-.07.02-.02.06-.02.11-.02.02,0,.07,0,.14,0,.02,0,.03,0,.04,0,.02,0,.04,0,.08.01.14.02.25.03.34.03.06,0,.12,0,.18,0,.06,0,.14-.02.22-.03,0,0,.02,0,.04,0,.05,0,.08,0,.1,0,.05,0,.08,0,.1.02.02.02.03.04.03.07,0,.05-.04.09-.12.12,0,0-.01,0-.01,0-.04,0-.07.02-.09.03-.02.01-.05.02-.07.04-.05.03-.08.11-.1.22-.02.12-.03.39-.03.82v.74c0,.7-.15,1.22-.44,1.57-.29.35-.74.52-1.32.52-.55,0-.95-.15-1.2-.45-.25-.3-.37-.8-.37-1.5v-1.42Z"/>
        <path class="uuid-80a97fd1-bda9-4d12-b01a-47a4ba41e5a2" d="m40.12,14.72c0-.18-.01-.32-.03-.4-.02-.08-.06-.15-.12-.2-.06-.05-.15-.09-.28-.12,0,0,0,0,0,0h0c-.11-.02-.17-.06-.17-.13,0-.04.01-.07.04-.09.02-.02.06-.03.1-.03,0,0,.09,0,.25.02.16.01.32.02.47.02.17,0,.38,0,.62-.03.24-.02.39-.03.45-.03.43,0,.77.1,1.01.31.25.2.37.48.37.83s-.11.62-.34.84c-.23.22-.52.33-.86.33-.18,0-.33-.02-.44-.06-.11-.04-.16-.1-.16-.17,0-.02,0-.04.02-.06.02-.02.04-.02.06-.02,0,0,.03,0,.09.01.06,0,.11.01.17.01.24,0,.42-.07.55-.2.12-.13.18-.32.18-.58,0-.3-.08-.54-.24-.72-.16-.18-.38-.27-.64-.27-.14,0-.24.04-.29.11-.05.07-.08.27-.08.59v2.29c0,.15.02.28.06.37.04.09.11.16.2.21.02,0,.04.01.06.02.02,0,.05.01.09.02h0c.11.03.17.08.17.14,0,.05-.01.08-.03.1-.02.02-.06.03-.11.03-.01,0-.1,0-.25-.03s-.31-.03-.46-.03-.32,0-.49.03c-.18.02-.28.03-.3.03-.04,0-.08,0-.1-.03-.02-.02-.04-.04-.04-.07,0-.04,0-.07.03-.09.02-.02.06-.05.13-.08,0,0,.03-.01.05-.03s.04-.02.06-.03c.08-.05.14-.12.18-.21.04-.09.06-.2.06-.34v-2.27Z"/>
        <path class="uuid-80a97fd1-bda9-4d12-b01a-47a4ba41e5a2" d="m43.57,14.72c0-.19-.01-.33-.03-.4-.02-.08-.06-.14-.12-.2-.04-.03-.08-.06-.12-.08-.05-.02-.11-.03-.2-.05h0c-.12-.02-.18-.06-.18-.13,0-.04.01-.07.04-.09.03-.02.06-.03.11-.03,0,0,.03,0,.08,0,.3.03.6.04.92.04s.68,0,1.04-.02c.36-.02.56-.02.6-.02.11,0,.17.01.2.04.02.02.04.08.04.17v.12c0,.14,0,.28,0,.43v.06s0,.08-.02.09c-.01.02-.04.02-.07.02-.06,0-.1-.04-.11-.13,0-.09-.02-.16-.04-.2-.06-.12-.16-.21-.31-.25-.15-.05-.37-.07-.66-.07-.18,0-.3.02-.37.07-.07.05-.1.14-.1.26v.9c0,.09.02.15.06.19.04.04.1.06.19.06h.19c.13,0,.24-.02.31-.05.08-.03.14-.08.2-.15.03-.04.06-.09.09-.16.05-.11.1-.17.16-.17.03,0,.06,0,.07.03.02.02.02.05.02.09,0,0,0,.02,0,.05-.01.13-.02.26-.02.39,0,.21.01.43.04.65,0,.06,0,.09,0,.1,0,.04,0,.07-.03.08-.02.02-.04.03-.07.03-.06,0-.1-.05-.11-.15-.01-.07-.02-.13-.04-.18-.04-.11-.11-.19-.19-.24-.08-.04-.22-.07-.4-.07h-.23c-.09,0-.16.02-.19.06-.03.04-.05.13-.05.26v.9c0,.24.03.39.09.45.06.06.19.09.37.09s.38-.03.57-.09c.19-.06.34-.14.46-.24.08-.07.16-.15.22-.26.06-.1.11-.16.15-.16.02,0,.04.01.06.03.02.02.02.05.02.08,0,.08-.02.18-.07.31-.04.13-.1.24-.16.33-.08.11-.18.2-.3.25-.12.05-.28.08-.46.08-.08,0-.24,0-.48-.03s-.44-.03-.6-.03c-.2,0-.4,0-.6.03-.2.02-.31.03-.32.03-.04,0-.08,0-.1-.03-.02-.02-.04-.04-.04-.07,0-.04,0-.07.03-.09.02-.02.06-.05.13-.08,0,0,.03-.01.05-.03s.04-.02.06-.03c.08-.05.14-.12.18-.21.04-.09.06-.2.06-.34v-2.27Z"/>
        <path class="uuid-80a97fd1-bda9-4d12-b01a-47a4ba41e5a2" d="m46.9,14.72c0-.2-.01-.33-.03-.41-.02-.08-.06-.14-.11-.19-.06-.05-.15-.09-.27-.12,0,0-.01,0-.01,0h0c-.11-.02-.17-.06-.17-.13,0-.04.01-.07.04-.09.03-.02.06-.03.11-.03.01,0,.05,0,.11,0,.23.02.45.03.64.03.1,0,.27,0,.51-.03.24-.02.43-.03.56-.03.44,0,.77.09,1.01.28.24.19.35.46.35.81,0,.23-.06.43-.19.58-.12.15-.31.27-.57.36.03.02.06.04.09.08.03.03.06.09.1.16l.59,1.08c.09.15.16.26.22.31.06.05.12.07.2.07.02,0,.05,0,.08,0,.03,0,.06,0,.06,0,.03,0,.05,0,.06.02.01.01.02.03.02.06,0,.07-.06.14-.19.2-.13.06-.27.1-.42.1-.17,0-.33-.08-.48-.23-.15-.15-.31-.42-.5-.81l-.03-.07c-.21-.43-.34-.67-.4-.73-.04-.04-.09-.06-.14-.08-.05-.02-.15-.02-.28-.02-.1,0-.16.01-.19.04-.03.03-.05.08-.05.16v.85c0,.15.02.28.06.37.04.09.11.16.2.21.03.01.07.03.13.04,0,0,.01,0,.01,0h0c.11.03.17.08.17.14,0,.05-.01.08-.03.1-.02.02-.06.03-.11.03-.02,0-.1,0-.26-.03-.16-.02-.3-.03-.44-.03-.15,0-.32,0-.5.03-.18.02-.28.03-.3.03-.04,0-.08,0-.1-.03-.02-.02-.04-.04-.04-.07,0-.04,0-.07.03-.09.02-.02.06-.05.13-.08,0,0,.03-.01.05-.03.02-.01.04-.02.06-.03.08-.05.14-.12.18-.21.04-.09.05-.2.05-.34v-2.27Zm.72.67c0,.13.03.21.08.24.05.03.18.04.37.04.31,0,.53-.05.66-.16.13-.11.19-.28.19-.53,0-.31-.08-.55-.25-.73-.17-.18-.4-.26-.69-.26-.13,0-.22.03-.28.09-.05.06-.08.19-.08.37v.94Z"/>
        <path class="uuid-80a97fd1-bda9-4d12-b01a-47a4ba41e5a2" d="m50.44,15.93c0-.29.05-.56.14-.83.09-.27.23-.51.4-.72.19-.22.41-.4.66-.51.25-.12.53-.18.82-.18.36,0,.74.1,1.13.29.09.04.14.07.16.07.04,0,.08-.03.11-.09.03-.06.06-.09.1-.09.07,0,.1.07.1.19v.06c0,.2.03.41.05.62.02.21.04.32.04.33,0,.04,0,.06-.02.08-.01.02-.03.03-.06.03-.05,0-.1-.06-.16-.18-.06-.12-.13-.23-.2-.33-.17-.23-.37-.42-.6-.55-.23-.13-.48-.19-.73-.19-.36,0-.65.15-.88.46-.23.31-.35.71-.35,1.2,0,.22.03.43.09.64.06.21.14.39.24.56.15.24.32.42.52.55.2.12.42.18.66.18.19,0,.38-.04.57-.12.19-.08.37-.19.54-.34.05-.04.11-.11.18-.19.07-.08.13-.13.17-.13.02,0,.04,0,.06.02.01.02.02.04.02.07,0,.05-.03.12-.1.22-.07.1-.16.2-.28.32-.2.19-.42.34-.67.43-.25.1-.51.14-.8.14-.57,0-1.03-.19-1.38-.56-.35-.37-.53-.86-.53-1.45Z"/>
        <path class="uuid-80a97fd1-bda9-4d12-b01a-47a4ba41e5a2" d="m55.01,14.55c0-.17-.02-.29-.05-.36-.03-.07-.1-.12-.2-.16-.05-.02-.11-.04-.18-.05,0,0-.01,0-.01,0-.07-.01-.11-.03-.13-.04s-.03-.04-.03-.08.01-.06.03-.08c.02-.02.06-.02.12-.02.02,0,.11,0,.26.02.15.01.29.02.41.02.16,0,.33,0,.51-.03.18-.02.27-.03.29-.03.05,0,.09,0,.12.03.03.02.04.04.04.08,0,.05-.05.1-.14.12h0s-.06.02-.08.03c-.02.01-.05.02-.07.03-.07.04-.12.11-.15.22-.03.11-.04.35-.04.72v1.01c0,.31.01.53.04.67.02.14.07.26.12.36.1.17.23.3.39.4.16.09.35.14.55.14.19,0,.37-.03.53-.1.16-.07.29-.17.4-.29.11-.13.19-.3.24-.5.05-.2.07-.49.07-.87v-1c0-.25-.02-.43-.06-.53-.04-.1-.11-.17-.2-.21-.06-.02-.14-.04-.24-.06-.14-.02-.21-.07-.21-.13,0-.03.01-.06.03-.07.02-.02.06-.02.11-.02.02,0,.07,0,.14,0,.02,0,.03,0,.04,0,.02,0,.04,0,.08.01.14.02.25.03.34.03.06,0,.12,0,.18,0,.06,0,.13-.02.22-.03,0,0,.02,0,.04,0,.05,0,.09,0,.1,0,.05,0,.08,0,.1.02.02.02.03.04.03.07,0,.05-.04.09-.12.12,0,0-.01,0-.01,0-.04,0-.07.02-.09.03-.02.01-.05.02-.07.04-.05.03-.08.11-.1.22-.02.12-.03.39-.03.82v.74c0,.7-.15,1.22-.44,1.57-.29.35-.74.52-1.32.52-.55,0-.95-.15-1.2-.45-.25-.3-.37-.8-.37-1.5v-1.42Z"/>
        <path class="uuid-80a97fd1-bda9-4d12-b01a-47a4ba41e5a2" d="m59.35,17.51l-.19-.83s-.01-.04-.02-.06c0-.02,0-.03,0-.04,0-.05,0-.09.03-.11.02-.02.05-.03.09-.03s.09.06.13.19.1.24.16.35c.12.21.27.38.44.5.17.12.35.18.54.18.23,0,.42-.07.57-.21.15-.14.22-.33.22-.55,0-.29-.29-.55-.86-.8l-.09-.04h0c-.76-.33-1.14-.74-1.14-1.24,0-.31.11-.57.32-.79.22-.21.49-.32.82-.32.17,0,.34.03.52.1.18.07.3.1.35.1.05,0,.11-.01.15-.04.05-.03.08-.04.09-.04.04,0,.06,0,.08.03.02.02.02.05.02.1,0,.02,0,.05,0,.1,0,.04,0,.08,0,.11,0,.09.01.23.04.4.03.17.04.29.04.35,0,.05,0,.08-.02.1-.01.02-.04.03-.07.03-.06,0-.11-.06-.14-.19-.04-.13-.09-.24-.16-.36-.1-.16-.23-.29-.4-.39-.17-.1-.35-.14-.53-.14s-.34.05-.46.16c-.12.11-.18.24-.18.41s.06.29.17.4c.11.11.33.23.64.34.03.01.09.03.16.06.38.15.63.28.75.39.11.11.2.24.26.39.06.15.09.32.09.5,0,.39-.12.71-.35.95-.24.24-.54.36-.92.36-.15,0-.33-.03-.53-.1-.2-.06-.32-.1-.36-.11,0,0-.02,0-.03,0-.01,0-.02,0-.03,0-.1-.01-.16-.07-.18-.18,0,0,0,0,0,0,0,0,0,0,0-.01Z"/>
        <path class="uuid-80a97fd1-bda9-4d12-b01a-47a4ba41e5a2" d="m62.46,17.51l-.19-.83s-.01-.04-.02-.06c0-.02,0-.03,0-.04,0-.05,0-.09.03-.11.02-.02.05-.03.09-.03s.09.06.13.19c.05.13.1.24.16.35.12.21.27.38.44.5.17.12.35.18.54.18.23,0,.42-.07.57-.21.15-.14.22-.33.22-.55,0-.29-.29-.55-.86-.8l-.09-.04h0c-.76-.33-1.14-.74-1.14-1.24,0-.31.11-.57.32-.79.22-.21.49-.32.82-.32.17,0,.34.03.52.1.18.07.3.1.35.1.05,0,.11-.01.15-.04.05-.03.08-.04.09-.04.04,0,.06,0,.08.03.02.02.02.05.02.1,0,.02,0,.05,0,.1,0,.04,0,.08,0,.11,0,.09.01.23.04.4.03.17.04.29.04.35,0,.05,0,.08-.02.1-.01.02-.04.03-.07.03-.06,0-.11-.06-.14-.19-.04-.13-.09-.24-.16-.36-.1-.16-.23-.29-.4-.39-.17-.1-.35-.14-.53-.14s-.34.05-.46.16c-.12.11-.18.24-.18.41s.06.29.17.4c.11.11.33.23.64.34.03.01.09.03.16.06.38.15.63.28.75.39.11.11.2.24.26.39.06.15.09.32.09.5,0,.39-.12.71-.35.95-.24.24-.54.36-.92.36-.15,0-.33-.03-.53-.1-.2-.06-.32-.1-.36-.11,0,0-.02,0-.03,0-.01,0-.02,0-.03,0-.1-.01-.16-.07-.18-.18,0,0,0,0,0,0,0,0,0,0,0-.01Z"/>
        <path class="uuid-80a97fd1-bda9-4d12-b01a-47a4ba41e5a2" d="m65.79,14.72c0-.22-.01-.36-.04-.43-.02-.07-.07-.13-.13-.18-.06-.04-.16-.08-.29-.1,0,0-.01,0-.02,0-.08,0-.13-.02-.16-.04-.03-.02-.04-.05-.04-.09,0-.04.01-.07.04-.09.03-.02.06-.03.11-.03,0,0,.03,0,.08,0,.17.02.33.03.49.03.35,0,.67-.01.95-.04.03,0,.05,0,.06,0,.04,0,.07,0,.09.03.02.02.03.05.03.08,0,.06-.05.1-.15.13-.1.03-.16.06-.2.1-.05.05-.08.11-.1.2-.02.09-.03.21-.03.38v2.31c0,.16.02.29.07.39.05.1.12.16.22.19.03,0,.08.02.15.03.01,0,.02,0,.03,0,.09.02.15.03.18.05.03.02.04.05.04.09,0,.04-.01.08-.04.1-.03.02-.07.03-.12.03-.04,0-.16,0-.34-.03-.18-.02-.34-.03-.47-.03s-.29,0-.47.03c-.17.02-.28.03-.31.03-.04,0-.08,0-.1-.03-.03-.02-.04-.04-.04-.07,0-.04,0-.07.03-.09.02-.02.07-.05.14-.08.02,0,.04-.02.07-.04.03-.01.05-.02.06-.03.07-.04.12-.1.15-.19.04-.09.05-.21.05-.35v-2.27Z"/>
        <path class="uuid-80a97fd1-bda9-4d12-b01a-47a4ba41e5a2" d="m67.27,15.86c0-.62.21-1.14.63-1.55.42-.41.95-.62,1.6-.62.61,0,1.11.2,1.51.59.4.39.6.89.6,1.48,0,.63-.21,1.15-.63,1.56-.42.41-.96.62-1.61.62-.6,0-1.1-.2-1.5-.59-.39-.39-.59-.89-.59-1.5Zm.74-.27c0,.62.14,1.13.41,1.51.28.39.64.58,1.08.58.42,0,.75-.14.99-.42.24-.28.37-.67.37-1.16,0-.63-.14-1.14-.42-1.54-.28-.4-.64-.6-1.08-.6s-.75.14-.99.43c-.24.29-.36.69-.36,1.2Z"/>
        <path class="uuid-80a97fd1-bda9-4d12-b01a-47a4ba41e5a2" d="m72.39,16.3v-1.46c0-.19-.01-.34-.04-.45-.03-.11-.07-.2-.13-.26-.04-.04-.09-.07-.13-.1-.05-.02-.11-.04-.18-.04h0c-.09-.01-.14-.05-.14-.11,0-.04,0-.08.03-.09.02-.02.05-.03.09-.03.02,0,.04,0,.06,0,.02,0,.05,0,.09,0,.05,0,.08.01.11.02.03,0,.06,0,.08,0,.03,0,.07,0,.11,0,.04,0,.09,0,.15-.02.06,0,.11,0,.15,0,.03,0,.06,0,.09,0,.1,0,.22.07.34.22l.02.02,2,2.4c.05.06.09.11.14.14.04.03.07.05.1.05.03,0,.05-.02.06-.07.01-.04.02-.12.02-.21v-1.48c0-.22-.02-.39-.05-.49-.03-.1-.09-.18-.17-.24-.09-.05-.2-.09-.32-.12-.13-.03-.19-.07-.19-.12,0-.03.01-.06.03-.08.02-.02.05-.03.1-.03.03,0,.07,0,.1,0,.03,0,.07,0,.11.01.05,0,.11,0,.16.01.06,0,.12,0,.19,0s.14,0,.22,0c.08,0,.17,0,.27-.02.05,0,.09,0,.13-.01.04,0,.08,0,.11,0,.04,0,.07,0,.09.02.02.02.03.04.03.08,0,.05-.04.1-.12.13s-.14.06-.18.09c-.07.05-.12.12-.15.21-.03.08-.04.24-.05.46l-.03,2.94c0,.09,0,.15-.02.19-.01.04-.03.06-.06.06-.06,0-.15-.07-.27-.22-.02-.03-.04-.05-.05-.07l-2.39-2.82s-.05-.06-.08-.08c-.03-.02-.05-.03-.06-.03-.02,0-.04.02-.05.06-.01.04-.02.1-.02.18v1.36c0,.42.01.71.04.85.03.15.08.26.15.33.05.05.15.09.29.12h0c.09.01.15.03.18.05.03.02.04.05.04.09,0,.05,0,.08-.03.1-.02.02-.06.02-.13.02-.01,0-.09,0-.22-.03-.14-.02-.27-.03-.39-.03-.13,0-.27,0-.42.03-.15.02-.23.03-.24.03-.04,0-.06-.01-.08-.04s-.03-.06-.03-.1.04-.08.13-.11h0s0,0,.02,0c.11-.04.18-.08.22-.13.06-.07.1-.2.13-.41.03-.2.05-.46.05-.77Z"/>
        <path class="uuid-80a97fd1-bda9-4d12-b01a-47a4ba41e5a2" d="m81.72,17.05s0,.07,0,.11c0,.04,0,.07,0,.08,0,.07-.06.14-.19.2-.05.02-.08.04-.11.05-.29.15-.57.26-.85.33-.27.08-.53.11-.75.11-.56,0-1.02-.18-1.37-.53-.35-.35-.52-.82-.52-1.4,0-.65.2-1.2.6-1.64.4-.44.89-.66,1.48-.66.31,0,.61.06.92.18.31.12.47.18.49.18.06,0,.1-.02.13-.07.03-.05.06-.07.09-.07.03,0,.05.01.06.03.01.02.02.05.02.1,0,0,0,.03,0,.08-.01.16-.02.32-.02.46,0,.1,0,.21.01.32,0,.11.01.17.01.17,0,.05,0,.09-.02.1-.01.02-.04.02-.08.02-.05,0-.09-.05-.11-.14-.04-.12-.08-.23-.12-.33-.11-.23-.3-.42-.56-.58-.26-.16-.53-.23-.81-.23-.41,0-.73.15-.98.46-.24.31-.37.73-.37,1.25,0,.6.12,1.09.37,1.45.25.36.58.55.99.55.18,0,.35-.03.51-.1.16-.06.28-.14.35-.23.03-.05.06-.13.08-.23.02-.11.03-.23.03-.37,0-.16-.03-.29-.08-.37-.05-.08-.15-.14-.29-.17-.03,0-.06-.01-.11-.02-.01,0-.02,0-.03,0h-.01c-.1-.02-.15-.06-.15-.12,0-.04.01-.07.04-.09.02-.02.06-.03.11-.03.04,0,.15,0,.32.03.17.02.32.03.45.03.2,0,.4-.01.62-.03.06,0,.1,0,.11,0,.05,0,.09,0,.11.03.02.02.04.04.04.07,0,.05-.04.09-.13.12-.04,0-.07.02-.09.03-.02.01-.05.02-.06.04-.05.04-.08.09-.1.16-.02.07-.03.17-.03.3v.35Z"/>
        <path class="uuid-80a97fd1-bda9-4d12-b01a-47a4ba41e5a2" d="m82.84,14.72c0-.2-.01-.33-.03-.41-.02-.08-.06-.14-.11-.19-.05-.05-.15-.09-.27-.12,0,0-.01,0-.01,0h0c-.11-.02-.17-.06-.17-.13,0-.04.01-.07.04-.09.03-.02.06-.03.11-.03.01,0,.05,0,.11,0,.23.02.45.03.64.03.1,0,.27,0,.51-.03s.43-.03.56-.03c.44,0,.77.09,1.01.28.24.19.35.46.35.81,0,.23-.06.43-.19.58-.12.15-.31.27-.57.36.03.02.06.04.09.08.03.03.06.09.1.16l.59,1.08c.09.15.16.26.22.31.06.05.12.07.2.07.02,0,.05,0,.08,0,.03,0,.06,0,.06,0,.03,0,.05,0,.06.02.01.01.02.03.02.06,0,.07-.06.14-.19.2-.13.06-.27.1-.42.1-.17,0-.33-.08-.48-.23-.15-.15-.31-.42-.5-.81l-.03-.07c-.21-.43-.34-.67-.4-.73-.04-.04-.09-.06-.14-.08-.05-.02-.15-.02-.28-.02-.1,0-.16.01-.19.04-.03.03-.05.08-.05.16v.85c0,.15.02.28.06.37.04.09.11.16.2.21.03.01.07.03.13.04,0,0,.01,0,.01,0h0c.11.03.17.08.17.14,0,.05-.01.08-.03.1-.02.02-.06.03-.11.03-.02,0-.1,0-.26-.03-.16-.02-.3-.03-.44-.03-.15,0-.32,0-.5.03-.18.02-.28.03-.3.03-.04,0-.08,0-.1-.03-.02-.02-.04-.04-.04-.07,0-.04,0-.07.03-.09.02-.02.06-.05.13-.08,0,0,.03-.01.05-.03.02-.01.04-.02.06-.03.08-.05.14-.12.18-.21.04-.09.06-.2.06-.34v-2.27Zm.72.67c0,.13.03.21.08.24.05.03.18.04.37.04.31,0,.53-.05.66-.16.13-.11.19-.28.19-.53,0-.31-.08-.55-.25-.73-.17-.18-.4-.26-.69-.26-.13,0-.22.03-.28.09-.05.06-.08.19-.08.37v.94Z"/>
        <path class="uuid-80a97fd1-bda9-4d12-b01a-47a4ba41e5a2" d="m86.36,15.86c0-.62.21-1.14.63-1.55.42-.41.95-.62,1.6-.62.61,0,1.11.2,1.51.59.4.39.6.89.6,1.48,0,.63-.21,1.15-.63,1.56-.42.41-.96.62-1.61.62-.6,0-1.1-.2-1.5-.59-.39-.39-.59-.89-.59-1.5Zm.74-.27c0,.62.14,1.13.41,1.51.28.39.64.58,1.08.58.42,0,.75-.14.99-.42.24-.28.37-.67.37-1.16,0-.63-.14-1.14-.42-1.54-.28-.4-.64-.6-1.08-.6s-.75.14-.99.43c-.24.29-.36.69-.36,1.2Z"/>
        <path class="uuid-80a97fd1-bda9-4d12-b01a-47a4ba41e5a2" d="m91.42,14.55c0-.17-.02-.29-.05-.36-.03-.07-.1-.12-.2-.16-.05-.02-.11-.04-.18-.05,0,0-.01,0-.01,0-.07-.01-.11-.03-.13-.04s-.03-.04-.03-.08.01-.06.03-.08c.02-.02.06-.02.12-.02.02,0,.11,0,.26.02.15.01.29.02.41.02.16,0,.33,0,.51-.03.18-.02.27-.03.29-.03.05,0,.09,0,.12.03.03.02.04.04.04.08,0,.05-.05.1-.14.12h0s-.06.02-.08.03c-.02.01-.05.02-.07.03-.07.04-.12.11-.15.22-.03.11-.04.35-.04.72v1.01c0,.31.01.53.04.67.02.14.07.26.13.36.1.17.23.3.39.4.16.09.35.14.55.14.19,0,.37-.03.53-.1.16-.07.29-.17.4-.29.11-.13.19-.3.24-.5.05-.2.07-.49.07-.87v-1c0-.25-.02-.43-.06-.53-.04-.1-.11-.17-.2-.21-.06-.02-.14-.04-.24-.06-.14-.02-.21-.07-.21-.13,0-.03.01-.06.03-.07.02-.02.06-.02.11-.02.02,0,.07,0,.14,0,.02,0,.03,0,.04,0,.02,0,.04,0,.08.01.14.02.25.03.34.03.06,0,.12,0,.18,0,.06,0,.14-.02.22-.03,0,0,.02,0,.04,0,.05,0,.08,0,.1,0,.05,0,.08,0,.1.02.02.02.03.04.03.07,0,.05-.04.09-.12.12,0,0-.01,0-.01,0-.04,0-.07.02-.09.03-.02.01-.05.02-.07.04-.05.03-.08.11-.1.22-.02.12-.03.39-.03.82v.74c0,.7-.15,1.22-.44,1.57-.29.35-.74.52-1.32.52-.55,0-.95-.15-1.2-.45-.25-.3-.37-.8-.37-1.5v-1.42Z"/>
        <path class="uuid-80a97fd1-bda9-4d12-b01a-47a4ba41e5a2" d="m95.96,14.72c0-.18-.01-.32-.03-.4-.02-.08-.06-.15-.12-.2-.06-.05-.15-.09-.28-.12,0,0,0,0,0,0h0c-.11-.02-.17-.06-.17-.13,0-.04.01-.07.04-.09.02-.02.06-.03.1-.03,0,0,.09,0,.25.02.16.01.32.02.47.02.17,0,.38,0,.62-.03.24-.02.39-.03.45-.03.43,0,.77.1,1.01.31.25.2.37.48.37.83s-.11.62-.34.84c-.23.22-.52.33-.86.33-.18,0-.33-.02-.44-.06-.11-.04-.16-.1-.16-.17,0-.02,0-.04.02-.06.02-.02.04-.02.06-.02,0,0,.03,0,.09.01.06,0,.11.01.17.01.24,0,.42-.07.55-.2.12-.13.18-.32.18-.58,0-.3-.08-.54-.24-.72-.16-.18-.38-.27-.64-.27-.14,0-.24.04-.29.11-.05.07-.08.27-.08.59v2.29c0,.15.02.28.06.37s.11.16.2.21c.02,0,.04.01.06.02.02,0,.05.01.09.02h0c.11.03.17.08.17.14,0,.05-.01.08-.03.1-.02.02-.06.03-.11.03-.01,0-.1,0-.25-.03-.16-.02-.31-.03-.46-.03s-.32,0-.49.03c-.18.02-.28.03-.3.03-.04,0-.08,0-.1-.03-.02-.02-.04-.04-.04-.07,0-.04,0-.07.03-.09.02-.02.06-.05.13-.08,0,0,.03-.01.05-.03s.04-.02.06-.03c.08-.05.14-.12.18-.21.04-.09.06-.2.06-.34v-2.27Z"/>
      </g>
      <g>
        <path class="uuid-80a97fd1-bda9-4d12-b01a-47a4ba41e5a2" d="m32.95,7.21c-.74,0-1.28.02-1.62.06l-.2-.4c.41.06,1.06.09,1.96.09h1.89l-.02-1.57h-1.52c-.34.56-.84,1.01-1.49,1.35l-.1-.08c.49-.9.74-1.84.74-2.82,0-.09,0-.16,0-.21,1.18.24,1.77.4,1.77.48,0,.06-.04.1-.12.13-.19.05-.29.08-.29.09-.1.29-.22.55-.36.8h1.39v-.21c0-.22,0-.58-.03-1.09,0-.13-.03-.31-.08-.53,1.16.13,1.74.24,1.74.34,0,.05-.04.09-.11.13-.18.1-.27.16-.27.18v1.18h1.13c.46-.52.72-.78.79-.78.08,0,.29.14.63.41.34.28.52.44.52.49,0,.07-.04.11-.11.11h-2.98v1.57h1.7c.5-.52.79-.78.86-.78.06,0,.27.14.61.41.35.28.53.44.53.49,0,.08-.04.12-.11.12h-3.16c.29.61.79,1.11,1.49,1.49.71.37,1.34.56,1.9.56l-.03.18c-.27.03-.44.32-.52.89-.03.18-.09.27-.2.27-.42,0-.95-.32-1.59-.95-.64-.63-1.07-1.44-1.29-2.44h-.18v2.44c0,.3.01.79.04,1.47h0c0,.2-.33.3-.99.3-.21,0-.31-.06-.31-.19h0c.02-.68.03-1.24.03-1.7v-1.24c-.36.53-.93,1.01-1.7,1.44-.76.43-1.48.74-2.16.92l-.07-.12c.69-.4,1.34-.93,1.94-1.58.61-.64,1.02-1.23,1.24-1.75l-1.28.03Z"/>
        <path class="uuid-80a97fd1-bda9-4d12-b01a-47a4ba41e5a2" d="m48.17,6.13c0,.07-.03.11-.08.11h-4.13c-.65,0-1.1.02-1.36.07l-.18-.42c.32.07.85.11,1.6.11h2.33c.43-.49.68-.74.75-.74s.27.14.6.41c.12-.26.19-.53.22-.79h-5.45v.13c0,.78-.32,1.16-.96,1.16-.45,0-.68-.19-.68-.56,0-.27.13-.46.38-.56.61-.25.94-.57.99-.98h.17c.04.22.07.42.09.6h5.39c.41-.41.67-.61.77-.61.09,0,.32.13.68.38.36.25.54.41.54.48,0,.08-.04.13-.12.14-.25.02-.39.04-.41.06-.44.32-.9.56-1.37.73.15.15.23.24.24.28Zm-7.24,4.41l-.09-.11c.94-.71,1.59-1.49,1.94-2.33,1.02.4,1.52.63,1.52.71,0,.06-.12.1-.37.1-.08,0-.12.01-.12.02-.67.78-1.63,1.32-2.88,1.61Zm3.95-2.9h-2.38c-.52,0-.92.02-1.2.07l-.17-.41c.34.07.98.1,1.92.1h4.77c.47-.51.74-.77.81-.77.07,0,.27.14.6.41.33.27.49.43.49.47,0,.09-.03.13-.09.13h-3.47v2.77c0,.44-.44.77-1.33.98-.07.02-.13.03-.17.03-.1,0-.16-.06-.18-.17-.06-.4-.2-.64-.4-.74-.2-.1-.42-.17-.63-.2v-.17c.32.01.64.02.98.02h.24c.14,0,.21-.08.21-.23v-2.28Zm-1.01-4.21l.06-.11c.16-.02.35-.03.57-.03,1.09,0,1.63.26,1.63.77,0,.17-.08.32-.25.43-.16.12-.34.18-.54.18-.32,0-.53-.15-.64-.44-.14-.41-.42-.68-.83-.8Zm2.82,5.01l.1-.11c.72.08,1.36.27,1.93.58.57.3.85.64.85,1,0,.39-.2.59-.6.59-.27,0-.55-.24-.84-.73-.33-.54-.8-.98-1.43-1.32Z"/>
        <path class="uuid-80a97fd1-bda9-4d12-b01a-47a4ba41e5a2" d="m52.4,4.38v2.11h5.73c.36-.24.57-.36.62-.36.06,0,.23.1.5.29.27.2.4.34.4.42,0,.07-.11.11-.32.11h-.09s-.05,0-.06,0c-.27.21-.53.31-.78.31.54.21.81.48.81.81,0,.35-.19.53-.57.53-.29,0-.45-.15-.47-.46-.03-.46-.2-.77-.5-.94l.08-.1c.1,0,.25.04.43.09v-.24c0-.09,0-.18,0-.27h-3.33v.78c0,.22.12.34.35.35.24.01.46.02.67.02.69,0,1.08-.07,1.16-.2.08-.14.13-.36.17-.66h.16c.04.39.11.6.23.66.19.08.29.2.29.37,0,.18-.11.33-.34.46-.23.13-.87.19-1.91.19h-.35c-.08.12-.17.24-.26.34h1.81c.36-.27.56-.41.61-.41.07,0,.26.1.58.31.32.21.48.34.48.41,0,.07-.11.14-.33.18-.09.02-.14.03-.15.04-.34.3-.67.53-.97.68-.01.05.45.08,1.39.08.43,0,.83-.01,1.19-.04v.14c-.2.04-.31.27-.34.7-.01.2-.11.29-.29.29-1.14,0-2.1-.22-2.9-.67-.94.42-2.37.65-4.29.7l-.04-.14c1.43-.18,2.61-.53,3.55-1.03-.29-.22-.55-.48-.79-.78-.7.64-1.49,1.03-2.39,1.16l-.06-.1c.94-.57,1.61-1.23,1.98-1.97-.2-.1-.3-.38-.3-.84v-1.01h-1.43c-.08,2.3-.6,3.87-1.57,4.72l-.14-.08c.38-1.08.57-2.72.57-4.91v-1.35c0-.59-.03-1.03-.09-1.32.5.11.95.24,1.37.4h2.57c-.09-.05-.15-.12-.19-.23-.1-.29-.27-.45-.52-.48l.04-.13c.1,0,.23,0,.38,0,.9,0,1.35.17,1.35.51,0,.17-.08.29-.23.35h2.06c.38-.45.6-.67.66-.67.06,0,.25.12.56.35.31.24.47.38.47.44,0,.06-.03.09-.08.09h-2.71v.55h.75c.33-.26.51-.4.56-.4.07,0,.24.07.52.22.27.14.41.26.41.34,0,.05-.06.11-.19.2-.08.06-.11.1-.11.12v.22c.02.22.03.33.03.34,0,.16-.26.24-.79.24-.24,0-.35-.05-.35-.16v-.04h-3.77c-.6,0-1.02.02-1.25.05l-.2-.32c.41.05.88.08,1.4.08v-.72c-.55,0-.94.02-1.18.05l-.2-.33c.41.05.87.08,1.38.08v-.54l-1.44.02Zm1.04,2.63c.13.26.19.55.19.86,0,.56-.23.84-.68.84-.38,0-.57-.14-.57-.43,0-.17.1-.32.29-.44.41-.25.61-.52.61-.83h0s.16,0,.16,0Zm1.24,2.34c.33.22.73.41,1.22.57.45-.28.75-.51.91-.71h-1.98l-.14.14Zm.3-4.42h.77v-.55h-.77v.55Zm0,.2v.71h.77v-.71h-.77Zm.15,1.8l.02-.09c.16-.03.34-.05.53-.05.61,0,.91.17.91.5,0,.3-.17.45-.5.45-.17,0-.31-.1-.41-.31-.14-.3-.32-.47-.55-.49Zm2.56-1.09v-.71h-.82v.71h.82Z"/>
        <path class="uuid-80a97fd1-bda9-4d12-b01a-47a4ba41e5a2" d="m61.96,8.34c-.22.09-.43.16-.64.23-.01,0-.03.09-.04.24,0,.09-.05.14-.12.14-.08,0-.32-.49-.71-1.47.55-.04,1.05-.1,1.51-.19v-1.7c-.45,0-.86.02-1.23.06l-.2-.38c.47.06.95.09,1.43.09v-.3c0-.67-.03-1.26-.08-1.75,1.17.17,1.76.29,1.76.37,0,.05-.03.09-.1.12-.2.1-.31.17-.31.19v1.37h.11c.41-.48.65-.72.69-.72.05,0,.22.13.5.39.28.26.42.41.42.45,0,.06-.03.09-.1.09h-1.63v1.47c.3-.06.79-.18,1.47-.38l.1.14c-.47.41-.99.77-1.56,1.08v2.44c0,.36-.18.63-.55.8-.36.18-.66.27-.92.27-.09,0-.14-.04-.15-.12-.06-.31-.13-.52-.21-.64-.08-.12-.3-.24-.66-.34l.03-.17c.38.02.69.03.93.03.17,0,.25-.08.25-.23v-1.58Zm4.44-3.98h-.54c-.63,0-1.14.02-1.53.06l-.19-.38c.6.06,1.25.09,1.95.09h1.48c.47-.54.74-.81.81-.81.06,0,.26.14.59.43.33.29.5.45.5.5,0,.07-.04.1-.11.1h-1.61v5.73c0,.45-.19.79-.57,1-.37.21-.7.32-1,.32-.11,0-.17-.04-.19-.13-.09-.43-.19-.71-.29-.84-.11-.12-.44-.26-1.01-.41l.03-.16c.63.03,1.1.05,1.42.05.17,0,.26-.09.26-.26v-5.3Z"/>
        <path class="uuid-80a97fd1-bda9-4d12-b01a-47a4ba41e5a2" d="m77.81,8.27c0,.06-.04.09-.11.09-.03,0-.08,0-.16-.03-.06-.01-.1-.02-.11-.02h-.04c-.54.09-1.18.14-1.92.17v.45h1.71c.38-.38.61-.57.67-.57.06,0,.23.1.52.3.29.2.43.32.43.39,0,.06-.03.09-.09.09h-3.25v.58h2.14c.39-.38.62-.57.7-.57s.26.1.54.31c.28.21.42.33.42.37,0,.06-.03.09-.09.09h-3.72v.47c0,.66-.43.99-1.29.99-.13,0-.19-.04-.2-.12-.03-.27-.1-.45-.22-.54-.13-.09-.46-.18-.99-.28l.03-.16c.38.02.74.03,1.06.03h.17c.15,0,.22-.06.22-.18v-.19h-2.18c-.73,0-1.27.02-1.62.06l-.19-.36c.4.06,1.06.09,1.96.09h2.03v-.58h-1.6c-.74,0-1.28.02-1.62.06l-.2-.36c.41.06,1.06.09,1.96.09h1.46v-.4h-1.39c-.49,0-.99-.02-1.5-.03l-.03-.14c2.46-.15,4.26-.42,5.4-.81.72.43,1.08.66,1.08.72Zm-3.27-2.15c.43.3.65.48.65.53s-.03.09-.08.09h-1.98v.87h.44v-.21c0-.2-.01-.38-.04-.53.9.08,1.35.16,1.35.23,0,.06-.07.11-.2.15-.06.02-.1.03-.1.04v.28c.01.1.02.16.02.2,0,.15-.26.22-.78.22-.17,0-.26-.05-.26-.14v-.05h-1.93v.31c0,.14-.25.21-.74.21-.19,0-.29-.05-.29-.16h0c.02-.26.03-.45.03-.57v-.18c0-.21-.01-.39-.04-.55.89.09,1.33.17,1.33.25,0,.05-.03.09-.09.1-.14.05-.21.08-.21.09v.29h.47v-.87h-.52c-.56,0-.95.01-1.17.04l-.16-.29c.4.05.9.07,1.5.07h.35v-.47h-.5v.06c0,.13-.24.2-.71.2-.18,0-.27-.05-.27-.14,0,0,0,0,0,0,0-.32,0-.59,0-.83v-.22c0-.44-.02-.73-.05-.87.41.09.77.18,1.07.27h.43v-.41h-.5c-.56,0-.95.01-1.17.04l-.16-.31c.41.05.91.07,1.5.07h.33v-.05c0-.28-.03-.48-.08-.6.95.09,1.43.18,1.43.26,0,.05-.03.08-.09.1l-.25.09v.2h.55c.33-.4.51-.59.57-.59s.2.11.46.32c.26.21.38.34.38.38,0,.06-.03.09-.09.09h-1.88v.41h.45c.27-.21.44-.32.5-.32.06,0,.22.07.46.2.25.14.37.24.37.29,0,.04-.02.07-.06.09-.17.12-.26.18-.26.19v.28c0,.06,0,.3.03.7,0,.05-.03.1-.08.14Zm-2.42-.91v-.47h-.5v.47h.5Zm-.5.18v.51h.5v-.51h-.5Zm1.51-.66v.47h.5v-.47h-.5Zm0,.66v.51h.5v-.51h-.5Zm.73.85c-.15,0-.23-.04-.23-.12v-.03h-.5v.47h.8l.33-.35c-.1.03-.23.04-.39.04Zm.84-.47l-.05-.1c.43-.33.64-.87.64-1.62,0-.15-.02-.32-.05-.5.19.05.37.09.55.15.24.07.45.14.62.19h.37c.31-.23.49-.34.54-.34.08,0,.24.07.48.2.25.14.37.23.37.28,0,.05-.02.08-.07.1-.14.09-.21.17-.21.22v.16c0,.15.09.22.26.22s.31-.07.39-.22c.02-.03.05-.05.11-.05.08,0,.18.07.32.22.14.14.21.26.21.35,0,.26-.36.4-1.07.4h-.12c.49.25.73.42.73.51,0,.05-.03.09-.1.1-.16.05-.24.08-.24.09-.23.33-.52.61-.86.84.31.11.79.16,1.47.16h.16v.14c-.18.07-.29.26-.33.57-.02.16-.07.23-.16.23-.19,0-.49-.07-.9-.22-.41-.14-.74-.31-1.01-.5-.72.25-1.39.38-2.01.38l-.05-.12c.67-.16,1.19-.37,1.57-.65-.26-.26-.49-.61-.67-1.05h-.23c-.08,0-.15,0-.21.02l-.11-.22-.34.07Zm1.61-.06h.98l.38-.28h-.09c-.48,0-.72-.2-.72-.61v-.72h-.51v.08c0,.82-.4,1.31-1.2,1.48.37.04.75.06,1.15.06Zm-.54.2c.22.3.52.56.91.77.26-.21.46-.46.62-.77h-1.53Z"/>
        <path class="uuid-80a97fd1-bda9-4d12-b01a-47a4ba41e5a2" d="m82.25,8.39h1.71v-.16c0-.28-.02-.52-.05-.72,1.03.12,1.54.22,1.54.3,0,.05-.03.09-.09.12-.14.06-.21.1-.21.14v.33h2.1c.38-.48.61-.72.71-.72.09,0,.29.13.6.38.31.25.47.41.47.46,0,.07-.03.1-.1.1h-3.43c.7.66,1.81.98,3.32.98.11,0,.19,0,.26,0v.15c-.27.07-.42.36-.46.88-.02.17-.1.26-.23.26-.42,0-.95-.2-1.6-.59-.64-.4-1.14-.95-1.49-1.65h-.14v1.26c0,.09.02.52.06,1.28,0,.17-.3.26-.91.26-.26,0-.38-.06-.38-.18.03-.73.05-1.24.05-1.54v-.4c-.89.84-2.17,1.41-3.83,1.7l-.07-.12c1.29-.56,2.24-1.31,2.85-2.26h-1.76c-.28,0-.54.01-.79.04l-.17-.35c.47.06,1.14.09,2.03.09Zm.98-3.46c-.08.02-.12.04-.13.06-.58.93-1.23,1.54-1.93,1.84.27.02.56.03.84.03.12,0,.22,0,.31,0v-.12c0-.25-.04-.41-.11-.47l.11-.06c.59.24.88.59.88,1.03,0,.3-.18.46-.54.46-.28,0-.42-.11-.42-.32v-.02c.01-.22.04-.34.08-.38-.34.36-.81.6-1.43.73,0,0-.02.03-.03.09-.03.17-.09.26-.16.26-.08,0-.22-.45-.42-1.34.31.05.54.07.71.09.41-.51.69-.98.85-1.43-.29.32-.63.53-1.02.62-.01,0-.02.04-.03.09-.03.11-.07.16-.14.16s-.19-.39-.36-1.18c.17.03.35.07.56.09.27-.66.43-1.28.46-1.86.99.18,1.48.31,1.48.4,0,.06-.11.1-.32.14-.06.02-.1.03-.1.03-.43.62-.89,1.06-1.38,1.31h0c.37.02.61.03.72.03.08,0,.14,0,.19,0,.14-.36.23-.63.27-.84l1.06.36c0-.13-.01-.25-.02-.36,0-.09-.01-.21-.04-.36.3.08.63.18.98.3,0-.1,0-.21,0-.34,0-.26-.02-.49-.07-.68.95.08,1.43.17,1.43.28,0,.05-.04.09-.12.11-.14.04-.21.06-.22.07-.28.26-.56.45-.83.57h.53c.29-.26.47-.39.56-.39.08,0,.25.08.52.25.27.17.4.29.4.34,0,.05-.02.09-.07.13-.2.15-.3.23-.3.24v1.21c0,.08.02.45.05,1.09,0,.17-.26.25-.78.25-.22,0-.33-.05-.33-.15v-.16h-.62v.1c0,.16-.26.24-.77.24-.23,0-.34-.05-.34-.15.03-.7.04-1.15.04-1.34v-1.07Zm1.68-.41h-.61v1.05h.61v-1.05Zm-.61,2.41h.61v-1.15h-.61v1.15Zm4.43-1.98c-.51.86-1.16,1.46-1.94,1.8.33.03.6.05.81.05.18,0,.36,0,.54-.03v-.1c0-.23-.04-.39-.12-.47l.11-.06c.63.25.94.58.94.98,0,.33-.19.49-.58.49-.29,0-.44-.11-.44-.33h0c0-.22.03-.34.09-.37-.4.35-.9.59-1.5.73,0,0-.02.03-.03.08-.04.15-.09.22-.15.22-.09,0-.23-.43-.42-1.29.11.03.3.06.58.08.36-.4.64-.86.85-1.39-.21.25-.52.46-.92.62-.01,0-.03.03-.04.08-.02.12-.06.18-.13.18s-.19-.39-.36-1.18c.08.02.16.03.23.04.1.02.16.03.18.03.22-.58.34-1.18.34-1.81v-.03c.99.18,1.48.31,1.48.4,0,.06-.11.1-.32.14-.06.01-.1.02-.1.03-.35.63-.77,1.06-1.25,1.29.25.03.49.05.71.05.09,0,.17,0,.25,0,.14-.36.23-.63.27-.84.86.21,1.28.36,1.28.45,0,.05-.09.09-.26.12-.06.01-.09.02-.1.03Z"/>
        <path class="uuid-80a97fd1-bda9-4d12-b01a-47a4ba41e5a2" d="m97.25,3.75c.36-.29.58-.44.66-.44.08,0,.26.09.54.26.27.17.41.28.41.35,0,.05-.02.08-.07.11-.17.13-.26.22-.26.27v4.9c0,.11.02.76.05,1.94,0,.18-.32.27-.95.27-.21,0-.32-.06-.32-.18v-.41h-5.8v.32c0,.18-.28.27-.85.27-.27,0-.4-.05-.4-.16.03-1.07.04-1.8.04-2.16v-4.06c0-.75-.02-1.29-.07-1.64.64.16,1.1.28,1.38.36h5.64Zm.07,4.92V3.97h-5.8v6.66h5.8v-1.67h-1.32v.6c0,.34-.14.59-.42.76-.28.17-.52.25-.73.25-.11,0-.18-.06-.2-.18-.08-.27-.16-.44-.25-.5-.09-.06-.25-.13-.49-.19v-.17c.32.01.59.02.84.02.13,0,.2-.06.2-.17v-.41h-1.94c-.61,0-1.03.02-1.26.05l-.19-.34c.41.05.93.08,1.55.08h1.85c0-.25-.02-.49-.06-.7.94.08,1.42.17,1.42.26,0,.04-.04.07-.11.1-.13.05-.19.09-.19.11v.22h.16c.17-.17.33-.33.46-.48.03-.03.07-.04.11-.04.06,0,.25.15.57.45Zm-3.46-3.98c0-.24-.02-.47-.07-.71.97.12,1.46.22,1.46.31,0,.05-.04.09-.11.12-.15.07-.23.11-.23.14v.14h.93c.34-.34.54-.52.59-.52.08,0,.24.09.48.28.24.18.36.3.36.35,0,.06-.03.09-.09.09h-2.28v.49h.79c.29-.26.47-.4.53-.4.08,0,.24.08.48.24.24.17.36.28.36.33,0,.04-.03.07-.08.1-.13.08-.2.15-.2.2v.39c0,.07,0,.31.03.73h0c0,.16-.24.23-.72.23-.19,0-.3-.03-.33-.08h-.87v.48c.2,0,.37,0,.53,0,.19,0,.35,0,.49,0-.15-.1-.34-.18-.55-.25l.06-.1c.08,0,.18,0,.31,0,.89,0,1.34.18,1.34.55,0,.26-.12.4-.37.4-.15,0-.28-.08-.4-.23-.11-.14-.19-.21-.21-.21-1.13.35-2.42.55-3.88.62-.01,0-.04.05-.1.16-.03.07-.07.11-.12.11-.09,0-.21-.38-.36-1.13.67.07,1.41.11,2.22.11v-.48h-.8v.1c0,.14-.26.21-.78.21-.18,0-.27-.04-.27-.13h0c.01-.47.02-.77.02-.9v-.4c0-.48-.02-.81-.06-.97.36.07.74.18,1.14.34h.75v-.49h-.86c-.61,0-1.03.02-1.26.05l-.19-.35c.41.06.93.09,1.55.09h.78Zm-1.57,4.51l.07-.11h.11c.84,0,1.26.2,1.26.59,0,.33-.16.49-.49.49-.18,0-.31-.11-.38-.32-.09-.28-.28-.5-.57-.66Zm1.57-3.08v-.52h-.8v.52h.8Zm-.8.21v.61h.8v-.61h-.8Zm1.86-.72v.52h.87v-.52h-.87Zm0,.72v.61h.87v-.61h-.87Z"/>
      </g>
    </g>
  </g>
</svg>