<?xml version="1.0" encoding="UTF-8"?>
<svg id="uuid-1564abf3-a286-4e0b-85a1-d5775e23fbd3" data-name="圖層 2" xmlns="http://www.w3.org/2000/svg" viewBox="0 0 80.67 20">
  <g id="uuid-34060acc-0cc6-4c07-8510-adea448ba5a2" data-name="介面">
    <g>
      <circle cx="14.65" cy="9.3" r=".69"/>
      <g>
        <g>
          <path d="m2.39,4.62v-2.05h.72v2.05h2.79v-2.01h.72v2.01h1.81v.69h-1.81v2.38h2.3v.69H.09v-.69h2.3v-2.38H.59v-.69h1.8Zm1.26,4.58c-.83.93-1.85,1.74-3.06,2.43l-.49-.63c1.2-.65,2.21-1.42,3.02-2.29l.53.48Zm2.26-1.52v-2.38h-2.79v2.38h2.79Zm3.01,3.38l-.55.56c-.7-.75-1.66-1.55-2.89-2.4l.51-.49c1.17.78,2.14,1.56,2.93,2.33Z"/>
          <path d="m.57,11.72l-.57-.73.06-.03c1.18-.64,2.19-1.41,3-2.27l.04-.04.63.57-.04.05c-.84.94-1.88,1.76-3.07,2.45l-.05.03Zm-.38-.69l.42.53c1.15-.66,2.14-1.45,2.96-2.35l-.44-.4c-.8.84-1.78,1.59-2.93,2.22Zm8.17.69l-.04-.05c-.7-.75-1.67-1.55-2.88-2.39l-.06-.04.61-.58.04.03c1.13.76,2.12,1.54,2.94,2.33l.04.04-.64.65Zm-2.79-2.49c1.16.81,2.1,1.58,2.79,2.31l.47-.47c-.79-.76-1.75-1.52-2.83-2.25l-.42.41Zm3.42-.79H.03v-.81h2.3v-2.25H.53v-.81h1.8v-2.05h.85v2.05h2.67v-2.01h.85v2.01h1.81v.81h-1.81v2.25h2.3v.81Zm-8.83-.12h8.71v-.57h-2.3v-2.5h1.81v-.57h-1.81v-2.01h-.6v2.01h-2.92v-2.05h-.6v2.05H.65v.57h1.8v2.5H.16v.57Zm5.81-.57h-2.92v-2.5h2.92v2.5Zm-2.79-.12h2.67v-2.25h-2.67v2.25Z"/>
        </g>
        <g>
          <path d="m12.39,8.05h-.71v-2.64c-.43.79-.95,1.52-1.58,2.19l-.27-.67c.77-.69,1.39-1.51,1.83-2.44h-1.61v-.65h1.63v-1.09h.71v1.09h1.32v.65h-1.32v.46c.51.36,1.04.78,1.57,1.23l-.4.59c-.46-.51-.85-.92-1.18-1.21v2.49Zm-.76.71c-.26.95-.61,1.77-1.07,2.46l-.61-.38c.46-.67.78-1.41.98-2.23l.7.15Zm1.63,2.69c-.63,0-.95-.34-.95-.99v-1.98h.72v1.83c0,.3.15.44.45.44h2.13c.22,0,.38-.06.48-.16.12-.13.21-.5.25-1.11l.67.23c-.07.82-.21,1.32-.43,1.51-.18.15-.46.23-.84.23h-2.47Zm4.9-8.44v4.89h-3.8V3.01h3.8Zm-.69,1.46v-.83h-2.42v.83h2.42Zm0,1.39v-.8h-2.42v.8h2.42Zm0,.58h-2.42v.83h2.42v-.83Zm1.49,4.1l-.6.42c-.38-.68-.87-1.43-1.49-2.26l.57-.36c.66.84,1.17,1.57,1.52,2.2Z"/>
          <path d="m15.74,11.51h-2.47c-.66,0-1.01-.36-1.01-1.05v-2.04h.85v1.9c0,.26.12.38.38.38h2.13c.19,0,.34-.05.43-.14.05-.05.18-.27.23-1.07v-.08s.8.27.8.27v.05c-.08.85-.22,1.35-.45,1.55-.19.16-.49.24-.88.24Zm-3.36-2.97v1.92c0,.62.29.92.89.92h2.47c.36,0,.63-.07.8-.21.2-.17.33-.65.4-1.42l-.55-.19c-.04.57-.13.93-.26,1.07-.12.12-.3.18-.52.18h-2.13c-.33,0-.51-.17-.51-.51v-1.77h-.6Zm-1.8,2.76l-.72-.45.04-.05c.45-.66.78-1.41.97-2.21v-.06s.84.17.84.17l-.02.06c-.26.96-.62,1.79-1.08,2.48l-.03.05Zm-.54-.49l.51.32c.42-.65.76-1.44,1.01-2.33l-.58-.12c-.19.77-.51,1.49-.94,2.14Zm8.31.24l-.03-.06c-.37-.68-.88-1.43-1.49-2.25l-.04-.05.68-.43.03.04c.66.83,1.17,1.57,1.53,2.21l.03.05-.71.5Zm-1.38-2.33c.58.78,1.06,1.5,1.43,2.15l.5-.35c-.35-.61-.84-1.31-1.46-2.1l-.47.3Zm-4.5-.61h-.84v-2.46c-.41.72-.91,1.39-1.48,1.99l-.07.07-.32-.8.03-.03c.74-.66,1.34-1.45,1.77-2.34h-1.58v-.77h1.63v-1.09h.84v1.09h1.32v.77h-1.32v.37c.49.35,1,.75,1.55,1.22l.04.04-.47.7-.05-.06c-.39-.44-.75-.82-1.07-1.11v2.41Zm-.71-.12h.59v-2.57l.1.09c.33.3.71.69,1.13,1.16l.32-.48c-.55-.46-1.05-.85-1.53-1.19l-.03-.02v-.56h1.32v-.53h-1.32v-1.09h-.59v1.09h-1.63v.53h1.65l-.04.09c-.44.93-1.05,1.75-1.81,2.44l.21.54c.59-.64,1.1-1.34,1.51-2.1l.12-.22v2.83Zm6.48-.02h-3.93V2.95h3.93v5.01Zm-3.8-.12h3.68V3.08h-3.68v4.76Zm3.11-.51h-2.54v-.95h2.54v.95Zm-2.42-.12h2.29v-.7h-2.29v.7Zm2.42-1.29h-2.54v-.92h2.54v.92Zm-2.42-.12h2.29v-.67h-2.29v.67Zm2.42-1.27h-2.54v-.95h2.54v.95Zm-2.42-.12h2.29v-.7h-2.29v.7Z"/>
        </g>
        <g>
          <path d="m23.21,3.03v.65h-.56v8.02h-.65v-1.87c-.65.27-1.34.49-2.07.67l-.17-.66c.16-.04.33-.07.49-.11V3.68h-.43v-.65h3.4Zm-1.22,2.11v-1.46h-1.1v1.46h1.1Zm0,2.09v-1.46h-1.1v1.46h1.1Zm0,1.94v-1.31h-1.1v1.7c.38-.11.74-.24,1.1-.38Zm3.88-2.1l-.5.13c-.04-.16-.07-.32-.1-.45-.75.14-1.45.25-2.08.33l-.14-.51c.37-.21.84-.73,1.42-1.58l-1.27.12-.15-.52c.09-.04.17-.12.25-.23.36-.51.67-1.11.94-1.78l.58.23c-.33.71-.66,1.29-1,1.74.34-.04.66-.07,1-.11.16-.27.33-.54.5-.82l.54.22c-.78,1.3-1.43,2.18-1.92,2.63l1.19-.21c-.08-.29-.16-.55-.24-.8l.49-.16c.19.51.36,1.1.49,1.77Zm-1.86.49v1.65h.85c.03-.19.05-.38.05-.58v-1.28h.64v1.28c-.02.8-.19,1.44-.5,1.92-.32.45-.84.8-1.55,1.04l-.36-.56c.65-.23,1.12-.52,1.39-.9.06-.11.12-.22.17-.34h-1.31v-2.24h.62Zm4.86-.46l-.5.13c-.04-.19-.09-.36-.13-.54-.73.1-1.4.19-2.01.26l-.13-.51c.32-.2.72-.71,1.22-1.52l-1.26.12-.15-.51c.09-.04.17-.12.25-.23.3-.48.56-1.03.79-1.67l.58.23c-.3.67-.59,1.2-.87,1.61.32-.02.64-.05.97-.09.14-.26.28-.53.44-.82l.54.22c-.7,1.3-1.27,2.16-1.7,2.59.35-.05.74-.11,1.2-.18-.08-.3-.17-.59-.27-.88l.49-.15c.2.56.39,1.21.54,1.94Zm-.41.48v2.31h-1.49v1.81h-.65v-4.37h.65v1.96h.87v-1.71h.62Z"/>
          <path d="m27.03,11.77h-.78v-4.49h.78v1.96h.75v-1.71h.75v2.43h-1.49v1.81Zm-.65-.12h.53v-1.81h1.49v-2.18h-.5v1.71h-1v-1.96h-.53v4.24Zm-3.67.12h-.78v-1.84c-.66.27-1.31.47-1.99.64h-.06s-.2-.77-.2-.77l.06-.02c.08-.02.16-.04.24-.05.06-.01.13-.03.19-.04V3.75h-.43v-.77h3.52v.77h-.56v8.02Zm-.65-.12h.53V3.62h.56v-.53h-3.27v.53h.43v6.16h-.05c-.08.03-.16.05-.24.07-.06.01-.12.03-.18.04l.14.54c.68-.17,1.33-.38,2-.65l.09-.03v1.9Zm1.42.03l-.42-.67.07-.03c.65-.22,1.1-.52,1.36-.87.04-.08.08-.15.12-.24h-1.27v-2.36h.75v1.65h.74c.03-.18.04-.36.04-.52v-1.34h.77v1.34c-.02.81-.19,1.47-.51,1.96-.32.46-.85.82-1.59,1.07l-.05.02Zm-.24-.6l.29.45c.68-.24,1.18-.58,1.48-1.01.31-.47.47-1.11.49-1.89v-1.22h-.52v1.22c0,.18-.02.38-.05.59v.05h-.98v-1.65h-.5v2.11h1.34l-.04.09c-.05.12-.11.23-.17.34-.27.38-.71.67-1.35.9Zm-2.4-1.43v-1.84h1.22v1.41l-.04.02c-.36.15-.73.28-1.11.39l-.08.02Zm.12-1.72v1.55c.33-.1.66-.21.97-.34v-1.21h-.97Zm7.36-.62v-.06c-.04-.1-.06-.2-.08-.3-.02-.06-.03-.12-.04-.18-.75.1-1.37.18-1.95.25h-.05s-.15-.6-.15-.6l.04-.02c.29-.18.67-.65,1.13-1.39l-1.18.11-.18-.61.05-.02c.07-.03.14-.1.22-.21.3-.49.57-1.05.78-1.65l.02-.06.7.27-.03.06c-.26.58-.53,1.09-.81,1.51.27-.02.54-.04.81-.08.05-.1.1-.2.16-.3.08-.16.17-.33.26-.49l.03-.05.66.26-.03.06c-.31.57-.58,1.05-.84,1.45l.53-.16.02.06c.21.61.4,1.26.55,1.95v.06s-.61.16-.61.16Zm-.03-.69v.06c.03.08.05.16.07.24.02.08.04.16.06.24l.38-.1c-.14-.64-.31-1.25-.51-1.82l-.37.11c.09.26.17.53.25.82l.02.07h-.07c-.46.08-.85.14-1.2.19l-.18.03.13-.13c.42-.42.98-1.27,1.66-2.52l-.43-.17c-.08.15-.16.3-.24.44-.06.11-.12.22-.17.33l-.02.03h-.03c-.32.04-.65.07-.97.09h-.13s.07-.1.07-.1c.29-.42.57-.94.84-1.54l-.46-.18c-.22.59-.48,1.13-.78,1.62-.08.11-.15.18-.23.23l.12.41,1.33-.13-.06.11c-.49.8-.88,1.3-1.2,1.51l.1.42c.58-.07,1.2-.15,1.95-.25h.06Zm-.5-1.3c-.26.4-.49.72-.7.95.28-.04.6-.09.95-.14-.08-.28-.16-.55-.25-.81h0Zm-5.73,1.96h-1.22v-1.58h1.22v1.58Zm-1.1-.12h.97v-1.33h-.97v1.33Zm4.37.11l-.02-.06c-.03-.11-.05-.23-.07-.33v-.06c-.74.13-1.42.24-2.04.31h-.05s-.17-.6-.17-.6l.04-.02c.35-.2.79-.68,1.32-1.45l-1.19.11-.18-.62.05-.02c.07-.03.14-.1.22-.21.35-.51.67-1.1.93-1.77l.02-.06.7.27-.03.06c-.3.64-.61,1.19-.92,1.64.12-.01.24-.03.36-.04.16-.02.31-.03.47-.05.15-.26.32-.53.48-.79l.03-.04.66.26-.04.06c-.35.59-.68,1.1-.98,1.52l.48-.16.02.06c.2.53.36,1.13.5,1.78v.06s-.61.16-.61.16Zm0-.6l.04.18c.02.09.04.18.06.27l.39-.1c-.13-.6-.28-1.15-.46-1.65l-.37.12c.07.23.15.48.22.74l.02.07-1.46.26.16-.14c.49-.45,1.12-1.31,1.87-2.56l-.43-.17c-.16.26-.32.52-.47.77l-.02.03h-.03c-.17.02-.33.04-.5.06-.17.02-.33.03-.5.05l-.14.02.09-.12c.33-.45.66-1.01.97-1.67l-.46-.18c-.26.65-.58,1.24-.92,1.74-.08.11-.15.18-.22.22l.12.42,1.35-.13-.07.11c-.55.81-1.02,1.34-1.39,1.57l.11.41c.62-.08,1.3-.19,2.02-.32h.06Zm-.47-1.18c-.26.36-.5.64-.71.86l.92-.16c-.07-.25-.14-.48-.21-.7Zm-2.79-.3h-1.22v-1.58h1.22v1.58Zm-1.1-.12h.97v-1.33h-.97v1.33Z"/>
        </g>
        <g>
          <path d="m37.58,10.75h1.1v.64h-8.96v-.64h1.11v-2.36h6.75v2.36Zm-4.24-7.78v4.32h-2.88V2.97h2.88Zm-.66,1.82v-1.2h-1.56v1.2h1.56Zm0,.59h-1.56v1.28h1.56v-1.28Zm.15,5.36v-1.71h-1.32v1.71h1.32Zm1.11-2.58l-.51-.46c.54-.53.82-1.19.84-2v-2.87h3.57v4.4c0,.51-.31.78-.92.78h-.67l-.17-.63c.23.02.44.03.63.03.29,0,.44-.14.44-.41v-.69h-2.28c-.12.74-.43,1.36-.93,1.86Zm.91,2.58v-1.71h-1.33v1.71h1.33Zm2.3-7.3h-2.22v.85h2.22v-.85Zm-2.22,2.28h2.22v-.84h-2.22v.84Zm1.97,5.03v-1.71h-1.36v1.71h1.36Z"/>
          <path d="m38.74,11.45h-9.08v-.76h1.11v-2.36h6.88v2.36h1.1v.76Zm-8.96-.12h8.83v-.52h-1.1v-2.36h-6.63v2.36h-1.11v.52Zm7.18-.52h-1.48v-1.83h1.48v1.83Zm-1.36-.12h1.23v-1.58h-1.23v1.58Zm-.69.12h-1.45v-1.83h1.45v1.83Zm-1.33-.12h1.2v-1.58h-1.2v1.58Zm-.69.12h-1.44v-1.83h1.44v1.83Zm-1.32-.12h1.19v-1.58h-1.19v1.58Zm2.37-2.43l-.61-.55.05-.05c.53-.52.8-1.16.82-1.96v-2.93h3.7v4.46c0,.38-.17.84-.98.84h-.72l-.2-.76h.09c.23.03.43.04.63.04.25,0,.37-.11.37-.35v-.63h-2.16c-.13.73-.44,1.35-.94,1.84l-.04.04Zm-.43-.55l.42.38c.47-.48.76-1.08.87-1.79v-.05h2.4v.75c0,.31-.18.48-.5.48-.17,0-.35,0-.55-.02l.13.5h.63c.58,0,.86-.23.86-.72V2.9h-3.45v2.81c-.02.81-.29,1.46-.81,2Zm-.11-.35h-3.01V2.91h3.01v4.44Zm-2.88-.12h2.76V3.04h-2.76v4.19Zm2.22-.5h-1.69v-1.41h1.69v1.41Zm-1.56-.12h1.44v-1.16h-1.44v1.16Zm6.03-.82h-2.34v-.96h2.34v.96Zm-2.22-.12h2.09v-.71h-2.09v.71Zm-2.25-.8h-1.69v-1.33h1.69v1.33Zm-1.56-.12h1.44v-1.08h-1.44v1.08Zm6.03-.38h-2.34v-.97h2.34v.97Zm-2.22-.12h2.09v-.72h-2.09v.72Z"/>
        </g>
      </g>
      <g>
        <path d="m11.4,15.47c-.24-.33-.67-.47-1.04-.47-.95,0-1.59.73-1.59,1.67,0,.99.61,1.69,1.56,1.69.49,0,.88-.21,1.12-.53l.65.46c-.4.5-1,.8-1.78.8-1.43,0-2.45-.99-2.45-2.41s1.08-2.39,2.49-2.39c.6,0,1.3.22,1.67.7l-.62.49Z"/>
        <path d="m14,15.78c.94,0,1.69.65,1.69,1.63s-.75,1.65-1.69,1.65-1.69-.68-1.69-1.65.75-1.63,1.69-1.63Zm0,2.63c.62,0,.9-.52.9-1.01s-.29-.99-.9-.99-.9.51-.9.99.29,1.01.9,1.01Z"/>
        <path d="m15.99,16.49v-.62h.54v-.9h.77v.9h.78v.62h-.78v1.44c0,.28.06.48.41.48.1,0,.24-.02.33-.06l.03.61c-.14.05-.34.08-.52.08-.82,0-1.01-.5-1.01-1.1v-1.45h-.54Z"/>
        <path d="m21.52,17.03v1.94h-.78v-1.7c0-.37-.08-.82-.58-.82s-.73.42-.73.83v1.69h-.78v-4.88h.78v2.21h.01c.12-.26.47-.52.93-.52.81,0,1.15.62,1.15,1.25Z"/>
        <path d="m22.83,14.35c.29,0,.51.2.51.46s-.22.46-.51.46-.49-.22-.49-.46.21-.46.49-.46Zm-.38,1.52h.78v3.1h-.78v-3.1Z"/>
        <path d="m24.17,15.87h.74v.5h.01c.14-.31.51-.59.97-.59.81,0,1.15.62,1.15,1.25v1.94h-.78v-1.72c0-.37-.08-.83-.58-.83s-.73.43-.73.84v1.7h-.78v-3.1Z"/>
        <path d="m27.96,14.08h.78v3.09h.02l1.18-1.3h1l-1.35,1.4,1.43,1.7h-1.03l-1.23-1.59h-.02v1.59h-.78v-4.88Z"/>
        <path d="m34.31,17.66h-2.37c.03.44.43.76.89.76.39,0,.65-.15.82-.4l.52.41c-.3.41-.75.62-1.34.62-.96,0-1.67-.61-1.67-1.62s.71-1.66,1.65-1.66c.87,0,1.5.56,1.5,1.68,0,.07,0,.14,0,.21Zm-.77-.56c0-.4-.23-.75-.73-.75-.46,0-.83.32-.86.75h1.6Z"/>
        <path d="m35.07,15.87h.75v.52h.01c.17-.36.5-.61.91-.61.06,0,.14,0,.19.02v.71c-.1-.03-.17-.03-.24-.03-.7,0-.84.61-.84.83v1.66h-.78v-3.1Z"/>
      </g>
      <circle cx="37.86" cy="18.37" r=".69"/>
      <g>
        <path d="m65.59,15.67c-3.15,0-5.71-2.55-5.71-5.69s2.56-5.69,5.71-5.69,5.71,2.55,5.71,5.69-2.56,5.69-5.71,5.69Zm0-9.76c-2.25,0-4.09,1.83-4.09,4.07s1.83,4.07,4.09,4.07,4.09-1.83,4.09-4.07-1.83-4.07-4.09-4.07Z"/>
        <path d="m56.72,20c-5.55,0-10.04-4.48-10.04-10S51.18,0,56.72,0v1.69c-4.61,0-8.35,3.72-8.35,8.31s3.74,8.31,8.35,8.31v1.69Z"/>
        <ellipse cx="79.44" cy="10" rx="1.23" ry="1.22"/>
      </g>
    </g>
  </g>
</svg>