<?xml version="1.0" encoding="UTF-8"?>
<svg id="uuid-81685b85-da11-460e-9c58-25724cef02d7" data-name="圖層 2" xmlns="http://www.w3.org/2000/svg" viewBox="0 0 41.53 41.45">
  <g id="uuid-9f814b01-6f63-402d-8be0-19cc9596707d" data-name="Design">
    <g id="uuid-603ceb34-8f36-4539-81c6-2a367c5057e1" data-name="台鐵 Logo">
      <path d="m18.74,0s.08,0,.12,0c0,1.22,0,2.43.01,3.65,0,.14-.08.14-.18.16-.87.17-1.76.28-2.61.53-5.02,1.5-8.63,4.64-10.84,9.39-.09.19-.16.38-.25.59h13.92c0-.41,0-.8,0-1.2,0-.8-.38-1.36-1.13-1.65-1-.4-2.01-.79-3.01-1.18-.12-.04-.17-.1-.17-.23,0-1.18,0-2.35,0-3.53,0-.45.22-.73.66-.85,1.4-.4,2.82-.63,4.27-.71,2.27-.13,4.51.09,6.7.69.52.14.73.42.73.95,0,1.14,0,2.28,0,3.43,0,.16-.06.22-.19.27-1.03.4-2.06.8-3.09,1.21-.52.21-.89.59-.98,1.13-.09.55-.07,1.11-.09,1.68h13.92c-.1-.23-.18-.44-.28-.65-1.59-3.46-4.05-6.11-7.39-7.94-1.88-1.03-3.9-1.68-6.04-1.92-.16-.02-.18-.09-.18-.22,0-1.12,0-2.23,0-3.35,0-.08,0-.16-.01-.24.05,0,.11,0,.16,0,.06.01.12.03.17.04,2.14.22,4.22.74,6.17,1.65,6.59,3.07,10.61,8.19,12.05,15.33.06.31.1.63.15.98h-18.7v2.69h.27c6.13,0,12.26,0,18.39,0,.07,0,.15,0,.22,0v.81c-.01.08-.03.16-.04.24-.06,1.24-.23,2.46-.51,3.66-.96,4.05-2.93,7.53-5.97,10.38-3.54,3.32-7.74,5.18-12.57,5.6-.29.03-.58.05-.86.08h-1.62c-.08-.01-.16-.03-.24-.04-.53-.05-1.07-.07-1.59-.14-2.25-.29-4.41-.93-6.45-1.93C5.03,36.09.66,29.67.08,22.3.05,22.03.03,21.77,0,21.5c0-.27,0-.54,0-.81.03,0,.07,0,.1,0,6.2,0,12.39,0,18.59,0,.06,0,.12,0,.18-.01v-2.68H.21c0-.08,0-.14,0-.2.14-.72.25-1.45.43-2.16,1.24-4.84,3.87-8.74,7.88-11.71C11.25,1.91,14.3.67,17.64.16,18.01.11,18.37.05,18.74,0Zm13.89,32.59H8.87c0-.56,0-1.11,0-1.65,0-.6.21-.86.79-1,2.62-.62,5.24-1.25,7.86-1.88.84-.2,1.35-.84,1.35-1.71,0-.57,0-1.15,0-1.72,0-.06,0-.13-.01-.2H4.19c1.68,7.8,9.19,14.08,18.31,13.16,4.3-.44,7.91-2.3,10.84-5.47,2.02-2.19,3.34-4.77,4.01-7.69h-14.72c0,.07-.01.13-.01.19,0,.58,0,1.16,0,1.74,0,.87.49,1.49,1.34,1.69,1.82.44,3.65.87,5.47,1.31.83.2,1.67.4,2.5.6.46.11.67.38.69.85,0,.24,0,.49,0,.73,0,.34,0,.69,0,1.04Z"/>
    </g>
  </g>
</svg>