<?xml version="1.0" encoding="UTF-8"?><svg id="_層_1" xmlns="http://www.w3.org/2000/svg" viewBox="0 0 258 80"><defs><style>.cls-1{fill:#f7f8f8;}.cls-2{fill:#003cc8;}.cls-3{fill:#fff;}.cls-4{fill:#231815;}.cls-5{fill:#211613;}</style></defs><rect class="cls-1" y="-.1" width="258" height="80"/><g><path class="cls-4" d="M98.3,8.8h-5.14c-1.44,0-2.63,1.18-2.63,2.63v5.14c0,1.44,1.18,2.63,2.63,2.63h5.14c1.44,0,2.63-1.18,2.63-2.63v-5.14c0-1.44-1.18-2.63-2.63-2.63Zm1.25,6.03h-2.82v2.82h-1.99v-2.82h-2.82v-1.99h2.82v-2.82h1.99v2.82h2.82v1.99Z"/><g><path class="cls-5" d="M109.79,10.81l.28,.1c-.11,.29-.28,.52-.5,.7,.23,.07,.5,.12,.81,.15-.11,.11-.2,.24-.28,.4h.21v.38h-1.57v.16h1.32v1.73h-.56v-.09h-2.78v.09h-.53v-1.73h1.23v-.16h-1.48v-.38h4c-.32-.06-.59-.14-.82-.26-.21,.09-.45,.17-.74,.22-.05-.13-.12-.24-.21-.35v.24h-2.1v-2.08h2.07v.34h-1.07l.13,.03s-.04,.09-.06,.14h.84v.27h-.44v.15h.54v.28h-.45c.19,.11,.33,.21,.43,.3l-.21,.23h.34v.09c.19-.03,.37-.07,.56-.14-.14-.13-.25-.26-.33-.39l.3-.07h-.4v-.24c-.08-.11-.18-.21-.28-.3h-.02c.26-.11,.4-.24,.43-.39,0-.03,0-.06,0-.09v-.25h1.34v.38c0,.07,0,.11,0,.11,.01,.01,.03,.02,.04,.02h.08s.05,0,.05,0c.02,0,.03-.03,.04-.06,0-.03,.02-.08,.02-.18,.08,.07,.19,.13,.34,.17-.02,.16-.04,.26-.06,.3-.04,.05-.09,.09-.16,.12-.06,.02-.13,.03-.21,.03h-.21c-.14,0-.24-.04-.31-.1-.06-.07-.09-.2-.09-.4h-.44c-.03,.23-.14,.41-.33,.55h1.25Zm-3.29-.56v1.41h.29c-.06-.09-.14-.17-.22-.24,.26-.06,.43-.16,.52-.3h-.51v-.28h.25c-.06-.04-.16-.1-.29-.17,.14-.14,.24-.28,.3-.42h-.33Zm.87,2.74h-.66v.59h.25c-.08-.11-.16-.2-.24-.27,.35-.06,.57-.17,.65-.32Zm-.66,1.02h2.78v-.14h-2.78v.14Zm.43-3.32h-.18c-.06,.07-.1,.12-.13,.15h.31v-.15Zm-.27,.97h.93c-.08-.07-.22-.18-.44-.33-.11,.13-.27,.24-.49,.33Zm1.96,1.78c-.27,0-.43-.04-.49-.12-.04-.06-.06-.15-.06-.27v-.06h-.43c-.07,.27-.29,.46-.67,.59h2.32v-.14h-.66Zm-.56-.76v-.16h-.41v.16h.41Zm1.22,.31h-.76v.06c0,.07,.02,.11,.05,.12,.02,0,.06,0,.1,0h.47c.08,0,.12-.01,.13-.03h0v-.15Zm-.05-1.85h-.58c.08,.1,.18,.19,.29,.26,.09-.06,.19-.15,.29-.26Z"/><path class="cls-5" d="M112.61,10.59v.47h-1.65v-.47h1.65Zm-.13,2.07v1.5h-.87v.2h-.46v-1.7h1.33Zm.51,.05v-1.05c-.05,.06-.1,.1-.15,.15-.1-.09-.21-.19-.35-.29v.22h-1.32v-.45h1.32v.2c.28-.24,.49-.55,.64-.93l.17,.05v-.17h-.62v-.42h.62v-.25h.53v.25h.58v-.25h.53v.25h.62v.42h-.62v.24h-.25c-.05,.09-.09,.18-.14,.24h.88v.37h-.9v.15h.8v.29h-.8v.15h.8v.3h-.8v.15h1.02v.38h-2.56Zm-1.82-.3v-.44h1.32v.44h-1.32Zm1.31-2.5v.45h-1.28v-.45h1.28Zm-.47,3.21h-.4v.58h.4v-.58Zm3.1-.29l.34,.18c-.17,.32-.42,.58-.74,.79,.3,.08,.61,.14,.95,.17-.13,.12-.24,.27-.33,.46-.45-.06-.86-.17-1.23-.32-.39,.15-.84,.26-1.36,.34-.05-.15-.13-.3-.23-.44,.35-.03,.7-.1,1.04-.19-.19-.13-.34-.26-.46-.4l.35-.13h-.69v-.42h2.29l.08-.02Zm-1.27-2.15h-.23c-.06,.14-.09,.21-.11,.24h.54c.06-.15,.1-.27,.12-.34l.26,.04v-.19h-.58v.24Zm.18,.76v-.15h-.5v.15h.5Zm0,.44v-.15h-.5v.15h.5Zm0,.45v-.15h-.5v.15h.5Zm.6,.95h-1c.13,.12,.3,.22,.51,.31,.2-.09,.36-.2,.49-.31Z"/><path class="cls-5" d="M117.83,13.07l.37-.08,.05,.55c-.16,.04-.82,.19-1.97,.45l-.11-.6c.17-.03,.56-.1,1.16-.22h-.04c.12-.58,.19-1.19,.22-1.84l.58,.1c-.07,.58-.16,1.12-.26,1.64Zm.38-2.38v.56h-1.93v-.56h.71v-.85h.55v.85h.67Zm-1.12,2.38l-.51,.09c0-.47-.05-1.01-.17-1.62,0-.02-.01-.04-.01-.06l.47-.1c.14,.59,.21,1.15,.21,1.68Zm3.73-1.82h-1.12v.86h.96v2.3h-.61v-.21h-1.18v.23h-.58v-2.32h.81v-2.34h.61v.92h1.12v.57Zm-.78,2.39v-.97h-1.18v.97h1.18Z"/><path class="cls-5" d="M105.92,19.24v-2.8h.34v1.24h1.31v-1.24h.34v2.8h-.34v-1.25h-1.31v1.25h-.34Z"/><path class="cls-5" d="M108.73,19.24v-2.8h1.72v.3h-1.39v.94h1.28v.3h-1.28v.95h1.41v.3h-1.74Z"/><path class="cls-5" d="M111.05,19.24l.86-2.8h.59l.86,2.8h-.35l-.22-.71h-1.19l-.22,.71h-.35Zm.65-1.01h1.02l-.48-1.58h-.06l-.48,1.58Z"/><path class="cls-5" d="M114.02,19.24v-2.8h.34v2.5h1.42v.3h-1.75Z"/><path class="cls-5" d="M116.8,19.24v-2.5h-.9v-.3h2.14v.3h-.9v2.5h-.34Z"/><path class="cls-5" d="M118.69,19.24v-2.8h.34v1.24h1.31v-1.24h.34v2.8h-.34v-1.25h-1.31v1.25h-.34Z"/><path class="cls-5" d="M123.52,19.29c-.33,0-.6-.1-.8-.29s-.3-.48-.3-.85v-.64c0-.37,.1-.65,.3-.85s.46-.29,.8-.29,.58,.09,.76,.28c.18,.18,.27,.44,.27,.76v.02h-.33v-.03c0-.21-.06-.38-.17-.52-.11-.13-.29-.2-.53-.2s-.42,.07-.56,.22c-.13,.15-.2,.35-.2,.61v.66c0,.26,.07,.46,.2,.61,.13,.15,.32,.22,.56,.22s.41-.07,.53-.2c.11-.13,.17-.31,.17-.52v-.06h.33v.05c0,.32-.09,.57-.27,.76-.18,.18-.43,.28-.76,.28Z"/><path class="cls-5" d="M125.26,19.24v-2.8h1.72v.3h-1.39v.94h1.28v.3h-1.28v.95h1.41v.3h-1.74Z"/><path class="cls-5" d="M127.7,19.24v-2.8h.65l.98,2.59h.05v-2.59h.33v2.8h-.65l-.97-2.59h-.06v2.59h-.33Z"/><path class="cls-5" d="M131.27,19.24v-2.5h-.9v-.3h2.14v.3h-.9v2.5h-.34Z"/><path class="cls-5" d="M133.15,19.24v-2.8h1.72v.3h-1.39v.94h1.28v.3h-1.28v.95h1.41v.3h-1.74Z"/><path class="cls-5" d="M135.6,19.24v-2.8h1.13c.17,0,.33,.03,.46,.09s.24,.15,.31,.26c.08,.11,.11,.24,.11,.4v.04c0,.18-.04,.33-.13,.44-.09,.11-.19,.18-.31,.22v.06c.1,0,.18,.03,.24,.09s.09,.15,.09,.27v.94h-.33v-.9c0-.08-.02-.14-.07-.18s-.11-.06-.2-.06h-.97v1.15h-.34Zm.34-1.45h.76c.18,0,.33-.04,.43-.13,.1-.09,.15-.21,.15-.37v-.03c0-.16-.05-.28-.15-.37s-.24-.13-.43-.13h-.76v1.04Z"/></g></g><g><g><rect class="cls-5" x="172.24" y="18.48" width="9.11" height="1.81" rx=".43" ry=".43"/><rect class="cls-5" x="170.92" y="14.27" width="1.54" height=".89" rx=".2" ry=".2"/><rect class="cls-5" x="172.42" y="10.64" width="1.54" height=".89" rx=".2" ry=".2" transform="translate(58.56 -119.22) rotate(45)"/><rect class="cls-5" x="176.06" y="9.13" width="1.54" height=".89" rx=".2" ry=".2" transform="translate(186.4 -167.25) rotate(90)"/><rect class="cls-5" x="179.69" y="10.64" width="1.54" height=".89" rx=".2" ry=".2" transform="translate(315.9 -108.69) rotate(135)"/><rect class="cls-5" x="181.2" y="14.27" width="1.54" height=".89" rx=".2" ry=".2" transform="translate(363.94 29.43) rotate(180)"/><path class="cls-5" d="M176.83,11.61h0c-1.93,0-3.49,1.56-3.49,3.49v2.29c0,.24,.19,.43,.43,.43h6.11c.24,0,.43-.19,.43-.43v-2.29c0-1.93-1.56-3.49-3.49-3.49Zm-.32,1.07h.65c.07,0,.12,.05,.12,.12v2.24c0,.07-.05,.12-.12,.12h-.65c-.07,0-.12-.05-.12-.12v-2.24c0-.07,.05-.12,.12-.12Zm.32,4.22c-.32,0-.57-.26-.57-.57s.26-.57,.57-.57,.57,.26,.57,.57-.26,.57-.57,.57Z"/></g><g><path class="cls-5" d="M186.93,14.55c.52-.14,.9-.31,1.15-.49l.53,.21c-.3,.25-.71,.48-1.22,.67h-.02c-.13-.13-.27-.27-.43-.39Zm3.51-1.47c.4,.23,.73,.48,.99,.73,.03,.04,.06,.07,.09,.09l-.44,.3c-.06-.08-.13-.15-.22-.23-.15,0-.38,.01-.69,.02-.31,0-.54,.02-.69,.02v.98h-.59v-.97c-.64,.02-1.26,.03-1.85,.04v-.48c.48,0,.87,0,1.17,0h.03c-.22-.17-.5-.34-.83-.52l.38-.32c.07,.03,.17,.09,.31,.16,.12-.08,.25-.18,.39-.29h-1.4v-2.14h2.12v.4h-.7v.21h.63v.91h-.63v.22h.69v.04c.24-.07,.47-.17,.67-.3-.17-.21-.32-.47-.46-.78l.48-.14h-.56v-.49h1.67l.36,.1c-.14,.56-.37,1.01-.7,1.34,.27,.19,.55,.33,.86,.41-.16,.16-.28,.31-.36,.47-.35-.12-.66-.29-.93-.52-.23,.15-.48,.27-.76,.37-.06-.15-.16-.29-.28-.43v.35h-.24l.21,.1c-.19,.14-.41,.28-.67,.42,.1,.06,.19,.12,.25,.17,.42-.23,.77-.45,1.05-.67l.5,.28c-.35,.22-.73,.44-1.15,.65h1.18s-.06-.06-.11-.09c-.09-.06-.16-.11-.2-.13l.42-.26Zm-2.81-2.22v.21h.4v-.21h-.4Zm.96,.54h-.96v.23h.96v-.23Zm-.96,.57v.22h.4v-.22h-.4Zm2.18,2.37l.43-.3c.5,.2,.89,.39,1.16,.57l-.47,.33c-.25-.18-.61-.38-1.09-.59-.01,0-.02-.01-.03-.01Zm.46-2.73c.15-.16,.28-.36,.4-.59h-.77c.09,.21,.21,.41,.38,.59Z"/><path class="cls-5" d="M192.55,14.84l-.49-.35c.31-.2,.54-.5,.67-.89h0l.54,.18c-.17,.49-.41,.84-.72,1.06Zm.22-2.86v-.1c-.08,.06-.18,.13-.28,.2-.08-.14-.21-.27-.37-.4-.02,0-.03-.02-.04-.03,.55-.32,.97-.73,1.26-1.24,.03-.05,.05-.09,.07-.13l.63,.12c-.08,.13-.13,.21-.16,.26h1.1l.09-.02,.41,.25c-.09,.18-.23,.38-.4,.59h.94v.73h.64v.45h-.64v.74h-1.43c.17,.1,.31,.19,.41,.29l-.39,.41c-.18-.18-.44-.36-.8-.54-.03-.02-.06-.03-.08-.04l.12-.12h-1.17v-.5h2.75v-.24h-3.29v-.45h3.29v-.23h-2.67Zm1.88-.84h-1.1c-.07,.08-.18,.2-.32,.35h1.16c.11-.14,.2-.26,.26-.35Zm-.44,3.27h.62c.09,0,.15-.03,.18-.09s.04-.19,.05-.38c.11,.09,.27,.15,.48,.2,.01,0,.02,0,.03,0-.04,.35-.12,.57-.25,.67-.1,.07-.24,.1-.44,.1h-.75c-.34,0-.56-.06-.66-.19-.07-.09-.1-.25-.1-.45v-.61h.58v.6c0,.07,.02,.12,.07,.13,.04,0,.1,.01,.18,.01Zm1.18-.61l.49-.27c.33,.29,.59,.58,.79,.87,.03,.05,.06,.09,.08,.13l-.53,.31c-.13-.26-.38-.58-.75-.96-.03-.03-.06-.06-.08-.08Z"/><path class="cls-5" d="M199.58,13.39v-.99s-.04,.04-.1,.1c-.08-.1-.21-.2-.37-.31v1.29h-.49v-1.11c-.08,.08-.15,.15-.22,.21-.03-.04-.09-.11-.19-.21-.02,1.18-.18,2.05-.48,2.62-.09-.11-.22-.21-.39-.31-.03-.01-.05-.02-.06-.03,.25-.49,.38-1.25,.39-2.3v-1.68h1.84v-.34h.62v.34h1.81v.49h-1.15l.5,.11c-.1,.16-.16,.25-.19,.29h.71v.34h-.81v.18h.68v.29h-.68v.19h.68v.29h-.68v.2h.87v.36h-1.86c.31,.17,.52,.31,.65,.42l-.36,.35c-.18-.18-.43-.35-.77-.52l-.05-.02,.24-.23h-.14Zm-1.08,1.51l-.45-.29c.24-.2,.41-.49,.51-.86l.48,.17c-.14,.47-.32,.8-.54,.98Zm-.3-3.75v.91c.29-.26,.52-.56,.69-.91h-.69Zm.84,0l.36,.11c-.09,.19-.19,.35-.29,.5v.4c.3-.27,.54-.6,.71-1.01h-.78Zm.9,3.34h.51c.08,0,.13-.03,.15-.08,.02-.05,.03-.14,.04-.28,.13,.08,.28,.15,.47,.19-.03,.31-.12,.5-.25,.58-.08,.05-.2,.07-.35,.07h-.63c-.3,0-.5-.06-.58-.18-.06-.08-.09-.22-.09-.42v-.55h.54v.54c0,.07,.02,.12,.07,.13,.03,0,.07,0,.13,0Zm.23-2.94h.38c.09-.17,.14-.3,.17-.4h-.68l.28,.08c-.03,.07-.08,.18-.15,.32Zm.32,.52v-.18h-.43v.18h.43Zm0,.48v-.19h-.43v.19h.43Zm0,.49v-.2h-.43v.2h.43Zm.35,.87l.46-.22c.32,.34,.54,.66,.66,.94,0,.02,.01,.04,.02,.05l-.5,.24c-.1-.27-.29-.57-.55-.9-.04-.04-.07-.08-.1-.12Z"/><path class="cls-5" d="M206.94,14.99c-.77-.06-1.46-.2-2.06-.4-.53,.18-1.21,.32-2.06,.41-.06-.15-.15-.32-.28-.5,.65-.04,1.2-.11,1.65-.21-.23-.13-.42-.26-.58-.39-.19,.12-.38,.23-.57,.32-.11-.14-.24-.27-.39-.38h-.02c.52-.2,.93-.46,1.22-.81,.06-.07,.12-.15,.16-.22l.27,.08v-.69h1.18v.56c.09-.17,.16-.36,.2-.57l.39,.08c-.07,.3-.16,.55-.29,.76-.08-.06-.18-.11-.3-.17v.14h-.94c-.04,.06-.09,.14-.16,.23h2.64v.46h-.72c-.19,.22-.42,.41-.7,.59,.47,.11,1.03,.18,1.67,.22-.12,.13-.22,.29-.31,.49Zm-4.05-3.36s.11-.11,.2-.2c-.12-.14-.27-.29-.42-.43l.23-.3,.09,.07c.11-.18,.2-.33,.26-.46l.41,.15c-.22,.3-.36,.48-.42,.55,.04,.03,.08,.07,.12,.13,.13-.16,.24-.3,.31-.42l.4,.2c-.21,.24-.44,.48-.69,.72h.35c-.05-.08-.08-.14-.1-.17l.3-.15c.18,.22,.3,.43,.38,.62l-.31,.18s-.01-.03-.02-.06l-.03-.06h-.27v.28l.34-.13c.11,.2,.19,.38,.23,.52l-.36,.15c-.03-.15-.1-.33-.21-.54v.85h-.44v-.87c-.07,.34-.17,.62-.28,.82-.07-.05-.19-.12-.36-.2,.09-.16,.17-.4,.23-.71l.41,.09v-.23l-.59,.02-.03-.42h.29Zm1.99,2.45c.27-.12,.49-.25,.65-.39h-1.43c.2,.14,.46,.27,.78,.39Zm1.22-3.77l.41,.15c-.24,.32-.38,.5-.42,.56,.04,.03,.08,.07,.13,.12,.17-.2,.29-.35,.36-.46l.39,.2c-.25,.28-.5,.53-.74,.76h.39l-.13-.19,.31-.17c.21,.24,.36,.46,.45,.66l-.33,.2s-.04-.06-.08-.15h-.32v1.14h-.45v-1.1l-.57,.02-.04-.42h.28l.2-.2c-.12-.13-.25-.24-.37-.33v.07h-1.45v-.33h1.45v.08l.15-.2s.02,.01,.03,.02c.03,.02,.05,.03,.06,.04,.12-.18,.22-.34,.29-.48Zm-1.8,1.02h1.13v.29h-1.13v-.29Zm0,.43h1.13v.28h-1.13v-.28Zm0-1.35h1.11v.29h-1.11v-.29Zm.73,2.07h-.37v.23h.37v-.23Zm2.18,.35l-.36,.17c-.06-.21-.16-.44-.32-.7l.34-.14c.16,.24,.28,.46,.34,.66Z"/><path class="cls-5" d="M210.32,11.18h1.76v2.5h-.62v-.25h-1.13v1.56h-.63v-1.56h-1.12v.27h-.6v-2.52h1.72v-.86h.63v.86Zm-1.75,1.66h1.12v-1.07h-1.12v1.07Zm1.75,0h1.13v-1.07h-1.13v1.07Z"/><path class="cls-5" d="M213.24,12.09l.59,.12c-.1,.91-.28,1.55-.54,1.94l-.56-.32c.26-.39,.43-.97,.51-1.74Zm.89-.35h.62v2.37c0,.14,.02,.22,.07,.24,.04,.02,.11,.03,.2,.03h.69c.11,0,.19-.05,.23-.15,.04-.11,.07-.37,.09-.79,.14,.11,.33,.2,.56,.26-.04,.51-.12,.85-.25,1.01-.12,.14-.31,.21-.58,.21h-.82c-.34,0-.57-.07-.68-.22-.09-.12-.13-.32-.13-.6v-2.37Zm.02-.95l.38-.46c.52,.19,1.02,.43,1.5,.75,.07,.04,.12,.08,.18,.12l-.39,.52c-.33-.28-.79-.55-1.36-.8-.11-.05-.21-.09-.31-.13Zm1.95,1.38l.54-.28c.35,.45,.62,.94,.81,1.47,.04,.12,.08,.23,.1,.33l-.61,.3c-.08-.41-.27-.88-.58-1.4-.09-.15-.18-.29-.27-.42Z"/><path class="cls-5" d="M187.02,19.79v-2.8h1.72v.3h-1.39v.94h1.28v.3h-1.28v.95h1.41v.3h-1.74Z"/><path class="cls-5" d="M189.46,19.79v-2.8h.64l.74,2.59h.05l.74-2.59h.64v2.8h-.32v-2.58h-.06l-.74,2.58h-.58l-.74-2.58h-.06v2.58h-.32Z"/><path class="cls-5" d="M193.1,19.79v-2.8h1.72v.3h-1.39v.94h1.28v.3h-1.28v.95h1.41v.3h-1.74Z"/><path class="cls-5" d="M195.55,19.79v-2.8h1.13c.17,0,.33,.03,.46,.09s.24,.15,.31,.26c.08,.11,.11,.24,.11,.4v.04c0,.18-.04,.33-.13,.44-.09,.11-.19,.18-.31,.22v.06c.1,0,.18,.03,.24,.09s.09,.15,.09,.27v.94h-.33v-.9c0-.08-.02-.14-.07-.18s-.11-.06-.2-.06h-.97v1.15h-.34Zm.34-1.45h.76c.18,0,.33-.04,.43-.13,.1-.09,.15-.21,.15-.37v-.03c0-.16-.05-.28-.15-.37s-.24-.13-.43-.13h-.76v1.04Z"/><path class="cls-5" d="M199.27,19.84c-.21,0-.39-.04-.55-.13-.16-.09-.28-.21-.37-.38-.09-.17-.13-.38-.13-.62v-.64c0-.37,.1-.65,.3-.85s.46-.29,.8-.29,.58,.09,.76,.27c.17,.18,.26,.42,.26,.73v.02h-.33v-.03c0-.13-.02-.25-.07-.36s-.12-.19-.22-.25-.23-.09-.39-.09c-.24,0-.42,.07-.56,.22-.13,.15-.2,.35-.2,.61v.66c0,.26,.07,.46,.2,.61,.13,.15,.32,.22,.56,.22s.41-.07,.52-.2c.11-.13,.17-.31,.17-.53v-.07h-.85v-.29h1.18v1.33h-.3v-.3h-.06c-.03,.06-.07,.12-.12,.17-.05,.06-.13,.1-.22,.14-.09,.03-.21,.05-.35,.05Z"/><path class="cls-5" d="M201.12,19.79v-2.8h1.72v.3h-1.39v.94h1.28v.3h-1.28v.95h1.41v.3h-1.74Z"/><path class="cls-5" d="M203.56,19.79v-2.8h.65l.98,2.59h.05v-2.59h.33v2.8h-.65l-.97-2.59h-.06v2.59h-.33Z"/><path class="cls-5" d="M207.42,19.84c-.33,0-.6-.1-.8-.29s-.3-.48-.3-.85v-.64c0-.37,.1-.65,.3-.85s.46-.29,.8-.29,.58,.09,.76,.28c.18,.18,.27,.44,.27,.76v.02h-.33v-.03c0-.21-.06-.38-.17-.52-.11-.13-.29-.2-.53-.2s-.42,.07-.56,.22c-.13,.15-.2,.35-.2,.61v.66c0,.26,.07,.46,.2,.61,.13,.15,.32,.22,.56,.22s.41-.07,.53-.2c.11-.13,.17-.31,.17-.52v-.06h.33v.05c0,.32-.09,.57-.27,.76-.18,.18-.43,.28-.76,.28Z"/><path class="cls-5" d="M209.86,19.79v-1.07l-1-1.73h.38l.75,1.34h.06l.75-1.34h.38l-1,1.73v1.07h-.34Z"/><path class="cls-5" d="M212.76,19.79v-2.8h1.13c.17,0,.33,.03,.46,.09s.24,.15,.31,.26c.08,.11,.11,.24,.11,.4v.04c0,.18-.04,.33-.13,.44-.09,.11-.19,.18-.31,.22v.06c.1,0,.18,.03,.24,.09s.09,.15,.09,.27v.94h-.33v-.9c0-.08-.02-.14-.07-.18s-.11-.06-.2-.06h-.97v1.15h-.34Zm.34-1.45h.76c.18,0,.33-.04,.43-.13,.1-.09,.15-.21,.15-.37v-.03c0-.16-.05-.28-.15-.37s-.24-.13-.43-.13h-.76v1.04Z"/><path class="cls-5" d="M215.48,19.79v-2.8h1.72v.3h-1.39v.94h1.28v.3h-1.28v.95h1.41v.3h-1.74Z"/><path class="cls-5" d="M218.85,19.84c-.2,0-.38-.04-.54-.11-.16-.07-.29-.18-.38-.33s-.14-.33-.14-.55v-.08h.33v.08c0,.23,.07,.4,.2,.52,.14,.11,.31,.17,.52,.17s.39-.05,.5-.15,.17-.22,.17-.37c0-.1-.03-.19-.08-.25-.05-.06-.12-.11-.22-.15s-.2-.07-.33-.1l-.21-.05c-.16-.04-.31-.09-.43-.16-.13-.06-.22-.14-.29-.24-.07-.1-.11-.23-.11-.39s.04-.29,.12-.41,.19-.2,.33-.26c.14-.06,.31-.09,.49-.09s.36,.03,.51,.1,.27,.16,.36,.29c.09,.13,.13,.29,.13,.48v.17h-.33v-.17c0-.14-.03-.25-.09-.33-.06-.08-.14-.14-.24-.18-.1-.04-.21-.06-.34-.06-.18,0-.33,.04-.44,.12-.11,.08-.17,.2-.17,.35,0,.1,.02,.18,.07,.24s.12,.11,.2,.15,.19,.07,.32,.1l.21,.05c.16,.03,.31,.08,.44,.14,.13,.06,.23,.14,.31,.24,.08,.1,.12,.24,.12,.4s-.04,.31-.12,.43-.2,.22-.35,.29c-.15,.07-.33,.1-.53,.1Z"/><path class="cls-5" d="M220.56,19.79v-2.8h1.07c.17,0,.32,.03,.45,.1,.13,.07,.24,.16,.31,.28,.08,.12,.12,.27,.12,.44v.05c0,.17-.04,.31-.12,.43-.08,.12-.18,.21-.32,.28s-.28,.1-.44,.1h-.74v1.13h-.34Zm.34-1.43h.7c.18,0,.32-.04,.42-.13,.1-.09,.16-.22,.16-.38v-.04c0-.16-.05-.29-.15-.38s-.25-.13-.43-.13h-.7v1.06Z"/><path class="cls-5" d="M224.23,19.84c-.33,0-.6-.1-.8-.29-.2-.19-.3-.48-.3-.85v-.64c0-.37,.1-.65,.3-.85,.2-.19,.46-.29,.8-.29s.6,.1,.8,.29c.2,.19,.3,.48,.3,.85v.64c0,.37-.1,.65-.3,.85-.2,.19-.47,.29-.8,.29Zm0-.3c.24,0,.43-.07,.56-.22,.13-.15,.2-.35,.2-.61v-.66c0-.26-.07-.46-.2-.61-.13-.15-.32-.22-.56-.22s-.43,.07-.56,.22c-.13,.15-.2,.35-.2,.61v.66c0,.26,.07,.46,.2,.61,.13,.15,.32,.22,.56,.22Z"/><path class="cls-5" d="M226.08,19.79v-2.8h.65l.98,2.59h.05v-2.59h.33v2.8h-.65l-.97-2.59h-.06v2.59h-.33Z"/><path class="cls-5" d="M229.85,19.84c-.2,0-.38-.04-.54-.11-.16-.07-.29-.18-.38-.33s-.14-.33-.14-.55v-.08h.33v.08c0,.23,.07,.4,.2,.52,.14,.11,.31,.17,.52,.17s.39-.05,.5-.15,.17-.22,.17-.37c0-.1-.03-.19-.08-.25-.05-.06-.12-.11-.22-.15s-.2-.07-.33-.1l-.21-.05c-.16-.04-.31-.09-.43-.16-.13-.06-.22-.14-.29-.24-.07-.1-.11-.23-.11-.39s.04-.29,.12-.41,.19-.2,.33-.26c.14-.06,.31-.09,.49-.09s.36,.03,.51,.1,.27,.16,.36,.29c.09,.13,.13,.29,.13,.48v.17h-.33v-.17c0-.14-.03-.25-.09-.33-.06-.08-.14-.14-.24-.18-.1-.04-.21-.06-.34-.06-.18,0-.33,.04-.44,.12-.11,.08-.17,.2-.17,.35,0,.1,.02,.18,.07,.24s.12,.11,.2,.15c.09,.04,.19,.07,.32,.1l.21,.05c.16,.03,.31,.08,.44,.14,.13,.06,.23,.14,.31,.24,.08,.1,.12,.24,.12,.4s-.04,.31-.12,.43-.2,.22-.35,.29c-.15,.07-.33,.1-.53,.1Z"/><path class="cls-5" d="M231.56,19.79v-2.8h1.72v.3h-1.39v.94h1.28v.3h-1.28v.95h1.41v.3h-1.74Z"/><path class="cls-5" d="M236.02,19.84c-.33,0-.6-.1-.8-.29s-.3-.48-.3-.85v-.64c0-.37,.1-.65,.3-.85s.46-.29,.8-.29,.58,.09,.76,.28c.18,.18,.27,.44,.27,.76v.02h-.33v-.03c0-.21-.06-.38-.17-.52-.11-.13-.29-.2-.53-.2s-.42,.07-.56,.22c-.13,.15-.2,.35-.2,.61v.66c0,.26,.07,.46,.2,.61,.13,.15,.32,.22,.56,.22s.41-.07,.53-.2c.11-.13,.17-.31,.17-.52v-.06h.33v.05c0,.32-.09,.57-.27,.76-.18,.18-.43,.28-.76,.28Z"/><path class="cls-5" d="M237.76,19.79v-2.8h1.72v.3h-1.39v.94h1.28v.3h-1.28v.95h1.41v.3h-1.74Z"/><path class="cls-5" d="M240.2,19.79v-2.8h.65l.98,2.59h.05v-2.59h.33v2.8h-.65l-.97-2.59h-.06v2.59h-.33Z"/><path class="cls-5" d="M243.77,19.79v-2.5h-.9v-.3h2.14v.3h-.9v2.5h-.34Z"/><path class="cls-5" d="M245.65,19.79v-2.8h1.72v.3h-1.39v.94h1.28v.3h-1.28v.95h1.41v.3h-1.74Z"/><path class="cls-5" d="M248.1,19.79v-2.8h1.13c.17,0,.33,.03,.46,.09s.24,.15,.31,.26c.08,.11,.11,.24,.11,.4v.04c0,.18-.04,.33-.13,.44-.09,.11-.19,.18-.31,.22v.06c.1,0,.18,.03,.24,.09s.09,.15,.09,.27v.94h-.33v-.9c0-.08-.02-.14-.07-.18s-.11-.06-.2-.06h-.97v1.15h-.34Zm.34-1.45h.76c.18,0,.33-.04,.43-.13,.1-.09,.15-.21,.15-.37v-.03c0-.16-.05-.28-.15-.37s-.24-.13-.43-.13h-.76v1.04Z"/></g></g><g><g><path class="cls-4" d="M14.63,8.8c-3.08,0-5.58,2.41-5.58,5.38v.41c0,2.97,2.51,5.38,5.58,5.38,3.08,0,5.58-2.41,5.58-5.38v-.41c0-2.97-2.51-5.38-5.58-5.38Zm4.93,5.79c0,2.61-2.21,4.73-4.93,4.73-2.72,0-4.93-2.12-4.93-4.73v-.41c0-2.61,2.21-4.73,4.93-4.73,2.72,0,4.93,2.12,4.93,4.73v.41Z"/><g><path class="cls-4" d="M14.73,13.21c.54,0,.98-.44,.98-.98s-.44-.98-.98-.98-.98,.44-.98,.98,.44,.98,.98,.98Z"/><path class="cls-4" d="M14.89,15.6h0l.44-1.92h-2.33s.64,.23,.41,1.75l-.17,.7c-.21,.85,.25,1.62,1.29,1.41,1.22-.25,1.81-1.29,1.81-1.29-.6,.48-1.64,.1-1.46-.64Z"/></g></g><g><path class="cls-5" d="M26.54,10.33v3.84c0,.25-.05,.42-.15,.5-.02,.02-.04,.03-.05,.04-.13,.07-.37,.11-.7,.11-.02-.2-.07-.39-.15-.57h0c.07,0,.21,0,.42,0,.05,0,.08-.04,.08-.09v-.99h-.52c-.05,.7-.17,1.25-.35,1.66-.14-.11-.3-.2-.46-.26h-.02c.21-.48,.32-1.23,.33-2.27v-1.96h1.58Zm-1.04,2.28h.49v-.6h-.49v.13c0,.2,0,.36,0,.47Zm.49-1.73h-.49v.58h.49v-.58Zm2.92,1.17l.36,.11c-.11,.65-.31,1.21-.6,1.67,.23,.23,.48,.41,.74,.53-.15,.14-.27,.29-.37,.46-.27-.15-.5-.34-.71-.55-.2,.21-.41,.39-.65,.54-.07-.14-.17-.28-.29-.4v.41h-.57v-4.49h2.3v.96c0,.21-.05,.35-.16,.42-.03,.02-.07,.04-.11,.05-.14,.05-.43,.08-.86,.08-.02-.13-.08-.29-.18-.5,.26,.02,.47,.02,.62,0,.07-.01,.1-.04,.1-.08v-.4h-1.16v1.19h1.45l.09-.02Zm-1.53,.55v1.75c.21-.12,.42-.29,.61-.51-.22-.34-.42-.75-.58-1.24h-.03Zm1.25,0h-.71c.1,.28,.23,.54,.39,.78,.14-.24,.25-.5,.33-.78Z"/><path class="cls-5" d="M34.45,11.14h-.29c-.14,.29-.3,.54-.5,.73,.27,.13,.58,.23,.92,.29-.13,.12-.26,.29-.37,.49h0c-.36-.08-.71-.22-1.02-.42-.27,.16-.61,.3-1.02,.42-.03-.06-.08-.13-.14-.21-.07,.33-.15,.6-.24,.83l-.4-.19c.07-.24,.12-.47,.16-.69h-.26v1.76c0,.24-.05,.4-.15,.47-.02,.02-.05,.03-.07,.04-.14,.07-.37,.11-.71,.11-.02-.16-.07-.35-.17-.57,.12,0,.28,0,.45,0,.05-.02,.08-.04,.08-.07v-1.07c-.2,.41-.4,.72-.62,.92-.04-.12-.12-.31-.27-.58,.28-.25,.52-.59,.71-1.03h-.62v-.52h1.15c-.28-.17-.6-.33-.97-.48l.38-.38c.08,.03,.22,.08,.4,.16,.11-.09,.21-.19,.31-.32h-1.2v-.5h1.62l.09-.02,.38,.24c-.18,.28-.42,.56-.73,.83,.14,.07,.27,.15,.37,.22l-.25,.25h.24l.08-.02,.36,.12-.02,.11c.23-.06,.43-.14,.61-.23-.13-.13-.25-.27-.36-.42-.07,.07-.14,.14-.22,.21-.19-.15-.35-.26-.49-.34,.34-.24,.62-.56,.84-.95,.05-.08,.08-.16,.12-.23l.56,.15c-.04,.09-.1,.21-.19,.35h1.47v.49Zm-1.17,1.79h1.12s0,.08-.02,.22c-.07,.75-.16,1.2-.28,1.37,0,.02-.02,.03-.03,.04-.1,.1-.22,.16-.37,.18-.14,.02-.33,.02-.56,0,0-.19-.06-.38-.16-.55,.15,.02,.29,.02,.43,.02,.07,0,.12-.02,.16-.05,.08-.08,.14-.33,.19-.75h-.58c-.16,.55-.49,.97-.98,1.24-.11,.06-.22,.11-.34,.16-.07-.16-.17-.3-.32-.43l-.02-.02c.5-.18,.84-.47,1.02-.86l.03-.07h-.61v-.49h.73c.03-.17,.04-.31,.05-.44h.59c-.02,.19-.04,.34-.05,.44Zm.22-1.79h-.74c.12,.16,.26,.3,.42,.42,.13-.12,.24-.26,.33-.42Z"/><path class="cls-5" d="M37.63,11.02h1.76v2.5h-.62v-.25h-1.13v1.56h-.63v-1.56h-1.12v.27h-.6v-2.52h1.72v-.86h.63v.86Zm-1.75,1.66h1.12v-1.07h-1.12v1.07Zm1.75,0h1.13v-1.07h-1.13v1.07Z"/><path class="cls-5" d="M40.55,11.93l.59,.12c-.1,.91-.28,1.55-.54,1.94l-.56-.32c.26-.39,.43-.97,.51-1.74Zm.89-.35h.62v2.37c0,.14,.02,.22,.07,.24,.04,.02,.11,.03,.2,.03h.69c.11,0,.19-.05,.23-.15,.04-.11,.07-.37,.09-.79,.14,.11,.33,.2,.56,.26-.04,.51-.12,.85-.25,1.01-.12,.14-.31,.21-.58,.21h-.82c-.34,0-.57-.07-.68-.22-.09-.12-.13-.32-.13-.6v-2.37Zm.02-.95l.38-.46c.52,.19,1.02,.43,1.5,.75,.07,.04,.12,.08,.18,.12l-.39,.52c-.33-.28-.79-.55-1.36-.8-.11-.05-.21-.09-.31-.13Zm1.95,1.38l.54-.28c.35,.45,.62,.94,.81,1.47,.04,.12,.08,.23,.1,.33l-.61,.3c-.08-.41-.27-.88-.58-1.4-.09-.15-.18-.29-.27-.42Z"/><path class="cls-5" d="M24.82,19.62v-2.8h.34v2.8h-.34Z"/><path class="cls-5" d="M25.98,19.62v-2.8h.65l.98,2.59h.05v-2.59h.33v2.8h-.65l-.97-2.59h-.06v2.59h-.33Z"/><path class="cls-5" d="M28.81,19.62v-2.8h1.69v.3h-1.36v.94h1.25v.3h-1.25v1.25h-.34Z"/><path class="cls-5" d="M32.18,19.68c-.33,0-.6-.1-.8-.29-.2-.19-.3-.48-.3-.85v-.64c0-.37,.1-.65,.3-.85,.2-.19,.46-.29,.8-.29s.6,.1,.8,.29c.2,.19,.3,.48,.3,.85v.64c0,.37-.1,.65-.3,.85-.2,.19-.47,.29-.8,.29Zm0-.3c.24,0,.43-.07,.56-.22,.13-.15,.2-.35,.2-.61v-.66c0-.26-.07-.46-.2-.61-.13-.15-.32-.22-.56-.22s-.43,.07-.56,.22c-.13,.15-.2,.35-.2,.61v.66c0,.26,.07,.46,.2,.61,.13,.15,.32,.22,.56,.22Z"/><path class="cls-5" d="M34.04,19.62v-2.8h1.13c.17,0,.33,.03,.46,.09s.24,.15,.31,.26c.08,.11,.11,.24,.11,.4v.04c0,.18-.04,.33-.13,.44-.09,.11-.19,.18-.31,.22v.06c.1,0,.18,.03,.24,.09s.09,.15,.09,.27v.94h-.33v-.9c0-.08-.02-.14-.07-.18s-.11-.06-.2-.06h-.97v1.15h-.34Zm.34-1.45h.76c.18,0,.33-.04,.43-.13,.1-.09,.15-.21,.15-.37v-.03c0-.16-.05-.28-.15-.37s-.24-.13-.43-.13h-.76v1.04Z"/><path class="cls-5" d="M36.76,19.62v-2.8h.64l.74,2.59h.05l.74-2.59h.64v2.8h-.32v-2.58h-.06l-.74,2.58h-.58l-.74-2.58h-.06v2.58h-.32Z"/><path class="cls-5" d="M40.23,19.62l.86-2.8h.59l.86,2.8h-.35l-.22-.71h-1.19l-.22,.71h-.35Zm.65-1.01h1.02l-.48-1.58h-.06l-.48,1.58Z"/><path class="cls-5" d="M43.64,19.62v-2.5h-.9v-.3h2.14v.3h-.9v2.5h-.34Z"/><path class="cls-5" d="M45.53,19.62v-2.8h.34v2.8h-.34Z"/><path class="cls-5" d="M47.72,19.68c-.33,0-.6-.1-.8-.29-.2-.19-.3-.48-.3-.85v-.64c0-.37,.1-.65,.3-.85,.2-.19,.46-.29,.8-.29s.6,.1,.8,.29c.2,.19,.3,.48,.3,.85v.64c0,.37-.1,.65-.3,.85-.2,.19-.47,.29-.8,.29Zm0-.3c.24,0,.43-.07,.56-.22,.13-.15,.2-.35,.2-.61v-.66c0-.26-.07-.46-.2-.61-.13-.15-.32-.22-.56-.22s-.43,.07-.56,.22c-.13,.15-.2,.35-.2,.61v.66c0,.26,.07,.46,.2,.61,.13,.15,.32,.22,.56,.22Z"/><path class="cls-5" d="M49.57,19.62v-2.8h.65l.98,2.59h.05v-2.59h.33v2.8h-.65l-.97-2.59h-.06v2.59h-.33Z"/><path class="cls-5" d="M54.42,19.68c-.33,0-.6-.1-.8-.29s-.3-.48-.3-.85v-.64c0-.37,.1-.65,.3-.85s.46-.29,.8-.29,.58,.09,.76,.28c.18,.18,.27,.44,.27,.76v.02h-.33v-.03c0-.21-.06-.38-.17-.52-.11-.13-.29-.2-.53-.2s-.42,.07-.56,.22c-.13,.15-.2,.35-.2,.61v.66c0,.26,.07,.46,.2,.61,.13,.15,.32,.22,.56,.22s.41-.07,.53-.2c.11-.13,.17-.31,.17-.52v-.06h.33v.05c0,.32-.09,.57-.27,.76-.18,.18-.43,.28-.76,.28Z"/><path class="cls-5" d="M56.17,19.62v-2.8h1.72v.3h-1.39v.94h1.28v.3h-1.28v.95h1.41v.3h-1.74Z"/><path class="cls-5" d="M58.61,19.62v-2.8h.65l.98,2.59h.05v-2.59h.33v2.8h-.65l-.97-2.59h-.06v2.59h-.33Z"/><path class="cls-5" d="M62.17,19.62v-2.5h-.9v-.3h2.14v.3h-.9v2.5h-.34Z"/><path class="cls-5" d="M64.06,19.62v-2.8h1.72v.3h-1.39v.94h1.28v.3h-1.28v.95h1.41v.3h-1.74Z"/><path class="cls-5" d="M66.5,19.62v-2.8h1.13c.17,0,.33,.03,.46,.09s.24,.15,.31,.26c.08,.11,.11,.24,.11,.4v.04c0,.18-.04,.33-.13,.44-.09,.11-.19,.18-.31,.22v.06c.1,0,.18,.03,.24,.09,.06,.06,.09,.15,.09,.27v.94h-.33v-.9c0-.08-.02-.14-.07-.18s-.11-.06-.2-.06h-.97v1.15h-.34Zm.34-1.45h.76c.18,0,.33-.04,.43-.13,.1-.09,.15-.21,.15-.37v-.03c0-.16-.05-.28-.15-.37s-.24-.13-.43-.13h-.76v1.04Z"/></g></g><g><path class="cls-2" d="M18.92,34.38v-1.86c0-.91-.74-1.65-1.66-1.65h-5.31c-.92,0-1.66,.74-1.66,1.65v1.86h-.9v1.26h.9v5.46h1.2v.99h1.27v-.99h3.68v.99h1.27v-.99h1.2v-5.46h.9v-1.26h-.9Zm-6.25-2.59h3.87v.8h-3.87v-.8Zm-.12,7.8c-.44,.15-.85-.25-.7-.69,.05-.15,.17-.27,.33-.32,.44-.15,.85,.25,.7,.69-.05,.15-.17,.27-.33,.32Zm4.48,0c-.44,.15-.85-.25-.7-.69,.05-.15,.17-.27,.33-.32,.44-.15,.85,.25,.7,.69-.05,.15-.17,.27-.33,.32Zm.86-2.82h-6.56v-3.57h6.56v3.57Z"/><g><path class="cls-5" d="M25.6,33.02l.65,.2c-.26,.52-.58,.97-.96,1.34-.08,.07-.15,.14-.23,.2-.17-.18-.33-.32-.48-.42,.33-.24,.61-.56,.84-.96,.07-.12,.13-.24,.18-.35Zm1.84,2.16l.56-.27c.42,.5,.78,1,1.06,1.52,.04,.07,.08,.15,.11,.21l-.6,.31c-.02-.06-.09-.19-.2-.4-1.22,.06-2.37,.11-3.45,.16l-.07-.62c.35,0,.6-.01,.73-.02,.32-.58,.59-1.22,.82-1.92,0-.04,.02-.07,.03-.1l.71,.18c-.28,.66-.58,1.27-.89,1.83,.39,0,.98-.03,1.77-.05-.24-.35-.43-.62-.59-.82Zm-1.4-2.72h1.96c.21,.52,.52,.98,.92,1.39,.14,.14,.27,.25,.41,.35-.17,.09-.34,.22-.52,.4l-.03,.03c-.45-.39-.84-.91-1.17-1.56,0-.02-.01-.03-.02-.04h-1.54v-.58Z"/><path class="cls-5" d="M34.3,35.71v.54h-2v.67h-.61v-.67h-1.93v-.54h1.93v-.27h-1.44v-2.01h1.44v-.24h-1.81v-.54h1.81v-.41h.61v.41h1.85v.54h-1.85v.24h1.47v2.01h-1.47v.27h2Zm-3.48-1.8v.3h.87v-.3h-.87Zm0,1.05h.87v-.31h-.87v.31Zm2.36-1.05h-.88v.3h.88v-.3Zm0,1.05v-.31h-.88v.31h.88Z"/><path class="cls-5" d="M36.56,35.56l.37-.08,.05,.55c-.16,.04-.82,.19-1.97,.45l-.11-.6c.17-.03,.56-.1,1.16-.22h-.04c.12-.58,.19-1.19,.22-1.84l.58,.1c-.07,.58-.16,1.12-.26,1.64Zm.38-2.38v.56h-1.93v-.56h.71v-.85h.55v.85h.67Zm-1.12,2.38l-.51,.09c0-.47-.05-1.01-.17-1.62,0-.02-.01-.04-.01-.06l.47-.1c.14,.59,.21,1.15,.21,1.68Zm3.73-1.82h-1.12v.86h.96v2.3h-.61v-.21h-1.18v.23h-.58v-2.32h.81v-2.34h.61v.92h1.12v.57Zm-.78,2.39v-.97h-1.18v.97h1.18Z"/><path class="cls-5" d="M24.61,41.72v-.3h.39v-2.2h-.39v-.3h1.4c.16,0,.31,.03,.43,.09,.13,.06,.22,.14,.3,.25,.07,.1,.11,.23,.11,.37v.03c0,.13-.03,.24-.08,.32-.05,.08-.11,.15-.18,.2-.07,.05-.14,.08-.2,.1v.06c.07,.02,.14,.05,.21,.09s.13,.11,.18,.2c.05,.09,.07,.19,.07,.32v.04c0,.15-.04,.28-.11,.39-.07,.11-.17,.19-.3,.25-.13,.06-.27,.09-.43,.09h-1.4Zm.73-1.56h.65c.16,0,.29-.04,.38-.12,.1-.08,.14-.19,.14-.32v-.04c0-.14-.05-.24-.14-.33-.09-.08-.22-.12-.39-.12h-.65v.93Zm0,1.26h.64c.18,0,.31-.04,.4-.12,.09-.08,.14-.19,.14-.34v-.04c0-.14-.05-.25-.14-.34-.09-.08-.23-.12-.4-.12h-.64v.96Z"/><path class="cls-5" d="M28.58,41.78c-.21,0-.39-.04-.54-.11s-.27-.19-.36-.33c-.08-.15-.13-.33-.13-.55v-1.86h.33v1.87c0,.23,.06,.4,.18,.52,.12,.11,.29,.17,.52,.17s.39-.06,.52-.17c.12-.11,.18-.29,.18-.52v-1.87h.34v1.86c0,.22-.04,.4-.13,.55-.09,.15-.21,.26-.36,.33s-.34,.11-.55,.11Z"/><path class="cls-5" d="M31.36,41.78c-.2,0-.38-.04-.54-.11-.16-.07-.29-.18-.38-.33s-.14-.33-.14-.55v-.08h.33v.08c0,.23,.07,.4,.2,.52,.14,.11,.31,.17,.52,.17s.39-.05,.5-.15,.17-.22,.17-.37c0-.1-.03-.19-.08-.25-.05-.06-.12-.11-.22-.15s-.2-.07-.33-.1l-.21-.05c-.16-.04-.31-.09-.43-.16-.13-.06-.22-.14-.29-.24-.07-.1-.11-.23-.11-.39s.04-.29,.12-.41,.19-.2,.33-.26c.14-.06,.31-.09,.49-.09s.36,.03,.51,.1,.27,.16,.36,.29c.09,.13,.13,.29,.13,.48v.17h-.33v-.17c0-.14-.03-.25-.09-.33-.06-.08-.14-.14-.24-.18-.1-.04-.21-.06-.34-.06-.18,0-.33,.04-.44,.12-.11,.08-.17,.2-.17,.35,0,.1,.02,.18,.07,.24s.12,.11,.2,.15,.19,.07,.32,.1l.21,.05c.16,.03,.31,.08,.44,.14,.13,.06,.23,.14,.31,.24,.08,.1,.12,.24,.12,.4s-.04,.31-.12,.43-.2,.22-.35,.29c-.15,.07-.33,.1-.53,.1Z"/><path class="cls-5" d="M35,41.78c-.2,0-.38-.04-.54-.11-.16-.07-.29-.18-.38-.33s-.14-.33-.14-.55v-.08h.33v.08c0,.23,.07,.4,.2,.52,.14,.11,.31,.17,.52,.17s.39-.05,.5-.15,.17-.22,.17-.37c0-.1-.03-.19-.08-.25-.05-.06-.12-.11-.22-.15s-.2-.07-.33-.1l-.21-.05c-.16-.04-.31-.09-.43-.16-.13-.06-.22-.14-.29-.24-.07-.1-.11-.23-.11-.39s.04-.29,.12-.41,.19-.2,.33-.26c.14-.06,.31-.09,.49-.09s.36,.03,.51,.1,.27,.16,.36,.29c.09,.13,.13,.29,.13,.48v.17h-.33v-.17c0-.14-.03-.25-.09-.33-.06-.08-.14-.14-.24-.18-.1-.04-.21-.06-.34-.06-.18,0-.33,.04-.44,.12-.11,.08-.17,.2-.17,.35,0,.1,.02,.18,.07,.24s.12,.11,.2,.15,.19,.07,.32,.1l.21,.05c.16,.03,.31,.08,.44,.14,.13,.06,.23,.14,.31,.24,.08,.1,.12,.24,.12,.4s-.04,.31-.12,.43-.2,.22-.35,.29c-.15,.07-.33,.1-.53,.1Z"/><path class="cls-5" d="M37.42,41.72v-2.5h-.9v-.3h2.14v.3h-.9v2.5h-.34Z"/><path class="cls-5" d="M38.85,41.72l.86-2.8h.59l.86,2.8h-.35l-.22-.71h-1.19l-.22,.71h-.35Zm.65-1.01h1.02l-.48-1.58h-.06l-.48,1.58Z"/><path class="cls-5" d="M42.26,41.72v-2.5h-.9v-.3h2.14v.3h-.9v2.5h-.34Z"/><path class="cls-5" d="M44.15,41.72v-2.8h.34v2.8h-.34Z"/><path class="cls-5" d="M46.34,41.78c-.33,0-.6-.1-.8-.29-.2-.19-.3-.48-.3-.85v-.64c0-.37,.1-.65,.3-.85,.2-.19,.46-.29,.8-.29s.6,.1,.8,.29c.2,.19,.3,.48,.3,.85v.64c0,.37-.1,.65-.3,.85-.2,.19-.47,.29-.8,.29Zm0-.3c.24,0,.43-.07,.56-.22,.13-.15,.2-.35,.2-.61v-.66c0-.26-.07-.46-.2-.61-.13-.15-.32-.22-.56-.22s-.43,.07-.56,.22c-.13,.15-.2,.35-.2,.61v.66c0,.26,.07,.46,.2,.61,.13,.15,.32,.22,.56,.22Z"/><path class="cls-5" d="M48.19,41.72v-2.8h.65l.98,2.59h.05v-2.59h.33v2.8h-.65l-.97-2.59h-.06v2.59h-.33Z"/></g></g><g><g><rect class="cls-3" x="91.99" y="32.78" width="7.31" height="7.26"/><g><path class="cls-2" d="M90.07,30.88v11.08h11.15v-11.08h-11.15Zm5.83,6.57h-1.3v1.94h-1.42v-5.94h2.72c1.41,0,2.21,.8,2.21,2,0,1.2-.8,2-2.21,2Z"/><path class="cls-2" d="M95.81,34.64h-1.21v1.62h1.21c.55,0,.88-.28,.88-.81s-.34-.81-.88-.81Z"/></g></g><g><path class="cls-5" d="M107.15,33.12v-.44c-.13,.29-.25,.53-.36,.73v3.43h-.57v-2.55c-.13,.17-.24,.3-.34,.4-.07-.19-.17-.38-.29-.58,0-.02-.02-.03-.02-.04,.39-.39,.72-.89,.99-1.51,.06-.12,.1-.25,.15-.37l.56,.18c-.04,.1-.07,.18-.1,.24h1.23v-.43h.6v.43h1.31v.5h-3.16Zm-.12,1.43h3.35v.96h-.54v-.51h-2.29v.51h-.52v-.97Zm2.96-.19h-2.52v-1.06h2.52v1.06Zm-2.27,1.32v-.47h1.98v.47h-.7v.59c0,.23-.06,.38-.17,.46-.03,.02-.06,.04-.09,.05-.14,.05-.41,.08-.81,.08h-.06c-.02-.14-.07-.32-.17-.54,.25,.02,.45,.02,.6,0,.07,0,.1-.03,.1-.08v-.57h-.68Zm.31-1.99v.27h1.36v-.27h-1.36Z"/><path class="cls-5" d="M115.5,35.64v.54h-2v.67h-.61v-.67h-1.93v-.54h1.93v-.27h-1.44v-2.01h1.44v-.24h-1.81v-.54h1.81v-.41h.61v.41h1.85v.54h-1.85v.24h1.47v2.01h-1.47v.27h2Zm-3.48-1.8v.3h.87v-.3h-.87Zm0,1.05h.87v-.31h-.87v.31Zm2.36-1.05h-.88v.3h.88v-.3Zm0,1.05v-.31h-.88v.31h.88Z"/><path class="cls-5" d="M120.76,34.69h-1.99s-.01,.03-.02,.05c0,.01-.02,.03-.03,.05s-.02,.04-.03,.04c0,0-.01,.02-.03,.05l-.03,.04h2.03s0,.07,0,.21c-.06,.82-.14,1.32-.26,1.48,0,.02-.02,.03-.03,.04-.08,.1-.19,.15-.33,.17-.13,.02-.3,.02-.51,0-.01-.18-.06-.33-.13-.46,.11,0,.23,.01,.35,.01,.07,0,.12-.02,.15-.05,.08-.09,.14-.4,.19-.94h-.2c-.17,.47-.42,.88-.73,1.23-.09,.1-.18,.19-.27,.25-.11-.13-.25-.24-.42-.33,.33-.21,.62-.54,.86-1,.03-.05,.05-.1,.07-.15h-.3c-.22,.39-.51,.74-.87,1.04-.1,.08-.2,.16-.29,.21-.12-.15-.25-.27-.39-.35,.34-.17,.65-.43,.93-.79,.03-.04,.06-.08,.09-.12h-.3c-.19,.2-.38,.36-.58,.49-.09-.12-.21-.22-.35-.32-.02,0-.03-.02-.04-.02-.13,.06-.31,.15-.56,.28-.22,.1-.37,.18-.47,.23l-.22-.6c.07-.03,.2-.07,.37-.15,.11-.04,.19-.07,.24-.1v-1.41h-.5v-.56h.5v-.99h.55v.99h.47v.56h-.47v1.18l.4-.18,.11,.42c.18-.16,.33-.33,.46-.53h-.57v-.5h3.14v.5Zm-.34-2.38v1.69h-2.37v-1.69h2.37Zm-.55,.65v-.24h-1.29v.24h1.29Zm0,.63v-.24h-1.29v.24h1.29Z"/><path class="cls-5" d="M105.84,41.65v-2.8h1.07c.17,0,.32,.03,.45,.1,.13,.07,.24,.16,.31,.28,.08,.12,.12,.27,.12,.44v.05c0,.17-.04,.31-.12,.43-.08,.12-.18,.21-.32,.28s-.28,.1-.44,.1h-.74v1.13h-.34Zm.34-1.43h.7c.18,0,.32-.04,.42-.13,.1-.09,.16-.22,.16-.38v-.04c0-.16-.05-.29-.15-.38s-.25-.13-.43-.13h-.7v1.06Z"/><path class="cls-5" d="M108.1,41.65l.86-2.8h.59l.86,2.8h-.35l-.22-.71h-1.19l-.22,.71h-.35Zm.65-1.01h1.02l-.48-1.58h-.06l-.48,1.58Z"/><path class="cls-5" d="M111.07,41.65v-2.8h1.13c.17,0,.33,.03,.46,.09s.24,.15,.31,.26c.08,.11,.11,.24,.11,.4v.04c0,.18-.04,.33-.13,.44-.09,.11-.19,.18-.31,.22v.06c.1,0,.18,.03,.24,.09s.09,.15,.09,.27v.94h-.33v-.9c0-.08-.02-.14-.07-.18s-.11-.06-.2-.06h-.97v1.15h-.34Zm.34-1.45h.76c.18,0,.33-.04,.43-.13,.1-.09,.15-.21,.15-.37v-.03c0-.16-.05-.28-.15-.37s-.24-.13-.43-.13h-.76v1.04Z"/><path class="cls-5" d="M113.79,41.65v-2.8h.34v1.22h.06l1.18-1.22h.45l-1.36,1.38,1.41,1.42h-.46l-1.22-1.24h-.06v1.24h-.34Z"/><path class="cls-5" d="M116.48,41.65v-2.8h.34v2.8h-.34Z"/><path class="cls-5" d="M117.64,41.65v-2.8h.65l.98,2.59h.05v-2.59h.33v2.8h-.65l-.97-2.59h-.06v2.59h-.33Z"/><path class="cls-5" d="M121.46,41.71c-.21,0-.39-.04-.55-.13-.16-.09-.28-.21-.37-.38-.09-.17-.13-.38-.13-.62v-.64c0-.37,.1-.65,.3-.85s.46-.29,.8-.29,.58,.09,.76,.27c.17,.18,.26,.42,.26,.73v.02h-.33v-.03c0-.13-.02-.25-.07-.36s-.12-.19-.22-.25-.23-.09-.39-.09c-.24,0-.42,.07-.56,.22-.13,.15-.2,.35-.2,.61v.66c0,.26,.07,.46,.2,.61,.13,.15,.32,.22,.56,.22s.41-.07,.52-.2c.11-.13,.17-.31,.17-.53v-.07h-.85v-.29h1.18v1.33h-.3v-.3h-.06c-.03,.06-.07,.12-.12,.17-.05,.06-.13,.1-.22,.14-.09,.03-.21,.05-.35,.05Z"/><path class="cls-5" d="M124.31,41.65v-2.8h.34v2.5h1.42v.3h-1.75Z"/><path class="cls-5" d="M127.69,41.71c-.33,0-.6-.1-.8-.29-.2-.19-.3-.48-.3-.85v-.64c0-.37,.1-.65,.3-.85,.2-.19,.46-.29,.8-.29s.6,.1,.8,.29c.2,.19,.3,.48,.3,.85v.64c0,.37-.1,.65-.3,.85-.2,.19-.47,.29-.8,.29Zm0-.3c.24,0,.43-.07,.56-.22,.13-.15,.2-.35,.2-.61v-.66c0-.26-.07-.46-.2-.61-.13-.15-.32-.22-.56-.22s-.43,.07-.56,.22c-.13,.15-.2,.35-.2,.61v.66c0,.26,.07,.46,.2,.61,.13,.15,.32,.22,.56,.22Z"/><path class="cls-5" d="M130.21,41.65v-2.5h-.9v-.3h2.14v.3h-.9v2.5h-.34Z"/></g></g><g><g><path class="cls-2" d="M177.07,37.54c0,.15,.1,.28,.25,.31,.5,.12,.99,.24,1.49,.35,.08,.02,.13,.09,.13,.17,0,.11,0,.21,0,.32h-4.45c0-.11,0-.21,0-.32,0-.08,.06-.15,.14-.17,.17-.04,.34-.08,.52-.12,.32-.08,.65-.15,.97-.23,.14-.03,.25-.16,.25-.31,0-.12,0-.24,0-.36h-2.75c.27,1.31,1.5,2.45,3.09,2.46,1.61,0,2.85-1.15,3.12-2.46h-2.75c0,.12,0,.24,0,.36Z"/><path class="cls-2" d="M181.9,30.88h-10.34c-.26,0-.48,.21-.48,.47v10.27c0,.26,.21,.47,.48,.47h10.34c.26,0,.48-.21,.48-.47v-10.27c0-.26-.21-.47-.48-.47Zm-1.28,5.74s0,.03,0,.04c-.02,.55-.17,1.08-.43,1.59-.15,.3-.35,.58-.58,.83-.7,.75-1.56,1.16-2.58,1.25-.05,0-.09,0-.14,.01h-.29s-.03,0-.04,0c-.44-.02-.87-.11-1.28-.28-.43-.17-.82-.42-1.16-.73-.75-.69-1.16-1.54-1.25-2.56,0-.05,0-.09-.01-.14v-.14s.03,0,.05,0c1.15,0,2.29,0,3.44,0,0,0,.02,0,.03,0,.02,0,.03,0,.02-.02,0-.15,0-.3,0-.45,0-.02,0-.03-.02-.02-.01,0-.02,0-.03,0h-3.4l-.04-.04c.21-1.69,1.66-3.14,3.48-3.29h.01c0,.23,0,.46,0,.68,0,.02,0,.02-.03,.03-.03,0-.05,0-.08,0-.38,.06-.75,.18-1.09,.37-.65,.36-1.12,.89-1.4,1.58h2.61c0-.07,0-.14,0-.22,0-.14-.09-.26-.22-.32-.19-.07-.37-.15-.56-.22-.02,0-.03-.02-.03-.04,0-.22,0-.44,0-.66,0-.07,.05-.14,.12-.16,.3-.09,.62-.13,.93-.14,.38-.01,.76,.03,1.13,.14,.08,.02,.13,.09,.13,.17,0,.21,0,.43,0,.64,0,.02-.01,.04-.03,.05-.19,.07-.38,.15-.57,.22-.11,.04-.19,.14-.2,.25,0,.09,0,.18,0,.27h2.6s-.03-.07-.05-.11c-.4-.86-1.08-1.45-2.05-1.76-.15-.05-.32-.06-.48-.08-.02,0-.03-.01-.03-.03,0-.22,0-.43,0-.65v-.03c1.02,.11,1.87,.53,2.55,1.28,.53,.59,.84,1.28,.95,2.06h-3.5v.5h.04c1.15,0,2.3,0,3.46,0,.01,0,.03,0,.04,0v.14Z"/></g><g><path class="cls-5" d="M189.4,32.32v1.55c0,.49,.16,.95,.48,1.39,.36,.48,.88,.85,1.54,1.1-.15,.15-.28,.32-.39,.52,0,.02-.02,.03-.02,.04-.65-.27-1.17-.69-1.57-1.27-.18-.25-.3-.49-.36-.71-.09,.36-.3,.72-.61,1.07-.34,.4-.76,.7-1.25,.91-.08-.14-.21-.3-.39-.47l-.03-.03c.78-.3,1.34-.78,1.68-1.44,.19-.36,.28-.73,.28-1.09v-1.56h.64Zm-1.9,.92l.6,.13c-.08,.64-.24,1.1-.47,1.39-.06,.07-.12,.14-.19,.19l-.54-.34c.32-.27,.52-.73,.6-1.37Zm3.06,0l.65,.25c-.32,.6-.58,1.05-.81,1.36l-.52-.22c.25-.4,.47-.85,.65-1.34,0-.02,.01-.03,.01-.04Z"/><path class="cls-5" d="M196.57,35.71v.54h-2v.67h-.61v-.67h-1.93v-.54h1.93v-.27h-1.44v-2.01h1.44v-.24h-1.81v-.54h1.81v-.41h.61v.41h1.85v.54h-1.85v.24h1.47v2.01h-1.47v.27h2Zm-3.48-1.8v.3h.87v-.3h-.87Zm0,1.05h.87v-.31h-.87v.31Zm2.36-1.05h-.88v.3h.88v-.3Zm0,1.05v-.31h-.88v.31h.88Z"/><path class="cls-5" d="M198.83,35.56l.37-.08,.05,.55c-.16,.04-.82,.19-1.97,.45l-.11-.6c.17-.03,.56-.1,1.16-.22h-.04c.12-.58,.19-1.19,.22-1.84l.58,.1c-.07,.58-.16,1.12-.26,1.64Zm.38-2.38v.56h-1.93v-.56h.71v-.85h.55v.85h.67Zm-1.12,2.38l-.51,.09c0-.47-.05-1.01-.17-1.62,0-.02-.01-.04-.01-.06l.47-.1c.14,.59,.21,1.15,.21,1.68Zm3.73-1.82h-1.12v.86h.96v2.3h-.61v-.21h-1.18v.23h-.58v-2.32h.81v-2.34h.61v.92h1.12v.57Zm-.78,2.39v-.97h-1.18v.97h1.18Z"/><path class="cls-5" d="M187.61,41.72v-2.5h-.9v-.3h2.14v.3h-.9v2.5h-.34Z"/><path class="cls-5" d="M189.51,41.72v-2.8h1.13c.17,0,.33,.03,.46,.09s.24,.15,.31,.26c.08,.11,.11,.24,.11,.4v.04c0,.18-.04,.33-.13,.44-.09,.11-.19,.18-.31,.22v.06c.1,0,.18,.03,.24,.09s.09,.15,.09,.27v.94h-.33v-.9c0-.08-.02-.14-.07-.18s-.11-.06-.2-.06h-.97v1.15h-.34Zm.34-1.45h.76c.18,0,.33-.04,.43-.13,.1-.09,.15-.21,.15-.37v-.03c0-.16-.05-.28-.15-.37s-.24-.13-.43-.13h-.76v1.04Z"/><path class="cls-5" d="M192.05,41.72l.86-2.8h.59l.86,2.8h-.35l-.22-.71h-1.19l-.22,.71h-.35Zm.65-1.01h1.02l-.48-1.58h-.06l-.48,1.58Z"/><path class="cls-5" d="M195.01,41.72v-2.8h.34v2.8h-.34Z"/><path class="cls-5" d="M196.17,41.72v-2.8h.65l.98,2.59h.05v-2.59h.33v2.8h-.65l-.97-2.59h-.06v2.59h-.33Z"/><path class="cls-5" d="M200.95,41.78c-.2,0-.38-.04-.54-.11-.16-.07-.29-.18-.38-.33s-.14-.33-.14-.55v-.08h.33v.08c0,.23,.07,.4,.2,.52,.14,.11,.31,.17,.52,.17s.39-.05,.5-.15,.17-.22,.17-.37c0-.1-.03-.19-.08-.25-.05-.06-.12-.11-.22-.15s-.2-.07-.33-.1l-.21-.05c-.16-.04-.31-.09-.43-.16-.13-.06-.22-.14-.29-.24-.07-.1-.11-.23-.11-.39s.04-.29,.12-.41,.19-.2,.33-.26c.14-.06,.31-.09,.49-.09s.36,.03,.51,.1,.27,.16,.36,.29c.09,.13,.13,.29,.13,.48v.17h-.33v-.17c0-.14-.03-.25-.09-.33-.06-.08-.14-.14-.24-.18-.1-.04-.21-.06-.34-.06-.18,0-.33,.04-.44,.12-.11,.08-.17,.2-.17,.35,0,.1,.02,.18,.07,.24s.12,.11,.2,.15,.19,.07,.32,.1l.21,.05c.16,.03,.31,.08,.44,.14,.13,.06,.23,.14,.31,.24,.08,.1,.12,.24,.12,.4s-.04,.31-.12,.43-.2,.22-.35,.29c-.15,.07-.33,.1-.53,.1Z"/><path class="cls-5" d="M203.36,41.72v-2.5h-.9v-.3h2.14v.3h-.9v2.5h-.34Z"/><path class="cls-5" d="M204.79,41.72l.86-2.8h.59l.86,2.8h-.35l-.22-.71h-1.19l-.22,.71h-.35Zm.65-1.01h1.02l-.48-1.58h-.06l-.48,1.58Z"/><path class="cls-5" d="M208.21,41.72v-2.5h-.9v-.3h2.14v.3h-.9v2.5h-.34Z"/><path class="cls-5" d="M210.1,41.72v-2.8h.34v2.8h-.34Z"/><path class="cls-5" d="M212.28,41.78c-.33,0-.6-.1-.8-.29-.2-.19-.3-.48-.3-.85v-.64c0-.37,.1-.65,.3-.85,.2-.19,.46-.29,.8-.29s.6,.1,.8,.29c.2,.19,.3,.48,.3,.85v.64c0,.37-.1,.65-.3,.85-.2,.19-.47,.29-.8,.29Zm0-.3c.24,0,.43-.07,.56-.22,.13-.15,.2-.35,.2-.61v-.66c0-.26-.07-.46-.2-.61-.13-.15-.32-.22-.56-.22s-.43,.07-.56,.22c-.13,.15-.2,.35-.2,.61v.66c0,.26,.07,.46,.2,.61,.13,.15,.32,.22,.56,.22Z"/><path class="cls-5" d="M214.14,41.72v-2.8h.65l.98,2.59h.05v-2.59h.33v2.8h-.65l-.97-2.59h-.06v2.59h-.33Z"/></g></g><g><g><path class="cls-2" d="M12.07,55.59c.88-.14,1.43-.82,1.43-1.78s-.55-1.64-1.43-1.78c-.18-.03-.37-.03-.42-.03h-2.27v5.68h.8v-2.06h1.47c.05,0,.24,0,.42-.03Zm-1.89-2.83h1.45c.06,0,.21,0,.34,.03,.53,.12,.72,.6,.72,1.02s-.19,.9-.72,1.02c-.13,.03-.28,.03-.34,.03h-1.45v-2.1Z"/><path class="cls-2" d="M18.58,59.75c-.3,0-.59,.08-.84,.21l-.85-1.05,.19-.82h.78v-.56h-1.23l-.23,.98h-2.6l.25-.89h1.3v-.56h-1.73l-.76,2.71c-.06,0-.12-.01-.19-.01-.96,0-1.75,.78-1.75,1.73s.78,1.73,1.75,1.73,1.75-.78,1.75-1.73c0-.7-.41-1.29-1.01-1.57l.17-.62,2.22,2.35,.21,.09h.84c.12,.84,.85,1.49,1.73,1.49,.96,0,1.75-.78,1.75-1.73s-.78-1.73-1.75-1.73Zm-4.73,1.73c0,.65-.53,1.17-1.18,1.17s-1.18-.52-1.18-1.17,.53-1.17,1.18-1.17h.03l-.31,1.09,.55,.15,.31-1.09c.36,.2,.6,.58,.6,1.02Zm4.14-.32h-.54c.04-.15,.12-.29,.21-.41l.33,.41Zm-.69-.85c-.22,.23-.37,.53-.43,.85h-.5l.36-1.55,.57,.7Zm-1.44,.56l-1.7-1.79h2.11l-.42,1.79Zm2.72,1.79c-.57,0-1.04-.4-1.15-.93h1.15l.22-.46-.69-.85c.14-.06,.3-.1,.47-.1,.65,0,1.18,.52,1.18,1.17s-.53,1.17-1.18,1.17Z"/></g><g><path class="cls-5" d="M29.46,53.56v3.12c0,.23-.06,.38-.16,.46-.11,.07-.27,.11-.47,.11-.03-.17-.09-.35-.19-.52,.08,0,.16,0,.25,0,.03,0,.05-.03,.05-.06v-2.61h-.31v3.99h-.5v-2.3l-.23,.22v1.99h-.49v-.2h-.35v.25h-.47v-1.7h0c-.08-.1-.17-.2-.26-.26v1.43c0,.24-.06,.39-.17,.47-.11,.06-.29,.1-.54,.1-.02-.17-.07-.34-.14-.5,.05,0,.15,0,.3,0,.04,0,.06-.03,.06-.08v-1.05h-.29c-.05,.7-.14,1.25-.28,1.64-.1-.09-.23-.17-.39-.24h-.03c.17-.54,.25-1.36,.25-2.48v-1.77h1.22v.86c.18-.25,.31-.56,.41-.91l.45,.12c-.16,.5-.35,.9-.58,1.2-.11-.11-.2-.19-.28-.26v1.31c.29-.34,.52-.75,.68-1.22h.45c.28,.33,.5,.65,.67,.98v-2.08h1.32Zm-3.88,2.33h.27v-.65h-.26v.09c0,.24,0,.43,0,.56Zm.27-1.81h-.26v.63h.26v-.63Zm1.03,1.88h.86c-.14-.29-.28-.53-.42-.74-.15,.3-.29,.54-.43,.74Zm.2,1.31h.35v-.82h-.35v.82Zm1.04-2.77l-.43,.21c-.05-.31-.18-.66-.38-1.05h0l.41-.19c.22,.41,.35,.76,.41,1.04Z"/><path class="cls-5" d="M31.41,56.26v.64c.13-.03,.32-.09,.57-.17l.06,.5c-.26,.09-.87,.29-1.84,.6l-.13-.56,.2-.05v-1.66h.43v1.54l.22-.06v-1.84h-.65v-1.64h1.62v1.64h-.49v.54h.51v.52h-.51Zm-.64-2.19v.62h.62v-.62h-.62Zm2-.12l.33,.09c-.13,.82-.44,1.39-.93,1.71-.11-.17-.21-.3-.32-.39,.28-.18,.49-.48,.63-.9h-.46v-.5h.65l.1-.02Zm-.55,4.09v-2.13h2.33v2.1h-.58v-.14h-1.21v.17h-.55Zm2.08-4.3l.47,.38c-.06,.05-.14,.11-.24,.2-.19,.16-.33,.27-.41,.33,.21,.28,.46,.48,.75,.6-.16,.16-.28,.31-.37,.47-.33-.19-.62-.51-.84-.95v.52c0,.21-.05,.35-.14,.42-.02,.01-.04,.02-.06,.03-.12,.06-.33,.09-.63,.09-.02-.14-.07-.31-.15-.5,.11,0,.23,0,.37,0,.04-.01,.07-.04,.07-.07v-1.91h.54v.32c.05,.18,.12,.37,.21,.55,.19-.18,.33-.35,.44-.5Zm-.33,2.65h-1.21v.28h1.21v-.28Zm-1.21,1.01h1.21v-.3h-1.21v.3Z"/><path class="cls-5" d="M39.86,56.84v.54h-2v.67h-.61v-.67h-1.93v-.54h1.93v-.27h-1.44v-2.01h1.44v-.24h-1.81v-.54h1.81v-.41h.61v.41h1.85v.54h-1.85v.24h1.47v2.01h-1.47v.27h2Zm-3.48-1.8v.3h.87v-.3h-.87Zm0,1.05h.87v-.31h-.87v.31Zm2.36-1.05h-.88v.3h.88v-.3Zm0,1.05v-.31h-.88v.31h.88Z"/><path class="cls-5" d="M41.75,54.32v-.44c-.13,.29-.25,.53-.36,.73v3.43h-.57v-2.55c-.13,.17-.24,.3-.34,.4-.07-.19-.17-.38-.29-.58,0-.02-.02-.03-.02-.04,.39-.39,.72-.89,.99-1.51,.06-.12,.1-.25,.15-.37l.56,.18c-.04,.1-.07,.18-.1,.24h1.23v-.43h.6v.43h1.31v.5h-3.16Zm-.12,1.43h3.35v.96h-.54v-.51h-2.29v.51h-.52v-.97Zm2.96-.19h-2.52v-1.06h2.52v1.06Zm-2.27,1.32v-.47h1.98v.47h-.7v.59c0,.23-.06,.38-.17,.46-.03,.02-.06,.04-.09,.05-.14,.05-.41,.08-.81,.08h-.06c-.02-.14-.07-.32-.17-.54,.25,.02,.45,.02,.6,0,.07,0,.1-.03,.1-.08v-.57h-.68Zm.31-1.99v.27h1.36v-.27h-1.36Z"/><path class="cls-5" d="M50.09,56.84v.54h-2v.67h-.61v-.67h-1.93v-.54h1.93v-.27h-1.44v-2.01h1.44v-.24h-1.81v-.54h1.81v-.41h.61v.41h1.85v.54h-1.85v.24h1.47v2.01h-1.47v.27h2Zm-3.48-1.8v.3h.87v-.3h-.87Zm0,1.05h.87v-.31h-.87v.31Zm2.36-1.05h-.88v.3h.88v-.3Zm0,1.05v-.31h-.88v.31h.88Z"/><path class="cls-5" d="M55.36,55.88h-1.99s-.01,.03-.02,.05c0,.01-.02,.03-.03,.05s-.02,.04-.03,.04c0,0-.01,.02-.03,.05l-.03,.04h2.03s0,.07,0,.21c-.06,.82-.14,1.32-.26,1.48,0,.02-.02,.03-.03,.04-.08,.1-.19,.15-.33,.17-.13,.02-.3,.02-.51,0-.01-.18-.06-.33-.13-.46,.11,0,.23,.01,.35,.01,.07,0,.12-.02,.15-.05,.08-.09,.14-.4,.19-.94h-.2c-.17,.47-.42,.88-.73,1.23-.09,.1-.18,.19-.27,.25-.11-.13-.25-.24-.42-.33,.33-.21,.62-.54,.86-1,.03-.05,.05-.1,.07-.15h-.3c-.22,.39-.51,.74-.87,1.04-.1,.08-.2,.16-.29,.21-.12-.15-.25-.27-.39-.35,.34-.17,.65-.43,.93-.79,.03-.04,.06-.08,.09-.12h-.3c-.19,.2-.38,.36-.58,.49-.09-.12-.21-.22-.35-.32-.02,0-.03-.02-.04-.02-.13,.06-.31,.15-.56,.28-.22,.1-.37,.18-.47,.23l-.22-.6c.07-.03,.2-.07,.37-.15,.11-.04,.19-.07,.24-.1v-1.41h-.5v-.56h.5v-.99h.55v.99h.47v.56h-.47v1.18l.4-.18,.11,.42c.18-.16,.33-.33,.46-.53h-.57v-.5h3.14v.5Zm-.34-2.38v1.69h-2.37v-1.69h2.37Zm-.55,.65v-.24h-1.29v.24h1.29Zm0,.63v-.24h-1.29v.24h1.29Z"/><path class="cls-5" d="M24.91,62.85v-.3h.39v-2.2h-.39v-.3h1.4c.16,0,.31,.03,.43,.09,.13,.06,.22,.14,.3,.25,.07,.1,.11,.23,.11,.37v.03c0,.13-.03,.24-.08,.32-.05,.08-.11,.15-.18,.2-.07,.05-.14,.08-.2,.1v.06c.07,.02,.14,.05,.21,.09s.13,.11,.18,.2c.05,.09,.07,.19,.07,.32v.04c0,.15-.04,.28-.11,.39-.07,.11-.17,.19-.3,.25-.13,.06-.27,.09-.43,.09h-1.4Zm.73-1.56h.65c.16,0,.29-.04,.38-.12,.1-.08,.14-.19,.14-.32v-.04c0-.14-.05-.24-.14-.33-.09-.08-.22-.12-.39-.12h-.65v.93Zm0,1.26h.64c.18,0,.31-.04,.4-.12,.09-.08,.14-.19,.14-.34v-.04c0-.14-.05-.25-.14-.34-.09-.08-.23-.12-.4-.12h-.64v.96Z"/><path class="cls-5" d="M27.89,62.85v-2.8h.34v2.8h-.34Z"/><path class="cls-5" d="M30.07,62.9c-.33,0-.6-.1-.8-.29s-.3-.48-.3-.85v-.64c0-.37,.1-.65,.3-.85s.46-.29,.8-.29,.58,.09,.76,.28c.18,.18,.27,.44,.27,.76v.02h-.33v-.03c0-.21-.06-.38-.17-.52-.11-.13-.29-.2-.53-.2s-.42,.07-.56,.22c-.13,.15-.2,.35-.2,.61v.66c0,.26,.07,.46,.2,.61,.13,.15,.32,.22,.56,.22s.41-.07,.53-.2c.11-.13,.17-.31,.17-.52v-.06h.33v.05c0,.32-.09,.57-.27,.76-.18,.18-.43,.28-.76,.28Z"/><path class="cls-5" d="M32.52,62.85v-1.07l-1-1.73h.38l.75,1.34h.06l.75-1.34h.38l-1,1.73v1.07h-.34Z"/><path class="cls-5" d="M35.37,62.9c-.33,0-.6-.1-.8-.29s-.3-.48-.3-.85v-.64c0-.37,.1-.65,.3-.85s.46-.29,.8-.29,.58,.09,.76,.28c.18,.18,.27,.44,.27,.76v.02h-.33v-.03c0-.21-.06-.38-.17-.52-.11-.13-.29-.2-.53-.2s-.42,.07-.56,.22c-.13,.15-.2,.35-.2,.61v.66c0,.26,.07,.46,.2,.61,.13,.15,.32,.22,.56,.22s.41-.07,.53-.2c.11-.13,.17-.31,.17-.52v-.06h.33v.05c0,.32-.09,.57-.27,.76-.18,.18-.43,.28-.76,.28Z"/><path class="cls-5" d="M37.11,62.85v-2.8h.34v2.5h1.42v.3h-1.75Z"/><path class="cls-5" d="M39.52,62.85v-2.8h1.72v.3h-1.39v.94h1.28v.3h-1.28v.95h1.41v.3h-1.74Z"/><path class="cls-5" d="M42.96,62.85v-2.8h1.13c.17,0,.33,.03,.46,.09s.24,.15,.31,.26c.08,.11,.11,.24,.11,.4v.04c0,.18-.04,.33-.13,.44-.09,.11-.19,.18-.31,.22v.06c.1,0,.18,.03,.24,.09s.09,.15,.09,.27v.94h-.33v-.9c0-.08-.02-.14-.07-.18s-.11-.06-.2-.06h-.97v1.15h-.34Zm.34-1.45h.76c.18,0,.33-.04,.43-.13,.1-.09,.15-.21,.15-.37v-.03c0-.16-.05-.28-.15-.37s-.24-.13-.43-.13h-.76v1.04Z"/><path class="cls-5" d="M45.5,62.85l.86-2.8h.59l.86,2.8h-.35l-.22-.71h-1.19l-.22,.71h-.35Zm.65-1.01h1.02l-.48-1.58h-.06l-.48,1.58Z"/><path class="cls-5" d="M49.41,62.9c-.33,0-.6-.1-.8-.29s-.3-.48-.3-.85v-.64c0-.37,.1-.65,.3-.85s.46-.29,.8-.29,.58,.09,.76,.28c.18,.18,.27,.44,.27,.76v.02h-.33v-.03c0-.21-.06-.38-.17-.52-.11-.13-.29-.2-.53-.2s-.42,.07-.56,.22c-.13,.15-.2,.35-.2,.61v.66c0,.26,.07,.46,.2,.61,.13,.15,.32,.22,.56,.22s.41-.07,.53-.2c.11-.13,.17-.31,.17-.52v-.06h.33v.05c0,.32-.09,.57-.27,.76-.18,.18-.43,.28-.76,.28Z"/><path class="cls-5" d="M51.16,62.85v-2.8h.34v1.22h.06l1.18-1.22h.45l-1.36,1.38,1.41,1.42h-.46l-1.22-1.24h-.06v1.24h-.34Z"/><path class="cls-5" d="M54.66,62.9c-.2,0-.38-.04-.54-.11-.16-.07-.29-.18-.38-.33s-.14-.33-.14-.55v-.08h.33v.08c0,.23,.07,.4,.2,.52,.14,.11,.31,.17,.52,.17s.39-.05,.5-.15,.17-.22,.17-.37c0-.1-.03-.19-.08-.25-.05-.06-.12-.11-.22-.15s-.2-.07-.33-.1l-.21-.05c-.16-.04-.31-.09-.43-.16-.13-.06-.22-.14-.29-.24-.07-.1-.11-.23-.11-.39s.04-.29,.12-.41,.19-.2,.33-.26c.14-.06,.31-.09,.49-.09s.36,.03,.51,.1,.27,.16,.36,.29c.09,.13,.13,.29,.13,.48v.17h-.33v-.17c0-.14-.03-.25-.09-.33-.06-.08-.14-.14-.24-.18-.1-.04-.21-.06-.34-.06-.18,0-.33,.04-.44,.12-.11,.08-.17,.2-.17,.35,0,.1,.02,.18,.07,.24s.12,.11,.2,.15,.19,.07,.32,.1l.21,.05c.16,.03,.31,.08,.44,.14,.13,.06,.23,.14,.31,.24,.08,.1,.12,.24,.12,.4s-.04,.31-.12,.43-.2,.22-.35,.29c-.15,.07-.33,.1-.53,.1Z"/></g></g><g><g><path class="cls-2" d="M94.41,52.03c-.18-.03-.37-.03-.42-.03h-2.27v5.69h.8v-2.06h1.47c.05,0,.24,0,.42-.03,.88-.14,1.43-.82,1.43-1.78s-.55-1.64-1.43-1.78Zm-1.9,.73h1.45c.06,0,.21,0,.34,.03,.53,.12,.72,.6,.72,1.02s-.19,.9-.72,1.02c-.13,.03-.28,.03-.34,.03h-1.45v-2.11Z"/><g><rect class="cls-2" x="95.89" y="56.41" width=".97" height=".56"/><rect class="cls-2" x="100.28" y="56.41" width=".94" height=".56"/><path class="cls-2" d="M99.09,56.03c-.34-.08-.69-.08-1.03,0l-.86,.21v.9l.86,.21c.34,.08,.69,.08,1.03,0l.86-.21v-.9l-.86-.21Zm-.51,1.14c-.27,0-.48-.21-.48-.48s.22-.48,.48-.48,.48,.21,.48,.48-.22,.48-.48,.48Z"/><path class="cls-2" d="M99.18,57.42h-1.23c-.52,0-.94,.42-.94,.93v3.6h.73v-.86h1.64v.86h.73v-3.6c0-.51-.42-.93-.94-.93Z"/><rect class="cls-2" x="98.04" y="61.37" width="1.04" height="1.85"/></g></g><g><path class="cls-5" d="M109.92,56.37l.46,.18c-.15,.3-.34,.56-.57,.78,.1,.15,.21,.23,.34,.23,.08,0,.12-.05,.15-.15,.02-.07,.03-.19,.04-.34,.11,.11,.24,.21,.39,.27-.05,.33-.14,.54-.26,.63-.08,.06-.2,.08-.36,.08-.27,0-.5-.14-.69-.4-.21,.15-.46,.28-.75,.4-.07-.12-.17-.25-.31-.38,.33-.12,.6-.27,.83-.45-.1-.25-.17-.53-.23-.84h-.57c0,.06-.01,.12-.02,.19,.29,.19,.49,.35,.6,.46l-.32,.4c-.08-.09-.21-.21-.39-.34-.13,.43-.35,.75-.66,.96-.07-.14-.17-.26-.29-.36-.02,0-.03-.02-.04-.03,.32-.21,.52-.58,.6-1.1,0-.06,.01-.11,.02-.17h-.31v-.22l-.2,.29c-.03-.09-.11-.29-.25-.6v2.2h-.53v-1.85c-.13,.42-.27,.73-.4,.94-.04-.12-.12-.29-.25-.51,.23-.35,.42-.83,.56-1.46,.02-.08,.04-.15,.05-.22h-.5v-.54h.54v-1.03h.53v1.03h.44s-.07-.06-.11-.1l.22-.32,.08,.06c.11-.25,.19-.47,.24-.64l.44,.17c-.05,.07-.11,.19-.2,.35-.09,.17-.16,.29-.21,.36,.04,.04,.08,.08,.12,.13,.11-.19,.19-.35,.25-.49l.34,.17c0-.31,0-.55,0-.72h.53c0,.28,0,.55,0,.82l.14-.21,.08,.06c.11-.24,.19-.46,.24-.64l.44,.17c-.25,.44-.39,.67-.41,.71l.13,.13c.11-.21,.2-.37,.25-.48l.41,.2c-.26,.41-.48,.74-.66,.98l.3-.02c-.03-.07-.05-.14-.08-.21l.33-.12c.14,.28,.23,.53,.26,.74l-.35,.15c-.02-.11-.03-.18-.04-.2l-.37,.05c.17,.11,.29,.21,.38,.31l-.1,.09h.38v.46h-.7Zm-2.33-.46h1.3c0-.06-.02-.17-.04-.33l-.34,.14c0-.08-.02-.13-.02-.15-.11,.01-.28,.03-.5,.06-.19,.02-.33,.04-.42,.05l-.08-.44h.16c.14-.21,.24-.35,.3-.45-.08-.1-.21-.22-.37-.37v.53h-.45v.21c.11,.17,.27,.42,.46,.75Zm.72-.97l.34-.1c.09,.19,.15,.37,.19,.56-.04-.39-.06-.77-.07-1.15-.27,.41-.48,.72-.65,.94l.27-.02c-.03-.1-.06-.18-.08-.22Zm1.02,.21h.11c.13-.19,.22-.31,.25-.37-.11-.13-.24-.27-.4-.41,0,.24,.02,.5,.04,.78Zm.08,.76h.42c-.08-.07-.16-.13-.24-.19l.22-.2c-.06,0-.14,.02-.26,.03-.08,0-.14,.02-.18,.02l-.03-.14c.01,.16,.03,.31,.06,.47Zm.49,.46h-.41c.03,.15,.07,.3,.11,.45,.13-.16,.23-.31,.29-.45Z"/><path class="cls-5" d="M115.85,56.84v.54h-2v.67h-.61v-.67h-1.93v-.54h1.93v-.27h-1.44v-2.01h1.44v-.24h-1.81v-.54h1.81v-.41h.61v.41h1.85v.54h-1.85v.24h1.47v2.01h-1.47v.27h2Zm-3.48-1.8v.3h.87v-.3h-.87Zm0,1.05h.87v-.31h-.87v.31Zm2.36-1.05h-.88v.3h.88v-.3Zm0,1.05v-.31h-.88v.31h.88Z"/><path class="cls-5" d="M117.73,54.32v-.44c-.13,.29-.25,.53-.36,.73v3.43h-.57v-2.55c-.13,.17-.24,.3-.34,.4-.07-.19-.17-.38-.29-.58,0-.02-.02-.03-.02-.04,.39-.39,.72-.89,.99-1.51,.06-.12,.1-.25,.15-.37l.56,.18c-.04,.1-.07,.18-.1,.24h1.23v-.43h.6v.43h1.31v.5h-3.16Zm-.12,1.43h3.35v.96h-.54v-.51h-2.29v.51h-.52v-.97Zm2.96-.19h-2.52v-1.06h2.52v1.06Zm-2.27,1.32v-.47h1.98v.47h-.7v.59c0,.23-.06,.38-.17,.46-.03,.02-.06,.04-.09,.05-.14,.05-.41,.08-.81,.08h-.06c-.02-.14-.07-.32-.17-.54,.25,.02,.45,.02,.6,0,.07,0,.1-.03,.1-.08v-.57h-.68Zm.31-1.99v.27h1.36v-.27h-1.36Z"/><path class="cls-5" d="M126.07,56.84v.54h-2v.67h-.61v-.67h-1.93v-.54h1.93v-.27h-1.44v-2.01h1.44v-.24h-1.81v-.54h1.81v-.41h.61v.41h1.85v.54h-1.85v.24h1.47v2.01h-1.47v.27h2Zm-3.48-1.8v.3h.87v-.3h-.87Zm0,1.05h.87v-.31h-.87v.31Zm2.36-1.05h-.88v.3h.88v-.3Zm0,1.05v-.31h-.88v.31h.88Z"/><path class="cls-5" d="M131.34,55.88h-1.99s-.01,.03-.02,.05c0,.01-.02,.03-.03,.05s-.02,.04-.03,.04c0,0-.01,.02-.03,.05l-.03,.04h2.03s0,.07,0,.21c-.06,.82-.14,1.32-.26,1.48,0,.02-.02,.03-.03,.04-.08,.1-.19,.15-.33,.17-.13,.02-.3,.02-.51,0-.01-.18-.06-.33-.13-.46,.11,0,.23,.01,.35,.01,.07,0,.12-.02,.15-.05,.08-.09,.14-.4,.19-.94h-.2c-.17,.47-.42,.88-.73,1.23-.09,.1-.18,.19-.27,.25-.11-.13-.25-.24-.42-.33,.33-.21,.62-.54,.86-1,.03-.05,.05-.1,.07-.15h-.3c-.22,.39-.51,.74-.87,1.04-.1,.08-.2,.16-.29,.21-.12-.15-.25-.27-.39-.35,.34-.17,.65-.43,.93-.79,.03-.04,.06-.08,.09-.12h-.3c-.19,.2-.38,.36-.58,.49-.09-.12-.21-.22-.35-.32-.02,0-.03-.02-.04-.02-.13,.06-.31,.15-.56,.28-.22,.1-.37,.18-.47,.23l-.22-.6c.07-.03,.2-.07,.37-.15,.11-.04,.19-.07,.24-.1v-1.41h-.5v-.56h.5v-.99h.55v.99h.47v.56h-.47v1.18l.4-.18,.11,.42c.18-.16,.33-.33,.46-.53h-.57v-.5h3.14v.5Zm-.34-2.38v1.69h-2.37v-1.69h2.37Zm-.55,.65v-.24h-1.29v.24h1.29Zm0,.63v-.24h-1.29v.24h1.29Z"/><path class="cls-5" d="M106.14,62.85v-2.8h.64l.74,2.59h.05l.74-2.59h.64v2.8h-.32v-2.58h-.06l-.74,2.58h-.58l-.74-2.58h-.06v2.58h-.32Z"/><path class="cls-5" d="M110.81,62.91c-.33,0-.6-.1-.8-.29-.2-.19-.3-.48-.3-.85v-.64c0-.37,.1-.65,.3-.85,.2-.19,.46-.29,.8-.29s.6,.1,.8,.29c.2,.19,.3,.48,.3,.85v.64c0,.37-.1,.65-.3,.85-.2,.19-.47,.29-.8,.29Zm0-.3c.24,0,.43-.07,.56-.22,.13-.15,.2-.35,.2-.61v-.66c0-.26-.07-.46-.2-.61-.13-.15-.32-.22-.56-.22s-.43,.07-.56,.22c-.13,.15-.2,.35-.2,.61v.66c0,.26,.07,.46,.2,.61,.13,.15,.32,.22,.56,.22Z"/><path class="cls-5" d="M113.33,62.85v-2.5h-.9v-.3h2.14v.3h-.9v2.5h-.34Z"/><path class="cls-5" d="M116.19,62.91c-.33,0-.6-.1-.8-.29-.2-.19-.3-.48-.3-.85v-.64c0-.37,.1-.65,.3-.85,.2-.19,.46-.29,.8-.29s.6,.1,.8,.29c.2,.19,.3,.48,.3,.85v.64c0,.37-.1,.65-.3,.85-.2,.19-.47,.29-.8,.29Zm0-.3c.24,0,.43-.07,.56-.22,.13-.15,.2-.35,.2-.61v-.66c0-.26-.07-.46-.2-.61-.13-.15-.32-.22-.56-.22s-.43,.07-.56,.22c-.13,.15-.2,.35-.2,.61v.66c0,.26,.07,.46,.2,.61,.13,.15,.32,.22,.56,.22Z"/><path class="cls-5" d="M118.04,62.85v-2.8h1.13c.17,0,.33,.03,.46,.09s.24,.15,.31,.26c.08,.11,.11,.24,.11,.4v.04c0,.18-.04,.33-.13,.44-.09,.11-.19,.18-.31,.22v.06c.1,0,.18,.03,.24,.09s.09,.15,.09,.27v.94h-.33v-.9c0-.08-.02-.14-.07-.18s-.11-.06-.2-.06h-.97v1.15h-.34Zm.34-1.45h.76c.18,0,.33-.04,.43-.13,.1-.09,.15-.21,.15-.37v-.03c0-.16-.05-.28-.15-.37s-.24-.13-.43-.13h-.76v1.04Z"/><path class="cls-5" d="M121.8,62.91c-.33,0-.6-.1-.8-.29s-.3-.48-.3-.85v-.64c0-.37,.1-.65,.3-.85s.46-.29,.8-.29,.58,.09,.76,.28c.18,.18,.27,.44,.27,.76v.02h-.33v-.03c0-.21-.06-.38-.17-.52-.11-.13-.29-.2-.53-.2s-.42,.07-.56,.22c-.13,.15-.2,.35-.2,.61v.66c0,.26,.07,.46,.2,.61,.13,.15,.32,.22,.56,.22s.41-.07,.53-.2c.11-.13,.17-.31,.17-.52v-.06h.33v.05c0,.32-.09,.57-.27,.76-.18,.18-.43,.28-.76,.28Z"/><path class="cls-5" d="M124.25,62.85v-1.07l-1-1.73h.38l.75,1.34h.06l.75-1.34h.38l-1,1.73v1.07h-.34Z"/><path class="cls-5" d="M127.1,62.91c-.33,0-.6-.1-.8-.29s-.3-.48-.3-.85v-.64c0-.37,.1-.65,.3-.85s.46-.29,.8-.29,.58,.09,.76,.28c.18,.18,.27,.44,.27,.76v.02h-.33v-.03c0-.21-.06-.38-.17-.52-.11-.13-.29-.2-.53-.2s-.42,.07-.56,.22c-.13,.15-.2,.35-.2,.61v.66c0,.26,.07,.46,.2,.61,.13,.15,.32,.22,.56,.22s.41-.07,.53-.2c.11-.13,.17-.31,.17-.52v-.06h.33v.05c0,.32-.09,.57-.27,.76-.18,.18-.43,.28-.76,.28Z"/><path class="cls-5" d="M128.84,62.85v-2.8h.34v2.5h1.42v.3h-1.75Z"/><path class="cls-5" d="M131.25,62.85v-2.8h1.72v.3h-1.39v.94h1.28v.3h-1.28v.95h1.41v.3h-1.74Z"/><path class="cls-5" d="M134.69,62.85v-2.8h1.07c.17,0,.32,.03,.45,.1,.13,.07,.24,.16,.31,.28,.08,.12,.12,.27,.12,.44v.05c0,.17-.04,.31-.12,.43-.08,.12-.18,.21-.32,.28s-.28,.1-.44,.1h-.74v1.13h-.34Zm.34-1.43h.7c.18,0,.32-.04,.42-.13,.1-.09,.16-.22,.16-.38v-.04c0-.16-.05-.29-.15-.38s-.25-.13-.43-.13h-.7v1.06Z"/><path class="cls-5" d="M136.95,62.85l.86-2.8h.59l.86,2.8h-.35l-.22-.71h-1.19l-.22,.71h-.35Zm.65-1.01h1.02l-.48-1.58h-.06l-.48,1.58Z"/><path class="cls-5" d="M139.92,62.85v-2.8h1.13c.17,0,.33,.03,.46,.09s.24,.15,.31,.26c.08,.11,.11,.24,.11,.4v.04c0,.18-.04,.33-.13,.44-.09,.11-.19,.18-.31,.22v.06c.1,0,.18,.03,.24,.09s.09,.15,.09,.27v.94h-.33v-.9c0-.08-.02-.14-.07-.18s-.11-.06-.2-.06h-.97v1.15h-.34Zm.34-1.45h.76c.18,0,.33-.04,.43-.13,.1-.09,.15-.21,.15-.37v-.03c0-.16-.05-.28-.15-.37s-.24-.13-.43-.13h-.76v1.04Z"/><path class="cls-5" d="M142.64,62.85v-2.8h.34v1.22h.06l1.18-1.22h.45l-1.36,1.38,1.41,1.42h-.46l-1.22-1.24h-.06v1.24h-.34Z"/><path class="cls-5" d="M145.33,62.85v-2.8h.34v2.8h-.34Z"/><path class="cls-5" d="M146.49,62.85v-2.8h.65l.98,2.59h.05v-2.59h.33v2.8h-.65l-.97-2.59h-.06v2.59h-.33Z"/><path class="cls-5" d="M150.31,62.91c-.21,0-.39-.04-.55-.13-.16-.09-.28-.21-.37-.38-.09-.17-.13-.38-.13-.62v-.64c0-.37,.1-.65,.3-.85s.46-.29,.8-.29,.58,.09,.76,.27c.17,.18,.26,.42,.26,.73v.02h-.33v-.03c0-.13-.02-.25-.07-.36s-.12-.19-.22-.25-.23-.09-.39-.09c-.24,0-.42,.07-.56,.22-.13,.15-.2,.35-.2,.61v.66c0,.26,.07,.46,.2,.61,.13,.15,.32,.22,.56,.22s.41-.07,.52-.2c.11-.13,.17-.31,.17-.53v-.07h-.85v-.29h1.18v1.33h-.3v-.3h-.06c-.03,.06-.07,.12-.12,.17-.05,.06-.13,.1-.22,.14-.09,.03-.21,.05-.35,.05Z"/></g></g><g><g><path class="cls-5" d="M188.28,57.5l-1.26-2.59h.95l.4,.94c.12,.3,.23,.58,.35,.9h.02c.12-.31,.25-.59,.37-.9l.39-.94h.92l-1.26,2.59v1.32h-.88v-1.32Z"/><path class="cls-5" d="M190.68,56.85c0-1.31,.64-2.01,1.57-2.01s1.57,.7,1.57,2.01-.64,2.04-1.57,2.04-1.57-.71-1.57-2.04Zm2.24,0c0-.81-.26-1.24-.67-1.24s-.67,.43-.67,1.24,.26,1.28,.67,1.28,.67-.44,.67-1.28Z"/><path class="cls-5" d="M194.56,57.32v-2.4h.89v2.49c0,.47,.17,.72,.54,.72s.55-.25,.55-.72v-2.49h.85v2.4c0,1.01-.46,1.58-1.41,1.58s-1.43-.56-1.43-1.58Z"/><path class="cls-5" d="M198.3,54.92h1.31c.81,0,1.43,.22,1.43,.97,0,.35-.21,.72-.67,.84v.02c.56,.1,.85,.4,.85,.92,0,.8-.65,1.15-1.5,1.15h-1.43v-3.91Zm1.27,1.57c.43,0,.61-.18,.61-.48s-.19-.4-.6-.4h-.4v.88h.39Zm.08,1.65c.48,0,.71-.17,.71-.53s-.22-.48-.71-.48h-.47v1.02h.47Z"/><path class="cls-5" d="M201.84,58.08h.91v-2.42h-.91v-.74h2.71v.74h-.91v2.42h.91v.74h-2.71v-.74Z"/><path class="cls-5" d="M205.3,54.92h.89v1.59h.02l1.15-1.59h.98l-2.16,2.84v1.07h-.89v-3.91Zm1.27,2.09l.52-.69,1.37,2.5h-.98l-.91-1.81Z"/><path class="cls-5" d="M209.11,54.92h2.59v.74h-1.71v.78h1.45v.74h-1.45v.9h1.77v.74h-2.65v-3.91Z"/><path class="cls-5" d="M215.45,57.4l-.34,.47c-.07-.17-.18-.37-.34-.62v2.01h-.57v-1.78c-.19,.43-.36,.75-.53,.97-.05-.14-.14-.33-.27-.57,.26-.31,.49-.73,.69-1.25,.01-.03,.02-.06,.03-.08h-.67v-.56h.75v-.56c-.27,.04-.45,.07-.55,.08-.02-.13-.07-.28-.16-.46,.64-.09,1.18-.23,1.61-.42l.33,.48c-.22,.08-.44,.14-.66,.2v.68h.62v.56h-.62v.06c.14,.13,.33,.35,.57,.66,.05,.06,.08,.11,.1,.14Zm2.23,1.16h.42v.55h-2.94v-.55h.47v-3.72h2.05v3.72Zm-.61-3.17h-.86v.67h.86v-.67Zm0,1.91v-.7h-.86v.7h.86Zm-.86,.53v.73h.86v-.73h-.86Z"/><path class="cls-5" d="M219.57,54.61l.56,.18c-.13,.35-.29,.69-.48,1.03v3.43h-.57v-2.55c-.13,.17-.24,.3-.34,.4-.07-.19-.17-.38-.29-.58,0-.02-.02-.03-.02-.04,.39-.39,.72-.89,.99-1.51,.06-.12,.1-.25,.15-.37Zm2.91,1.56h.75v.54h-3.35v-.54h.77v-.48h-.59v-.51h.59v-.54h.58v.54h.67v-.54h.59v.54h.62v.51h-.62v.48Zm-2.14,3.12v-2.29h2.52v2.27h-.6v-.16h-1.35v.19h-.57Zm1.92-1.81h-1.35v.34h1.35v-.34Zm-1.35,1.14h1.35v-.36h-1.35v.36Zm.31-2.93v.48h.67v-.48h-.67Z"/><path class="cls-5" d="M225.39,57.9l.37-.08,.05,.55c-.16,.04-.82,.19-1.97,.45l-.11-.6c.17-.03,.56-.1,1.16-.22h-.04c.12-.58,.19-1.19,.22-1.84l.58,.1c-.07,.58-.16,1.12-.26,1.64Zm.38-2.38v.56h-1.93v-.56h.71v-.85h.55v.85h.67Zm-1.12,2.38l-.51,.09c0-.47-.05-1.01-.17-1.62,0-.02-.01-.04-.01-.06l.47-.1c.14,.59,.21,1.15,.21,1.68Zm3.73-1.82h-1.12v.86h.96v2.3h-.61v-.21h-1.18v.23h-.58v-2.32h.81v-2.34h.61v.92h1.12v.57Zm-.78,2.39v-.97h-1.18v.97h1.18Z"/><path class="cls-5" d="M187.98,64.06v-1.07l-1-1.73h.38l.75,1.34h.06l.75-1.34h.38l-1,1.73v1.07h-.34Z"/><path class="cls-5" d="M190.83,64.12c-.33,0-.6-.1-.8-.29-.2-.19-.3-.48-.3-.85v-.64c0-.37,.1-.65,.3-.85,.2-.19,.46-.29,.8-.29s.6,.1,.8,.29c.2,.19,.3,.48,.3,.85v.64c0,.37-.1,.65-.3,.85-.2,.19-.47,.29-.8,.29Zm0-.3c.24,0,.43-.07,.56-.22,.13-.15,.2-.35,.2-.61v-.66c0-.26-.07-.46-.2-.61-.13-.15-.32-.22-.56-.22s-.43,.07-.56,.22c-.13,.15-.2,.35-.2,.61v.66c0,.26,.07,.46,.2,.61,.13,.15,.32,.22,.56,.22Z"/><path class="cls-5" d="M193.69,64.12c-.21,0-.39-.04-.54-.11s-.27-.19-.36-.33c-.08-.15-.13-.33-.13-.55v-1.86h.33v1.87c0,.23,.06,.4,.18,.52,.12,.11,.29,.17,.52,.17s.39-.06,.52-.17c.12-.11,.18-.29,.18-.52v-1.87h.34v1.86c0,.22-.04,.4-.13,.55-.09,.15-.21,.26-.36,.33s-.34,.11-.55,.11Z"/><path class="cls-5" d="M195.41,64.06v-.3h.39v-2.2h-.39v-.3h1.4c.16,0,.31,.03,.43,.09,.13,.06,.22,.14,.3,.25,.07,.1,.11,.23,.11,.37v.03c0,.13-.03,.24-.08,.32-.05,.08-.11,.15-.18,.2-.07,.05-.14,.08-.2,.1v.06c.07,.02,.14,.05,.21,.09s.13,.11,.18,.2c.05,.09,.07,.19,.07,.32v.04c0,.15-.04,.28-.11,.39-.07,.11-.17,.19-.3,.25-.13,.06-.27,.09-.43,.09h-1.4Zm.73-1.56h.65c.16,0,.29-.04,.38-.12,.1-.08,.14-.19,.14-.32v-.04c0-.14-.05-.24-.14-.33-.09-.08-.22-.12-.39-.12h-.65v.93Zm0,1.26h.64c.18,0,.31-.04,.4-.12,.09-.08,.14-.19,.14-.34v-.04c0-.14-.05-.25-.14-.34-.09-.08-.23-.12-.4-.12h-.64v.96Z"/><path class="cls-5" d="M198.39,64.06v-2.8h.34v2.8h-.34Z"/><path class="cls-5" d="M199.54,64.06v-2.8h.34v1.22h.06l1.18-1.22h.45l-1.36,1.38,1.41,1.42h-.46l-1.22-1.24h-.06v1.24h-.34Z"/><path class="cls-5" d="M202.23,64.06v-2.8h1.72v.3h-1.39v.94h1.28v.3h-1.28v.95h1.41v.3h-1.74Z"/><path class="cls-5" d="M205.67,64.06v-2.8h1.13c.17,0,.33,.03,.46,.09s.24,.15,.31,.26c.08,.11,.11,.24,.11,.4v.04c0,.18-.04,.33-.13,.44-.09,.11-.19,.18-.31,.22v.06c.1,0,.18,.03,.24,.09s.09,.15,.09,.27v.94h-.33v-.9c0-.08-.02-.14-.07-.18s-.11-.06-.2-.06h-.97v1.15h-.34Zm.34-1.45h.76c.18,0,.33-.04,.43-.13,.1-.09,.15-.21,.15-.37v-.03c0-.16-.05-.28-.15-.37s-.24-.13-.43-.13h-.76v1.04Z"/><path class="cls-5" d="M208.4,64.06v-2.8h1.72v.3h-1.39v.94h1.28v.3h-1.28v.95h1.41v.3h-1.74Z"/><path class="cls-5" d="M210.84,64.06v-2.8h.65l.98,2.59h.05v-2.59h.33v2.8h-.65l-.97-2.59h-.06v2.59h-.33Z"/><path class="cls-5" d="M214.41,64.06v-2.5h-.9v-.3h2.14v.3h-.9v2.5h-.34Z"/><path class="cls-5" d="M215.84,64.06l.86-2.8h.59l.86,2.8h-.35l-.22-.71h-1.19l-.22,.71h-.35Zm.65-1.01h1.02l-.48-1.58h-.06l-.48,1.58Z"/><path class="cls-5" d="M218.8,64.06v-2.8h.34v2.5h1.42v.3h-1.75Z"/><path class="cls-5" d="M223.11,64.12c-.2,0-.38-.04-.54-.11-.16-.07-.29-.18-.38-.33s-.14-.33-.14-.55v-.08h.33v.08c0,.23,.07,.4,.2,.52,.14,.11,.31,.17,.52,.17s.39-.05,.5-.15,.17-.22,.17-.37c0-.1-.03-.19-.08-.25-.05-.06-.12-.11-.22-.15s-.2-.07-.33-.1l-.21-.05c-.16-.04-.31-.09-.43-.16-.13-.06-.22-.14-.29-.24-.07-.1-.11-.23-.11-.39s.04-.29,.12-.41,.19-.2,.33-.26c.14-.06,.31-.09,.49-.09s.36,.03,.51,.1,.27,.16,.36,.29c.09,.13,.13,.29,.13,.48v.17h-.33v-.17c0-.14-.03-.25-.09-.33-.06-.08-.14-.14-.24-.18-.1-.04-.21-.06-.34-.06-.18,0-.33,.04-.44,.12-.11,.08-.17,.2-.17,.35,0,.1,.02,.18,.07,.24s.12,.11,.2,.15,.19,.07,.32,.1l.21,.05c.16,.03,.31,.08,.44,.14,.13,.06,.23,.14,.31,.24,.08,.1,.12,.24,.12,.4s-.04,.31-.12,.43-.2,.22-.35,.29c-.15,.07-.33,.1-.53,.1Z"/><path class="cls-5" d="M225.52,64.06v-2.5h-.9v-.3h2.14v.3h-.9v2.5h-.34Z"/><path class="cls-5" d="M226.95,64.06l.86-2.8h.59l.86,2.8h-.35l-.22-.71h-1.19l-.22,.71h-.35Zm.65-1.01h1.02l-.48-1.58h-.06l-.48,1.58Z"/><path class="cls-5" d="M230.37,64.06v-2.5h-.9v-.3h2.14v.3h-.9v2.5h-.34Z"/><path class="cls-5" d="M232.26,64.06v-2.8h.34v2.8h-.34Z"/><path class="cls-5" d="M234.45,64.12c-.33,0-.6-.1-.8-.29-.2-.19-.3-.48-.3-.85v-.64c0-.37,.1-.65,.3-.85,.2-.19,.46-.29,.8-.29s.6,.1,.8,.29c.2,.19,.3,.48,.3,.85v.64c0,.37-.1,.65-.3,.85-.2,.19-.47,.29-.8,.29Zm0-.3c.24,0,.43-.07,.56-.22,.13-.15,.2-.35,.2-.61v-.66c0-.26-.07-.46-.2-.61-.13-.15-.32-.22-.56-.22s-.43,.07-.56,.22c-.13,.15-.2,.35-.2,.61v.66c0,.26,.07,.46,.2,.61,.13,.15,.32,.22,.56,.22Z"/><path class="cls-5" d="M236.3,64.06v-2.8h.65l.98,2.59h.05v-2.59h.33v2.8h-.65l-.97-2.59h-.06v2.59h-.33Z"/></g><path class="cls-2" d="M177.36,52.01c-.1,0-.21,0-.31,0s-.21,0-.31,0c-3.55,.2-5.56,4.16-3.78,7.21l4.09,6.04,4.09-6.04c1.78-3.05-.24-7.01-3.78-7.21Zm-1.69,2.18c.41,0,.74,.23,.74,.51s-.33,.51-.74,.51-.74-.23-.74-.51,.33-.51,.74-.51Zm3.22,3.61v.03c-.43,.77-1.26,1.11-2.12,1.02-.73-.07-1.46-.43-1.92-1-.47-.57-.53-1.32-.13-1.94,.03-.04,.06-.08,.11-.11,.04-.03,.09-.05,.15-.04,.09,.02,.2,.12,.14,.21-.28,.44-.37,.98-.1,1.45,.33,.59,1.03,.97,1.7,1.02,.76,.07,1.43-.25,1.83-.89,.01-.02,0,0,.02-.02,.05-.09,.18-.11,.24-.08h0c.1,.05,.16,.17,.08,.35Zm.67-1.02c-.41,0-.74-.23-.74-.51s.33-.51,.74-.51,.74,.23,.74,.51-.33,.51-.74,.51Z"/></g></svg>