<?xml version="1.0" encoding="UTF-8"?><svg id="_層_1" xmlns="http://www.w3.org/2000/svg" viewBox="0 0 258 80"><defs><style>.cls-1{fill:#f7f8f8;}.cls-2{fill:#fff;}.cls-3{fill:#ffe200;}.cls-4{fill:#ff9c00;}.cls-5{fill:#ff00b9;}.cls-6{fill:#2ddc73;}.cls-7{fill:#231815;}.cls-8{fill:#211613;}.cls-9{fill:#595757;}</style></defs><rect class="cls-1" y="-.06" width="258" height="80"/><g><path class="cls-9" d="M181.78,42.7h-2v-.75h2v.75Zm-4,0h-2v-.75h2v.75Zm-4,0h-2.32v-.38l.38-.03v-.35h1.94v.75Zm8.38-2.15h-.75v-2h.75v2Zm-9.94-.28h-.75v-2h.75v2Zm9.94-3.72h-.75v-2h.75v2Zm-9.94-.28h-.75v-2h.75v2Zm9.57-3.51h-1.83v-.75h2.21v.54h-.38v.21Zm-3.83,0h-2v-.75h2v.75Zm-4,0h-2v-.75h2v.75Z"/><g><path class="cls-8" d="M188.44,33.19h1.7c.17,.62,.47,1.13,.9,1.52,.16,.15,.34,.27,.52,.37-.13,.12-.26,.28-.38,.48-.02,.03-.03,.05-.04,.07-.18-.11-.34-.24-.49-.39v.04c-.05,1.13-.13,1.83-.24,2.09-.03,.06-.05,.11-.08,.15-.11,.12-.26,.2-.44,.22,0,0-.02,0-.02,0-.11,.01-.35,.02-.73,0h0c0-.2-.07-.39-.19-.57h0c.22,0,.44,.01,.66,.01,.09,0,.16-.03,.21-.07,.1-.09,.17-.51,.22-1.26,0-.09,0-.19,.01-.29h-.98c-.21,.96-.64,1.65-1.31,2.07-.07,.05-.14,.09-.22,.13-.08-.11-.23-.26-.45-.44h-.02c.66-.3,1.1-.81,1.3-1.54,.02-.07,.04-.15,.05-.22h-.74v-.31c-.12,.15-.25,.28-.38,.39-.19-.19-.35-.33-.5-.44,.39-.3,.71-.72,.94-1.27,.04-.09,.07-.19,.1-.28l.62,.16c-.15,.43-.35,.83-.6,1.2h2.59c-.33-.38-.58-.81-.77-1.29h-1.25v-.56Z"/><path class="cls-8" d="M196.63,37.05v.53h-3.8v.2h-.58v-4.5h4.25v.53h-3.67v3.24h3.8Zm-3.5-.25v-1.34h1.38v1.34h-1.38Zm.48-.94v.54h.39v-.54h-.39Zm1.99-1.81v1.19h-1.96v-1.19h1.96Zm-.59,.8v-.41h-.82v.41h.82Zm1.13,.61v1.34h-1.41v-1.34h1.41Zm-.52,.94v-.54h-.41v.54h.41Z"/><path class="cls-8" d="M201.12,37.78h-.62v-.22h-1.88v.22h-.6v-1.55c-.12,.04-.25,.08-.37,.11-.12,.03-.25,.06-.37,.1-.01-.04-.03-.08-.05-.13s-.05-.1-.08-.15c-.03-.05-.06-.1-.08-.15s-.06-.09-.09-.12c.31-.06,.61-.14,.9-.24s.57-.21,.84-.35c-.11-.1-.23-.22-.37-.34-.14-.12-.28-.23-.41-.34-.07,.05-.14,.09-.22,.13s-.15,.08-.23,.12c-.02-.04-.05-.08-.08-.12s-.07-.09-.1-.13c-.04-.04-.08-.09-.11-.12-.04-.04-.07-.07-.11-.1,.41-.18,.75-.39,1.03-.62,.28-.23,.49-.47,.64-.71l.67,.14c-.05,.06-.09,.13-.14,.19s-.09,.12-.15,.19h1.46l.1-.03,.41,.24c-.18,.36-.4,.68-.68,.97-.27,.28-.58,.54-.93,.75h1.62v2.24Zm-2.5-3.64s-.07,.05-.1,.08-.06,.05-.09,.08c.07,.05,.15,.11,.22,.17s.15,.12,.23,.18,.15,.12,.21,.18,.13,.11,.19,.17c.19-.12,.36-.26,.51-.4s.3-.29,.42-.45h-1.6Zm1.89,2.88v-.94h-1.88v.94h1.88Z"/><path class="cls-8" d="M203.53,36.27c-.03-.06-.07-.12-.12-.21-.05-.08-.1-.16-.16-.25v1.96h-.57v-1.72c-.07,.18-.14,.35-.21,.51-.08,.16-.16,.3-.24,.42-.03-.08-.07-.18-.12-.29s-.11-.2-.15-.28c.06-.08,.12-.17,.18-.28,.06-.11,.12-.22,.17-.33,.05-.12,.1-.24,.15-.36,.05-.13,.09-.25,.13-.37h-.56v-.54h.65v-.61c-.09,.02-.18,.03-.27,.04s-.17,.03-.26,.04c-.01-.06-.04-.13-.07-.21s-.07-.15-.1-.21c.13-.02,.26-.05,.39-.08,.13-.03,.26-.06,.38-.09,.13-.03,.24-.07,.35-.1s.21-.08,.29-.11l.42,.42c-.09,.04-.18,.07-.28,.1-.1,.03-.2,.06-.3,.09v.73h.57v.54h-.57v.13s.08,.07,.14,.13,.12,.12,.18,.18,.12,.12,.17,.18c.05,.06,.09,.1,.12,.12l-.33,.45Zm3.18,.59h-.25v.33c0,.13-.02,.23-.05,.31-.03,.07-.09,.14-.17,.18s-.18,.07-.3,.08c-.12,0-.25,.01-.41,.01,0-.04-.02-.08-.03-.13s-.03-.09-.04-.14-.03-.09-.05-.13-.04-.08-.06-.11c.05,0,.1,0,.15,0h.33s.06,0,.07-.02,.02-.03,.02-.06v-.32h-1.39v.91h-.54v-.91h-.34v-.48h.34v-1.48h.95v-.22h.53v.22h1v1.48h.25v.48Zm-.18-3.28c-.18,.05-.37,.09-.58,.13-.21,.04-.43,.08-.65,.11s-.45,.06-.67,.09c-.23,.02-.45,.04-.66,.06,0-.06-.02-.13-.05-.21-.03-.08-.06-.15-.08-.21,.21-.02,.42-.04,.63-.06,.22-.03,.43-.06,.63-.09,.21-.03,.4-.07,.59-.11,.18-.04,.35-.08,.49-.12l.35,.42Zm-2.27,1.21s-.03-.1-.05-.15-.05-.11-.08-.17-.06-.11-.09-.17-.07-.11-.1-.16l.48-.2c.08,.09,.14,.2,.21,.31,.06,.11,.11,.22,.14,.31l-.51,.22Zm.25,.57v.3h.42v-.3h-.42Zm0,1.03h.42v-.3h-.42v.3Zm2.07-2.49c-.07,.16-.15,.32-.26,.48-.1,.16-.21,.29-.31,.4-.03-.02-.06-.05-.1-.07-.04-.02-.08-.05-.12-.07s-.08-.05-.12-.07c-.04-.02-.08-.04-.11-.06h0l-.48,.17s-.02-.09-.04-.14-.04-.1-.06-.16-.05-.11-.07-.16-.05-.1-.08-.14l.47-.16c.06,.09,.12,.19,.17,.3,.05,.11,.09,.2,.12,.29,.1-.09,.19-.21,.28-.34,.09-.13,.16-.26,.21-.39l.52,.14Zm-1.12,1.46v.3h.44v-.3h-.44Zm.44,1.03v-.3h-.44v.3h.44Z"/><path class="cls-8" d="M187.93,42.65c-.2,0-.38-.04-.54-.11-.16-.07-.29-.18-.38-.33s-.14-.33-.14-.55v-.08h.33v.08c0,.23,.07,.4,.2,.52,.14,.11,.31,.17,.52,.17s.39-.05,.5-.15,.17-.22,.17-.37c0-.1-.03-.19-.08-.25-.05-.06-.12-.11-.22-.15s-.2-.07-.33-.1l-.21-.05c-.16-.04-.31-.09-.43-.16-.13-.06-.22-.14-.29-.24-.07-.1-.11-.23-.11-.39s.04-.29,.12-.41,.19-.2,.33-.26c.14-.06,.31-.09,.49-.09s.36,.03,.51,.1,.27,.16,.36,.29c.09,.13,.13,.29,.13,.48v.17h-.33v-.17c0-.14-.03-.25-.09-.33-.06-.08-.14-.14-.24-.18-.1-.04-.21-.06-.34-.06-.18,0-.33,.04-.44,.12-.11,.08-.17,.2-.17,.35,0,.1,.02,.18,.07,.24s.12,.11,.2,.15,.19,.07,.32,.1l.21,.05c.16,.03,.31,.08,.44,.14,.13,.06,.23,.14,.31,.24,.08,.1,.12,.24,.12,.4s-.04,.31-.12,.43-.2,.22-.35,.29c-.15,.07-.33,.1-.53,.1Z"/><path class="cls-8" d="M189.64,42.59v-2.8h1.72v.3h-1.39v.94h1.28v.3h-1.28v.95h1.41v.3h-1.74Z"/><path class="cls-8" d="M193.07,42.65c-.33,0-.6-.1-.8-.29s-.3-.48-.3-.85v-.64c0-.37,.1-.65,.3-.85s.46-.29,.8-.29,.58,.09,.76,.28c.18,.18,.27,.44,.27,.76v.02h-.33v-.03c0-.21-.06-.38-.17-.52-.11-.13-.29-.2-.53-.2s-.42,.07-.56,.22c-.13,.15-.2,.35-.2,.61v.66c0,.26,.07,.46,.2,.61,.13,.15,.32,.22,.56,.22s.41-.07,.53-.2c.11-.13,.17-.31,.17-.52v-.06h.33v.05c0,.32-.09,.57-.27,.76-.18,.18-.43,.28-.76,.28Z"/><path class="cls-8" d="M195.52,42.59v-2.5h-.9v-.3h2.14v.3h-.9v2.5h-.34Z"/><path class="cls-8" d="M197.41,42.59v-2.8h.34v2.8h-.34Z"/><path class="cls-8" d="M199.6,42.65c-.33,0-.6-.1-.8-.29-.2-.19-.3-.48-.3-.85v-.64c0-.37,.1-.65,.3-.85,.2-.19,.46-.29,.8-.29s.6,.1,.8,.29c.2,.19,.3,.48,.3,.85v.64c0,.37-.1,.65-.3,.85-.2,.19-.47,.29-.8,.29Zm0-.3c.24,0,.43-.07,.56-.22,.13-.15,.2-.35,.2-.61v-.66c0-.26-.07-.46-.2-.61-.13-.15-.32-.22-.56-.22s-.43,.07-.56,.22c-.13,.15-.2,.35-.2,.61v.66c0,.26,.07,.46,.2,.61,.13,.15,.32,.22,.56,.22Z"/><path class="cls-8" d="M201.45,42.59v-2.8h.65l.98,2.59h.05v-2.59h.33v2.8h-.65l-.97-2.59h-.06v2.59h-.33Z"/></g></g><g><g><circle class="cls-5" cx="14.52" cy="38.64" r="6.63"/><g><path class="cls-2" d="M12.09,41.34c-.62,0-1.12-.17-1.49-.51-.38-.34-.56-.86-.56-1.56v-1.32c0-.68,.19-1.19,.56-1.54,.38-.35,.87-.53,1.49-.53s1.12,.18,1.5,.53c.37,.35,.56,.87,.56,1.54v1.32c0,.7-.19,1.21-.56,1.56-.37,.34-.87,.51-1.5,.51Zm0-.86c.38,0,.65-.1,.83-.31,.18-.2,.27-.5,.27-.88v-1.4c0-.39-.1-.68-.3-.87s-.46-.3-.8-.3-.61,.1-.81,.31c-.19,.21-.29,.49-.29,.86v1.4c0,.4,.09,.69,.27,.89,.18,.2,.46,.3,.82,.3Z"/><path class="cls-2" d="M16.96,41.34c-.62,0-1.12-.17-1.49-.51-.38-.34-.56-.86-.56-1.56v-1.32c0-.68,.19-1.19,.56-1.54,.38-.35,.87-.53,1.49-.53s1.12,.18,1.5,.53c.37,.35,.56,.87,.56,1.54v1.32c0,.7-.19,1.21-.56,1.56-.37,.34-.87,.51-1.5,.51Zm0-.86c.38,0,.65-.1,.83-.31,.18-.2,.27-.5,.27-.88v-1.4c0-.39-.1-.68-.3-.87s-.46-.3-.8-.3-.61,.1-.81,.31c-.19,.21-.29,.49-.29,.86v1.4c0,.4,.09,.69,.27,.89,.18,.2,.46,.3,.82,.3Z"/></g></g><g><path class="cls-8" d="M24.79,37.06v-.58h.4v.6c0,.7-.08,1.23-.23,1.59-.09-.1-.21-.19-.34-.27,.12-.3,.18-.75,.18-1.34Zm1.77-.83h-.65v2.85h-.5v-2.85h-.7v-.52h1.86v.52Zm-.07-1.51v.52h-1.66v-.52h1.66Zm.02,1.76v1.75h-.39v-1.75h.39Zm2.07,2.05h.19s.07-.03,.08-.09c.02-.07,.03-.22,.03-.46,.12,.09,.27,.16,.46,.21h.01c-.03,.42-.11,.67-.23,.77-.07,.06-.17,.08-.29,.08h-.35c-.24,0-.39-.06-.46-.19-.05-.09-.07-.25-.07-.45v-.91h-.25c-.06,.51-.2,.89-.44,1.15-.17,.18-.4,.33-.68,.45-.05-.14-.15-.28-.3-.42-.01-.02-.03-.03-.04-.04,.4-.14,.67-.37,.79-.68,.05-.12,.08-.28,.11-.46h-.33v-2.82h2.21v2.82h-.53v.9c0,.09,.01,.14,.04,.15,.01,0,.03,0,.04,0Zm-1.23-3.41v.33h1.09v-.33h-1.09Zm0,.78v.33h1.09v-.33h-1.09Zm0,.78v.33h1.09v-.33h-1.09Z"/><path class="cls-8" d="M33.24,38.56h.61c.09,0,.14-.03,.17-.09,.02-.06,.03-.16,.04-.3,.13,.08,.29,.14,.49,.18-.03,.3-.11,.49-.24,.57-.09,.06-.22,.08-.4,.08h-.74c-.34,0-.55-.06-.64-.17-.07-.08-.1-.22-.1-.41v-.22h-.56c-.08,.26-.25,.46-.5,.58-.26,.13-.67,.22-1.24,.28-.05-.15-.13-.3-.25-.45,.64-.04,1.06-.12,1.24-.24,.07-.05,.12-.11,.16-.18h-.51v-1.69h2.89v1.69h-.64v.22c0,.07,.02,.11,.07,.13,.03,0,.09,0,.17,0Zm-2.68-2.2v.38h-.52v-.75h.51l-.07-1.38,.35,.07c.15-.06,.34-.16,.59-.28l.31,.24c-.19,.11-.43,.21-.72,.29v.12h.55v.31h-.53v.15h.54v.32h-.51v.15h.75c-.06-.06-.12-.12-.2-.18,.1-.05,.23-.12,.39-.21-.03-.02-.11-.07-.24-.15l.22-.2c.12,.06,.21,.11,.26,.15,.07-.07,.14-.14,.2-.22h.02s-.11-.09-.21-.17c-.14,.1-.27,.18-.38,.24-.08-.09-.16-.17-.24-.23,.12-.05,.24-.12,.36-.19-.02-.01-.05-.03-.09-.05-.05-.03-.09-.06-.11-.07l.21-.2s.06,.03,.11,.06c.06,.03,.1,.06,.13,.07,.08-.07,.14-.14,.19-.21l.31,.09c-.08,.1-.16,.2-.25,.29,.1,.07,.17,.12,.21,.16l-.22,.22,.3,.08c-.06,.08-.14,.19-.26,.31,.11,.08,.19,.15,.25,.21l-.23,.2h.83v-.15h-.49v-.32h.53v-.15h-.51v-.31h.54v-.16h-.6v-.35h1.14c-.01,.57-.04,1.05-.07,1.44h.51v.75h-.55v-.38h-3.29Zm.76,.46v.16h1.73v-.16h-1.73Zm0,.45v.16h1.73v-.16h-1.73Zm0,.46v.17h1.73v-.17h-1.73Zm.66-1.74h.51c-.07-.06-.14-.13-.23-.2-.09,.07-.19,.14-.28,.2Z"/><path class="cls-8" d="M39.24,36.96h.06s.04,0,.05-.01c.02-.02,.03-.05,.04-.09,0-.05,.01-.16,.02-.34,.09,.08,.2,.14,.32,.18,0,.23-.02,.38-.05,.45-.03,.08-.08,.14-.14,.18-.05,.03-.13,.05-.22,.05h-.2c-.13,0-.23-.04-.3-.11-.07-.07-.1-.2-.1-.4v-.11l-.21,.29c-.11-.09-.2-.16-.28-.21-.14,.24-.34,.46-.62,.63-.04-.05-.11-.11-.2-.2v.05c-.64,.05-1.36,.09-2.16,.13l-.03-.33c.06,0,.15,0,.28,0,.26,0,.46-.02,.6-.02v-.17h-.64v-.29h.64v-.24h.38s-.02-.11-.02-.2v-.06h-.34c-.06,.2-.21,.34-.45,.42-.09,.03-.2,.06-.33,.08-.04-.09-.09-.18-.18-.25h-.01c.31-.05,.5-.13,.57-.23,0,0,.01-.02,.01-.02h-.48v-.3h.83v-.14h-.61v-.29h.61v-.12h.5v.12h.61v.29h-.61v.14h.83v.3h-.62v.06c.02,.06,.04,.09,.07,.1h.19s.08-.03,.09-.08c0-.02,0-.03,0-.05,.06,.04,.15,.07,.28,.1-.02,.15-.08,.24-.19,.27-.04,0-.08,0-.12,0h-.29c-.11,0-.19,0-.24-.03v.12h.65v.29h-.65v.14c.2,0,.48-.02,.83-.04v.03c.18-.14,.32-.29,.41-.45-.17-.09-.31-.16-.42-.21l.25-.32c.16,.06,.27,.11,.32,.13,.01-.06,.02-.13,.03-.19h-.5v-.42h.51v-.3h.44v.3h.73v1.19c0,.09,0,.14,0,.15,.01,.02,.03,.02,.04,.02Zm-4.08,1.37v-.35h4.48v.35h-.97c.33,.18,.6,.35,.8,.53l-.41,.25c-.08-.08-.18-.16-.29-.24-1.09,.07-2.18,.13-3.26,.19l-.06-.39c.06,0,.14,0,.26,0,.17,0,.31,0,.4,0,.08-.12,.15-.23,.2-.32h-1.14Zm1.13-3.08v-.16h-1.11v-.42h1.11v-.27h.57v.27h1.07v-.27h.58v.27h1.13v.42h-1.13v.16h-.58v-.16h-1.07v.16h-.57Zm-.5,2.24h3.27v.35h-3.27v-.35Zm2.36,.84h-1.27c-.05,.06-.12,.16-.23,.3,.34-.01,.88-.04,1.62-.07-.17-.09-.26-.14-.27-.14l.16-.09Zm.56-2.32h-.27c0,.14-.03,.28-.06,.41,.13,.07,.24,.15,.33,.22v-.63Z"/><path class="cls-8" d="M43.59,35.94h-.69v3.12h-.55v-3.12h-.62v-.16c-.1,.21-.2,.38-.3,.53v2.76h-.55v-2.03c-.17,.18-.27,.29-.31,.32-.08-.19-.18-.36-.29-.51,0-.02-.02-.03-.03-.04,.36-.3,.67-.69,.92-1.16,.04-.07,.07-.14,.1-.2l.46,.15v-.2h.62v-1h.55v1h.69v.54Zm-2.43-1.53l.53,.19c-.24,.4-.55,.77-.93,1.09-.05,.04-.09,.08-.14,.11-.1-.18-.2-.33-.3-.44,.28-.21,.53-.48,.74-.79,.04-.06,.07-.11,.1-.16Zm.58,2.7v-.77h.4v.78c0,.59-.08,1.02-.24,1.31-.02,.04-.04,.07-.06,.1-.1-.11-.21-.2-.34-.27h-.01c.18-.26,.26-.64,.26-1.15Zm1.97-1.95l-.41,.18c-.06-.2-.16-.44-.33-.72l.39-.16c.17,.29,.29,.52,.34,.7Zm-.18,2.71h.04s.05,0,.06-.02c0-.02,.02-.06,.03-.12,0-.06,0-.22,.01-.45,.07,.05,.15,.1,.27,.14,0,.25-.02,.43-.04,.55-.03,.09-.07,.15-.12,.2-.05,.04-.11,.06-.2,.06h-.16c-.11,0-.2-.04-.26-.1-.06-.06-.08-.17-.09-.35v-1.43h.41v1.35c0,.09,0,.14,0,.15,.01,.02,.03,.02,.04,.02Zm1.48-1.81v.53h-.36v1.87c0,.24-.05,.4-.15,.48-.02,.02-.04,.03-.06,.04-.13,.07-.36,.1-.69,.1-.02-.17-.07-.35-.15-.56,.12,0,.26,0,.42,0,.05,0,.08-.03,.08-.07v-1.86h-.46v-.53h1.36Zm-.09-1.38v.52h-1.17v-.52h1.17Z"/><path class="cls-8" d="M46.7,34.42l.58,.18c-.14,.36-.3,.7-.48,1.04v3.42h-.6v-2.5c-.05,.06-.15,.18-.31,.36-.07-.2-.17-.39-.3-.59,0-.02-.02-.03-.03-.04,.39-.38,.72-.88,.99-1.49,.06-.13,.11-.25,.15-.38Zm3.58,1.36h-1.42v.53h1.3v.54h-1.3v.57h1.36v.55h-1.36v1.11h-.61v-3.29h-.19c-.2,.37-.42,.7-.66,.97-.1-.12-.24-.26-.43-.4,0,0-.02-.01-.02-.02,.37-.38,.69-.89,.94-1.54,.05-.12,.09-.23,.12-.35l.58,.15c-.06,.19-.14,.4-.24,.62h1.94v.56Z"/><path class="cls-8" d="M50.94,39.07v-2.25h1.9v2.23h-.6v-.22h-.75v.25h-.56Zm1.31-1.68h-.75v.86h.75v-.86Zm2.31-2.79v1.81h-2.93v-1.81h2.93Zm-.61,1.25v-.68h-1.75v.68h1.75Zm-.68,.98h1.96v2.23h-.6v-.23h-.79v.25h-.57v-2.25Zm.57,1.43h.79v-.86h-.79v.86Z"/><path class="cls-8" d="M25.43,43.88l-.84-2.8h.35l.76,2.6h.05l.76-2.6h.35l-.84,2.8h-.59Z"/><path class="cls-8" d="M27.51,43.88v-2.8h.34v2.8h-.34Z"/><path class="cls-8" d="M29.6,43.93c-.2,0-.38-.04-.54-.11-.16-.07-.29-.18-.38-.33s-.14-.33-.14-.55v-.08h.33v.08c0,.23,.07,.4,.2,.52,.14,.11,.31,.17,.52,.17s.39-.05,.5-.15,.17-.22,.17-.37c0-.1-.03-.19-.08-.25-.05-.06-.12-.11-.22-.15s-.2-.07-.33-.1l-.21-.05c-.16-.04-.31-.09-.43-.16-.13-.06-.22-.14-.29-.24-.07-.1-.11-.23-.11-.39s.04-.29,.12-.41,.19-.2,.33-.26c.14-.06,.31-.09,.49-.09s.36,.03,.51,.1,.27,.16,.36,.29c.09,.13,.13,.29,.13,.48v.17h-.33v-.17c0-.14-.03-.25-.09-.33-.06-.08-.14-.14-.24-.18-.1-.04-.21-.06-.34-.06-.18,0-.33,.04-.44,.12-.11,.08-.17,.2-.17,.35,0,.1,.02,.18,.07,.24s.12,.11,.2,.15,.19,.07,.32,.1l.21,.05c.16,.03,.31,.08,.44,.14,.13,.06,.23,.14,.31,.24,.08,.1,.12,.24,.12,.4s-.04,.31-.12,.43-.2,.22-.35,.29c-.15,.07-.33,.1-.53,.1Z"/><path class="cls-8" d="M32.33,43.93c-.21,0-.39-.04-.54-.11s-.27-.19-.36-.33c-.08-.15-.13-.33-.13-.55v-1.86h.33v1.87c0,.23,.06,.4,.18,.52,.12,.11,.29,.17,.52,.17s.39-.06,.52-.17c.12-.11,.18-.29,.18-.52v-1.87h.34v1.86c0,.22-.04,.4-.13,.55-.09,.15-.21,.26-.36,.33s-.34,.11-.55,.11Z"/><path class="cls-8" d="M33.91,43.88l.86-2.8h.59l.86,2.8h-.35l-.22-.71h-1.19l-.22,.71h-.35Zm.65-1.01h1.02l-.48-1.58h-.06l-.48,1.58Z"/><path class="cls-8" d="M36.88,43.88v-2.8h.34v2.5h1.42v.3h-1.75Z"/><path class="cls-8" d="M40.03,43.88l.86-2.8h.59l.86,2.8h-.35l-.22-.71h-1.19l-.22,.71h-.35Zm.65-1.01h1.02l-.48-1.58h-.06l-.48,1.58Z"/><path class="cls-8" d="M43,43.88v-2.8h1.13c.17,0,.33,.03,.46,.09s.24,.15,.31,.26c.08,.11,.11,.24,.11,.4v.04c0,.18-.04,.33-.13,.44-.09,.11-.19,.18-.31,.22v.06c.1,0,.18,.03,.24,.09s.09,.15,.09,.27v.94h-.33v-.9c0-.08-.02-.14-.07-.18s-.11-.06-.2-.06h-.97v1.15h-.34Zm.34-1.45h.76c.18,0,.33-.04,.43-.13,.1-.09,.15-.21,.15-.37v-.03c0-.16-.05-.28-.15-.37s-.24-.13-.43-.13h-.76v1.04Z"/><path class="cls-8" d="M46.45,43.88v-2.5h-.9v-.3h2.14v.3h-.9v2.5h-.34Z"/><path class="cls-8" d="M48.7,43.88l-.46-2.8h.34l.4,2.58h.06l.52-2.58h.6l.51,2.58h.06l.4-2.58h.34l-.46,2.8h-.6l-.52-2.6h-.06l-.52,2.6h-.6Z"/><path class="cls-8" d="M53.11,43.93c-.33,0-.6-.1-.8-.29-.2-.19-.3-.48-.3-.85v-.64c0-.37,.1-.65,.3-.85,.2-.19,.46-.29,.8-.29s.6,.1,.8,.29c.2,.19,.3,.48,.3,.85v.64c0,.37-.1,.65-.3,.85-.2,.19-.47,.29-.8,.29Zm0-.3c.24,0,.43-.07,.56-.22,.13-.15,.2-.35,.2-.61v-.66c0-.26-.07-.46-.2-.61-.13-.15-.32-.22-.56-.22s-.43,.07-.56,.22c-.13,.15-.2,.35-.2,.61v.66c0,.26,.07,.46,.2,.61,.13,.15,.32,.22,.56,.22Z"/><path class="cls-8" d="M54.96,43.88v-2.8h1.13c.17,0,.33,.03,.46,.09s.24,.15,.31,.26c.08,.11,.11,.24,.11,.4v.04c0,.18-.04,.33-.13,.44-.09,.11-.19,.18-.31,.22v.06c.1,0,.18,.03,.24,.09s.09,.15,.09,.27v.94h-.33v-.9c0-.08-.02-.14-.07-.18s-.11-.06-.2-.06h-.97v1.15h-.34Zm.34-1.45h.76c.18,0,.33-.04,.43-.13,.1-.09,.15-.21,.15-.37v-.03c0-.16-.05-.28-.15-.37s-.24-.13-.43-.13h-.76v1.04Z"/><path class="cls-8" d="M57.69,43.88v-2.8h.34v1.22h.06l1.18-1.22h.45l-1.36,1.38,1.41,1.42h-.46l-1.22-1.24h-.06v1.24h-.34Z"/><path class="cls-8" d="M61.19,43.93c-.2,0-.38-.04-.54-.11-.16-.07-.29-.18-.38-.33s-.14-.33-.14-.55v-.08h.33v.08c0,.23,.07,.4,.2,.52,.14,.11,.31,.17,.52,.17s.39-.05,.5-.15,.17-.22,.17-.37c0-.1-.03-.19-.08-.25-.05-.06-.12-.11-.22-.15-.09-.04-.2-.07-.33-.1l-.21-.05c-.16-.04-.31-.09-.43-.16-.13-.06-.22-.14-.29-.24-.07-.1-.11-.23-.11-.39s.04-.29,.12-.41,.19-.2,.33-.26c.14-.06,.31-.09,.49-.09s.36,.03,.51,.1,.27,.16,.36,.29c.09,.13,.13,.29,.13,.48v.17h-.33v-.17c0-.14-.03-.25-.09-.33-.06-.08-.14-.14-.24-.18-.1-.04-.21-.06-.34-.06-.18,0-.33,.04-.44,.12-.11,.08-.17,.2-.17,.35,0,.1,.02,.18,.07,.24s.12,.11,.2,.15,.19,.07,.32,.1l.21,.05c.16,.03,.31,.08,.44,.14,.13,.06,.23,.14,.31,.24,.08,.1,.12,.24,.12,.4s-.04,.31-.12,.43-.2,.22-.35,.29c-.15,.07-.33,.1-.53,.1Z"/></g></g><g><polygon class="cls-4" points="102.28 16.24 98.9 17.3 101.01 20.14 97.65 19 97.69 22.55 95.65 19.66 93.6 22.55 93.64 19 90.28 20.14 92.4 17.3 89.01 16.24 92.4 15.18 90.28 12.34 93.64 13.47 93.6 9.93 95.65 12.82 97.7 9.93 97.65 13.47 101.01 12.34 98.9 15.18 102.28 16.24"/><g><path class="cls-8" d="M108.35,15.9h1.92v.58h-4.48v-.58h1.9v-.97h-1.42v-.58h1.42v-.86h-1.69v-.58h2c-.16-.16-.41-.36-.75-.61l.49-.34c.41,.26,.72,.5,.93,.73l.02,.02-.26,.2h1.59v.58h-1.67v.86h1.43v.58h-1.43v.97Z"/><path class="cls-8" d="M115.42,15.64v.44h-.74v.54h-.56v-.54h-1.26v-.44h.41v-.87h.85v-.29h-1.8c-.03,.06-.09,.16-.2,.3h.66l.32,.14c-.27,.85-.88,1.43-1.82,1.72-.07-.13-.16-.25-.29-.38-.02-.01-.03-.02-.04-.03,.32-.08,.61-.21,.87-.37-.1-.12-.24-.24-.41-.37-.09,.06-.18,.12-.26,.17-.11-.14-.23-.26-.35-.35,.42-.21,.74-.48,.96-.82h-.73v-.46h.63v-.33h-.73v-.47h.73v-.3c-.12,.11-.22,.2-.31,.27-.09-.12-.23-.23-.41-.33h-.03c.35-.24,.63-.54,.84-.9l.57,.11c-.05,.08-.12,.2-.22,.34h3.05v.46h-.47v.35h.69v.47h-.69v.33h.63v.46h-.63v.29h.6v.46h-.6v.42h.74Zm-3.65-.47l-.02,.03c.15,.1,.3,.22,.43,.35,.12-.14,.22-.26,.28-.38h-.68Zm.43-2.31v.35h.31v-.35h-.31Zm0,.82v.33h.31v-.33h-.31Zm.8-.47h.33v-.35h-.33v.35Zm.33,.47h-.33v.33h.33v-.33Zm.42,1.96h.37v-.42h-.37v.42Zm.39-2.43v-.35h-.32v.35h.32Zm0,.81v-.33h-.32v.33h.32Z"/><path class="cls-8" d="M118.79,12.81l.47-.35c.54,.44,.94,.85,1.22,1.23,.05,.07,.09,.13,.12,.19l-.51,.4c-.07-.12-.17-.27-.32-.45-.98,.05-2.19,.1-3.64,.16l-.04-.6c.07,0,.17,0,.31,0,.21,0,.36,0,.46,0,.31-.49,.56-.97,.74-1.42l.68,.22c-.21,.38-.44,.78-.7,1.18,.36-.01,.93-.04,1.69-.07-.12-.12-.28-.27-.48-.44Zm-2.17,3.81v-2.2h3.33v2.19h-.64v-.2h-2.08v.2h-.61Zm2.69-1.64h-2.08v.86h2.08v-.86Z"/><path class="cls-8" d="M105.84,21.44v-2.8h.64l.74,2.59h.05l.74-2.59h.64v2.8h-.32v-2.58h-.06l-.74,2.58h-.58l-.74-2.58h-.06v2.58h-.32Z"/><path class="cls-8" d="M109.3,21.44l.86-2.8h.59l.86,2.8h-.35l-.22-.71h-1.19l-.22,.71h-.35Zm.65-1.01h1.02l-.48-1.58h-.06l-.48,1.58Z"/><path class="cls-8" d="M112.27,21.44v-2.8h.34v2.8h-.34Z"/><path class="cls-8" d="M113.43,21.44v-2.8h.65l.98,2.59h.05v-2.59h.33v2.8h-.65l-.97-2.59h-.06v2.59h-.33Z"/><path class="cls-8" d="M118.21,21.49c-.2,0-.38-.04-.54-.11-.16-.07-.29-.18-.38-.33s-.14-.33-.14-.55v-.08h.33v.08c0,.23,.07,.4,.2,.52,.14,.11,.31,.17,.52,.17s.39-.05,.5-.15c.11-.1,.17-.22,.17-.37,0-.1-.03-.19-.08-.25-.05-.06-.12-.11-.22-.15s-.2-.07-.33-.1l-.21-.05c-.16-.04-.31-.09-.43-.16-.13-.06-.22-.14-.29-.24-.07-.1-.11-.23-.11-.39s.04-.29,.12-.41,.19-.2,.33-.26c.14-.06,.31-.09,.49-.09s.36,.03,.51,.1,.27,.16,.36,.29c.09,.13,.13,.29,.13,.48v.17h-.33v-.17c0-.14-.03-.25-.09-.33-.06-.08-.14-.14-.24-.18-.1-.04-.21-.06-.34-.06-.18,0-.33,.04-.44,.12-.11,.08-.17,.2-.17,.35,0,.1,.02,.18,.07,.24s.12,.11,.2,.15,.19,.07,.32,.1l.21,.05c.16,.03,.31,.08,.44,.14,.13,.06,.23,.14,.31,.24,.08,.1,.12,.24,.12,.4s-.04,.31-.12,.43-.2,.22-.35,.29c-.15,.07-.33,.1-.53,.1Z"/><path class="cls-8" d="M120.62,21.44v-2.5h-.9v-.3h2.14v.3h-.9v2.5h-.34Z"/><path class="cls-8" d="M122.05,21.44l.86-2.8h.59l.86,2.8h-.35l-.22-.71h-1.19l-.22,.71h-.35Zm.65-1.01h1.02l-.48-1.58h-.06l-.48,1.58Z"/><path class="cls-8" d="M125.93,21.49c-.21,0-.39-.04-.55-.13-.16-.09-.28-.21-.37-.38-.09-.17-.13-.38-.13-.62v-.64c0-.37,.1-.65,.3-.85s.46-.29,.8-.29,.58,.09,.76,.27c.17,.18,.26,.42,.26,.73v.02h-.33v-.03c0-.13-.02-.25-.07-.36s-.12-.19-.22-.25-.23-.09-.39-.09c-.24,0-.42,.07-.56,.22-.13,.15-.2,.35-.2,.61v.66c0,.26,.07,.46,.2,.61,.13,.15,.32,.22,.56,.22s.41-.07,.52-.2c.11-.13,.17-.31,.17-.53v-.07h-.85v-.29h1.18v1.33h-.3v-.3h-.06c-.03,.06-.07,.12-.12,.17-.05,.06-.13,.1-.22,.14-.09,.03-.21,.05-.35,.05Z"/><path class="cls-8" d="M127.78,21.44v-2.8h1.72v.3h-1.39v.94h1.28v.3h-1.28v.95h1.41v.3h-1.74Z"/></g></g><g><g><polygon class="cls-7" points="10.64 61.2 11.37 61.2 11.37 64.28 12.16 64.28 12.16 61.2 12.88 61.2 12.88 55.29 10.64 55.29 10.64 61.2"/><path class="cls-7" d="M16.52,54.5c.38,0,.69-.31,.69-.68,0-.38-.31-.69-.69-.69s-.69,.31-.69,.69,.31,.68,.69,.68Z"/><path class="cls-7" d="M11.76,54.5c.38,0,.69-.31,.69-.68s-.31-.69-.69-.69-.69,.31-.69,.69,.31,.68,.69,.68Z"/><path class="cls-7" d="M17.43,58.24v-2.99h-1.8v2.97c-1.21,1.2-1.02,2.97-1.02,2.97h1.52v3.08h.79v-3.08h1.52s.19-1.76-1.01-2.96Z"/></g><g><path class="cls-8" d="M27.38,54.86h1.81v.52h-3.68v.92c0,1.27-.16,2.21-.47,2.81-.13-.12-.28-.22-.45-.3-.01,0-.02-.01-.03-.01,.26-.51,.39-1.3,.4-2.39v-1.54h1.81v-.42h.62v.42Zm-.08,3.3h-.27c.25,.27,.42,.47,.5,.61l-.43,.3c-.09-.17-.26-.39-.51-.66l.37-.24h-.87l.42,.23c-.18,.24-.41,.46-.7,.65-.05,.03-.09,.06-.13,.08-.1-.11-.23-.22-.39-.33,.26-.13,.48-.32,.68-.56,.02-.03,.04-.06,.06-.08h-.28v-2.54h1.55v2.54Zm-.5-1.82v-.31h-.56v.31h.56Zm0,.69v-.3h-.56v.3h.56Zm0,.71v-.32h-.56v.32h.56Zm1.31-2v2.29h-.52v-2.29h.52Zm.4,2.73v-2.9h.54v2.9c0,.24-.05,.4-.16,.48-.03,.02-.05,.04-.08,.05-.14,.06-.42,.09-.84,.09-.03-.18-.09-.35-.18-.54,.26,0,.46,.01,.61,.01,.07,0,.1-.04,.11-.1Z"/><path class="cls-8" d="M32.03,57.36h-1.43c-.06,.72-.21,1.29-.43,1.7-.07-.11-.19-.23-.36-.34-.04-.03-.08-.05-.11-.06,.23-.44,.34-1.12,.35-2.04v-1.78l.31,.08c.55-.13,.96-.28,1.25-.43l.47,.45c-.39,.17-.87,.32-1.45,.43v.29h1.4v1.69Zm-.58-1.17h-.82v.36c0,.12,0,.21,0,.28h.83v-.63Zm3-.07v.58h-.44v2.41h-.59v-2.41h-.58c-.06,1.06-.36,1.86-.9,2.4-.07-.11-.18-.22-.33-.33-.04-.03-.08-.05-.11-.07,.48-.48,.73-1.19,.76-2.13,0-.09,0-.2,0-.3v-1.38l.41,.09c.54-.16,.95-.32,1.22-.49l.52,.45c-.43,.21-.95,.39-1.57,.54v.65h1.6Z"/><path class="cls-8" d="M35.9,59.68c-.48-.79-.73-1.61-.75-2.47v-.12c0-.9,.25-1.77,.75-2.58l.46,.2c-.41,.71-.61,1.51-.61,2.39,0,.89,.21,1.69,.61,2.4l-.46,.2Z"/><path class="cls-8" d="M38.82,54.43h.59c.47,.48,1.07,.85,1.81,1.11,.11,.04,.22,.07,.33,.1-.13,.14-.24,.31-.35,.52-.36-.14-.72-.31-1.07-.51v.27h-1.93v-.28c-.37,.22-.74,.4-1.09,.54-.09-.19-.2-.35-.32-.48,.6-.2,1.14-.49,1.63-.87,.17-.13,.3-.26,.42-.39Zm1.44,1.76l.47,.17c-.17,.32-.35,.63-.55,.94h.63v1.81h-.62v-.17h-2.07v.17h-.59v-1.81h1.93s.11-.18,.32-.54c0,0,.01-.02,.01-.02h-2.34v-.52h2.68l.1-.02Zm-.06,2.24v-.62h-2.07v.62h2.07Zm-1.68-3h1.25c-.27-.18-.48-.35-.64-.51-.14,.15-.35,.32-.62,.51Z"/><path class="cls-8" d="M42.85,56.12v-.36c-.13,.12-.23,.21-.29,.26-.15-.14-.31-.27-.48-.39,.35-.23,.65-.54,.9-.94,.05-.08,.1-.17,.14-.25l.58,.17c-.05,.11-.11,.22-.19,.35h3v.53h-.47v.64h.65v.53h-.65v.63h.58v.53h-4.34v-.53h.59v-.63h-.67v-.53h.67Zm-.15,2.99l-.57-.23c.21-.2,.38-.47,.51-.83,.02-.05,.04-.09,.05-.14l.57,.14c-.12,.41-.3,.75-.54,1.02,0,.01-.02,.02-.03,.03Zm.68-3.63v.64h.36v-.64h-.36Zm0,1.17v.63h.36v-.63h-.36Zm.21,1.45l.56-.06c.07,.38,.11,.69,.12,.93l-.58,.09c0-.29-.03-.61-.09-.96Zm.64-1.97h.37v-.64h-.37v.64Zm.37,.53h-.37v.63h.37v-.63Zm-.02,1.46l.56-.09c.15,.35,.24,.66,.29,.93l-.6,.12c-.03-.27-.12-.58-.25-.95Zm.9-1.98v-.64h-.38v.64h.38Zm0,1.16v-.63h-.38v.63h.38Zm.09,.8l.57-.18c.29,.4,.5,.73,.63,1l-.61,.21c-.11-.26-.3-.61-.59-1.03Z"/><path class="cls-8" d="M48.66,54.62l.39,.22c-.23,.74-.37,1.19-.43,1.36,.24,.31,.37,.65,.37,1.01,0,.32-.08,.53-.22,.64-.08,.05-.18,.09-.29,.11-.1,0-.2,.01-.32,0,0-.19-.05-.36-.13-.51,.06,0,.13,0,.22,0,.06,0,.11-.02,.14-.04,.05-.04,.07-.13,.07-.28,0-.31-.12-.61-.34-.88,.09-.29,.18-.65,.28-1.09h-.39v3.93h-.51v-4.45h1.08l.08-.02Zm3.29,3.3v.47h-1.25v.71h-.58v-.71h-1.24v-.47h1.24v-.25h-.93v-1.48h2.48v1.48h-.97v.25h1.25Zm-3.02-2.4h.64c-.03-.12-.07-.22-.11-.31h-.37v-.46h1.03v-.31h.58v.31h1.13v.46h-.42c-.05,.11-.11,.21-.17,.31h.67v.46h-3v-.46Zm.8,1.03v.21h1.4v-.21h-1.4Zm0,.55v.21h1.4v-.21h-1.4Zm.38-1.58h.6c.07-.15,.11-.25,.13-.31h-.83c.05,.12,.08,.22,.09,.31Z"/><path class="cls-8" d="M56.5,57.72v.82c.1,.02,.18,.03,.26,.03,.22,0,.37,0,.44,0-.06,.13-.11,.28-.14,.47h-.35c-.41,0-.72-.15-.93-.45-.03-.04-.06-.08-.08-.13-.08,.26-.19,.47-.35,.64-.06-.12-.16-.22-.28-.31h-.02c.1-.13,.18-.26,.23-.41l-.27,.22c-.05-.09-.11-.18-.17-.27-.13,.31-.33,.57-.59,.77-.09-.13-.2-.24-.31-.31,.34-.24,.54-.58,.6-1.04h-.46v-.43h.48v-.44h-.07c-.05,.12-.11,.24-.18,.35-.12-.07-.23-.13-.32-.17v1.38h-.76v.37h-.46v-1.21c-.06,.09-.09,.15-.11,.18-.06-.18-.14-.36-.25-.55,0-.01-.01-.02-.02-.03,.26-.43,.44-1.11,.54-2.04h-.42v-.52h1.53v.52h-.58c-.05,.35-.1,.69-.18,1.02h.71v.76c.14-.24,.24-.54,.3-.9l.42,.09s-.04,.15-.08,.33h.69v.43h-.32v.44h.36v.43h-.39c0,.05-.01,.09-.01,.12,.14,.15,.25,.29,.33,.43,.09-.28,.15-.71,.16-1.29h.42c0,.27-.02,.52-.04,.75,.05,.18,.12,.33,.2,.44v-1.63h-.66v-.45h1.09c-.2-.21-.51-.42-.94-.66h-.02c-.03,.29-.11,.47-.23,.54-.06,.03-.14,.05-.24,.05h-.42c-.23,0-.37-.06-.43-.17-.04-.08-.06-.21-.06-.38v-1.08h.44v.47c.21-.09,.39-.19,.55-.28l.28,.32v-.37h1.29l.1-.03,.31,.25c-.21,.29-.42,.55-.64,.76,.12,.08,.23,.17,.32,.25l-.29,.33h.29l.07-.02,.31,.09c-.06,.36-.12,.63-.17,.83l-.38-.12c.02-.13,.04-.24,.05-.33h-.19v.68h.58v.45h-.58Zm-2.96,.22v-1.24h-.29v1.24h.29Zm1.98-2.49l.28-.31c.06,.03,.17,.08,.33,.18,.09-.1,.17-.2,.24-.3h-.95v-.03c-.25,.11-.52,.21-.83,.31v.21c0,.07,.01,.12,.04,.13,.02,0,.05,0,.08,0h.3s.08-.03,.09-.09c0-.05,.02-.14,.02-.26,.08,.06,.21,.12,.4,.17h0Z"/><path class="cls-8" d="M60.53,54.86h1.81v.52h-3.68v.92c0,1.27-.16,2.21-.47,2.81-.13-.12-.28-.22-.45-.3-.01,0-.02-.01-.03-.01,.26-.51,.39-1.3,.4-2.39v-1.54h1.81v-.42h.62v.42Zm-.08,3.3h-.27c.25,.27,.42,.47,.5,.61l-.43,.3c-.09-.17-.26-.39-.51-.66l.37-.24h-.87l.42,.23c-.18,.24-.41,.46-.7,.65-.05,.03-.09,.06-.13,.08-.1-.11-.23-.22-.39-.33,.26-.13,.48-.32,.68-.56,.02-.03,.04-.06,.06-.08h-.28v-2.54h1.55v2.54Zm-.5-1.82v-.31h-.56v.31h.56Zm0,.69v-.3h-.56v.3h.56Zm0,.71v-.32h-.56v.32h.56Zm1.31-2v2.29h-.52v-2.29h.52Zm.4,2.73v-2.9h.54v2.9c0,.24-.05,.4-.16,.48-.03,.02-.05,.04-.08,.05-.14,.06-.42,.09-.84,.09-.03-.18-.09-.35-.18-.54,.26,0,.46,.01,.61,.01,.07,0,.1-.04,.11-.1Z"/><path class="cls-8" d="M65.18,57.36h-1.43c-.06,.72-.21,1.29-.43,1.7-.07-.11-.19-.23-.36-.34-.04-.03-.08-.05-.11-.06,.23-.44,.34-1.12,.35-2.04v-1.78l.31,.08c.55-.13,.96-.28,1.25-.43l.47,.45c-.39,.17-.87,.32-1.45,.43v.29h1.4v1.69Zm-.58-1.17h-.82v.36c0,.12,0,.21,0,.28h.83v-.63Zm3-.07v.58h-.44v2.41h-.59v-2.41h-.58c-.06,1.06-.36,1.86-.9,2.4-.07-.11-.18-.22-.33-.33-.04-.03-.08-.05-.11-.07,.48-.48,.73-1.19,.76-2.13,0-.09,0-.2,0-.3v-1.38l.41,.09c.54-.16,.95-.32,1.22-.49l.52,.45c-.43,.21-.95,.39-1.57,.54v.65h1.6Z"/><path class="cls-8" d="M68.5,59.68l-.45-.2c.41-.71,.61-1.51,.61-2.4,0-.88-.21-1.68-.61-2.39l.45-.2c.5,.82,.75,1.68,.75,2.58s-.23,1.72-.7,2.51c-.02,.03-.03,.06-.05,.08Z"/><path class="cls-8" d="M25.43,63.9v-2.5h-.9v-.3h2.14v.3h-.9v2.5h-.34Z"/><path class="cls-8" d="M28.16,63.96c-.33,0-.6-.1-.8-.29-.2-.19-.3-.48-.3-.85v-.64c0-.37,.1-.65,.3-.85,.2-.19,.46-.29,.8-.29s.6,.1,.8,.29c.2,.19,.3,.48,.3,.85v.64c0,.37-.1,.65-.3,.85-.2,.19-.47,.29-.8,.29Zm0-.3c.24,0,.43-.07,.56-.22,.13-.15,.2-.35,.2-.61v-.66c0-.26-.07-.46-.2-.61-.13-.15-.32-.22-.56-.22s-.43,.07-.56,.22c-.13,.15-.2,.35-.2,.61v.66c0,.26,.07,.46,.2,.61,.13,.15,.32,.22,.56,.22Z"/><path class="cls-8" d="M29.9,63.9v-2.8h.34v2.8h-.34Z"/><path class="cls-8" d="M30.94,63.9v-2.8h.34v2.5h1.42v.3h-1.75Z"/><path class="cls-8" d="M33.22,63.9v-2.8h1.72v.3h-1.39v.94h1.28v.3h-1.28v.95h1.41v.3h-1.74Z"/><path class="cls-8" d="M36.32,63.9v-2.5h-.9v-.3h2.14v.3h-.9v2.5h-.34Z"/><path class="cls-8" d="M39.61,63.9c-.15,0-.29-.03-.42-.09s-.22-.14-.3-.25c-.07-.11-.11-.24-.11-.4,0-.12,.02-.22,.07-.31,.04-.09,.1-.16,.18-.22,.07-.06,.15-.1,.23-.13v-.04c-.12-.04-.23-.11-.32-.21s-.14-.24-.14-.41c0-.16,.04-.3,.11-.41,.08-.11,.17-.2,.3-.25,.12-.06,.26-.08,.41-.08h.5v.27h-.46c-.15,0-.28,.04-.38,.12-.1,.08-.15,.2-.15,.37,0,.11,.02,.2,.07,.28,.05,.07,.11,.12,.19,.16s.17,.05,.26,.05h.55v-.43h.32v.43h.39v.28h-.39v1.28h-.92Zm.04-.27h.57v-1h-.57c-.15,0-.28,.04-.39,.12-.11,.08-.16,.21-.16,.38s.05,.3,.16,.38c.11,.08,.24,.12,.38,.12Z"/><path class="cls-8" d="M42.07,63.9l.86-2.8h.59l.86,2.8h-.35l-.22-.71h-1.19l-.22,.71h-.35Zm.65-1.01h1.02l-.48-1.58h-.06l-.48,1.58Z"/><path class="cls-8" d="M45.87,63.96c-.33,0-.6-.1-.8-.29s-.3-.48-.3-.85v-.64c0-.37,.1-.65,.3-.85s.46-.29,.8-.29,.58,.09,.76,.28c.18,.18,.27,.44,.27,.76v.02h-.33v-.03c0-.21-.06-.38-.17-.52-.11-.13-.29-.2-.53-.2s-.42,.07-.56,.22c-.13,.15-.2,.35-.2,.61v.66c0,.26,.07,.46,.2,.61,.13,.15,.32,.22,.56,.22s.41-.07,.53-.2c.11-.13,.17-.31,.17-.52v-.06h.33v.05c0,.32-.09,.57-.27,.76-.18,.18-.43,.28-.76,.28Z"/><path class="cls-8" d="M48.53,63.96c-.33,0-.6-.1-.8-.29s-.3-.48-.3-.85v-.64c0-.37,.1-.65,.3-.85s.46-.29,.8-.29,.58,.09,.76,.28c.18,.18,.27,.44,.27,.76v.02h-.33v-.03c0-.21-.06-.38-.17-.52-.11-.13-.29-.2-.53-.2s-.42,.07-.56,.22c-.13,.15-.2,.35-.2,.61v.66c0,.26,.07,.46,.2,.61,.13,.15,.32,.22,.56,.22s.41-.07,.53-.2c.11-.13,.17-.31,.17-.52v-.06h.33v.05c0,.32-.09,.57-.27,.76-.18,.18-.43,.28-.76,.28Z"/><path class="cls-8" d="M50.16,63.9v-2.8h1.72v.3h-1.39v.94h1.28v.3h-1.28v.95h1.41v.3h-1.74Z"/><path class="cls-8" d="M53.4,63.96c-.2,0-.38-.04-.54-.11-.16-.07-.29-.18-.38-.33s-.14-.33-.14-.55v-.08h.33v.08c0,.23,.07,.4,.2,.52,.14,.11,.31,.17,.52,.17s.39-.05,.5-.15,.17-.22,.17-.37c0-.1-.03-.19-.08-.25-.05-.06-.12-.11-.22-.15s-.2-.07-.33-.1l-.21-.05c-.16-.04-.31-.09-.43-.16-.13-.06-.22-.14-.29-.24-.07-.1-.11-.23-.11-.39s.04-.29,.12-.41,.19-.2,.33-.26c.14-.06,.31-.09,.49-.09s.36,.03,.51,.1,.27,.16,.36,.29c.09,.13,.13,.29,.13,.48v.17h-.33v-.17c0-.14-.03-.25-.09-.33-.06-.08-.14-.14-.24-.18-.1-.04-.21-.06-.34-.06-.18,0-.33,.04-.44,.12-.11,.08-.17,.2-.17,.35,0,.1,.02,.18,.07,.24s.12,.11,.2,.15,.19,.07,.32,.1l.21,.05c.16,.03,.31,.08,.44,.14,.13,.06,.23,.14,.31,.24,.08,.1,.12,.24,.12,.4s-.04,.31-.12,.43-.2,.22-.35,.29c-.15,.07-.33,.1-.53,.1Z"/><path class="cls-8" d="M55.98,63.96c-.2,0-.38-.04-.54-.11-.16-.07-.29-.18-.38-.33s-.14-.33-.14-.55v-.08h.33v.08c0,.23,.07,.4,.2,.52,.14,.11,.31,.17,.52,.17s.39-.05,.5-.15,.17-.22,.17-.37c0-.1-.03-.19-.08-.25-.05-.06-.12-.11-.22-.15s-.2-.07-.33-.1l-.21-.05c-.16-.04-.31-.09-.43-.16-.13-.06-.22-.14-.29-.24-.07-.1-.11-.23-.11-.39s.04-.29,.12-.41,.19-.2,.33-.26c.14-.06,.31-.09,.49-.09s.36,.03,.51,.1,.27,.16,.36,.29c.09,.13,.13,.29,.13,.48v.17h-.33v-.17c0-.14-.03-.25-.09-.33-.06-.08-.14-.14-.24-.18-.1-.04-.21-.06-.34-.06-.18,0-.33,.04-.44,.12-.11,.08-.17,.2-.17,.35,0,.1,.02,.18,.07,.24s.12,.11,.2,.15,.19,.07,.32,.1l.21,.05c.16,.03,.31,.08,.44,.14,.13,.06,.23,.14,.31,.24,.08,.1,.12,.24,.12,.4s-.04,.31-.12,.43-.2,.22-.35,.29c-.15,.07-.33,.1-.53,.1Z"/><path class="cls-8" d="M57.57,63.9v-2.8h.34v2.8h-.34Z"/><path class="cls-8" d="M58.48,63.9v-.3h.39v-2.2h-.39v-.3h1.4c.16,0,.31,.03,.43,.09,.13,.06,.22,.14,.3,.25,.07,.1,.11,.23,.11,.37v.03c0,.13-.03,.24-.08,.32-.05,.08-.11,.15-.18,.2-.07,.05-.14,.08-.2,.1v.06c.07,.02,.14,.05,.21,.09,.07,.05,.13,.11,.18,.2,.05,.09,.07,.19,.07,.32v.04c0,.15-.04,.28-.11,.39-.07,.11-.17,.19-.3,.25-.13,.06-.27,.09-.43,.09h-1.4Zm.73-1.56h.65c.16,0,.29-.04,.38-.12,.1-.08,.14-.19,.14-.32v-.04c0-.14-.05-.24-.14-.33-.09-.08-.22-.12-.39-.12h-.65v.93Zm0,1.26h.64c.18,0,.31-.04,.4-.12,.09-.08,.14-.19,.14-.34v-.04c0-.14-.05-.25-.14-.34-.09-.08-.23-.12-.4-.12h-.64v.96Z"/><path class="cls-8" d="M61.33,63.9v-2.8h.34v2.5h1.42v.3h-1.75Z"/><path class="cls-8" d="M63.62,63.9v-2.8h1.72v.3h-1.39v.94h1.28v.3h-1.28v.95h1.41v.3h-1.74Z"/><path class="cls-8" d="M67.51,63.9v-2.5h-.9v-.3h2.14v.3h-.9v2.5h-.34Z"/><path class="cls-8" d="M70.24,63.96c-.33,0-.6-.1-.8-.29-.2-.19-.3-.48-.3-.85v-.64c0-.37,.1-.65,.3-.85,.2-.19,.46-.29,.8-.29s.6,.1,.8,.29c.2,.19,.3,.48,.3,.85v.64c0,.37-.1,.65-.3,.85-.2,.19-.47,.29-.8,.29Zm0-.3c.24,0,.43-.07,.56-.22,.13-.15,.2-.35,.2-.61v-.66c0-.26-.07-.46-.2-.61-.13-.15-.32-.22-.56-.22s-.43,.07-.56,.22c-.13,.15-.2,.35-.2,.61v.66c0,.26,.07,.46,.2,.61,.13,.15,.32,.22,.56,.22Z"/><path class="cls-8" d="M71.98,63.9v-2.8h.34v2.8h-.34Z"/><path class="cls-8" d="M73.02,63.9v-2.8h.34v2.5h1.42v.3h-1.75Z"/><path class="cls-8" d="M75.3,63.9v-2.8h1.72v.3h-1.39v.94h1.28v.3h-1.28v.95h1.41v.3h-1.74Z"/><path class="cls-8" d="M78.4,63.9v-2.5h-.9v-.3h2.14v.3h-.9v2.5h-.34Z"/></g></g><g><g><path class="cls-8" d="M187.94,15.53c.2,.3,.57,.47,1.11,.49,.69,.03,1.43,.02,2.21-.03,.08,0,.15,0,.21-.01-.1,.21-.16,.4-.19,.57-.76,.04-1.5,.04-2.23,.02-.53-.02-.93-.15-1.21-.4-.06-.05-.11-.1-.16-.16-.14,.14-.36,.34-.66,.61l-.28-.59c.25-.17,.46-.32,.63-.45v-.79h-.56v-.55h1.13v1.22c.26-.43,.39-1.09,.4-1.97v-1.37h2.86v3.2c0,.21-.05,.36-.15,.43-.02,.02-.04,.03-.06,.04-.12,.06-.35,.09-.68,.09-.02-.15-.07-.31-.15-.49,.19,0,.33,.01,.41,0,.05,0,.08-.04,.08-.08v-2.71h-1.77v.82c0,1.08-.16,1.88-.48,2.38-.13-.11-.27-.19-.43-.26,0,0-.02,0-.02,0Zm.07-1.94l-.41,.4c-.15-.18-.39-.36-.71-.56-.02-.02-.05-.03-.07-.04l.38-.36c.36,.19,.63,.37,.8,.56h0Zm.16-.97l-.42,.4c-.13-.18-.36-.37-.69-.6-.02-.01-.04-.02-.05-.03l.39-.36c.35,.21,.61,.41,.78,.59Zm.82,1h.5v-.26h-.46v-.39h.46v-.29h.47v.29h.52v.39h-.52v.26h.55v.39h-1.52v-.39Zm.52,1.69v.24h-.44v-1.38h1.34v1.13h-.89Zm.44-.74h-.44v.35h.44v-.35Z"/><path class="cls-8" d="M196.36,14.57h-1.34c.35,.44,.79,.81,1.34,1.11,.13,.07,.27,.14,.4,.2-.14,.12-.29,.3-.45,.53-.55-.29-1.06-.73-1.53-1.31-.03-.03-.05-.06-.07-.09v1.64h-.64v-1.6c-.44,.57-.95,1.01-1.52,1.34-.03,.02-.06,.04-.08,.05-.12-.19-.26-.36-.42-.51h-.01c.54-.25,1.03-.6,1.48-1.05,.1-.1,.19-.2,.27-.3h-1.34v-.59h1.63v-.65h-1.85v-.6h1.85v-.76h.64v.76h1.89v.6h-1.89v.65h1.67v.59Z"/><path class="cls-8" d="M201.82,13.18h-2v.53h1.58v1.69c0,.26-.07,.43-.2,.51-.02,.01-.04,.02-.06,.03-.16,.06-.46,.1-.89,.1-.03-.18-.09-.38-.2-.59,.17,0,.37,0,.62,0,.07,0,.1-.03,.11-.08v-1.1h-.96v2.36h-.62v-2.36h-.87v1.75h-.6v-2.33h1.47v-.53h-1.94v-.58h1.94v-.65h.63v.65h1.99v.58Z"/><path class="cls-8" d="M206.99,15.51h-1.48c.48,.27,1.01,.48,1.6,.61-.14,.13-.26,.29-.37,.47-.62-.17-1.19-.44-1.69-.8l-.03-.02v.87h-.58v-.85c-.48,.35-1.03,.62-1.65,.8-.03,0-.05,.02-.08,.02-.11-.18-.23-.34-.38-.49,.61-.13,1.16-.34,1.66-.62h-1.49v-.48h1.94v-.2h-1.38v-1.35c-.08,.08-.18,.16-.28,.24-.09-.13-.22-.26-.38-.37-.02-.01-.03-.02-.04-.03,.48-.35,.86-.77,1.14-1.27,.02-.03,.03-.06,.04-.08l.62,.11c-.05,.09-.14,.24-.27,.43h.71c.1-.21,.17-.39,.22-.54l.67,.08c-.04,.08-.13,.23-.27,.46h1.49v.46h-1.57v.21h1.32v.39h-1.32v.21h1.33v.39h-1.33v.21h1.71v.45h-1.84v.2h1.97v.48Zm-2.42-2.33v-.21h-.94v.21h.94Zm0,.6v-.21h-.94v.21h.94Zm-.94,.39v.21h.94v-.21h-.94Z"/><path class="cls-8" d="M187.22,21.45l-.46-2.8h.34l.4,2.58h.06l.52-2.58h.6l.51,2.58h.06l.4-2.58h.34l-.46,2.8h-.6l-.52-2.6h-.06l-.52,2.6h-.6Z"/><path class="cls-8" d="M190.64,21.45v-2.8h1.72v.3h-1.39v.94h1.28v.3h-1.28v.95h1.41v.3h-1.74Z"/><path class="cls-8" d="M193.09,21.45v-2.8h1.72v.3h-1.39v.94h1.28v.3h-1.28v.95h1.41v.3h-1.74Z"/><path class="cls-8" d="M195.53,21.45v-2.8h.34v1.22h.06l1.18-1.22h.45l-1.36,1.38,1.41,1.42h-.46l-1.22-1.24h-.06v1.24h-.34Z"/><path class="cls-8" d="M198.22,21.45v-2.8h1.72v.3h-1.39v.94h1.28v.3h-1.28v.95h1.41v.3h-1.74Z"/><path class="cls-8" d="M200.67,21.45v-2.8h.65l.98,2.59h.05v-2.59h.33v2.8h-.65l-.97-2.59h-.06v2.59h-.33Z"/><path class="cls-8" d="M203.38,21.45v-.3h.39v-2.2h-.39v-.3h1.09c.37,0,.65,.09,.85,.28s.3,.47,.3,.86v.52c0,.39-.1,.68-.3,.86-.2,.19-.49,.28-.85,.28h-1.09Zm.73-.3h.36c.27,0,.48-.07,.62-.2,.14-.13,.21-.34,.21-.62v-.55c0-.29-.07-.49-.21-.62-.14-.13-.34-.2-.62-.2h-.36v2.19Z"/><path class="cls-8" d="M207.35,21.45v-2.8h.64l.74,2.59h.05l.74-2.59h.64v2.8h-.32v-2.58h-.06l-.74,2.58h-.58l-.74-2.58h-.06v2.58h-.32Z"/><path class="cls-8" d="M210.82,21.45l.86-2.8h.59l.86,2.8h-.35l-.22-.71h-1.19l-.22,.71h-.35Zm.65-1.01h1.02l-.48-1.58h-.06l-.48,1.58Z"/><path class="cls-8" d="M213.79,21.45v-2.8h1.13c.17,0,.33,.03,.46,.09s.24,.15,.31,.26c.08,.11,.11,.24,.11,.4v.04c0,.18-.04,.33-.13,.44-.09,.11-.19,.18-.31,.22v.06c.1,0,.18,.03,.24,.09s.09,.15,.09,.27v.94h-.33v-.9c0-.08-.02-.14-.07-.18s-.11-.06-.2-.06h-.97v1.15h-.34Zm.34-1.45h.76c.18,0,.33-.04,.43-.13,.1-.09,.15-.21,.15-.37v-.03c0-.16-.05-.28-.15-.37s-.24-.13-.43-.13h-.76v1.04Z"/><path class="cls-8" d="M216.51,21.45v-2.8h.34v1.22h.06l1.18-1.22h.45l-1.36,1.38,1.41,1.42h-.46l-1.22-1.24h-.06v1.24h-.34Z"/><path class="cls-8" d="M219.21,21.45v-2.8h1.72v.3h-1.39v.94h1.28v.3h-1.28v.95h1.41v.3h-1.74Z"/><path class="cls-8" d="M222.42,21.45v-2.5h-.9v-.3h2.14v.3h-.9v2.5h-.34Z"/></g><path class="cls-6" d="M177.92,14.14c3.24-5.61-5.59-5.61-2.35,0-3.24-5.61-7.65,2.03-1.17,2.03-6.48,0-2.07,7.64,1.17,2.03-3.24,5.61,5.59,5.61,2.35,0,3.24,5.61,7.65-2.03,1.17-2.03,6.48,0,2.07-7.64-1.17-2.03Z"/></g><g><g><path class="cls-8" d="M28.31,13.99h.62v2.11h-.62v-.28h-2.77v.29h-.61v-2.12h.61v1.25h1.04v-1.51h-1.45v-1.82h.59v1.24h.86v-1.66h.61v1.66h.91v-1.24h.62v1.82h-1.54v1.51h1.12v-1.25Z"/><path class="cls-8" d="M30.67,11.72h1.73c0,1.2,.29,2.17,.87,2.91,.3,.37,.66,.69,1.1,.95-.15,.12-.3,.27-.44,.46-.02,.02-.03,.04-.04,.06-.89-.54-1.5-1.36-1.84-2.47-.39,1.14-1,1.97-1.85,2.47-.13-.14-.3-.3-.52-.47h-.02c.99-.52,1.62-1.46,1.91-2.82l.3,.06c-.03-.16-.05-.34-.07-.54h-1.14v-.61Z"/><path class="cls-8" d="M35.14,11.93h3.93v4.07h-.65v-.4h-2.65v.41h-.62v-4.08Zm.62,3.06h2.65v-2.46h-2.65v2.46Z"/><path class="cls-8" d="M24.74,20.92v-2.8h1.72v.3h-1.39v.94h1.28v.3h-1.28v.95h1.41v.3h-1.74Z"/><path class="cls-8" d="M27.18,20.92v-2.8h.65l.98,2.59h.05v-2.59h.33v2.8h-.65l-.97-2.59h-.06v2.59h-.33Z"/><path class="cls-8" d="M30.75,20.92v-2.5h-.9v-.3h2.14v.3h-.9v2.5h-.34Z"/><path class="cls-8" d="M32.63,20.92v-2.8h1.13c.17,0,.33,.03,.46,.09s.24,.15,.31,.26c.08,.11,.11,.24,.11,.4v.04c0,.18-.04,.33-.13,.44-.09,.11-.19,.18-.31,.22v.06c.1,0,.18,.03,.24,.09s.09,.15,.09,.27v.94h-.33v-.9c0-.08-.02-.14-.07-.18s-.11-.06-.2-.06h-.97v1.15h-.34Zm.34-1.45h.76c.18,0,.33-.04,.43-.13,.1-.09,.15-.21,.15-.37v-.03c0-.16-.05-.28-.15-.37s-.24-.13-.43-.13h-.76v1.04Z"/><path class="cls-8" d="M35.17,20.92l.86-2.8h.59l.86,2.8h-.35l-.22-.71h-1.19l-.22,.71h-.35Zm.65-1.01h1.02l-.48-1.58h-.06l-.48,1.58Z"/><path class="cls-8" d="M38.14,20.92v-2.8h.65l.98,2.59h.05v-2.59h.33v2.8h-.65l-.97-2.59h-.06v2.59h-.33Z"/><path class="cls-8" d="M42,20.97c-.33,0-.6-.1-.8-.29s-.3-.48-.3-.85v-.64c0-.37,.1-.65,.3-.85s.46-.29,.8-.29,.58,.09,.76,.28c.18,.18,.27,.44,.27,.76v.02h-.33v-.03c0-.21-.06-.38-.17-.52-.11-.13-.29-.2-.53-.2s-.42,.07-.56,.22c-.13,.15-.2,.35-.2,.61v.66c0,.26,.07,.46,.2,.61,.13,.15,.32,.22,.56,.22s.41-.07,.53-.2c.11-.13,.17-.31,.17-.52v-.06h.33v.05c0,.32-.09,.57-.27,.76-.18,.18-.43,.28-.76,.28Z"/><path class="cls-8" d="M43.74,20.92v-2.8h1.72v.3h-1.39v.94h1.28v.3h-1.28v.95h1.41v.3h-1.74Z"/><path class="cls-8" d="M46.87,21.72l1.18-3.6h.32l-1.18,3.6h-.32Z"/><path class="cls-8" d="M49.85,20.92v-2.8h1.72v.3h-1.39v.94h1.28v.3h-1.28v.95h1.41v.3h-1.74Z"/><path class="cls-8" d="M52.19,20.92l.9-1.41-.89-1.39h.4l.71,1.16h.05l.72-1.16h.39l-.89,1.39,.9,1.41h-.39l-.73-1.18h-.05l-.73,1.18h-.39Z"/><path class="cls-8" d="M55.15,20.92v-2.8h.34v2.8h-.34Z"/><path class="cls-8" d="M57.04,20.92v-2.5h-.9v-.3h2.14v.3h-.9v2.5h-.34Z"/></g><g><rect class="cls-3" x="8.88" y="9.93" width="11.5" height="11.5"/><g><polygon class="cls-8" points="14.52 20.51 13.68 19.7 17.52 15.68 13.68 11.66 14.52 10.84 19.15 15.68 14.52 20.51"/><rect class="cls-8" x="10.11" y="15.09" width="8.22" height="1.17"/></g></g></g><g><g><path class="cls-8" d="M106.77,32.77l.65,.2c-.26,.52-.58,.97-.96,1.34-.08,.07-.15,.14-.23,.2-.17-.18-.33-.32-.48-.42,.32-.24,.61-.56,.84-.96,.07-.12,.13-.24,.18-.35Zm1.84,2.16l.56-.27c.42,.5,.78,1,1.06,1.52,.04,.07,.08,.15,.11,.21l-.6,.31c-.02-.06-.09-.19-.2-.4-1.22,.06-2.37,.11-3.45,.16l-.07-.62c.35,0,.6-.01,.73-.02,.32-.58,.59-1.22,.81-1.92,0-.04,.02-.07,.03-.1l.71,.18c-.28,.66-.58,1.27-.89,1.83,.39,0,.98-.03,1.77-.05-.24-.35-.43-.62-.59-.82Zm-1.4-2.72h1.96c.21,.52,.52,.98,.92,1.39,.14,.14,.27,.25,.41,.35-.17,.09-.34,.22-.52,.4-.01,.01-.02,.02-.03,.03-.45-.39-.84-.91-1.17-1.56,0-.02-.01-.03-.02-.04h-1.54v-.58Z"/><path class="cls-8" d="M114.43,34.5h1.09v.58h-4.55v-.58h1.07v-.96h-.9v-.58h.9v-.92h.62v.92h1.15v-.92h.62v.92h.93v.58h-.93v.96Zm-2.17,.77l.63,.25c-.35,.4-.77,.76-1.25,1.06-.05,.04-.11,.07-.16,.1-.18-.18-.34-.31-.49-.42,.41-.22,.77-.48,1.08-.79,.08-.07,.14-.14,.19-.21Zm.4-1.73v.96h1.15v-.96h-1.15Zm.92,2.01l.54-.3c.62,.44,1.08,.8,1.36,1.07l-.59,.35c-.23-.26-.67-.63-1.31-1.13Z"/><path class="cls-8" d="M120.21,34.56h.06s.04,0,.05-.01c.02-.02,.03-.05,.04-.09,0-.05,.01-.16,.02-.34,.09,.08,.2,.14,.32,.18,0,.23-.03,.38-.05,.45-.03,.08-.08,.14-.14,.18-.05,.03-.13,.05-.22,.05h-.2c-.13,0-.23-.04-.3-.11-.07-.07-.1-.2-.1-.4v-.11l-.21,.29c-.11-.09-.2-.16-.28-.21-.14,.24-.34,.46-.62,.63-.04-.05-.11-.11-.2-.2v.05c-.64,.05-1.36,.09-2.16,.13l-.03-.33c.06,0,.15,0,.28,0,.26,0,.46-.02,.6-.02v-.17h-.64v-.29h.64v-.24h.38s-.02-.11-.02-.2v-.06h-.34c-.06,.2-.21,.34-.45,.42-.09,.03-.2,.06-.33,.08-.04-.09-.1-.18-.18-.25h-.02c.31-.05,.5-.13,.57-.23,0,0,.01-.02,.01-.02h-.48v-.3h.84v-.14h-.61v-.29h.61v-.12h.5v.12h.61v.29h-.61v.14h.83v.3h-.62v.06c.02,.06,.04,.09,.07,.1h.19s.08-.03,.09-.08c0-.02,0-.03,0-.05,.06,.04,.15,.07,.28,.1-.02,.15-.08,.24-.19,.27-.04,0-.08,0-.12,0h-.29c-.11,0-.19,0-.24-.03v.12h.65v.29h-.65v.14c.2,0,.48-.02,.82-.04v.03c.18-.14,.32-.29,.41-.45-.17-.09-.31-.16-.42-.21l.25-.32c.16,.06,.27,.11,.32,.13,.01-.06,.02-.13,.03-.19h-.5v-.42h.51v-.3h.44v.3h.73v1.19c0,.09,0,.14,0,.15,.01,.02,.03,.02,.04,.02Zm-4.08,1.37v-.35h4.48v.35h-.97c.33,.18,.6,.35,.8,.53l-.41,.25c-.08-.08-.18-.16-.29-.24-1.09,.07-2.18,.13-3.26,.19l-.06-.39c.06,0,.14,0,.26,0,.17,0,.3,0,.4,0,.08-.12,.15-.23,.2-.32h-1.14Zm1.13-3.08v-.16h-1.11v-.42h1.11v-.27h.57v.27h1.07v-.27h.58v.27h1.13v.42h-1.13v.16h-.58v-.16h-1.07v.16h-.57Zm-.5,2.24h3.27v.35h-3.27v-.35Zm2.36,.84h-1.27c-.05,.06-.12,.16-.23,.3,.34-.01,.88-.04,1.62-.07-.17-.09-.26-.14-.27-.14l.16-.09Zm.56-2.32h-.27c0,.14-.03,.28-.06,.41,.13,.07,.24,.15,.33,.22v-.63Z"/><path class="cls-8" d="M124.56,33.54h-.69v3.12h-.55v-3.12h-.62v-.16c-.1,.21-.2,.38-.3,.53v2.76h-.55v-2.03c-.17,.18-.27,.29-.31,.32-.08-.19-.18-.36-.29-.51,0-.02-.02-.03-.03-.04,.36-.3,.67-.69,.92-1.16,.04-.07,.07-.14,.1-.2l.46,.15v-.2h.62v-1h.55v1h.69v.54Zm-2.43-1.53l.53,.19c-.24,.4-.55,.77-.93,1.09-.05,.04-.09,.08-.14,.11-.1-.18-.2-.33-.3-.44,.28-.21,.53-.48,.74-.79,.04-.06,.07-.11,.1-.16Zm.58,2.7v-.77h.4v.78c0,.59-.08,1.02-.24,1.31l-.06,.1c-.1-.11-.21-.2-.34-.27h-.01c.18-.26,.26-.64,.26-1.15Zm1.97-1.95l-.41,.18c-.05-.2-.16-.44-.33-.72l.39-.16c.17,.29,.29,.52,.34,.7Zm-.18,2.71h.04s.05,0,.06-.02c0-.02,.02-.06,.03-.12,0-.06,0-.22,.02-.45,.06,.05,.15,.1,.27,.14,0,.25-.02,.43-.04,.55-.03,.09-.07,.15-.12,.2-.05,.04-.11,.06-.2,.06h-.16c-.12,0-.2-.04-.26-.1-.05-.06-.08-.17-.09-.35v-1.43h.41v1.35c0,.09,0,.14,0,.15,.01,.02,.03,.02,.04,.02Zm1.48-1.81v.53h-.36v1.87c0,.24-.05,.4-.15,.48-.02,.02-.04,.03-.06,.04-.13,.07-.36,.1-.69,.1-.02-.17-.07-.35-.15-.56,.12,0,.26,0,.42,0,.05,0,.08-.03,.08-.07v-1.86h-.46v-.53h1.36Zm-.09-1.38v.52h-1.17v-.52h1.17Z"/><path class="cls-8" d="M127.68,32.02l.58,.18c-.14,.36-.29,.7-.48,1.04v3.42h-.6v-2.5c-.05,.06-.15,.18-.31,.36-.07-.2-.17-.39-.3-.59,0-.02-.02-.03-.03-.04,.39-.38,.72-.88,.99-1.49,.06-.13,.11-.25,.15-.38Zm3.58,1.36h-1.42v.53h1.3v.54h-1.3v.57h1.36v.55h-1.36v1.11h-.61v-3.29h-.19c-.2,.37-.42,.7-.66,.97-.1-.12-.24-.26-.43-.4,0,0-.02-.01-.02-.02,.37-.38,.69-.89,.94-1.54,.04-.12,.09-.23,.12-.35l.58,.15c-.06,.19-.14,.4-.24,.62h1.94v.56Z"/><path class="cls-8" d="M131.91,36.67v-2.25h1.9v2.23h-.6v-.22h-.75v.25h-.56Zm1.31-1.68h-.75v.86h.75v-.86Zm2.31-2.79v1.81h-2.93v-1.81h2.93Zm-.61,1.25v-.68h-1.75v.68h1.75Zm-.68,.98h1.96v2.23h-.6v-.23h-.79v.25h-.57v-2.25Zm.57,1.43h.79v-.86h-.79v.86Z"/><path class="cls-8" d="M105.9,41.48v-2.8h1.07c.17,0,.32,.03,.45,.1,.13,.07,.24,.16,.31,.28,.08,.12,.12,.27,.12,.44v.05c0,.17-.04,.31-.12,.43-.08,.12-.19,.21-.32,.28-.13,.06-.28,.1-.45,.1h-.73v1.13h-.34Zm.34-1.43h.7c.18,0,.32-.04,.42-.13s.16-.22,.16-.38v-.04c0-.16-.05-.29-.15-.38-.1-.09-.24-.13-.43-.13h-.7v1.06Z"/><path class="cls-8" d="M109.54,41.53c-.21,0-.39-.04-.54-.11s-.27-.19-.36-.33-.13-.33-.13-.55v-1.86h.33v1.87c0,.23,.06,.4,.19,.52,.12,.11,.29,.17,.52,.17s.39-.06,.52-.17,.18-.29,.18-.52v-1.87h.34v1.86c0,.22-.04,.4-.13,.55-.09,.15-.21,.26-.36,.33s-.34,.11-.54,.11Z"/><path class="cls-8" d="M111.26,41.48v-.3h.39v-2.2h-.39v-.3h1.4c.16,0,.31,.03,.43,.09s.22,.14,.3,.25c.07,.1,.11,.23,.11,.37v.03c0,.13-.03,.24-.08,.32s-.11,.15-.18,.2c-.07,.05-.14,.08-.21,.1v.06c.07,.02,.14,.05,.21,.09s.13,.11,.18,.2c.05,.09,.07,.19,.07,.32v.04c0,.15-.04,.28-.11,.39-.07,.11-.17,.19-.3,.25-.13,.06-.27,.09-.43,.09h-1.4Zm.73-1.56h.65c.16,0,.29-.04,.38-.12,.1-.08,.14-.19,.14-.32v-.04c0-.14-.05-.24-.14-.33-.09-.08-.22-.12-.38-.12h-.65v.93Zm0,1.26h.63c.18,0,.31-.04,.4-.12,.09-.08,.14-.19,.14-.34v-.04c0-.14-.05-.25-.14-.34-.09-.08-.23-.12-.4-.12h-.63v.96Z"/><path class="cls-8" d="M114.23,41.48v-2.8h.34v2.5h1.42v.3h-1.75Z"/><path class="cls-8" d="M116.64,41.48v-2.8h.34v2.8h-.34Z"/><path class="cls-8" d="M118.82,41.53c-.33,0-.6-.1-.8-.29s-.29-.48-.29-.85v-.64c0-.37,.1-.65,.29-.85s.46-.29,.8-.29,.58,.09,.76,.28,.27,.44,.27,.76v.02h-.33v-.03c0-.21-.06-.38-.17-.52s-.29-.2-.53-.2-.42,.07-.56,.22-.2,.35-.2,.61v.66c0,.26,.07,.46,.2,.61s.32,.22,.56,.22,.41-.07,.53-.2c.11-.13,.17-.31,.17-.52v-.06h.33v.05c0,.32-.09,.57-.27,.76-.18,.18-.43,.28-.76,.28Z"/><path class="cls-8" d="M121.35,41.48l.87-2.8h.59l.86,2.8h-.35l-.21-.71h-1.19l-.21,.71h-.35Zm.65-1.01h1.02l-.48-1.58h-.06l-.48,1.58Z"/><path class="cls-8" d="M124.32,41.48v-2.8h1.13c.17,0,.33,.03,.46,.09,.13,.06,.23,.15,.31,.26,.08,.11,.11,.24,.11,.4v.04c0,.18-.04,.33-.13,.44-.09,.11-.19,.18-.31,.22v.06c.1,0,.18,.03,.24,.09s.09,.15,.09,.27v.94h-.33v-.9c0-.08-.02-.14-.06-.18-.04-.04-.11-.06-.2-.06h-.97v1.15h-.34Zm.34-1.45h.76c.18,0,.33-.04,.43-.13s.15-.21,.15-.37v-.03c0-.16-.05-.28-.15-.37-.1-.09-.24-.13-.43-.13h-.76v1.04Z"/><path class="cls-8" d="M127.77,41.48v-2.5h-.9v-.3h2.14v.3h-.9v2.5h-.34Z"/><path class="cls-8" d="M130.02,41.48l-.46-2.8h.34l.4,2.58h.05l.52-2.58h.6l.51,2.58h.06l.39-2.58h.34l-.46,2.8h-.6l-.52-2.6h-.06l-.52,2.6h-.61Z"/><path class="cls-8" d="M134.43,41.53c-.33,0-.6-.1-.8-.29s-.3-.48-.3-.85v-.64c0-.37,.1-.65,.3-.85s.46-.29,.8-.29,.6,.1,.8,.29c.2,.19,.3,.48,.3,.85v.64c0,.37-.1,.65-.3,.85-.2,.19-.46,.29-.8,.29Zm0-.3c.24,0,.43-.07,.56-.22,.13-.15,.2-.35,.2-.61v-.66c0-.26-.07-.46-.2-.61-.13-.15-.32-.22-.56-.22s-.43,.07-.56,.22-.2,.35-.2,.61v.66c0,.26,.07,.46,.2,.61s.32,.22,.56,.22Z"/><path class="cls-8" d="M136.28,41.48v-2.8h1.13c.17,0,.33,.03,.46,.09,.13,.06,.23,.15,.31,.26,.08,.11,.11,.24,.11,.4v.04c0,.18-.04,.33-.13,.44-.09,.11-.19,.18-.31,.22v.06c.1,0,.18,.03,.24,.09s.09,.15,.09,.27v.94h-.33v-.9c0-.08-.02-.14-.06-.18-.04-.04-.11-.06-.2-.06h-.97v1.15h-.34Zm.34-1.45h.76c.18,0,.33-.04,.43-.13s.15-.21,.15-.37v-.03c0-.16-.05-.28-.15-.37-.1-.09-.24-.13-.43-.13h-.76v1.04Z"/><path class="cls-8" d="M139.01,41.48v-2.8h.34v1.22h.05l1.19-1.22h.45l-1.36,1.38,1.41,1.42h-.46l-1.22-1.24h-.05v1.24h-.34Z"/><path class="cls-8" d="M142.51,41.53c-.2,0-.38-.04-.54-.11-.16-.07-.29-.18-.38-.33s-.14-.33-.14-.55v-.08h.33v.08c0,.23,.07,.4,.2,.52,.14,.11,.31,.17,.53,.17s.38-.05,.5-.15c.11-.1,.17-.22,.17-.37,0-.1-.03-.19-.08-.25s-.12-.11-.22-.15-.2-.07-.33-.1l-.21-.05c-.16-.04-.31-.09-.43-.16-.13-.06-.22-.14-.29-.24s-.11-.23-.11-.39,.04-.29,.12-.41c.08-.11,.19-.2,.33-.26,.14-.06,.31-.09,.49-.09s.36,.03,.51,.1,.27,.16,.36,.29c.09,.13,.13,.29,.13,.48v.17h-.33v-.17c0-.14-.03-.25-.09-.33-.06-.08-.13-.14-.24-.18-.1-.04-.21-.06-.34-.06-.18,0-.33,.04-.44,.12-.11,.08-.17,.2-.17,.35,0,.1,.02,.18,.07,.24,.05,.06,.12,.11,.2,.15s.19,.07,.32,.1l.21,.05c.16,.03,.31,.08,.44,.14,.13,.06,.23,.14,.31,.24,.08,.1,.12,.24,.12,.4s-.04,.31-.12,.43c-.08,.12-.2,.22-.35,.29s-.33,.1-.53,.1Z"/></g><rect class="cls-8" x="91.14" y="32.29" width="9.56" height="9.56"/></g><g><g><path class="cls-8" d="M106.91,56.57l-.34,.49c-.19-.17-.47-.34-.85-.51-.02,0-.03-.01-.04-.02l.31-.44c.41,.15,.72,.31,.91,.47h.01Zm-.21,.8l.45,.37c-.26,.56-.54,1.09-.83,1.6l-.52-.37c.33-.5,.62-1.03,.9-1.6Zm.48-2.12l-.35,.49c-.17-.17-.44-.34-.81-.5-.03-.01-.05-.02-.07-.03l.33-.44c.39,.16,.69,.32,.89,.48,0,0,0,0,0,0Zm.36,2.36v-.46h.53v.49c0,.59-.13,1.06-.39,1.4-.1,.13-.22,.25-.36,.36-.08-.12-.2-.24-.37-.36-.02-.01-.04-.02-.05-.03,.4-.28,.61-.69,.63-1.24,0-.05,0-.1,0-.16Zm-.39-2.27h1.21v-.6h.61v.6h1.33v.53h-1.62c-.14,.26-.25,.45-.31,.57,.31,0,.63-.02,.94-.03-.02-.02-.06-.06-.1-.11-.07-.07-.12-.13-.15-.16l.46-.24c.34,.33,.61,.64,.8,.94,.03,.04,.05,.07,.06,.11l-.5,.27c-.04-.08-.1-.19-.19-.32-.71,.04-1.52,.08-2.45,.13l-.06-.56c.06,0,.15,0,.29,0,.12,0,.22,0,.28,0,.12-.27,.21-.47,.25-.59h-.85v-.53Zm1.21,3.85v-2h.52v2h-.52Zm1.44-.33h.08s.05,0,.06-.02c.02-.02,.03-.06,.04-.13,0-.07,0-.23,.01-.48,.12,.1,.26,.18,.4,.22-.01,.29-.03,.48-.06,.58-.03,.1-.09,.18-.17,.22-.08,.05-.17,.07-.27,.07h-.25c-.14,0-.26-.05-.34-.13-.07-.07-.11-.21-.11-.42v-1.64h.54v1.55c0,.08,0,.12,0,.14,.01,.01,.03,.02,.06,.02Z"/><path class="cls-8" d="M114.49,55.85h1.02s0,.09,0,.26c-.03,1.47-.08,2.37-.14,2.69-.03,.15-.07,.25-.11,.31-.09,.12-.21,.2-.35,.24-.02,0-.03,0-.04,0-.1,.02-.31,.03-.62,.02h0c-.01-.2-.07-.39-.18-.57,.18,.02,.35,.02,.5,.02,.08,0,.13-.03,.17-.08,.08-.11,.14-.65,.17-1.64,0-.21,0-.45,.01-.72h-.45c-.05,.96-.2,1.7-.46,2.21-.17,.33-.39,.6-.67,.83-.08-.14-.2-.27-.35-.4-1.1,.11-1.76,.18-1.98,.2l-.07-.5c.4-.03,.74-.05,1.02-.07v-.3h-.88v-.42h.88v-.2h-.86v-1.54h.86v-.2h-.99v-.43h.99v-.2c-.32,.02-.6,.04-.84,.04-.02-.14-.07-.28-.13-.42,.92-.05,1.64-.13,2.15-.24l.26,.44c-.29,.06-.59,.1-.9,.14v.24h.96v.27h.47c0-.22,0-.57,0-1.04h.57c0,.48,0,.82,0,1.04Zm-2.92,.73v.22h.39v-.22h-.39Zm0,.8h.39v-.22h-.39v.22Zm.93,.99v.25c.23-.02,.52-.04,.87-.07,.29-.4,.47-.99,.53-1.76,0-.12,.01-.25,.02-.39h-.45v-.39h-.96v.2h.89v1.54h-.89v.2h.91v.42h-.91Zm0-1.56h.39v-.22h-.39v.22Zm.39,.35h-.39v.22h.39v-.22Z"/><path class="cls-8" d="M118.91,55.15h1.81v.52h-3.68v.92c0,1.27-.16,2.21-.47,2.81-.13-.12-.28-.22-.45-.3-.01,0-.02-.01-.03-.01,.26-.51,.39-1.3,.4-2.39v-1.54h1.81v-.42h.62v.42Zm-.08,3.3h-.27c.25,.27,.42,.47,.5,.61l-.43,.3c-.09-.17-.26-.39-.51-.66l.37-.24h-.87l.42,.23c-.18,.24-.41,.46-.7,.65-.05,.03-.09,.06-.13,.08-.1-.11-.23-.22-.39-.33,.26-.13,.48-.32,.68-.56,.02-.03,.04-.06,.06-.08h-.28v-2.54h1.55v2.54Zm-.5-1.82v-.31h-.56v.31h.56Zm0,.69v-.3h-.56v.3h.56Zm0,.71v-.32h-.56v.32h.56Zm1.31-2v2.29h-.52v-2.29h.52Zm.4,2.73v-2.9h.54v2.9c0,.24-.05,.4-.16,.48-.03,.02-.05,.04-.08,.05-.14,.06-.42,.09-.84,.09-.03-.18-.09-.35-.18-.54,.26,0,.46,.01,.61,.01,.07,0,.1-.04,.11-.1Z"/><path class="cls-8" d="M123.56,57.65h-1.43c-.06,.72-.21,1.29-.43,1.7-.07-.11-.19-.23-.36-.34-.04-.03-.08-.05-.11-.06,.23-.44,.34-1.12,.35-2.04v-1.78l.31,.08c.55-.13,.96-.28,1.25-.43l.47,.45c-.39,.17-.87,.32-1.45,.43v.29h1.4v1.69Zm-.58-1.17h-.82v.36c0,.12,0,.21,0,.28h.83v-.63Zm3-.07v.58h-.44v2.41h-.59v-2.41h-.58c-.06,1.06-.36,1.86-.9,2.4-.07-.11-.18-.22-.33-.33-.04-.03-.08-.05-.11-.07,.48-.48,.73-1.19,.76-2.13,0-.09,0-.2,0-.3v-1.38l.41,.09c.54-.16,.95-.32,1.22-.49l.52,.45c-.43,.21-.95,.39-1.57,.54v.65h1.6Z"/><path class="cls-8" d="M127.43,59.97c-.48-.79-.73-1.61-.75-2.47v-.12c0-.9,.25-1.77,.75-2.58l.46,.2c-.41,.71-.61,1.51-.61,2.39,0,.89,.21,1.69,.61,2.4l-.46,.2Z"/><path class="cls-8" d="M130.35,54.72h.59c.47,.48,1.07,.85,1.81,1.11,.11,.04,.22,.07,.33,.1-.13,.14-.24,.31-.35,.52-.36-.14-.72-.31-1.07-.51v.27h-1.93v-.28c-.37,.22-.74,.4-1.09,.54-.09-.19-.2-.35-.32-.48,.6-.2,1.14-.49,1.63-.87,.17-.13,.3-.26,.42-.39Zm1.44,1.76l.47,.17c-.17,.32-.35,.63-.55,.94h.63v1.81h-.62v-.17h-2.07v.17h-.59v-1.81h1.93s.11-.18,.32-.54c0,0,.01-.02,.01-.02h-2.34v-.52h2.68l.1-.02Zm-.06,2.24v-.62h-2.07v.62h2.07Zm-1.68-3h1.25c-.27-.18-.48-.35-.64-.51-.14,.15-.35,.32-.62,.51Z"/><path class="cls-8" d="M134.38,56.41v-.36c-.13,.12-.23,.21-.29,.26-.15-.14-.31-.27-.48-.39,.35-.23,.65-.54,.9-.94,.05-.08,.1-.17,.14-.25l.58,.17c-.05,.11-.11,.22-.19,.35h3v.53h-.47v.64h.65v.53h-.65v.63h.58v.53h-4.34v-.53h.59v-.63h-.67v-.53h.67Zm-.15,2.99l-.57-.23c.21-.2,.38-.47,.51-.83,.02-.05,.04-.09,.05-.14l.57,.14c-.12,.41-.3,.75-.54,1.02,0,.01-.02,.02-.03,.03Zm.68-3.63v.64h.36v-.64h-.36Zm0,1.17v.63h.36v-.63h-.36Zm.21,1.45l.56-.06c.07,.38,.11,.69,.12,.93l-.58,.09c0-.29-.03-.61-.09-.96Zm.64-1.97h.37v-.64h-.37v.64Zm.37,.53h-.37v.63h.37v-.63Zm-.02,1.46l.56-.09c.15,.35,.24,.66,.29,.93l-.6,.12c-.03-.27-.12-.58-.25-.95Zm.9-1.98v-.64h-.38v.64h.38Zm0,1.16v-.63h-.38v.63h.38Zm.09,.8l.57-.18c.29,.4,.5,.73,.63,1l-.61,.21c-.11-.26-.3-.61-.59-1.03Z"/><path class="cls-8" d="M140.19,54.92l.39,.22c-.23,.74-.37,1.19-.43,1.36,.24,.31,.37,.65,.37,1.01,0,.32-.08,.53-.22,.64-.08,.05-.18,.09-.29,.11-.1,0-.2,.01-.32,0,0-.19-.05-.36-.13-.51,.06,0,.13,0,.22,0,.06,0,.11-.02,.14-.04,.05-.04,.07-.13,.07-.28,0-.31-.12-.61-.34-.88,.09-.29,.18-.65,.28-1.09h-.39v3.93h-.51v-4.45h1.08l.08-.02Zm3.29,3.3v.47h-1.25v.71h-.58v-.71h-1.24v-.47h1.24v-.25h-.93v-1.48h2.48v1.48h-.97v.25h1.25Zm-3.02-2.4h.64c-.03-.12-.07-.22-.11-.31h-.37v-.46h1.03v-.31h.58v.31h1.13v.46h-.42c-.05,.11-.11,.21-.17,.31h.67v.46h-3v-.46Zm.8,1.03v.21h1.4v-.21h-1.4Zm0,.55v.21h1.4v-.21h-1.4Zm.38-1.58h.6c.07-.15,.11-.25,.13-.31h-.83c.05,.12,.08,.22,.09,.31Z"/><path class="cls-8" d="M148.03,58.02v.82c.1,.02,.18,.03,.26,.03,.22,0,.37,0,.44,0-.06,.13-.11,.28-.14,.47h-.35c-.41,0-.72-.15-.93-.45-.03-.04-.06-.08-.08-.13-.08,.26-.19,.47-.35,.64-.06-.12-.16-.22-.28-.31h-.02c.1-.13,.18-.26,.23-.41l-.27,.22c-.05-.09-.11-.18-.17-.27-.13,.31-.33,.57-.59,.77-.09-.13-.2-.24-.31-.31,.34-.24,.54-.58,.6-1.04h-.46v-.43h.48v-.44h-.07c-.05,.12-.11,.24-.18,.35-.12-.07-.23-.13-.32-.17v1.38h-.76v.37h-.46v-1.21c-.06,.09-.09,.15-.11,.18-.06-.18-.14-.36-.25-.55,0-.01-.01-.02-.02-.03,.26-.43,.44-1.11,.54-2.04h-.42v-.52h1.53v.52h-.58c-.05,.35-.1,.69-.18,1.02h.71v.76c.14-.24,.24-.54,.3-.9l.42,.09s-.04,.15-.08,.33h.69v.43h-.32v.44h.36v.43h-.39c0,.05-.01,.09-.01,.12,.14,.15,.25,.29,.33,.43,.09-.28,.15-.71,.16-1.29h.42c0,.27-.02,.52-.04,.75,.05,.18,.12,.33,.2,.44v-1.63h-.66v-.45h1.09c-.2-.21-.51-.42-.94-.66h-.02c-.03,.29-.11,.47-.23,.54-.06,.03-.14,.05-.24,.05h-.42c-.23,0-.37-.06-.43-.17-.04-.08-.06-.21-.06-.38v-1.08h.44v.47c.21-.09,.39-.19,.55-.28l.28,.32v-.37h1.29l.1-.03,.31,.25c-.21,.29-.42,.55-.64,.76,.12,.08,.23,.17,.32,.25l-.29,.33h.29l.07-.02,.31,.09c-.06,.36-.12,.63-.17,.83l-.38-.12c.02-.13,.04-.24,.05-.33h-.19v.68h.58v.45h-.58Zm-2.96,.22v-1.24h-.29v1.24h.29Zm1.98-2.49l.28-.31c.06,.03,.17,.08,.33,.18,.09-.1,.17-.2,.24-.3h-.95v-.03c-.25,.11-.52,.21-.83,.31v.21c0,.07,.01,.12,.04,.13,.02,0,.05,0,.08,0h.3s.08-.03,.09-.09c0-.05,.02-.14,.02-.26,.08,.06,.21,.12,.4,.17h0Z"/><path class="cls-8" d="M152.06,55.15h1.81v.52h-3.68v.92c0,1.27-.16,2.21-.47,2.81-.13-.12-.28-.22-.45-.3-.01,0-.02-.01-.03-.01,.26-.51,.39-1.3,.4-2.39v-1.54h1.81v-.42h.62v.42Zm-.08,3.3h-.27c.25,.27,.42,.47,.5,.61l-.43,.3c-.09-.17-.26-.39-.51-.66l.37-.24h-.87l.42,.23c-.18,.24-.41,.46-.7,.65-.05,.03-.09,.06-.13,.08-.1-.11-.23-.22-.39-.33,.26-.13,.48-.32,.68-.56,.02-.03,.04-.06,.06-.08h-.28v-2.54h1.55v2.54Zm-.5-1.82v-.31h-.56v.31h.56Zm0,.69v-.3h-.56v.3h.56Zm0,.71v-.32h-.56v.32h.56Zm1.31-2v2.29h-.52v-2.29h.52Zm.4,2.73v-2.9h.54v2.9c0,.24-.05,.4-.16,.48-.03,.02-.05,.04-.08,.05-.14,.06-.42,.09-.84,.09-.03-.18-.09-.35-.18-.54,.26,0,.46,.01,.61,.01,.07,0,.1-.04,.11-.1Z"/><path class="cls-8" d="M156.71,57.65h-1.43c-.06,.72-.21,1.29-.43,1.7-.07-.11-.19-.23-.36-.34-.04-.03-.08-.05-.11-.06,.23-.44,.34-1.12,.35-2.04v-1.78l.31,.08c.55-.13,.96-.28,1.25-.43l.47,.45c-.39,.17-.87,.32-1.45,.43v.29h1.4v1.69Zm-.58-1.17h-.82v.36c0,.12,0,.21,0,.28h.83v-.63Zm3-.07v.58h-.44v2.41h-.59v-2.41h-.58c-.06,1.06-.36,1.86-.9,2.4-.07-.11-.18-.22-.33-.33-.04-.03-.08-.05-.11-.07,.48-.48,.73-1.19,.76-2.13,0-.09,0-.2,0-.3v-1.38l.41,.09c.54-.16,.95-.32,1.22-.49l.52,.45c-.43,.21-.95,.39-1.57,.54v.65h1.6Z"/><path class="cls-8" d="M160.03,59.97l-.45-.2c.41-.71,.61-1.51,.61-2.4,0-.88-.21-1.68-.61-2.39l.45-.2c.5,.82,.75,1.68,.75,2.58s-.23,1.72-.7,2.51c-.02,.03-.03,.06-.05,.08Z"/><path class="cls-8" d="M105.84,64.2v-2.8h1.07c.17,0,.32,.03,.45,.1,.13,.07,.24,.16,.31,.28,.08,.12,.12,.27,.12,.44v.05c0,.17-.04,.31-.12,.43-.08,.12-.18,.21-.32,.28s-.28,.1-.44,.1h-.74v1.13h-.34Zm.34-1.43h.7c.18,0,.32-.04,.42-.13,.1-.09,.16-.22,.16-.38v-.04c0-.16-.05-.29-.15-.38s-.25-.13-.43-.13h-.7v1.06Z"/><path class="cls-8" d="M109.39,64.26c-.33,0-.6-.1-.8-.29-.2-.19-.3-.48-.3-.85v-.64c0-.37,.1-.65,.3-.85,.2-.19,.46-.29,.8-.29s.6,.1,.8,.29c.2,.19,.3,.48,.3,.85v.64c0,.37-.1,.65-.3,.85-.2,.19-.47,.29-.8,.29Zm0-.3c.24,0,.43-.07,.56-.22,.13-.15,.2-.35,.2-.61v-.66c0-.26-.07-.46-.2-.61-.13-.15-.32-.22-.56-.22s-.43,.07-.56,.22c-.13,.15-.2,.35-.2,.61v.66c0,.26,.07,.46,.2,.61,.13,.15,.32,.22,.56,.22Z"/><path class="cls-8" d="M111.12,64.2v-2.8h1.13c.17,0,.33,.03,.46,.09s.24,.15,.31,.26c.08,.11,.11,.24,.11,.4v.04c0,.18-.04,.33-.13,.44-.09,.11-.19,.18-.31,.22v.06c.1,0,.18,.03,.24,.09s.09,.15,.09,.27v.94h-.33v-.9c0-.08-.02-.14-.07-.18s-.11-.06-.2-.06h-.97v1.15h-.34Zm.34-1.45h.76c.18,0,.33-.04,.43-.13,.1-.09,.15-.21,.15-.37v-.03c0-.16-.05-.28-.15-.37s-.24-.13-.43-.13h-.76v1.04Z"/><path class="cls-8" d="M114.45,64.2v-2.5h-.9v-.3h2.14v.3h-.9v2.5h-.34Z"/><path class="cls-8" d="M115.76,64.2l.86-2.8h.59l.86,2.8h-.35l-.22-.71h-1.19l-.22,.71h-.35Zm.65-1.01h1.02l-.48-1.58h-.06l-.48,1.58Z"/><path class="cls-8" d="M118.53,64.2v-.3h.39v-2.2h-.39v-.3h1.4c.16,0,.31,.03,.43,.09,.13,.06,.22,.14,.3,.25,.07,.1,.11,.23,.11,.37v.03c0,.13-.03,.24-.08,.32-.05,.08-.11,.15-.18,.2-.07,.05-.14,.08-.2,.1v.06c.07,.02,.14,.05,.21,.09,.07,.05,.13,.11,.18,.2,.05,.09,.07,.19,.07,.32v.04c0,.15-.04,.28-.11,.39-.07,.11-.17,.19-.3,.25-.13,.06-.27,.09-.43,.09h-1.4Zm.73-1.56h.65c.16,0,.29-.04,.38-.12,.1-.08,.14-.19,.14-.32v-.04c0-.14-.05-.24-.14-.33-.09-.08-.22-.12-.39-.12h-.65v.93Zm0,1.26h.64c.18,0,.31-.04,.4-.12,.09-.08,.14-.19,.14-.34v-.04c0-.14-.05-.25-.14-.34-.09-.08-.23-.12-.4-.12h-.64v.96Z"/><path class="cls-8" d="M121.38,64.2v-2.8h.34v2.5h1.42v.3h-1.75Z"/><path class="cls-8" d="M123.67,64.2v-2.8h1.72v.3h-1.39v.94h1.28v.3h-1.28v.95h1.41v.3h-1.74Z"/><path class="cls-8" d="M127.56,64.2v-2.5h-.9v-.3h2.14v.3h-.9v2.5h-.34Z"/><path class="cls-8" d="M130.3,64.26c-.33,0-.6-.1-.8-.29-.2-.19-.3-.48-.3-.85v-.64c0-.37,.1-.65,.3-.85,.2-.19,.46-.29,.8-.29s.6,.1,.8,.29c.2,.19,.3,.48,.3,.85v.64c0,.37-.1,.65-.3,.85-.2,.19-.47,.29-.8,.29Zm0-.3c.24,0,.43-.07,.56-.22,.13-.15,.2-.35,.2-.61v-.66c0-.26-.07-.46-.2-.61-.13-.15-.32-.22-.56-.22s-.43,.07-.56,.22c-.13,.15-.2,.35-.2,.61v.66c0,.26,.07,.46,.2,.61,.13,.15,.32,.22,.56,.22Z"/><path class="cls-8" d="M132.03,64.2v-2.8h.34v2.8h-.34Z"/><path class="cls-8" d="M133.07,64.2v-2.8h.34v2.5h1.42v.3h-1.75Z"/><path class="cls-8" d="M135.36,64.2v-2.8h1.72v.3h-1.39v.94h1.28v.3h-1.28v.95h1.41v.3h-1.74Z"/><path class="cls-8" d="M138.45,64.2v-2.5h-.9v-.3h2.14v.3h-.9v2.5h-.34Z"/><path class="cls-8" d="M141.74,64.2c-.15,0-.29-.03-.42-.09s-.22-.14-.3-.25-.11-.24-.11-.4c0-.12,.02-.22,.07-.31,.04-.09,.1-.16,.18-.22,.07-.06,.15-.1,.23-.13v-.04c-.12-.04-.23-.11-.32-.21s-.14-.24-.14-.41c0-.16,.04-.3,.11-.41,.08-.11,.17-.2,.3-.25,.12-.06,.26-.08,.41-.08h.5v.27h-.46c-.15,0-.28,.04-.38,.12-.1,.08-.15,.2-.15,.37,0,.11,.02,.2,.07,.28,.05,.07,.11,.12,.19,.16s.17,.05,.26,.05h.55v-.43h.32v.43h.39v.28h-.39v1.28h-.92Zm.04-.27h.57v-1h-.57c-.15,0-.28,.04-.39,.12-.11,.08-.16,.21-.16,.38s.05,.3,.16,.38c.11,.08,.24,.12,.38,.12Z"/><path class="cls-8" d="M105.62,69.44l.86-2.8h.59l.86,2.8h-.35l-.22-.71h-1.19l-.22,.71h-.35Zm.65-1.01h1.02l-.48-1.58h-.06l-.48,1.58Z"/><path class="cls-8" d="M109.41,69.49c-.33,0-.6-.1-.8-.29s-.3-.48-.3-.85v-.64c0-.37,.1-.65,.3-.85s.46-.29,.8-.29,.58,.09,.76,.28c.18,.18,.27,.44,.27,.76v.02h-.33v-.03c0-.21-.06-.38-.17-.52-.11-.13-.29-.2-.53-.2s-.42,.07-.56,.22c-.13,.15-.2,.35-.2,.61v.66c0,.26,.07,.46,.2,.61,.13,.15,.32,.22,.56,.22s.41-.07,.53-.2c.11-.13,.17-.31,.17-.52v-.06h.33v.05c0,.32-.09,.57-.27,.76-.18,.18-.43,.28-.76,.28Z"/><path class="cls-8" d="M112.07,69.49c-.33,0-.6-.1-.8-.29s-.3-.48-.3-.85v-.64c0-.37,.1-.65,.3-.85s.46-.29,.8-.29,.58,.09,.76,.28c.18,.18,.27,.44,.27,.76v.02h-.33v-.03c0-.21-.06-.38-.17-.52-.11-.13-.29-.2-.53-.2s-.42,.07-.56,.22c-.13,.15-.2,.35-.2,.61v.66c0,.26,.07,.46,.2,.61,.13,.15,.32,.22,.56,.22s.41-.07,.53-.2c.11-.13,.17-.31,.17-.52v-.06h.33v.05c0,.32-.09,.57-.27,.76-.18,.18-.43,.28-.76,.28Z"/><path class="cls-8" d="M113.7,69.44v-2.8h1.72v.3h-1.39v.94h1.28v.3h-1.28v.95h1.41v.3h-1.74Z"/><path class="cls-8" d="M116.94,69.49c-.2,0-.38-.04-.54-.11-.16-.07-.29-.18-.38-.33s-.14-.33-.14-.55v-.08h.33v.08c0,.23,.07,.4,.2,.52,.14,.11,.31,.17,.52,.17s.39-.05,.5-.15,.17-.22,.17-.37c0-.1-.03-.19-.08-.25-.05-.06-.12-.11-.22-.15s-.2-.07-.33-.1l-.21-.05c-.16-.04-.31-.09-.43-.16-.13-.06-.22-.14-.29-.24-.07-.1-.11-.23-.11-.39s.04-.29,.12-.41,.19-.2,.33-.26c.14-.06,.31-.09,.49-.09s.36,.03,.51,.1,.27,.16,.36,.29c.09,.13,.13,.29,.13,.48v.17h-.33v-.17c0-.14-.03-.25-.09-.33-.06-.08-.14-.14-.24-.18-.1-.04-.21-.06-.34-.06-.18,0-.33,.04-.44,.12-.11,.08-.17,.2-.17,.35,0,.1,.02,.18,.07,.24s.12,.11,.2,.15,.19,.07,.32,.1l.21,.05c.16,.03,.31,.08,.44,.14,.13,.06,.23,.14,.31,.24,.08,.1,.12,.24,.12,.4s-.04,.31-.12,.43-.2,.22-.35,.29c-.15,.07-.33,.1-.53,.1Z"/><path class="cls-8" d="M119.52,69.49c-.2,0-.38-.04-.54-.11-.16-.07-.29-.18-.38-.33s-.14-.33-.14-.55v-.08h.33v.08c0,.23,.07,.4,.2,.52,.14,.11,.31,.17,.52,.17s.39-.05,.5-.15,.17-.22,.17-.37c0-.1-.03-.19-.08-.25-.05-.06-.12-.11-.22-.15s-.2-.07-.33-.1l-.21-.05c-.16-.04-.31-.09-.43-.16-.13-.06-.22-.14-.29-.24-.07-.1-.11-.23-.11-.39s.04-.29,.12-.41,.19-.2,.33-.26c.14-.06,.31-.09,.49-.09s.36,.03,.51,.1,.27,.16,.36,.29c.09,.13,.13,.29,.13,.48v.17h-.33v-.17c0-.14-.03-.25-.09-.33-.06-.08-.14-.14-.24-.18-.1-.04-.21-.06-.34-.06-.18,0-.33,.04-.44,.12-.11,.08-.17,.2-.17,.35,0,.1,.02,.18,.07,.24s.12,.11,.2,.15,.19,.07,.32,.1l.21,.05c.16,.03,.31,.08,.44,.14,.13,.06,.23,.14,.31,.24,.08,.1,.12,.24,.12,.4s-.04,.31-.12,.43-.2,.22-.35,.29c-.15,.07-.33,.1-.53,.1Z"/><path class="cls-8" d="M121.11,69.44v-2.8h.34v2.8h-.34Z"/><path class="cls-8" d="M122.02,69.44v-.3h.39v-2.2h-.39v-.3h1.4c.16,0,.31,.03,.43,.09,.13,.06,.22,.14,.3,.25,.07,.1,.11,.23,.11,.37v.03c0,.13-.03,.24-.08,.32-.05,.08-.11,.15-.18,.2-.07,.05-.14,.08-.2,.1v.06c.07,.02,.14,.05,.21,.09s.13,.11,.18,.2c.05,.09,.07,.19,.07,.32v.04c0,.15-.04,.28-.11,.39-.07,.11-.17,.19-.3,.25-.13,.06-.27,.09-.43,.09h-1.4Zm.73-1.56h.65c.16,0,.29-.04,.38-.12,.1-.08,.14-.19,.14-.32v-.04c0-.14-.05-.24-.14-.33-.09-.08-.22-.12-.39-.12h-.65v.93Zm0,1.26h.64c.18,0,.31-.04,.4-.12,.09-.08,.14-.19,.14-.34v-.04c0-.14-.05-.25-.14-.34-.09-.08-.23-.12-.4-.12h-.64v.96Z"/><path class="cls-8" d="M124.87,69.44v-2.8h.34v2.5h1.42v.3h-1.75Z"/><path class="cls-8" d="M127.16,69.44v-2.8h1.72v.3h-1.39v.94h1.28v.3h-1.28v.95h1.41v.3h-1.74Z"/><path class="cls-8" d="M131.05,69.44v-2.5h-.9v-.3h2.14v.3h-.9v2.5h-.34Z"/><path class="cls-8" d="M133.78,69.49c-.33,0-.6-.1-.8-.29-.2-.19-.3-.48-.3-.85v-.64c0-.37,.1-.65,.3-.85,.2-.19,.46-.29,.8-.29s.6,.1,.8,.29c.2,.19,.3,.48,.3,.85v.64c0,.37-.1,.65-.3,.85-.2,.19-.47,.29-.8,.29Zm0-.3c.24,0,.43-.07,.56-.22,.13-.15,.2-.35,.2-.61v-.66c0-.26-.07-.46-.2-.61-.13-.15-.32-.22-.56-.22s-.43,.07-.56,.22c-.13,.15-.2,.35-.2,.61v.66c0,.26,.07,.46,.2,.61,.13,.15,.32,.22,.56,.22Z"/><path class="cls-8" d="M135.52,69.44v-2.8h.34v2.8h-.34Z"/><path class="cls-8" d="M136.56,69.44v-2.8h.34v2.5h1.42v.3h-1.75Z"/><path class="cls-8" d="M138.84,69.44v-2.8h1.72v.3h-1.39v.94h1.28v.3h-1.28v.95h1.41v.3h-1.74Z"/><path class="cls-8" d="M141.94,69.44v-2.5h-.9v-.3h2.14v.3h-.9v2.5h-.34Z"/></g><g><path class="cls-7" d="M90.07,54.96h5.31c-.41-1.07-1.44-1.83-2.65-1.83s-2.24,.76-2.65,1.83Z"/><path class="cls-7" d="M95.86,54.96h5.31c-.41-1.07-1.44-1.83-2.65-1.83s-2.24,.76-2.65,1.83Z"/><path class="cls-7" d="M90.07,55.36v8.83h5.31v-8.83h-5.31Zm2.65,1.17c.22,0,.4,.18,.4,.4s-.18,.4-.4,.4-.4-.18-.4-.4,.18-.4,.4-.4Zm.65,4.69h-.42v1.79h-.46v-1.79h-.42v-3.44h1.3v3.44Z"/><path class="cls-7" d="M95.86,55.36v8.83h5.31v-8.83h-5.31Zm2.65,1.17c.22,0,.4,.18,.4,.4s-.18,.4-.4,.4-.4-.18-.4-.4,.18-.4,.4-.4Zm1.12,4.69h-.89v1.79h-.46v-1.79h-.89s-.11-1.03,.59-1.73v-1.73h1.05v1.73c.7,.7,.59,1.72,.59,1.72Z"/></g></g><g><g><path class="cls-8" d="M188.59,55.42v2.84h-.9v.42h-.51v-3.25h1.41Zm-.5,.54h-.4v1.75h.4v-1.75Zm3.59,.13h-1.26v.35h1.09v2.57c0,.21-.04,.35-.12,.43-.02,.02-.04,.04-.06,.05-.11,.06-.31,.09-.6,.09-.02-.17-.08-.34-.16-.51,.16,0,.26,0,.32,0,.04,0,.07-.03,.07-.07v-.46h-.54v1.02h-.57v-1.02h-.49v1.05h-.55v-3.15h1.04v-.35h-1.18v-.54h1.18v-.62h.57v.62h.6c-.16-.12-.31-.23-.45-.33l.32-.3c.26,.16,.47,.3,.63,.42l-.21,.21h.37v.54Zm-1.83,.85h-.49v.34h.49v-.34Zm-.49,1.14h.49v-.35h-.49v.35Zm1.6-1.14h-.54v.34h.54v-.34Zm-.54,1.14h.54v-.35h-.54v.35Z"/><path class="cls-8" d="M193.15,60.17c-.48-.79-.73-1.61-.75-2.47v-.12c0-.9,.25-1.77,.75-2.58l.46,.2c-.41,.71-.61,1.51-.61,2.39,0,.89,.21,1.69,.61,2.4l-.46,.2Z"/><path class="cls-8" d="M198.68,58.45h-1.48c.48,.27,1.01,.48,1.6,.61-.14,.13-.26,.29-.37,.47-.62-.17-1.19-.44-1.69-.8l-.03-.02v.87h-.58v-.85c-.48,.35-1.03,.62-1.65,.8-.03,0-.05,.02-.08,.02-.11-.18-.23-.34-.38-.49,.61-.13,1.16-.34,1.66-.62h-1.49v-.48h1.94v-.2h-1.38v-1.35c-.08,.08-.18,.16-.28,.24-.09-.13-.22-.26-.38-.37-.02-.01-.03-.02-.04-.03,.48-.35,.86-.77,1.14-1.27,.02-.03,.03-.06,.04-.08l.62,.11c-.05,.09-.14,.24-.27,.43h.71c.1-.21,.17-.39,.22-.54l.67,.08c-.04,.08-.13,.23-.27,.46h1.49v.46h-1.57v.21h1.32v.39h-1.32v.21h1.33v.39h-1.33v.21h1.71v.45h-1.84v.2h1.97v.48Zm-2.42-2.33v-.21h-.94v.21h.94Zm0,.6v-.21h-.94v.21h.94Zm-.94,.39v.21h.94v-.21h-.94Z"/><path class="cls-8" d="M199.69,60.17l-.45-.2c.41-.71,.61-1.51,.61-2.4,0-.88-.21-1.68-.61-2.39l.45-.2c.5,.82,.75,1.68,.75,2.58s-.23,1.72-.7,2.51c-.02,.03-.03,.06-.05,.08Z"/><path class="cls-8" d="M203.74,55.82c-.08,.14-.16,.29-.24,.43s-.16,.27-.24,.37l.32,.27c-.12,.12-.25,.25-.39,.38-.14,.13-.29,.25-.43,.37v.09l.93-.07v.54c-.16,.02-.31,.03-.47,.04-.16,.01-.31,.03-.47,.04v.71c0,.14-.02,.24-.05,.32s-.1,.14-.19,.19-.2,.07-.33,.08-.27,0-.43,0c-.01-.08-.04-.18-.08-.28-.04-.1-.08-.19-.12-.26,.05,0,.11,0,.16,0,.05,0,.1,0,.15,0h.2s.06,0,.07-.02c.01,0,.02-.03,.02-.06v-.65c-.18,.02-.34,.03-.5,.04s-.31,.02-.44,.03l-.06-.57c.14,0,.3-.02,.47-.03,.17,0,.35-.02,.53-.03v-.37h.16s.09-.08,.14-.13,.09-.1,.14-.15h-1.22v-.52h1.64l-.25-.11c.04-.06,.08-.12,.12-.2s.08-.15,.12-.23,.08-.16,.11-.24,.07-.16,.09-.23l.54,.21Zm-.07-.39c-.17,.04-.35,.08-.54,.11-.19,.03-.39,.06-.6,.09s-.41,.04-.62,.06c-.21,.01-.41,.03-.6,.04,0-.07-.02-.15-.05-.25s-.06-.17-.09-.24c.19-.01,.38-.03,.57-.05,.2-.02,.39-.04,.58-.07,.19-.02,.37-.05,.54-.09,.17-.03,.32-.07,.46-.1l.35,.49Zm-2.25,1.17c-.01-.09-.04-.21-.08-.34-.04-.13-.09-.25-.13-.36l.45-.12c.06,.11,.1,.23,.14,.35,.04,.13,.07,.24,.09,.33l-.47,.14Zm.74-.12s0-.1,0-.16-.01-.12-.02-.18-.02-.13-.03-.19-.03-.12-.04-.18l.47-.06c.04,.11,.07,.23,.09,.36s.04,.24,.05,.34l-.5,.08Zm2.93,2.51s.07-.01,.09-.04c.03-.03,.04-.08,.06-.15,.02-.07,.03-.17,.04-.3,0-.13,.01-.29,.02-.48,.08,.06,.17,.11,.27,.16s.2,.09,.28,.11c-.01,.23-.03,.42-.06,.58-.03,.16-.07,.29-.12,.39s-.12,.17-.21,.22-.19,.07-.32,.07h-.59c-.13,0-.25-.01-.33-.04-.09-.03-.16-.08-.21-.15-.05-.07-.09-.16-.11-.27-.02-.11-.03-.26-.03-.42v-3.64h.62v3.64c0,.13,.01,.22,.03,.26,.02,.04,.07,.06,.14,.06h.43Z"/><path class="cls-8" d="M208.95,58.93h1.94v.52h-4.43v-.52h1.88v-.39h-1.43v-.51h1.43v-.42c-.99,.03-1.49,.04-1.5,.04l-.02-.53h.71c.12-.26,.2-.42,.22-.48h-.72v-.36h-.55v-1.04h1.86v-.32h.61v.32h1.91v1.04h-.55v.36h-.62c.45,.33,.78,.62,.99,.87l-.47,.33c-.07-.09-.15-.19-.24-.28l-1.02,.03v.43h1.54v.51h-1.54v.39Zm1.31-3.14h-3.2v.36h3.2v-.36Zm-.79,.86h-1.04c-.04,.06-.09,.16-.18,.29-.05,.07-.08,.13-.1,.17l1.28-.02c-.08-.07-.18-.15-.28-.22l.32-.21Z"/><path class="cls-8" d="M187.03,64.4v-.3h.39v-2.2h-.39v-.3h1.4c.16,0,.31,.03,.43,.09,.13,.06,.22,.14,.3,.25,.07,.1,.11,.23,.11,.37v.03c0,.13-.03,.24-.08,.32-.05,.08-.11,.15-.18,.2-.07,.05-.14,.08-.2,.1v.06c.07,.02,.14,.05,.21,.09s.13,.11,.18,.2c.05,.09,.07,.19,.07,.32v.04c0,.15-.04,.28-.11,.39-.07,.11-.17,.19-.3,.25-.13,.06-.27,.09-.43,.09h-1.4Zm.73-1.56h.65c.16,0,.29-.04,.38-.12,.1-.08,.14-.19,.14-.32v-.04c0-.14-.05-.24-.14-.33-.09-.08-.22-.12-.39-.12h-.65v.93Zm0,1.26h.64c.18,0,.31-.04,.4-.12,.09-.08,.14-.19,.14-.34v-.04c0-.14-.05-.25-.14-.34-.09-.08-.23-.12-.4-.12h-.64v.96Z"/><path class="cls-8" d="M190,64.4v-2.8h1.13c.17,0,.33,.03,.46,.09s.24,.15,.31,.26c.08,.11,.11,.24,.11,.4v.04c0,.18-.04,.33-.13,.44-.09,.11-.19,.18-.31,.22v.06c.1,0,.18,.03,.24,.09s.09,.15,.09,.27v.94h-.33v-.9c0-.08-.02-.14-.07-.18s-.11-.06-.2-.06h-.97v1.15h-.34Zm.34-1.45h.76c.18,0,.33-.04,.43-.13,.1-.09,.15-.21,.15-.37v-.03c0-.16-.05-.28-.15-.37s-.24-.13-.43-.13h-.76v1.04Z"/><path class="cls-8" d="M192.72,64.4v-2.8h1.72v.3h-1.39v.94h1.28v.3h-1.28v.95h1.41v.3h-1.74Z"/><path class="cls-8" d="M195.04,64.4l.86-2.8h.59l.86,2.8h-.35l-.22-.71h-1.19l-.22,.71h-.35Zm.65-1.01h1.02l-.48-1.58h-.06l-.48,1.58Z"/><path class="cls-8" d="M198.91,64.45c-.2,0-.38-.04-.54-.11-.16-.07-.29-.18-.38-.33s-.14-.33-.14-.55v-.08h.33v.08c0,.23,.07,.4,.2,.52,.14,.11,.31,.17,.52,.17s.39-.05,.5-.15,.17-.22,.17-.37c0-.1-.03-.19-.08-.25-.05-.06-.12-.11-.22-.15s-.2-.07-.33-.1l-.21-.05c-.16-.04-.31-.09-.43-.16-.13-.06-.22-.14-.29-.24-.07-.1-.11-.23-.11-.39s.04-.29,.12-.41,.19-.2,.33-.26c.14-.06,.31-.09,.49-.09s.36,.03,.51,.1,.27,.16,.36,.29c.09,.13,.13,.29,.13,.48v.17h-.33v-.17c0-.14-.03-.25-.09-.33-.06-.08-.14-.14-.24-.18-.1-.04-.21-.06-.34-.06-.18,0-.33,.04-.44,.12-.11,.08-.17,.2-.17,.35,0,.1,.02,.18,.07,.24s.12,.11,.2,.15,.19,.07,.32,.1l.21,.05c.16,.03,.31,.08,.44,.14,.13,.06,.23,.14,.31,.24,.08,.1,.12,.24,.12,.4s-.04,.31-.12,.43-.2,.22-.35,.29c-.15,.07-.33,.1-.53,.1Z"/><path class="cls-8" d="M201.33,64.4v-2.5h-.9v-.3h2.14v.3h-.9v2.5h-.34Z"/><path class="cls-8" d="M203.22,64.4v-2.8h1.69v.3h-1.36v.94h1.25v.3h-1.25v1.25h-.34Z"/><path class="cls-8" d="M205.59,64.4v-2.8h1.72v.3h-1.39v.94h1.28v.3h-1.28v.95h1.41v.3h-1.74Z"/><path class="cls-8" d="M208.03,64.4v-2.8h1.72v.3h-1.39v.94h1.28v.3h-1.28v.95h1.41v.3h-1.74Z"/><path class="cls-8" d="M210.4,64.4v-.3h.39v-2.2h-.39v-.3h1.09c.37,0,.65,.09,.85,.28s.3,.47,.3,.86v.52c0,.39-.1,.68-.3,.86-.2,.19-.49,.28-.85,.28h-1.09Zm.73-.3h.36c.27,0,.48-.07,.62-.2,.14-.13,.21-.34,.21-.62v-.55c0-.29-.07-.49-.21-.62-.14-.13-.34-.2-.62-.2h-.36v2.19Z"/><path class="cls-8" d="M213.38,64.4v-2.8h.34v2.8h-.34Z"/><path class="cls-8" d="M214.54,64.4v-2.8h.65l.98,2.59h.05v-2.59h.33v2.8h-.65l-.97-2.59h-.06v2.59h-.33Z"/><path class="cls-8" d="M218.36,64.45c-.21,0-.39-.04-.55-.13-.16-.09-.28-.21-.37-.38-.09-.17-.13-.38-.13-.62v-.64c0-.37,.1-.65,.3-.85s.46-.29,.8-.29,.58,.09,.76,.27c.17,.18,.26,.42,.26,.73v.02h-.33v-.03c0-.13-.02-.25-.07-.36s-.12-.19-.22-.25-.23-.09-.39-.09c-.24,0-.42,.07-.56,.22-.13,.15-.2,.35-.2,.61v.66c0,.26,.07,.46,.2,.61,.13,.15,.32,.22,.56,.22s.41-.07,.52-.2c.11-.13,.17-.31,.17-.53v-.07h-.85v-.29h1.18v1.33h-.3v-.3h-.06c-.03,.06-.07,.12-.12,.17-.05,.06-.13,.1-.22,.14-.09,.03-.21,.05-.35,.05Z"/><path class="cls-8" d="M221.21,64.4v-2.8h1.13c.17,0,.33,.03,.46,.09s.24,.15,.31,.26c.08,.11,.11,.24,.11,.4v.04c0,.18-.04,.33-.13,.44-.09,.11-.19,.18-.31,.22v.06c.1,0,.18,.03,.24,.09s.09,.15,.09,.27v.94h-.33v-.9c0-.08-.02-.14-.07-.18s-.11-.06-.2-.06h-.97v1.15h-.34Zm.34-1.45h.76c.18,0,.33-.04,.43-.13,.1-.09,.15-.21,.15-.37v-.03c0-.16-.05-.28-.15-.37s-.24-.13-.43-.13h-.76v1.04Z"/><path class="cls-8" d="M224.98,64.45c-.33,0-.6-.1-.8-.29-.2-.19-.3-.48-.3-.85v-.64c0-.37,.1-.65,.3-.85,.2-.19,.46-.29,.8-.29s.6,.1,.8,.29c.2,.19,.3,.48,.3,.85v.64c0,.37-.1,.65-.3,.85-.2,.19-.47,.29-.8,.29Zm0-.3c.24,0,.43-.07,.56-.22,.13-.15,.2-.35,.2-.61v-.66c0-.26-.07-.46-.2-.61-.13-.15-.32-.22-.56-.22s-.43,.07-.56,.22c-.13,.15-.2,.35-.2,.61v.66c0,.26,.07,.46,.2,.61,.13,.15,.32,.22,.56,.22Z"/><path class="cls-8" d="M227.85,64.45c-.33,0-.6-.1-.8-.29-.2-.19-.3-.48-.3-.85v-.64c0-.37,.1-.65,.3-.85,.2-.19,.46-.29,.8-.29s.6,.1,.8,.29c.2,.19,.3,.48,.3,.85v.64c0,.37-.1,.65-.3,.85-.2,.19-.47,.29-.8,.29Zm0-.3c.24,0,.43-.07,.56-.22,.13-.15,.2-.35,.2-.61v-.66c0-.26-.07-.46-.2-.61-.13-.15-.32-.22-.56-.22s-.43,.07-.56,.22c-.13,.15-.2,.35-.2,.61v.66c0,.26,.07,.46,.2,.61,.13,.15,.32,.22,.56,.22Z"/><path class="cls-8" d="M229.71,64.4v-2.8h.64l.74,2.59h.05l.74-2.59h.64v2.8h-.32v-2.58h-.06l-.74,2.58h-.58l-.74-2.58h-.06v2.58h-.32Z"/></g><g><path class="cls-8" d="M179.23,65.18h-6.53c-.12,0-.22-.1-.22-.22v-7.05h1.17v6.1h4.62v-6.1h1.17v7.05c0,.12-.1,.22-.22,.22Z"/><path class="cls-8" d="M175.96,56.02c-.32,0-.59-.26-.59-.59v-1.72c0-.32,.26-.59,.59-.59s.59,.26,.59,.59v1.72c0,.32-.26,.59-.59,.59Z"/><rect class="cls-8" x="171.77" y="54.85" width="8.37" height="1.17" rx=".2" ry=".2"/><rect class="cls-8" x="172.99" y="58.73" width="2.76" height="1.17" rx=".2" ry=".2"/><rect class="cls-8" x="172.99" y="61.27" width="2.76" height="1.17" rx=".2" ry=".2"/><rect class="cls-8" x="171.69" y="57.74" width="2.76" height="1.17" rx=".2" ry=".2" transform="translate(231.39 -114.75) rotate(90)"/><rect class="cls-8" x="177.48" y="57.74" width="2.76" height="1.17" rx=".2" ry=".2" transform="translate(237.18 -120.54) rotate(90)"/></g></g></svg>