<?xml version="1.0" encoding="utf-8"?>
<!-- Generator: Adobe Illustrator 27.5.0, SVG Export Plug-In . SVG Version: 6.00 Build 0)  -->
<svg version="1.1" id="uuid-adc10ed8-d6d5-4ace-87e8-a1846fc139b6"
	 xmlns="http://www.w3.org/2000/svg" xmlns:xlink="http://www.w3.org/1999/xlink" x="0px" y="0px" viewBox="0 0 156.2 50.8"
	 style="enable-background:new 0 0 156.2 50.8;" xml:space="preserve">
<style type="text/css">
	.st0{enable-background:new    ;}
</style>
<g id="uuid-b2cfdcfb-5957-4a46-b215-132e92e74e03">
	<g>
		<g class="st0">
			<path d="M14.6,39.1c-3.7,0-6.7-1-8.9-3.1c-2.2-2.1-3.3-5.2-3.3-9.4v-7.9c0-4.1,1.1-7.2,3.3-9.3c2.2-2.1,5.2-3.2,8.9-3.2
				c3.7,0,6.7,1.1,8.9,3.2c2.2,2.1,3.3,5.2,3.3,9.3v7.9c0,4.2-1.1,7.3-3.3,9.4S18.4,39.1,14.6,39.1z M14.6,34.4c2.4,0,4.1-0.7,5.3-2
				c1.1-1.3,1.7-3.2,1.7-5.7v-8.3c0-2.5-0.6-4.4-1.9-5.7c-1.2-1.3-2.9-1.9-5.1-1.9c-2.2,0-4,0.7-5.2,2c-1.2,1.3-1.8,3.2-1.8,5.6v8.3
				c0,2.5,0.6,4.4,1.7,5.7C10.5,33.7,12.3,34.4,14.6,34.4z"/>
		</g>
		<g class="st0">
			<path d="M34.6,38.5v-1.2c0-1.1,0.1-2.1,0.3-2.9c0.2-0.8,0.6-1.7,1.2-2.8L47,12.2v-0.7H29.7V6.8h22.8V13L40.9,33.7
				c-0.4,0.7-0.7,1.3-0.8,1.8c-0.1,0.5-0.2,1.2-0.2,2v1H34.6z"/>
		</g>
		<g class="st0">
			<path d="M56.9,39.1c-1.1,0-2.1-0.4-2.9-1.1c-0.8-0.8-1.2-1.7-1.2-2.9c0-1.1,0.4-2.1,1.2-2.9c0.8-0.8,1.7-1.1,2.9-1.1
				c1.1,0,2.1,0.4,2.9,1.1c0.8,0.8,1.1,1.7,1.1,2.9c0,1.2-0.4,2.1-1.1,2.9C59,38.7,58.1,39.1,56.9,39.1z"/>
		</g>
		<g class="st0">
			<path d="M77.9,39.1c-3.7,0-6.7-1-8.9-3.1c-2.2-2.1-3.3-5.2-3.3-9.4v-7.9c0-4.1,1.1-7.2,3.3-9.3c2.2-2.1,5.2-3.2,8.9-3.2
				c3.7,0,6.7,1.1,8.9,3.2c2.2,2.1,3.3,5.2,3.3,9.3v7.9c0,4.2-1.1,7.3-3.3,9.4S81.7,39.1,77.9,39.1z M77.9,34.4c2.4,0,4.1-0.7,5.3-2
				c1.1-1.3,1.7-3.2,1.7-5.7v-8.3c0-2.5-0.6-4.4-1.9-5.7c-1.2-1.3-2.9-1.9-5.1-1.9c-2.2,0-4,0.7-5.2,2C71.6,14.2,71,16,71,18.5v8.3
				c0,2.5,0.6,4.4,1.7,5.7C73.9,33.7,75.6,34.4,77.9,34.4z"/>
			<path d="M104.2,38.5V10.6h-0.8l-4.8,10.4h-5.6l6.7-14.2h9.6v31.7H104.2z"/>
		</g>
		<g>
			<path d="M137.5,41c-10.3,0-18.7-8.4-18.7-18.7s8.4-18.7,18.7-18.7s18.7,8.4,18.7,18.7S147.8,41,137.5,41z M137.5,6
				c-8.9,0-16.2,7.3-16.2,16.2s7.3,16.2,16.2,16.2s16.2-7.3,16.2-16.2S146.4,6,137.5,6z"/>
			<g class="st0">
				<path d="M132.5,21.2l3,0.8c-1.1,3-2.5,5.7-4.4,8.1c-0.4,0.5-0.8,1-1.2,1.4c-0.6-0.6-1.5-1.2-2.6-1.9c1.7-1.6,3.2-3.7,4.4-6.5
					C132,22.4,132.3,21.8,132.5,21.2z M147.2,16.1v2.7h-19.3v-2.7h8.2v-4.7h2.8v4.7H147.2z M139.6,22.2l2.6-1.1
					c2.4,3.4,4.1,6.3,5,8.6c0.1,0.1,0.1,0.3,0.1,0.4l-2.9,1.3c-0.7-2.1-2.1-4.8-4.2-8.1C140.1,22.9,139.8,22.5,139.6,22.2z"/>
			</g>
		</g>
	</g>
</g>
</svg>
