<?xml version="1.0" encoding="utf-8"?>
<!-- Generator: Adobe Illustrator 27.5.0, SVG Export Plug-In . SVG Version: 6.00 Build 0)  -->
<svg version="1.1" id="uuid-c861df47-7db4-43ab-a6c2-287115fc0955"
	 xmlns="http://www.w3.org/2000/svg" xmlns:xlink="http://www.w3.org/1999/xlink" x="0px" y="0px" viewBox="0 0 162.1 50.8"
	 style="enable-background:new 0 0 162.1 50.8;" xml:space="preserve">
<style type="text/css">
	.st0{enable-background:new    ;}
</style>
<g id="uuid-f52ed567-67d9-4f25-861c-0b41a63cae71">
	<g>
		<g class="st0">
			<path d="M14.6,39.1c-3.7,0-6.7-1-8.9-3.1c-2.2-2.1-3.3-5.2-3.3-9.4v-7.9c0-4.1,1.1-7.2,3.3-9.3c2.2-2.1,5.2-3.2,8.9-3.2
				c3.7,0,6.7,1.1,8.9,3.2c2.2,2.1,3.3,5.2,3.3,9.3v7.9c0,4.2-1.1,7.3-3.3,9.4S18.4,39.1,14.6,39.1z M14.6,34.4c2.4,0,4.1-0.7,5.3-2
				c1.1-1.3,1.7-3.2,1.7-5.7v-8.3c0-2.5-0.6-4.4-1.9-5.7c-1.2-1.3-2.9-1.9-5.1-1.9c-2.2,0-4,0.7-5.2,2c-1.2,1.3-1.8,3.2-1.8,5.6v8.3
				c0,2.5,0.6,4.4,1.7,5.7C10.5,33.7,12.3,34.4,14.6,34.4z"/>
		</g>
		<g class="st0">
			<path d="M34.6,38.5v-1.2c0-1.1,0.1-2.1,0.3-2.9c0.2-0.8,0.6-1.7,1.2-2.8L47,12.2v-0.7H29.7V6.8h22.8V13L40.9,33.7
				c-0.4,0.7-0.7,1.3-0.8,1.8c-0.1,0.5-0.2,1.2-0.2,2v1H34.6z"/>
		</g>
		<g class="st0">
			<path d="M56.9,39.1c-1.1,0-2.1-0.4-2.9-1.1c-0.8-0.8-1.2-1.7-1.2-2.9c0-1.1,0.4-2.1,1.2-2.9c0.8-0.8,1.7-1.1,2.9-1.1
				c1.1,0,2.1,0.4,2.9,1.1c0.8,0.8,1.1,1.7,1.1,2.9c0,1.2-0.4,2.1-1.1,2.9C59,38.7,58.1,39.1,56.9,39.1z"/>
		</g>
		<g class="st0">
			<path d="M77.9,39.1c-3.7,0-6.7-1-8.9-3.1c-2.2-2.1-3.3-5.2-3.3-9.4v-7.9c0-4.1,1.1-7.2,3.3-9.3c2.2-2.1,5.2-3.2,8.9-3.2
				c3.7,0,6.7,1.1,8.9,3.2c2.2,2.1,3.3,5.2,3.3,9.3v7.9c0,4.2-1.1,7.3-3.3,9.4S81.7,39.1,77.9,39.1z M77.9,34.4c2.4,0,4.1-0.7,5.3-2
				c1.1-1.3,1.7-3.2,1.7-5.7v-8.3c0-2.5-0.6-4.4-1.9-5.7c-1.2-1.3-2.9-1.9-5.1-1.9c-2.2,0-4,0.7-5.2,2C71.6,14.2,71,16,71,18.5v8.3
				c0,2.5,0.6,4.4,1.7,5.7C73.9,33.7,75.6,34.4,77.9,34.4z"/>
			<path d="M94.6,38.5v-3.7c0-2.2,0.4-4.1,1.1-5.5c0.7-1.4,1.8-2.6,3.2-3.5s3.1-1.7,5.1-2.3l2.9-0.9c1.2-0.4,2.2-0.9,3-1.4
				c0.8-0.5,1.4-1.2,1.9-2c0.5-0.8,0.7-1.7,0.7-2.8v-0.2c0-1.6-0.6-2.9-1.7-3.9c-1.1-1-2.6-1.4-4.5-1.4s-3.4,0.5-4.6,1.5
				c-1.2,1-1.8,2.5-1.8,4.5v0.8h-5.2v-0.7c0-2.3,0.5-4.2,1.5-5.8s2.4-2.8,4.2-3.7s3.7-1.3,5.9-1.3c2.2,0,4.1,0.4,5.9,1.2
				c1.7,0.8,3.1,2,4.1,3.5c1,1.5,1.5,3.2,1.5,5.2v0.5c0,2-0.4,3.7-1.2,5.1c-0.8,1.4-1.9,2.5-3.4,3.4c-1.4,0.9-3.1,1.6-4.9,2.2
				l-2.8,0.9c-1.4,0.4-2.4,0.9-3.2,1.4c-0.8,0.5-1.4,1-1.7,1.7c-0.3,0.6-0.5,1.4-0.5,2.3v0.3h17.4v4.7H94.6z"/>
		</g>
		<g>
			<path d="M143.4,41c-10.3,0-18.7-8.4-18.7-18.7s8.4-18.7,18.7-18.7s18.7,8.4,18.7,18.7S153.7,41,143.4,41z M143.4,6
				c-8.9,0-16.2,7.3-16.2,16.2s7.3,16.2,16.2,16.2s16.2-7.3,16.2-16.2S152.3,6,143.4,6z"/>
			<g class="st0">
				<path d="M136,12.7h15.1v18.7h-2.8v-1.4h-9.7v1.4H136V12.7z M148.3,15.3h-9.7V20h9.7V15.3z M138.7,27.5h9.7v-4.9h-9.7V27.5z"/>
			</g>
		</g>
	</g>
</g>
</svg>
