<?xml version="1.0" encoding="utf-8"?>
<!-- Generator: Adobe Illustrator 27.5.0, SVG Export Plug-In . SVG Version: 6.00 Build 0)  -->
<svg version="1.1" id="uuid-eb5d4419-08c9-43c7-86df-e1d0076211ca"
	 xmlns="http://www.w3.org/2000/svg" xmlns:xlink="http://www.w3.org/1999/xlink" x="0px" y="0px" viewBox="0 0 162.9 50.8"
	 style="enable-background:new 0 0 162.9 50.8;" xml:space="preserve">
<style type="text/css">
	.st0{enable-background:new    ;}
</style>
<g id="uuid-827287e3-f586-4ee0-a0d3-8f83b7fae070">
	<g>
		<g class="st0">
			<path d="M14.6,39.1c-3.7,0-6.7-1-8.9-3.1c-2.2-2.1-3.3-5.2-3.3-9.4v-7.9c0-4.1,1.1-7.2,3.3-9.3c2.2-2.1,5.2-3.2,8.9-3.2
				c3.7,0,6.7,1.1,8.9,3.2c2.2,2.1,3.3,5.2,3.3,9.3v7.9c0,4.2-1.1,7.3-3.3,9.4S18.4,39.1,14.6,39.1z M14.6,34.4c2.4,0,4.1-0.7,5.3-2
				c1.1-1.3,1.7-3.2,1.7-5.7v-8.3c0-2.5-0.6-4.4-1.9-5.7c-1.2-1.3-2.9-1.9-5.1-1.9c-2.2,0-4,0.7-5.2,2c-1.2,1.3-1.8,3.2-1.8,5.6v8.3
				c0,2.5,0.6,4.4,1.7,5.7C10.5,33.7,12.3,34.4,14.6,34.4z"/>
		</g>
		<g class="st0">
			<path d="M34.6,38.5v-1.2c0-1.1,0.1-2.1,0.3-2.9c0.2-0.8,0.6-1.7,1.2-2.8L47,12.2v-0.7H29.7V6.8h22.8V13L40.9,33.7
				c-0.4,0.7-0.7,1.3-0.8,1.8c-0.1,0.5-0.2,1.2-0.2,2v1H34.6z"/>
		</g>
		<g class="st0">
			<path d="M56.9,39.1c-1.1,0-2.1-0.4-2.9-1.1c-0.8-0.8-1.2-1.7-1.2-2.9c0-1.1,0.4-2.1,1.2-2.9c0.8-0.8,1.7-1.1,2.9-1.1
				c1.1,0,2.1,0.4,2.9,1.1c0.8,0.8,1.1,1.7,1.1,2.9c0,1.2-0.4,2.1-1.1,2.9C59,38.7,58.1,39.1,56.9,39.1z"/>
		</g>
		<g class="st0">
			<path d="M77.9,39.1c-3.7,0-6.7-1-8.9-3.1c-2.2-2.1-3.3-5.2-3.3-9.4v-7.9c0-4.1,1.1-7.2,3.3-9.3c2.2-2.1,5.2-3.2,8.9-3.2
				c3.7,0,6.7,1.1,8.9,3.2c2.2,2.1,3.3,5.2,3.3,9.3v7.9c0,4.2-1.1,7.3-3.3,9.4S81.7,39.1,77.9,39.1z M77.9,34.4c2.4,0,4.1-0.7,5.3-2
				c1.1-1.3,1.7-3.2,1.7-5.7v-8.3c0-2.5-0.6-4.4-1.9-5.7c-1.2-1.3-2.9-1.9-5.1-1.9c-2.2,0-4,0.7-5.2,2C71.6,14.2,71,16,71,18.5v8.3
				c0,2.5,0.6,4.4,1.7,5.7C73.9,33.7,75.6,34.4,77.9,34.4z"/>
			<path d="M106.3,39.1c-2.4,0-4.6-0.4-6.4-1.1s-3.3-1.8-4.3-3.1c-1-1.4-1.5-3-1.5-4.8v-0.5c0-1.5,0.3-2.7,0.8-3.7
				c0.5-1,1.2-1.7,2-2.3s1.6-0.9,2.3-1.1v-0.8c-0.7-0.2-1.5-0.6-2.2-1.2c-0.7-0.5-1.3-1.3-1.8-2.2c-0.5-0.9-0.7-2-0.7-3.3v-0.5
				c0-1.7,0.5-3.1,1.5-4.4c1-1.3,2.4-2.2,4.1-2.9c1.8-0.7,3.8-1,6.2-1c2.3,0,4.4,0.3,6.1,1c1.8,0.7,3.1,1.7,4.1,2.9
				c1,1.3,1.5,2.7,1.5,4.4V15c0,1.3-0.2,2.4-0.7,3.3c-0.5,0.9-1.1,1.6-1.8,2.2c-0.7,0.5-1.4,0.9-2.2,1.2v0.8
				c0.8,0.2,1.5,0.6,2.3,1.1c0.8,0.5,1.5,1.3,2,2.3c0.5,1,0.8,2.2,0.8,3.7V30c0,1.8-0.5,3.4-1.5,4.8c-1,1.4-2.5,2.4-4.3,3.1
				S108.7,39.1,106.3,39.1z M106.3,34.4c2.2,0,3.9-0.4,5.1-1.3c1.2-0.8,1.8-2,1.8-3.5v-0.4c0-1.4-0.6-2.6-1.8-3.5
				c-1.2-0.9-2.9-1.3-5.2-1.3c-2.2,0-4,0.4-5.2,1.3s-1.8,2-1.8,3.5v0.4c0,1.5,0.6,2.6,1.8,3.5C102.3,34,104.1,34.4,106.3,34.4z
				 M106.3,19.9c2.1,0,3.6-0.4,4.8-1.1s1.7-1.8,1.7-3.2v-0.4c0-1.4-0.6-2.4-1.7-3.2c-1.2-0.8-2.7-1.1-4.7-1.1c-2,0-3.6,0.4-4.7,1.1
				c-1.2,0.8-1.7,1.8-1.7,3.2v0.4c0,1.4,0.6,2.5,1.7,3.2S104.2,19.9,106.3,19.9z"/>
		</g>
		<g>
			<path d="M144.1,41c-10.3,0-18.7-8.4-18.7-18.7s8.4-18.7,18.7-18.7s18.7,8.4,18.7,18.7S154.5,41,144.1,41z M144.1,6
				c-8.9,0-16.2,7.3-16.2,16.2s7.3,16.2,16.2,16.2s16.2-7.3,16.2-16.2S153.1,6,144.1,6z"/>
			<g class="st0">
				<path d="M139.1,21.2l3,0.8c-1.1,3-2.5,5.7-4.4,8.1c-0.4,0.5-0.8,1-1.2,1.4c-0.6-0.6-1.5-1.2-2.6-1.9c1.7-1.6,3.2-3.7,4.4-6.5
					C138.7,22.4,138.9,21.8,139.1,21.2z M153.9,16.1v2.7h-19.3v-2.7h8.2v-4.7h2.8v4.7H153.9z M146.3,22.2l2.6-1.1
					c2.4,3.4,4.1,6.3,5,8.6c0.1,0.1,0.1,0.3,0.1,0.4l-2.9,1.3c-0.7-2.1-2.1-4.8-4.2-8.1C146.7,22.9,146.5,22.5,146.3,22.2z"/>
			</g>
		</g>
	</g>
</g>
</svg>
