<?xml version="1.0" encoding="utf-8"?>
<!-- Generator: Adobe Illustrator 27.5.0, SVG Export Plug-In . SVG Version: 6.00 Build 0)  -->
<svg version="1.1" id="uuid-7e306a8e-f89e-4bd2-a91a-2c74aad9af3e"
	 xmlns="http://www.w3.org/2000/svg" xmlns:xlink="http://www.w3.org/1999/xlink" x="0px" y="0px" viewBox="0 0 162.1 50.8"
	 style="enable-background:new 0 0 162.1 50.8;" xml:space="preserve">
<style type="text/css">
	.st0{enable-background:new    ;}
</style>
<g id="uuid-289148fa-5529-4c47-9bfe-d775dec28f4b">
	<g>
		<g class="st0">
			<path d="M14.6,39.1c-3.7,0-6.7-1-8.9-3.1c-2.2-2.1-3.3-5.2-3.3-9.4v-7.9c0-4.1,1.1-7.2,3.3-9.3c2.2-2.1,5.2-3.2,8.9-3.2
				c3.7,0,6.7,1.1,8.9,3.2c2.2,2.1,3.3,5.2,3.3,9.3v7.9c0,4.2-1.1,7.3-3.3,9.4S18.4,39.1,14.6,39.1z M14.6,34.4c2.4,0,4.1-0.7,5.3-2
				c1.1-1.3,1.7-3.2,1.7-5.7v-8.3c0-2.5-0.6-4.4-1.9-5.7c-1.2-1.3-2.9-1.9-5.1-1.9c-2.2,0-4,0.7-5.2,2c-1.2,1.3-1.8,3.2-1.8,5.6v8.3
				c0,2.5,0.6,4.4,1.7,5.7C10.5,33.7,12.3,34.4,14.6,34.4z"/>
		</g>
		<g class="st0">
			<path d="M34.6,38.5v-1.2c0-1.1,0.1-2.1,0.3-2.9c0.2-0.8,0.6-1.7,1.2-2.8L47,12.2v-0.7H29.7V6.8h22.8V13L40.9,33.7
				c-0.4,0.7-0.7,1.3-0.8,1.8c-0.1,0.5-0.2,1.2-0.2,2v1H34.6z"/>
		</g>
		<g class="st0">
			<path d="M56.9,39.1c-1.1,0-2.1-0.4-2.9-1.1c-0.8-0.8-1.2-1.7-1.2-2.9c0-1.1,0.4-2.1,1.2-2.9c0.8-0.8,1.7-1.1,2.9-1.1
				c1.1,0,2.1,0.4,2.9,1.1c0.8,0.8,1.1,1.7,1.1,2.9c0,1.2-0.4,2.1-1.1,2.9C59,38.7,58.1,39.1,56.9,39.1z"/>
		</g>
		<g class="st0">
			<path d="M77.9,39.1c-3.7,0-6.7-1-8.9-3.1c-2.2-2.1-3.3-5.2-3.3-9.4v-7.9c0-4.1,1.1-7.2,3.3-9.3c2.2-2.1,5.2-3.2,8.9-3.2
				c3.7,0,6.7,1.1,8.9,3.2c2.2,2.1,3.3,5.2,3.3,9.3v7.9c0,4.2-1.1,7.3-3.3,9.4S81.7,39.1,77.9,39.1z M77.9,34.4c2.4,0,4.1-0.7,5.3-2
				c1.1-1.3,1.7-3.2,1.7-5.7v-8.3c0-2.5-0.6-4.4-1.9-5.7c-1.2-1.3-2.9-1.9-5.1-1.9c-2.2,0-4,0.7-5.2,2C71.6,14.2,71,16,71,18.5v8.3
				c0,2.5,0.6,4.4,1.7,5.7C73.9,33.7,75.6,34.4,77.9,34.4z"/>
			<path d="M106.1,39.1c-2.4,0-4.4-0.4-6.1-1.2c-1.7-0.8-3-1.9-4-3.4c-0.9-1.5-1.4-3.2-1.4-5.2h5.3c0,1.4,0.5,2.6,1.5,3.6
				c1,1,2.5,1.5,4.6,1.5c2.1,0,3.8-0.6,5-1.7c1.2-1.1,1.7-2.7,1.7-4.7v-3.5h-0.8c-0.5,0.7-1.4,1.3-2.4,1.9c-1.1,0.6-2.7,0.9-4.8,0.9
				c-1.8,0-3.5-0.4-5.1-1.2c-1.6-0.8-2.8-1.9-3.8-3.4c-1-1.5-1.4-3.3-1.4-5.4v-0.5c0-2.1,0.5-4,1.5-5.6c1-1.6,2.4-2.8,4.2-3.7
				s3.8-1.3,6.2-1.3s4.4,0.4,6.2,1.3c1.8,0.9,3.1,2.1,4.1,3.7c1,1.6,1.4,3.5,1.4,5.6v10.9c0,2.5-0.5,4.6-1.5,6.3
				c-1,1.7-2.4,3-4.2,3.8C110.6,38.7,108.5,39.1,106.1,39.1z M106.3,23.1c1.4,0,2.5-0.2,3.5-0.7c1-0.5,1.7-1.2,2.3-2.1
				s0.8-1.9,0.8-3.1v-0.4c0-1.8-0.6-3.2-1.8-4.3s-2.8-1.6-4.8-1.6c-2,0-3.6,0.5-4.8,1.6c-1.2,1.1-1.8,2.5-1.8,4.3v0.4
				c0,1.2,0.3,2.3,0.8,3.1c0.5,0.9,1.3,1.6,2.3,2.1C103.8,22.8,105,23.1,106.3,23.1z"/>
		</g>
		<g>
			<path d="M143.4,41c-10.3,0-18.7-8.4-18.7-18.7s8.4-18.7,18.7-18.7s18.7,8.4,18.7,18.7S153.7,41,143.4,41z M143.4,6
				c-8.9,0-16.2,7.3-16.2,16.2s7.3,16.2,16.2,16.2s16.2-7.3,16.2-16.2S152.3,6,143.4,6z"/>
			<g class="st0">
				<path d="M136,12.7h15.1v18.7h-2.8v-1.4h-9.7v1.4H136V12.7z M148.3,15.3h-9.7V20h9.7V15.3z M138.7,27.5h9.7v-4.9h-9.7V27.5z"/>
			</g>
		</g>
	</g>
</g>
</svg>
