<?xml version="1.0" encoding="UTF-8"?>
<svg id="uuid-66d6964b-27b2-4220-b34e-65f432aed846" data-name="圖層 2" xmlns="http://www.w3.org/2000/svg" viewBox="0 0 45 45">
  <defs>
    <style>
      .uuid-c052079c-bc0f-4761-8a64-0d2ca967b6d5 {
        fill: #fff;
      }

      .uuid-51ae8d7b-efb6-45a5-838e-3c818bae99a0 {
        fill: #ff00b9;
      }
    </style>
  </defs>
  <g id="uuid-3d131159-5505-4a25-89a7-465e39957d1d" data-name="圖層 2">
    <g>
      <circle class="uuid-51ae8d7b-efb6-45a5-838e-3c818bae99a0" cx="22.5" cy="22.5" r="22.5"/>
      <g>
        <path class="uuid-c052079c-bc0f-4761-8a64-0d2ca967b6d5" d="m17.3,29.86c-1.9,0-3.43-.53-4.58-1.58-1.15-1.05-1.73-2.64-1.73-4.77v-4.05c0-2.07.57-3.65,1.73-4.73,1.15-1.08,2.68-1.62,4.58-1.62s3.45.54,4.59,1.62c1.14,1.08,1.71,2.66,1.71,4.73v4.05c0,2.13-.57,3.72-1.71,4.77-1.14,1.05-2.67,1.58-4.59,1.58Zm0-2.62c1.15,0,2-.31,2.54-.94.54-.63.82-1.53.82-2.69v-4.28c0-1.18-.3-2.07-.91-2.68-.61-.61-1.42-.91-2.45-.91s-1.88.31-2.47.94c-.59.63-.89,1.51-.89,2.64v4.28c0,1.21.28,2.12.84,2.73.56.61,1.4.91,2.52.91Z"/>
        <path class="uuid-c052079c-bc0f-4761-8a64-0d2ca967b6d5" d="m30.69,29.53v-13.94h-.41l-2.16,5.11h-3.08l3.29-7.27h5.31v16.1h-2.94Z"/>
      </g>
    </g>
  </g>
</svg>