<?xml version="1.0" encoding="UTF-8"?>
<svg id="uuid-ddc28d93-4664-444c-8d6d-e8a1140924fe" data-name="圖層 2" xmlns="http://www.w3.org/2000/svg" viewBox="0 0 45 45">
  <defs>
    <style>
      .uuid-764f27ea-cc19-4734-aea4-2e0a757cad86 {
        fill: #fff;
      }

      .uuid-a2b32aff-0c30-45d7-867f-7946458c9562 {
        fill: #ff00b9;
      }
    </style>
  </defs>
  <g id="uuid-bc8a7745-55ca-4cb3-968e-b242d937ca42" data-name="圖層 2">
    <g>
      <circle class="uuid-a2b32aff-0c30-45d7-867f-7946458c9562" cx="22.5" cy="22.5" r="22.5"/>
      <g>
        <path class="uuid-764f27ea-cc19-4734-aea4-2e0a757cad86" d="m15.67,29.86c-1.9,0-3.43-.53-4.58-1.58-1.15-1.05-1.73-2.64-1.73-4.77v-4.05c0-2.07.58-3.65,1.73-4.73s2.68-1.62,4.58-1.62,3.45.54,4.59,1.62c1.14,1.08,1.71,2.66,1.71,4.73v4.05c0,2.13-.57,3.72-1.71,4.77-1.14,1.05-2.67,1.58-4.59,1.58Zm0-2.62c1.15,0,2-.31,2.54-.94.54-.63.82-1.53.82-2.69v-4.28c0-1.18-.3-2.07-.91-2.68-.61-.61-1.42-.91-2.45-.91s-1.88.31-2.47.94-.89,1.51-.89,2.64v4.28c0,1.21.28,2.12.84,2.73.56.61,1.4.91,2.52.91Z"/>
        <path class="uuid-764f27ea-cc19-4734-aea4-2e0a757cad86" d="m24.09,29.53v-1.93c0-1.12.18-2.05.55-2.79.37-.74.9-1.36,1.6-1.84.7-.48,1.55-.88,2.56-1.18l1.54-.48c.57-.18,1.04-.41,1.43-.68.38-.27.68-.59.89-.98s.31-.82.31-1.31v-.09c0-.77-.26-1.38-.78-1.83-.52-.45-1.23-.68-2.14-.68s-1.61.24-2.15.72c-.54.48-.82,1.18-.82,2.08v.41h-2.94v-.37c0-1.17.26-2.15.78-2.97.52-.81,1.23-1.43,2.13-1.86s1.9-.64,3-.64,2.1.21,2.99.63,1.59,1.01,2.1,1.77c.51.76.77,1.65.77,2.68v.23c0,1.03-.21,1.9-.63,2.61-.42.71-.99,1.3-1.71,1.75-.72.45-1.54.82-2.46,1.12l-1.47.46c-.66.2-1.17.42-1.54.66-.37.24-.62.5-.77.78-.15.28-.22.62-.22,1.02v.09h8.67v2.62h-11.68Z"/>
      </g>
    </g>
  </g>
</svg>