<?xml version="1.0" encoding="UTF-8"?>
<svg id="uuid-d356e0d2-69fa-4f88-abb2-b8495aa529d0" data-name="圖層 2" xmlns="http://www.w3.org/2000/svg" viewBox="0 0 45 45">
  <defs>
    <style>
      .uuid-4dd4fde5-4522-462d-bb7a-408530647aa7 {
        fill: #fff;
      }

      .uuid-e480f6e6-a829-4bc9-ba49-713547ab9f03 {
        fill: #ff00b9;
      }
    </style>
  </defs>
  <g id="uuid-185d7ddc-f607-4789-9c53-a679940e3faa" data-name="圖層 2">
    <g>
      <circle class="uuid-e480f6e6-a829-4bc9-ba49-713547ab9f03" cx="22.5" cy="22.5" r="22.5"/>
      <g>
        <path class="uuid-4dd4fde5-4522-462d-bb7a-408530647aa7" d="m15.51,29.86c-1.9,0-3.43-.53-4.58-1.58-1.15-1.05-1.73-2.64-1.73-4.77v-4.05c0-2.07.57-3.65,1.73-4.73,1.15-1.08,2.68-1.62,4.58-1.62s3.45.54,4.59,1.62c1.14,1.08,1.71,2.66,1.71,4.73v4.05c0,2.13-.57,3.72-1.71,4.77-1.14,1.05-2.67,1.58-4.59,1.58Zm0-2.62c1.15,0,2-.31,2.54-.94.54-.63.82-1.53.82-2.69v-4.28c0-1.18-.3-2.07-.91-2.68-.61-.61-1.42-.91-2.45-.91s-1.88.31-2.47.94c-.59.63-.89,1.51-.89,2.64v4.28c0,1.21.28,2.12.84,2.73.56.61,1.4.91,2.52.91Z"/>
        <path class="uuid-4dd4fde5-4522-462d-bb7a-408530647aa7" d="m29.95,29.86c-1.21,0-2.28-.21-3.22-.64-.94-.43-1.67-1.05-2.2-1.85-.53-.81-.79-1.76-.79-2.86v-.41h2.94v.32c0,.86.3,1.54.9,2.06.6.51,1.39.77,2.37.77s1.77-.24,2.31-.71c.54-.48.82-1.07.82-1.79v-.23c0-.49-.12-.89-.37-1.2-.25-.31-.58-.53-.99-.68-.41-.15-.88-.22-1.4-.22h-3.22v-3.22l5.2-2.76v-.37h-8.14v-2.62h11.41v3.91l-4.85,2.58v.37h.85c.72,0,1.42.15,2.1.44.68.29,1.25.74,1.69,1.35.44.61.67,1.39.67,2.36v.28c0,1.04-.25,1.95-.76,2.73-.51.77-1.22,1.37-2.13,1.79-.91.42-1.97.63-3.19.63Z"/>
      </g>
    </g>
  </g>
</svg>