<?xml version="1.0" encoding="UTF-8"?>
<svg id="uuid-0dbcd892-9791-42ef-a259-cf2a3faa79b7" data-name="圖層 2" xmlns="http://www.w3.org/2000/svg" viewBox="0 0 45 45">
  <defs>
    <style>
      .uuid-a27b80bd-8a4a-4e17-822b-efad8633cf87 {
        fill: #fff;
      }

      .uuid-d0f2e30b-57a2-4dc2-8ba4-03179d78c113 {
        fill: #ff00b9;
      }
    </style>
  </defs>
  <g id="uuid-4e4149b6-7ecd-4566-8e93-21d81a06fcae" data-name="圖層 2">
    <g>
      <circle class="uuid-d0f2e30b-57a2-4dc2-8ba4-03179d78c113" cx="22.5" cy="22.5" r="22.5"/>
      <g>
        <path class="uuid-a27b80bd-8a4a-4e17-822b-efad8633cf87" d="m15.19,29.86c-1.9,0-3.43-.53-4.58-1.58-1.15-1.05-1.72-2.64-1.72-4.77v-4.05c0-2.07.57-3.65,1.72-4.73,1.15-1.08,2.68-1.62,4.58-1.62s3.45.54,4.59,1.62,1.71,2.66,1.71,4.73v4.05c0,2.13-.57,3.72-1.71,4.77-1.14,1.05-2.67,1.58-4.59,1.58Zm0-2.62c1.15,0,2-.31,2.54-.94.54-.63.82-1.53.82-2.69v-4.28c0-1.18-.3-2.07-.91-2.68-.61-.61-1.42-.91-2.45-.91s-1.88.31-2.47.94-.89,1.51-.89,2.64v4.28c0,1.21.28,2.12.84,2.73.56.61,1.4.91,2.52.91Z"/>
        <path class="uuid-a27b80bd-8a4a-4e17-822b-efad8633cf87" d="m31.15,29.53v-3.27h-7.91v-3.4l5.57-9.43h5.29v10.21h2.67v2.62h-2.67v3.27h-2.94Zm-5.11-5.89h5.11v-8.33h-.41l-4.69,7.96v.37Z"/>
      </g>
    </g>
  </g>
</svg>