<?xml version="1.0" encoding="UTF-8"?>
<svg id="uuid-186bde04-e3eb-4d9c-a9a3-9bdcdcefd872" data-name="圖層 2" xmlns="http://www.w3.org/2000/svg" viewBox="0 0 45 45">
  <defs>
    <style>
      .uuid-614df808-96d6-463f-b583-b9182e067f49 {
        fill: #fff;
      }

      .uuid-f98fa92d-e63e-4399-b6a7-fad4f2c7bc64 {
        fill: #ff00b9;
      }
    </style>
  </defs>
  <g id="uuid-687c10dc-8c05-40a7-85f7-7231e0bb0629" data-name="圖層 2">
    <g>
      <circle class="uuid-f98fa92d-e63e-4399-b6a7-fad4f2c7bc64" cx="22.5" cy="22.5" r="22.5"/>
      <g>
        <path class="uuid-614df808-96d6-463f-b583-b9182e067f49" d="m15.6,29.86c-1.9,0-3.43-.53-4.58-1.58-1.15-1.05-1.73-2.64-1.73-4.77v-4.05c0-2.07.58-3.65,1.73-4.73s2.68-1.62,4.58-1.62,3.45.54,4.59,1.62c1.14,1.08,1.71,2.66,1.71,4.73v4.05c0,2.13-.57,3.72-1.71,4.77-1.14,1.05-2.67,1.58-4.59,1.58Zm0-2.62c1.15,0,2-.31,2.54-.94.54-.63.82-1.53.82-2.69v-4.28c0-1.18-.3-2.07-.91-2.68-.61-.61-1.42-.91-2.45-.91s-1.88.31-2.47.94c-.59.63-.89,1.51-.89,2.64v4.28c0,1.21.28,2.12.84,2.73.56.61,1.4.91,2.52.91Z"/>
        <path class="uuid-614df808-96d6-463f-b583-b9182e067f49" d="m30.02,29.86c-1.26,0-2.34-.22-3.25-.67s-1.61-1.07-2.1-1.89-.74-1.76-.74-2.83v-.23h2.99v.21c0,.77.26,1.42.77,1.97.51.54,1.28.82,2.29.82s1.79-.27,2.33-.82c.54-.54.82-1.25.82-2.13v-.23c0-.86-.27-1.54-.82-2.05-.54-.51-1.22-.76-2.04-.76-.44,0-.81.06-1.1.18-.29.12-.53.28-.71.46s-.34.37-.46.55h-3.56v-9.02h10.99v2.67h-8.05v3.93h.41c.15-.2.36-.39.62-.57s.6-.34,1.01-.46.9-.18,1.47-.18c.95,0,1.82.2,2.6.6.78.4,1.41.99,1.88,1.76.47.77.7,1.73.7,2.86v.28c0,1.13-.24,2.12-.72,2.94-.48.83-1.18,1.47-2.08,1.92-.91.45-1.99.68-3.24.68Z"/>
      </g>
    </g>
  </g>
</svg>