<?xml version="1.0" encoding="UTF-8"?>
<svg id="uuid-c605312a-f5d9-44f1-b57b-0a4b2ad2b680" data-name="圖層 2" xmlns="http://www.w3.org/2000/svg" viewBox="0 0 45 45">
  <defs>
    <style>
      .uuid-95cddfab-0eb6-48d7-9b53-c30a91db1f0f {
        fill: #fff;
      }

      .uuid-838ecfc4-244a-4b4f-a5b4-b7c32cf0dd63 {
        fill: #ff00b9;
      }
    </style>
  </defs>
  <g id="uuid-6397d8a3-a94b-47f9-a037-c42877207f4f" data-name="圖層 2">
    <g>
      <circle class="uuid-838ecfc4-244a-4b4f-a5b4-b7c32cf0dd63" cx="22.5" cy="22.5" r="22.5"/>
      <g>
        <path class="uuid-95cddfab-0eb6-48d7-9b53-c30a91db1f0f" d="m15.4,29.86c-1.9,0-3.43-.53-4.58-1.58-1.15-1.05-1.73-2.64-1.73-4.77v-4.05c0-2.07.58-3.65,1.73-4.73s2.68-1.62,4.58-1.62,3.45.54,4.59,1.62c1.14,1.08,1.71,2.66,1.71,4.73v4.05c0,2.13-.57,3.72-1.71,4.77-1.14,1.05-2.67,1.58-4.59,1.58Zm0-2.62c1.15,0,2-.31,2.54-.94.54-.63.82-1.53.82-2.69v-4.28c0-1.18-.3-2.07-.91-2.68-.61-.61-1.42-.91-2.45-.91s-1.88.31-2.47.94c-.59.63-.89,1.51-.89,2.64v4.28c0,1.21.28,2.12.84,2.73.56.61,1.4.91,2.52.91Z"/>
        <path class="uuid-95cddfab-0eb6-48d7-9b53-c30a91db1f0f" d="m30.02,29.86c-1.23,0-2.29-.23-3.2-.69s-1.6-1.1-2.09-1.91c-.49-.81-.74-1.75-.74-2.81v-5.5c0-1.3.26-2.39.79-3.25.53-.87,1.26-1.51,2.18-1.94s1.99-.64,3.19-.64,2.23.2,3.12.6c.88.4,1.56.97,2.05,1.73s.72,1.65.72,2.69h-2.99c0-.64-.22-1.2-.67-1.68-.45-.47-1.19-.71-2.23-.71s-1.82.27-2.38.8c-.56.54-.84,1.28-.84,2.23v1.66h.41c.26-.31.66-.6,1.2-.87.54-.28,1.32-.41,2.35-.41.94,0,1.8.2,2.59.6.79.4,1.43.98,1.92,1.74.49.76.74,1.68.74,2.75v.28c0,1.06-.25,1.99-.76,2.79-.51.8-1.22,1.43-2.14,1.89s-1.99.68-3.22.68Zm.05-2.62c.97,0,1.73-.25,2.29-.76.56-.51.84-1.18.84-2.02v-.18c0-.57-.13-1.06-.38-1.47s-.61-.74-1.08-.97c-.47-.23-1.02-.34-1.67-.34s-1.18.12-1.66.34c-.48.23-.84.55-1.09.97s-.38.9-.38,1.47v.18c0,.84.28,1.52.84,2.02.56.51,1.32.76,2.29.76Z"/>
      </g>
    </g>
  </g>
</svg>