<?xml version="1.0" encoding="UTF-8"?>
<svg id="uuid-1c20bfaa-b5d5-4c34-a199-0502a7343d6a" data-name="圖層 2" xmlns="http://www.w3.org/2000/svg" viewBox="0 0 45 45">
  <defs>
    <style>
      .uuid-ff13e231-a3f0-4a5d-92af-e0b761708210 {
        fill: #fff;
      }

      .uuid-53551481-2c99-4961-913d-586a03f4aab8 {
        fill: #ff00b9;
      }
    </style>
  </defs>
  <g id="uuid-b18ddcc6-5ed6-4c44-af43-47eb279c7d3e" data-name="圖層 2">
    <g>
      <circle class="uuid-53551481-2c99-4961-913d-586a03f4aab8" cx="22.5" cy="22.5" r="22.5"/>
      <g>
        <path class="uuid-ff13e231-a3f0-4a5d-92af-e0b761708210" d="m16.36,29.86c-1.9,0-3.43-.53-4.58-1.58-1.15-1.05-1.72-2.64-1.72-4.77v-4.05c0-2.07.57-3.65,1.72-4.73,1.15-1.08,2.68-1.62,4.58-1.62s3.45.54,4.59,1.62,1.71,2.66,1.71,4.73v4.05c0,2.13-.57,3.72-1.71,4.77-1.14,1.05-2.67,1.58-4.59,1.58Zm0-2.62c1.15,0,2-.31,2.54-.94.54-.63.82-1.53.82-2.69v-4.28c0-1.18-.3-2.07-.91-2.68-.61-.61-1.42-.91-2.45-.91s-1.88.31-2.47.94-.89,1.51-.89,2.64v4.28c0,1.21.28,2.12.84,2.73.56.61,1.4.91,2.52.91Z"/>
        <path class="uuid-ff13e231-a3f0-4a5d-92af-e0b761708210" d="m26.37,29.53v-.6c0-.6.05-1.11.14-1.53.09-.42.29-.9.6-1.44l5.41-9.55v-.37h-8.56v-2.62h11.59v3.5l-5.7,10.19c-.2.35-.34.67-.41.94-.08.28-.12.61-.12,1.01v.46h-2.94Z"/>
      </g>
    </g>
  </g>
</svg>