<?xml version="1.0" encoding="UTF-8"?>
<svg id="uuid-903e52af-2327-40f3-94c1-8ce05e7322fb" data-name="圖層 2" xmlns="http://www.w3.org/2000/svg" viewBox="0 0 45 45">
  <defs>
    <style>
      .uuid-78067e61-ec4f-46e9-a3b1-dd9b9318315a {
        fill: #fff;
      }

      .uuid-d392dba1-46e6-4f9e-81db-6f08746621dd {
        fill: #ff00b9;
      }
    </style>
  </defs>
  <g id="uuid-7561b03c-e59e-4f79-b031-cea39a81eeed" data-name="圖層 2">
    <g>
      <circle class="uuid-d392dba1-46e6-4f9e-81db-6f08746621dd" cx="22.5" cy="22.5" r="22.5"/>
      <g>
        <path class="uuid-78067e61-ec4f-46e9-a3b1-dd9b9318315a" d="m15.6,29.86c-1.9,0-3.43-.53-4.58-1.58-1.15-1.05-1.73-2.64-1.73-4.77v-4.05c0-2.07.58-3.65,1.73-4.73s2.68-1.62,4.58-1.62,3.45.54,4.59,1.62c1.14,1.08,1.71,2.66,1.71,4.73v4.05c0,2.13-.57,3.72-1.71,4.77-1.14,1.05-2.67,1.58-4.59,1.58Zm0-2.62c1.15,0,2-.31,2.54-.94.54-.63.82-1.53.82-2.69v-4.28c0-1.18-.3-2.07-.91-2.68-.61-.61-1.42-.91-2.45-.91s-1.88.31-2.47.94c-.59.63-.89,1.51-.89,2.64v4.28c0,1.21.28,2.12.84,2.73.56.61,1.4.91,2.52.91Z"/>
        <path class="uuid-78067e61-ec4f-46e9-a3b1-dd9b9318315a" d="m29.95,29.86c-1.23,0-2.31-.18-3.25-.55-.94-.37-1.68-.9-2.21-1.6-.53-.7-.79-1.52-.79-2.47v-.28c0-.74.13-1.35.39-1.83.26-.48.59-.86.98-1.14.39-.28.76-.47,1.12-.57v-.41c-.35-.12-.71-.32-1.06-.6-.35-.28-.64-.64-.86-1.1-.22-.46-.33-1.01-.33-1.66v-.28c0-.84.25-1.58.75-2.22.5-.64,1.2-1.13,2.1-1.5.9-.36,1.96-.54,3.17-.54s2.27.18,3.17.54c.9.36,1.61.86,2.1,1.5.5.64.75,1.38.75,2.22v.28c0,.64-.11,1.2-.33,1.66-.22.46-.51.83-.85,1.1-.35.28-.7.48-1.07.6v.41c.37.11.74.3,1.13.57.38.28.71.66.97,1.14s.39,1.09.39,1.83v.28c0,.95-.26,1.77-.79,2.47-.53.7-1.27,1.23-2.21,1.6-.94.37-2.03.55-3.25.55Zm0-2.62c1.06,0,1.88-.2,2.45-.61.58-.41.86-.95.86-1.62v-.18c0-.67-.28-1.21-.84-1.62s-1.38-.61-2.47-.61-1.89.2-2.46.61-.85.95-.85,1.62v.18c0,.67.29,1.22.86,1.62s1.39.61,2.45.61Zm0-7.27c.98,0,1.74-.18,2.28-.53.54-.35.8-.85.8-1.5v-.18c0-.64-.28-1.14-.83-1.5-.55-.35-1.3-.53-2.25-.53s-1.7.18-2.25.53c-.55.35-.83.85-.83,1.5v.18c0,.64.27,1.14.81,1.5s1.3.53,2.28.53Z"/>
      </g>
    </g>
  </g>
</svg>