<?xml version="1.0" encoding="UTF-8"?>
<svg id="uuid-caa94911-09c0-458c-b181-072d7f159435" data-name="圖層 2" xmlns="http://www.w3.org/2000/svg" viewBox="0 0 45 45">
  <defs>
    <style>
      .uuid-2bde9d98-8cfb-49f2-adf2-1a985ba64cb4 {
        fill: #fff;
      }

      .uuid-d3a11af2-0442-4268-a9bf-6c396a85f21c {
        fill: #ff00b9;
      }
    </style>
  </defs>
  <g id="uuid-b340e7a6-19cd-4dae-a546-e3ee1c612321" data-name="圖層 2">
    <g>
      <circle class="uuid-d3a11af2-0442-4268-a9bf-6c396a85f21c" cx="22.5" cy="22.5" r="22.5"/>
      <g>
        <path class="uuid-2bde9d98-8cfb-49f2-adf2-1a985ba64cb4" d="m15.39,29.86c-1.9,0-3.43-.53-4.58-1.58-1.15-1.05-1.73-2.64-1.73-4.77v-4.05c0-2.07.58-3.65,1.73-4.73s2.68-1.62,4.58-1.62,3.45.54,4.59,1.62c1.14,1.08,1.71,2.66,1.71,4.73v4.05c0,2.13-.57,3.72-1.71,4.77-1.14,1.05-2.67,1.58-4.59,1.58Zm0-2.62c1.15,0,2-.31,2.54-.94.54-.63.82-1.53.82-2.69v-4.28c0-1.18-.3-2.07-.91-2.68-.61-.61-1.42-.91-2.45-.91s-1.88.31-2.47.94c-.59.63-.89,1.51-.89,2.64v4.28c0,1.21.28,2.12.84,2.73.56.61,1.4.91,2.52.91Z"/>
        <path class="uuid-2bde9d98-8cfb-49f2-adf2-1a985ba64cb4" d="m29.75,29.86c-1.2,0-2.23-.2-3.12-.6-.88-.4-1.56-.97-2.05-1.73-.48-.75-.72-1.65-.72-2.69h2.99c0,.64.23,1.2.68,1.68.45.48,1.19.71,2.22.71s1.84-.27,2.39-.82c.55-.54.83-1.28.83-2.22v-1.66h-.41c-.26.31-.66.6-1.18.87-.53.28-1.31.41-2.36.41-.92,0-1.78-.2-2.58-.6-.8-.4-1.44-.98-1.93-1.74-.49-.76-.74-1.68-.74-2.75v-.28c0-1.07.25-2.01.76-2.81s1.22-1.42,2.14-1.87c.92-.45,1.99-.68,3.22-.68s2.29.23,3.2.69,1.6,1.1,2.09,1.91c.49.81.74,1.75.74,2.81v5.5c0,1.3-.26,2.39-.79,3.25-.53.87-1.26,1.51-2.19,1.94s-1.99.64-3.19.64Zm.09-8.37c.64,0,1.2-.12,1.67-.34.47-.23.83-.55,1.08-.97.25-.41.38-.9.38-1.47v-.18c0-.86-.28-1.54-.84-2.04-.56-.5-1.32-.75-2.29-.75s-1.73.25-2.29.75c-.56.5-.84,1.18-.84,2.04v.18c0,.57.13,1.06.38,1.47.25.41.62.74,1.09.97.47.23,1.03.34,1.66.34Z"/>
      </g>
    </g>
  </g>
</svg>