<?xml version="1.0" encoding="UTF-8"?>
<svg id="uuid-47a0ec03-2e2d-41d7-a782-d9cf70c0426a" data-name="圖層 2" xmlns="http://www.w3.org/2000/svg" viewBox="0 0 45 45">
  <defs>
    <style>
      .uuid-117b9719-f5ba-4c60-af48-47e4c250770a {
        fill: #fff;
      }

      .uuid-e94e02de-9c11-499e-aaa3-59e2d0955a5c {
        fill: #ff00b9;
      }
    </style>
  </defs>
  <g id="uuid-c760b429-a1ba-4c73-9ef7-dc70960e354c" data-name="圖層 2">
    <g>
      <circle class="uuid-e94e02de-9c11-499e-aaa3-59e2d0955a5c" cx="22.5" cy="22.5" r="22.5"/>
      <g>
        <path class="uuid-117b9719-f5ba-4c60-af48-47e4c250770a" d="m15.79,29.53v-13.94h-.41l-2.16,5.11h-3.08l3.29-7.27h5.31v16.1h-2.94Z"/>
        <path class="uuid-117b9719-f5ba-4c60-af48-47e4c250770a" d="m27.7,29.86c-1.9,0-3.43-.53-4.58-1.58-1.15-1.05-1.72-2.64-1.72-4.77v-4.05c0-2.07.57-3.65,1.72-4.73,1.15-1.08,2.68-1.62,4.58-1.62s3.45.54,4.59,1.62,1.71,2.66,1.71,4.73v4.05c0,2.13-.57,3.72-1.71,4.77-1.14,1.05-2.67,1.58-4.59,1.58Zm0-2.62c1.15,0,2-.31,2.54-.94.54-.63.82-1.53.82-2.69v-4.28c0-1.18-.3-2.07-.91-2.68-.61-.61-1.42-.91-2.45-.91s-1.88.31-2.47.94-.89,1.51-.89,2.64v4.28c0,1.21.28,2.12.84,2.73.56.61,1.4.91,2.52.91Z"/>
      </g>
    </g>
  </g>
</svg>