<?xml version="1.0" encoding="UTF-8"?>
<svg id="uuid-6098c2cf-b0ed-4aea-afa3-72dfdfb80fda" data-name="圖層 2" xmlns="http://www.w3.org/2000/svg" viewBox="0 0 45 45">
  <defs>
    <style>
      .uuid-b03f9d87-5c8d-4967-8e3a-6a7bc398dc1b {
        fill: #fff;
      }

      .uuid-0049378d-1eb6-4f16-a692-daf092e75f45 {
        fill: #ff00b9;
      }
    </style>
  </defs>
  <g id="uuid-8fa22f77-a6b8-4d2b-a091-3ea91bf78059" data-name="圖層 2">
    <g>
      <circle class="uuid-0049378d-1eb6-4f16-a692-daf092e75f45" cx="22.5" cy="22.5" r="22.5"/>
      <g>
        <path class="uuid-b03f9d87-5c8d-4967-8e3a-6a7bc398dc1b" d="m16.41,29.53v-13.94h-.41l-2.16,5.11h-3.08l3.29-7.27h5.31v16.1h-2.94Z"/>
        <path class="uuid-b03f9d87-5c8d-4967-8e3a-6a7bc398dc1b" d="m21.84,29.53v-1.93c0-1.12.18-2.05.55-2.79.37-.74.9-1.36,1.6-1.84.7-.48,1.55-.88,2.56-1.18l1.54-.48c.57-.18,1.04-.41,1.43-.68s.68-.59.89-.98c.21-.38.31-.82.31-1.31v-.09c0-.77-.26-1.38-.78-1.83-.52-.45-1.23-.68-2.14-.68s-1.61.24-2.15.72c-.54.48-.82,1.18-.82,2.08v.41h-2.94v-.37c0-1.17.26-2.15.78-2.97.52-.81,1.23-1.43,2.13-1.86s1.9-.64,3-.64,2.1.21,2.99.63c.89.42,1.59,1.01,2.1,1.77.51.76.77,1.65.77,2.68v.23c0,1.03-.21,1.9-.63,2.61s-.99,1.3-1.71,1.75-1.54.82-2.46,1.12l-1.47.46c-.66.2-1.17.42-1.54.66-.37.24-.62.5-.77.78-.15.28-.22.62-.22,1.02v.09h8.67v2.62h-11.68Z"/>
      </g>
    </g>
  </g>
</svg>