<?xml version="1.0" encoding="UTF-8"?>
<svg id="uuid-19d5fe86-69a9-438d-92ea-b221f99c9c2b" data-name="圖層 2" xmlns="http://www.w3.org/2000/svg" viewBox="0 0 45 45">
  <defs>
    <style>
      .uuid-4e7750a9-9622-4b89-a9a4-87a9e665a718 {
        fill: #fff;
      }

      .uuid-6a77ee4e-0f98-485c-9145-ecf59f76b844 {
        fill: #ff00b9;
      }
    </style>
  </defs>
  <g id="uuid-3e7b5c6e-6d36-4229-9e13-eebf22995235" data-name="圖層 2">
    <g>
      <circle class="uuid-6a77ee4e-0f98-485c-9145-ecf59f76b844" cx="22.5" cy="22.5" r="22.5"/>
      <g>
        <path class="uuid-4e7750a9-9622-4b89-a9a4-87a9e665a718" d="m16.25,29.53v-13.94h-.41l-2.16,5.11h-3.08l3.29-7.27h5.31v16.1h-2.94Z"/>
        <path class="uuid-4e7750a9-9622-4b89-a9a4-87a9e665a718" d="m27.7,29.86c-1.21,0-2.28-.21-3.22-.64-.94-.43-1.67-1.05-2.2-1.85s-.79-1.76-.79-2.86v-.41h2.94v.32c0,.86.3,1.54.9,2.06.6.51,1.39.77,2.37.77s1.77-.24,2.31-.71c.54-.48.82-1.07.82-1.79v-.23c0-.49-.12-.89-.37-1.2s-.57-.53-.99-.68-.88-.22-1.4-.22h-3.22v-3.22l5.2-2.76v-.37h-8.14v-2.62h11.41v3.91l-4.85,2.58v.37h.85c.72,0,1.42.15,2.1.44.68.29,1.25.74,1.69,1.35.44.61.67,1.39.67,2.36v.28c0,1.04-.25,1.95-.76,2.73-.51.77-1.22,1.37-2.13,1.79-.91.42-1.97.63-3.19.63Z"/>
      </g>
    </g>
  </g>
</svg>