<?xml version="1.0" encoding="UTF-8"?>
<svg id="uuid-4391637f-0c41-497b-8115-c662184528cb" data-name="圖層 2" xmlns="http://www.w3.org/2000/svg" viewBox="0 0 144 40">
  <g id="uuid-0c16d8b7-8194-4027-a711-5aff462318f0" data-name="介面">
    <g id="uuid-1ca923ce-2891-44eb-8fb0-3f0dbff93ba5" data-name="Bar">
      <g id="uuid-4c1ecf08-cfd3-4ffe-9802-c3f5d678b8e5" data-name="標準字">
        <g>
          <path d="m45.16,8.2c3.32.3,3.47,1.87,3.47,1.87l2.49-9.22s-3.1-.14-4.41.02c-5.32.67-8.82,3.33-10.21,6.9l.28-4.1h-9.81s0,0,0,0h-7.85s.24-3.64.24-3.64h-9.63s1.95.71,2.2,3.63H2.16s0,5.95,0,5.95h5.64c.16.68.35,1.53.58,2.55H3.08v5.96h9.21l-.14,2.07H2.16s0,5.95,0,5.95h9.13c-1.06,1.98-2.91,4.41-4.14,5.03-3.22,1.61-4.99-1.12-4.99-1.12l-2.16,9.79h0c7.33,0,9.29-3.39,10.49-8.21l1.22-4.96-.89,13.17h5.85l.83-12.17c.55.15,3,.9,2.4,2.48-.59,1.53-2.46.49-2.46.49l2.12,9.15c3.95-1.06,7-3.29,6.89-7.31-.11-4.03-3.72-4.83-3.72-4.83h-5.22l.1-1.5h8.89l.4-5.93h-8.89s.14-2.09.14-2.09h8.28l.02-.25.39-5.7h-3.96l.58-2.55h4.35l.32-4.71c.5.85.98,2.26,1.02,4.54l-.25,3.75s0,.07-.01.1h0s-1.79,26.55-1.79,26.55h7.25l1.25-18.5c9.24,2.43,4.38,14.65-.07,16.67l13.36,2.01c.95-12.31-1.02-19.39-13.21-19.91l.13-1.99h13.03v-5.96h-12.63l.07-1.09c1.14-.98,4.31-3.27,8.89-2.85Zm-26.88,3.95h-5.64l.18-2.55h5.67l-.22,2.55Z"/>
          <path d="m93.73,27.02s-.68,2.15-2.04,3.05c-2.57,1.69-5.52,1.58-8.53,1.58h-6.43l.41-6.14h13.52v-7.53h-13.02l.33-5h14.99v-6.76h-14.55l.41-6.19h-10.51s3.06,1.28,2.27,6.19h-6.94c-.65-4.06-3.92-5.42-3.92-5.42h-5.74s4.1,2.6,3.21,5.58c-.21.69-.6,1.21-1.08,1.6-2.68,1.84-4.21-.69-4.21-.69v10.82c3.28,0,8.22-1.12,10.55-5.12h7.79l-.33,5h-12.08v7.53h11.59l-.41,6.14h-17.11v8.17h41.82s0-8.17,0-8.17v-4.63Z"/>
          <path d="m131.73,30.46c-10.26,2.47-13.06,1.36-12.58-10.01,1.01-1.01,2.15-2.15,3.42-3.41l-.6,9.08h5.85l1-15.1c4.41-3.32,7.87-.81,5.77,2.34-.61.92-3.32,2.34-5.35-.64l3.01,13.17c6.39-2.03,9.67-6.2,10.65-8.28,4.07-8.64-3.59-18.3-13.78-10.87l.45-6.74h-9.05s2.61.89,2.75,6.71l-.39,5.85-3.41,3.35c.41-4.96,1.26-13.76,1.26-13.76h-9.44s3.19,1.09,2.71,8.7c-.29,3.05-.62,6.87-.99,11.4l-1.24,1.22h0c-1.55,1.37-3.21,2.72-4.88,3.95l.64-9.76h4.33l.65-7.53h-4.48l.54-8.17.15-1.91h-10.51s2.74.93,2.76,7.13l-.19,2.95h-4.72v7.53h4.22l-.92,13.92c-2.23.42-3.05-1.14-3.3-1.54v9.79h11.78c.14-2.37.78-4.69,1.65-6.84.83-2.05,1.95-3.97,3.29-5.73.02,7.08,1.98,12.56,10.72,12.56,12.57,0,19.94-2.59,19.94-2.59v-14.1s-2.7,5.05-11.69,7.33Z"/>
        </g>
      </g>
    </g>
  </g>
</svg>